<?xml version="1.0" encoding="UTF-8"?>
<svg xmlns="http://www.w3.org/2000/svg" xmlns:xlink="http://www.w3.org/1999/xlink" width="450pt" height="300pt" viewBox="0 0 450 300" version="1.1">
<defs>
<g>
<symbol overflow="visible" id="JroKxaGn0-0">
<path style="stroke:none;" d="M 0.59375 2.125 L 0.59375 -8.46875 L 6.59375 -8.46875 L 6.59375 2.125 Z M 1.265625 1.453125 L 5.9375 1.453125 L 5.9375 -7.78125 L 1.265625 -7.78125 Z M 1.265625 1.453125 "/>
</symbol>
<symbol overflow="visible" id="JroKxaGn0-1">
<path style="stroke:none;" d="M 4.109375 -7.578125 L 2.5 -3.234375 L 5.71875 -3.234375 Z M 3.4375 -8.75 L 4.78125 -8.75 L 8.109375 0 L 6.875 0 L 6.078125 -2.25 L 2.140625 -2.25 L 1.34375 0 L 0.09375 0 Z M 3.4375 -8.75 "/>
</symbol>
<symbol overflow="visible" id="JroKxaGn0-2">
<path style="stroke:none;" d="M 2.359375 -7.78125 L 2.359375 -0.96875 L 3.796875 -0.96875 C 5.003906 -0.96875 5.882812 -1.238281 6.4375 -1.78125 C 7 -2.332031 7.28125 -3.203125 7.28125 -4.390625 C 7.28125 -5.554688 7 -6.410156 6.4375 -6.953125 C 5.882812 -7.503906 5.003906 -7.78125 3.796875 -7.78125 Z M 1.171875 -8.75 L 3.609375 -8.75 C 5.304688 -8.75 6.550781 -8.394531 7.34375 -7.6875 C 8.132812 -6.988281 8.53125 -5.890625 8.53125 -4.390625 C 8.53125 -2.878906 8.128906 -1.769531 7.328125 -1.0625 C 6.535156 -0.351562 5.296875 0 3.609375 0 L 1.171875 0 Z M 1.171875 -8.75 "/>
</symbol>
<symbol overflow="visible" id="JroKxaGn1-0">
<path style="stroke:none;" d="M 0.59375 2.125 L 0.59375 -8.46875 L 6.59375 -8.46875 L 6.59375 2.125 Z M 1.265625 1.453125 L 5.9375 1.453125 L 5.9375 -7.78125 L 1.265625 -7.78125 Z M 1.265625 1.453125 "/>
</symbol>
<symbol overflow="visible" id="JroKxaGn1-1">
<path style="stroke:none;" d="M 2.359375 -4.171875 L 2.359375 -0.96875 L 4.265625 -0.96875 C 4.898438 -0.96875 5.367188 -1.097656 5.671875 -1.359375 C 5.984375 -1.628906 6.140625 -2.035156 6.140625 -2.578125 C 6.140625 -3.128906 5.984375 -3.53125 5.671875 -3.78125 C 5.367188 -4.039062 4.898438 -4.171875 4.265625 -4.171875 Z M 2.359375 -7.78125 L 2.359375 -5.140625 L 4.109375 -5.140625 C 4.691406 -5.140625 5.125 -5.25 5.40625 -5.46875 C 5.6875 -5.6875 5.828125 -6.015625 5.828125 -6.453125 C 5.828125 -6.898438 5.6875 -7.234375 5.40625 -7.453125 C 5.125 -7.671875 4.691406 -7.78125 4.109375 -7.78125 Z M 1.171875 -8.75 L 4.203125 -8.75 C 5.109375 -8.75 5.800781 -8.5625 6.28125 -8.1875 C 6.769531 -7.8125 7.015625 -7.28125 7.015625 -6.59375 C 7.015625 -6.050781 6.890625 -5.617188 6.640625 -5.296875 C 6.390625 -4.984375 6.023438 -4.789062 5.546875 -4.71875 C 6.128906 -4.59375 6.582031 -4.332031 6.90625 -3.9375 C 7.226562 -3.539062 7.390625 -3.046875 7.390625 -2.453125 C 7.390625 -1.671875 7.125 -1.066406 6.59375 -0.640625 C 6.0625 -0.210938 5.300781 0 4.3125 0 L 1.171875 0 Z M 1.171875 -8.75 "/>
</symbol>
<symbol overflow="visible" id="JroKxaGn1-2">
<path style="stroke:none;" d="M 7.734375 -8.078125 L 7.734375 -6.828125 C 7.328125 -7.203125 6.898438 -7.476562 6.453125 -7.65625 C 6.003906 -7.84375 5.523438 -7.9375 5.015625 -7.9375 C 4.015625 -7.9375 3.25 -7.628906 2.71875 -7.015625 C 2.1875 -6.398438 1.921875 -5.515625 1.921875 -4.359375 C 1.921875 -3.210938 2.1875 -2.332031 2.71875 -1.71875 C 3.25 -1.101562 4.015625 -0.796875 5.015625 -0.796875 C 5.523438 -0.796875 6.003906 -0.890625 6.453125 -1.078125 C 6.898438 -1.265625 7.328125 -1.539062 7.734375 -1.90625 L 7.734375 -0.671875 C 7.316406 -0.390625 6.875 -0.175781 6.40625 -0.03125 C 5.945312 0.101562 5.460938 0.171875 4.953125 0.171875 C 3.617188 0.171875 2.570312 -0.234375 1.8125 -1.046875 C 1.050781 -1.859375 0.671875 -2.960938 0.671875 -4.359375 C 0.671875 -5.765625 1.050781 -6.875 1.8125 -7.6875 C 2.570312 -8.5 3.617188 -8.90625 4.953125 -8.90625 C 5.472656 -8.90625 5.960938 -8.832031 6.421875 -8.6875 C 6.890625 -8.550781 7.328125 -8.347656 7.734375 -8.078125 Z M 7.734375 -8.078125 "/>
</symbol>
<symbol overflow="visible" id="JroKxaGn1-3">
<path style="stroke:none;" d="M 1.171875 -8.75 L 6.703125 -8.75 L 6.703125 -7.75 L 2.359375 -7.75 L 2.359375 -5.15625 L 6.53125 -5.15625 L 6.53125 -4.171875 L 2.359375 -4.171875 L 2.359375 -1 L 6.8125 -1 L 6.8125 0 L 1.171875 0 Z M 1.171875 -8.75 "/>
</symbol>
<symbol overflow="visible" id="JroKxaGn1-4">
<path style="stroke:none;" d="M 1.171875 -8.75 L 6.203125 -8.75 L 6.203125 -7.75 L 2.359375 -7.75 L 2.359375 -5.171875 L 5.828125 -5.171875 L 5.828125 -4.171875 L 2.359375 -4.171875 L 2.359375 0 L 1.171875 0 Z M 1.171875 -8.75 "/>
</symbol>
<symbol overflow="visible" id="JroKxaGn1-5">
<path style="stroke:none;" d="M 1.171875 -8.75 L 2.359375 -8.75 L 2.359375 -5.15625 L 6.65625 -5.15625 L 6.65625 -8.75 L 7.84375 -8.75 L 7.84375 0 L 6.65625 0 L 6.65625 -4.171875 L 2.359375 -4.171875 L 2.359375 0 L 1.171875 0 Z M 1.171875 -8.75 "/>
</symbol>
<symbol overflow="visible" id="JroKxaGn1-6">
<path style="stroke:none;" d="M 1.171875 -8.75 L 2.359375 -8.75 L 2.359375 -0.609375 C 2.359375 0.441406 2.15625 1.207031 1.75 1.6875 C 1.351562 2.164062 0.710938 2.40625 -0.171875 2.40625 L -0.625 2.40625 L -0.625 1.40625 L -0.25 1.40625 C 0.269531 1.40625 0.632812 1.257812 0.84375 0.96875 C 1.0625 0.675781 1.171875 0.148438 1.171875 -0.609375 Z M 1.171875 -8.75 "/>
</symbol>
<symbol overflow="visible" id="JroKxaGn2-0">
<path style="stroke:none;" d="M 0.59375 2.125 L 0.59375 -8.46875 L 6.59375 -8.46875 L 6.59375 2.125 Z M 1.265625 1.453125 L 5.9375 1.453125 L 5.9375 -7.78125 L 1.265625 -7.78125 Z M 1.265625 1.453125 "/>
</symbol>
<symbol overflow="visible" id="JroKxaGn2-1">
<path style="stroke:none;" d="M 7.140625 -1.25 L 7.140625 -3.59375 L 5.203125 -3.59375 L 5.203125 -4.578125 L 8.3125 -4.578125 L 8.3125 -0.8125 C 7.851562 -0.488281 7.347656 -0.242188 6.796875 -0.078125 C 6.253906 0.0859375 5.671875 0.171875 5.046875 0.171875 C 3.671875 0.171875 2.597656 -0.226562 1.828125 -1.03125 C 1.054688 -1.832031 0.671875 -2.941406 0.671875 -4.359375 C 0.671875 -5.796875 1.054688 -6.910156 1.828125 -7.703125 C 2.597656 -8.503906 3.671875 -8.90625 5.046875 -8.90625 C 5.609375 -8.90625 6.144531 -8.832031 6.65625 -8.6875 C 7.175781 -8.550781 7.65625 -8.347656 8.09375 -8.078125 L 8.09375 -6.8125 C 7.65625 -7.1875 7.1875 -7.46875 6.6875 -7.65625 C 6.195312 -7.84375 5.679688 -7.9375 5.140625 -7.9375 C 4.066406 -7.9375 3.257812 -7.632812 2.71875 -7.03125 C 2.1875 -6.4375 1.921875 -5.546875 1.921875 -4.359375 C 1.921875 -3.179688 2.1875 -2.289062 2.71875 -1.6875 C 3.257812 -1.09375 4.066406 -0.796875 5.140625 -0.796875 C 5.554688 -0.796875 5.925781 -0.832031 6.25 -0.90625 C 6.582031 -0.976562 6.878906 -1.09375 7.140625 -1.25 Z M 7.140625 -1.25 "/>
</symbol>
<symbol overflow="visible" id="JroKxaGn2-2">
<path style="stroke:none;" d="M 1.171875 -8.75 L 2.359375 -8.75 L 2.359375 0 L 1.171875 0 Z M 1.171875 -8.75 "/>
</symbol>
</g>
</defs>
<g id="surface1">
<rect x="0" y="0" width="450" height="300" style="fill:rgb(10.196079%,10.196079%,10.196079%);fill-opacity:1;stroke:none;"/>
<path style="fill:none;stroke-width:1;stroke-linecap:butt;stroke-linejoin:miter;stroke:rgb(100%,100%,100%);stroke-opacity:0.09;stroke-miterlimit:10;" d="M 54.729167 363 L 54.729167 16 " transform="matrix(0.75,0,0,0.75,0,0)"/>
<path style="fill:none;stroke-width:1;stroke-linecap:butt;stroke-linejoin:miter;stroke:rgb(100%,100%,100%);stroke-opacity:0.09;stroke-miterlimit:10;" d="M 109.234375 363 L 109.234375 16 " transform="matrix(0.75,0,0,0.75,0,0)"/>
<path style="fill:none;stroke-width:1;stroke-linecap:butt;stroke-linejoin:miter;stroke:rgb(100%,100%,100%);stroke-opacity:0.09;stroke-miterlimit:10;" d="M 163.739583 363 L 163.739583 16 " transform="matrix(0.75,0,0,0.75,0,0)"/>
<path style="fill:none;stroke-width:1;stroke-linecap:butt;stroke-linejoin:miter;stroke:rgb(100%,100%,100%);stroke-opacity:0.09;stroke-miterlimit:10;" d="M 218.244792 363 L 218.244792 16 " transform="matrix(0.75,0,0,0.75,0,0)"/>
<path style="fill:none;stroke-width:1;stroke-linecap:butt;stroke-linejoin:miter;stroke:rgb(100%,100%,100%);stroke-opacity:0.09;stroke-miterlimit:10;" d="M 272.75 363 L 272.75 16 " transform="matrix(0.75,0,0,0.75,0,0)"/>
<path style="fill:none;stroke-width:1;stroke-linecap:butt;stroke-linejoin:miter;stroke:rgb(100%,100%,100%);stroke-opacity:0.09;stroke-miterlimit:10;" d="M 327.25 363 L 327.25 16 " transform="matrix(0.75,0,0,0.75,0,0)"/>
<path style="fill:none;stroke-width:1;stroke-linecap:butt;stroke-linejoin:miter;stroke:rgb(100%,100%,100%);stroke-opacity:0.09;stroke-miterlimit:10;" d="M 381.755208 363 L 381.755208 16 " transform="matrix(0.75,0,0,0.75,0,0)"/>
<path style="fill:none;stroke-width:1;stroke-linecap:butt;stroke-linejoin:miter;stroke:rgb(100%,100%,100%);stroke-opacity:0.09;stroke-miterlimit:10;" d="M 436.260417 363 L 436.260417 16 " transform="matrix(0.75,0,0,0.75,0,0)"/>
<path style="fill:none;stroke-width:1;stroke-linecap:butt;stroke-linejoin:miter;stroke:rgb(100%,100%,100%);stroke-opacity:0.09;stroke-miterlimit:10;" d="M 490.765625 363 L 490.765625 16 " transform="matrix(0.75,0,0,0.75,0,0)"/>
<path style="fill:none;stroke-width:1;stroke-linecap:butt;stroke-linejoin:miter;stroke:rgb(100%,100%,100%);stroke-opacity:0.09;stroke-miterlimit:10;" d="M 545.270833 363 L 545.270833 16 " transform="matrix(0.75,0,0,0.75,0,0)"/>
<path style="fill:none;stroke-width:1;stroke-linecap:butt;stroke-linejoin:miter;stroke:rgb(100%,100%,100%);stroke-opacity:0.09;stroke-miterlimit:10;" d="M 16 347.229167 L 584 347.229167 " transform="matrix(0.75,0,0,0.75,0,0)"/>
<path style="fill:none;stroke-width:1;stroke-linecap:butt;stroke-linejoin:miter;stroke:rgb(100%,100%,100%);stroke-opacity:0.09;stroke-miterlimit:10;" d="M 16 219.463542 L 584 219.463542 " transform="matrix(0.75,0,0,0.75,0,0)"/>
<path style="fill:none;stroke-width:1;stroke-linecap:butt;stroke-linejoin:miter;stroke:rgb(100%,100%,100%);stroke-opacity:0.09;stroke-miterlimit:10;" d="M 16 91.697917 L 584 91.697917 " transform="matrix(0.75,0,0,0.75,0,0)"/>
<g style="fill:rgb(45.09804%,45.09804%,45.09804%);fill-opacity:1;">
  <use xlink:href="#JroKxaGn0-1" x="36.992188" y="285.640625"/>
</g>
<g style="fill:rgb(45.09804%,45.09804%,45.09804%);fill-opacity:1;">
  <use xlink:href="#JroKxaGn1-1" x="78.234375" y="285.640625"/>
</g>
<g style="fill:rgb(45.09804%,45.09804%,45.09804%);fill-opacity:1;">
  <use xlink:href="#JroKxaGn1-2" x="118.9375" y="285.640625"/>
</g>
<g style="fill:rgb(45.09804%,45.09804%,45.09804%);fill-opacity:1;">
  <use xlink:href="#JroKxaGn0-2" x="159.417969" y="285.640625"/>
</g>
<g style="fill:rgb(45.09804%,45.09804%,45.09804%);fill-opacity:1;">
  <use xlink:href="#JroKxaGn1-3" x="201.152344" y="285.640625"/>
</g>
<g style="fill:rgb(45.09804%,45.09804%,45.09804%);fill-opacity:1;">
  <use xlink:href="#JroKxaGn1-4" x="242.335938" y="285.640625"/>
</g>
<g style="fill:rgb(45.09804%,45.09804%,45.09804%);fill-opacity:1;">
  <use xlink:href="#JroKxaGn2-1" x="282.160156" y="285.640625"/>
</g>
<g style="fill:rgb(45.09804%,45.09804%,45.09804%);fill-opacity:1;">
  <use xlink:href="#JroKxaGn1-5" x="323.273438" y="285.640625"/>
</g>
<g style="fill:rgb(45.09804%,45.09804%,45.09804%);fill-opacity:1;">
  <use xlink:href="#JroKxaGn2-2" x="366.894531" y="285.640625"/>
</g>
<g style="fill:rgb(45.09804%,45.09804%,45.09804%);fill-opacity:1;">
  <use xlink:href="#JroKxaGn1-6" x="407.773438" y="285.640625"/>
</g>
<path style="fill-rule:nonzero;fill:rgb(98.836201%,99.836397%,64.492399%);fill-opacity:1;stroke-width:1;stroke-linecap:butt;stroke-linejoin:miter;stroke:rgb(100%,100%,100%);stroke-opacity:1;stroke-miterlimit:10;" d="M 41.817708 347.229167 L 67.635417 347.229167 L 67.635417 249.786458 L 41.817708 249.786458 Z M 41.817708 347.229167 " transform="matrix(0.75,0,0,0.75,0,0)"/>
<path style="fill-rule:nonzero;fill:rgb(96.967846%,81.824791%,23.699045%);fill-opacity:1;stroke-width:1;stroke-linecap:butt;stroke-linejoin:miter;stroke:rgb(100%,100%,100%);stroke-opacity:1;stroke-miterlimit:10;" d="M 96.322917 347.229167 L 122.140625 347.229167 L 122.140625 310.65625 L 96.322917 310.65625 Z M 96.322917 347.229167 " transform="matrix(0.75,0,0,0.75,0,0)"/>
<path style="fill-rule:nonzero;fill:rgb(98.34848%,60.40203%,3.436079%);fill-opacity:1;stroke-width:1;stroke-linecap:butt;stroke-linejoin:miter;stroke:rgb(100%,100%,100%);stroke-opacity:1;stroke-miterlimit:10;" d="M 150.828125 347.229167 L 176.645833 347.229167 L 176.645833 181.994792 L 150.828125 181.994792 Z M 150.828125 347.229167 " transform="matrix(0.75,0,0,0.75,0,0)"/>
<path style="fill-rule:nonzero;fill:rgb(92.801768%,41.268221%,14.487979%);fill-opacity:1;stroke-width:1;stroke-linecap:butt;stroke-linejoin:miter;stroke:rgb(100%,100%,100%);stroke-opacity:1;stroke-miterlimit:10;" d="M 205.333333 347.229167 L 231.151042 347.229167 L 231.151042 226.385417 L 205.333333 226.385417 Z M 205.333333 347.229167 " transform="matrix(0.75,0,0,0.75,0,0)"/>
<path style="fill-rule:nonzero;fill:rgb(80.931705%,26.706868%,27.528617%);fill-opacity:1;stroke-width:1;stroke-linecap:butt;stroke-linejoin:miter;stroke:rgb(100%,100%,100%);stroke-opacity:1;stroke-miterlimit:10;" d="M 259.838542 347.229167 L 285.65625 347.229167 L 285.65625 34.09375 L 259.838542 34.09375 Z M 259.838542 347.229167 " transform="matrix(0.75,0,0,0.75,0,0)"/>
<path style="fill-rule:nonzero;fill:rgb(64.794636%,17.549193%,37.598208%);fill-opacity:1;stroke-width:1;stroke-linecap:butt;stroke-linejoin:miter;stroke:rgb(100%,100%,100%);stroke-opacity:1;stroke-miterlimit:10;" d="M 314.34375 347.229167 L 340.161458 347.229167 L 340.161458 297.604167 L 314.34375 297.604167 Z M 314.34375 347.229167 " transform="matrix(0.75,0,0,0.75,0,0)"/>
<path style="fill-rule:nonzero;fill:rgb(47.235939%,11.042652%,42.695433%);fill-opacity:1;stroke-width:1;stroke-linecap:butt;stroke-linejoin:miter;stroke:rgb(100%,100%,100%);stroke-opacity:1;stroke-miterlimit:10;" d="M 368.848958 347.229167 L 394.666667 347.229167 L 394.666667 153.130208 L 368.848958 153.130208 Z M 368.848958 347.229167 " transform="matrix(0.75,0,0,0.75,0,0)"/>
<path style="fill-rule:nonzero;fill:rgb(29.471752%,4.803252%,41.761133%);fill-opacity:1;stroke-width:1;stroke-linecap:butt;stroke-linejoin:miter;stroke:rgb(100%,100%,100%);stroke-opacity:1;stroke-miterlimit:10;" d="M 423.354167 347.229167 L 449.171875 347.229167 L 449.171875 258.927083 L 423.354167 258.927083 Z M 423.354167 347.229167 " transform="matrix(0.75,0,0,0.75,0,0)"/>
<path style="fill-rule:nonzero;fill:rgb(10.751729%,4.558245%,25.509435%);fill-opacity:1;stroke-width:1;stroke-linecap:butt;stroke-linejoin:miter;stroke:rgb(100%,100%,100%);stroke-opacity:1;stroke-miterlimit:10;" d="M 477.859375 347.229167 L 503.677083 347.229167 L 503.677083 150.791667 L 477.859375 150.791667 Z M 477.859375 347.229167 " transform="matrix(0.75,0,0,0.75,0,0)"/>
<path style="fill-rule:nonzero;fill:rgb(0.1462%,0.0466%,1.3866%);fill-opacity:1;stroke-width:1;stroke-linecap:butt;stroke-linejoin:miter;stroke:rgb(100%,100%,100%);stroke-opacity:1;stroke-miterlimit:10;" d="M 532.364583 347.229167 L 558.182292 347.229167 L 558.182292 298.796875 L 532.364583 298.796875 Z M 532.364583 347.229167 " transform="matrix(0.75,0,0,0.75,0,0)"/>
<path style="fill:none;stroke-width:2;stroke-linecap:round;stroke-linejoin:miter;stroke:rgb(81.589001%,12.954%,5.5606%);stroke-opacity:1;stroke-miterlimit:10;" d="M 54.729167 291.401042 L 54.729167 208.161458 " transform="matrix(0.75,0,0,0.75,0,0)"/>
<path style="fill:none;stroke-width:2;stroke-linecap:round;stroke-linejoin:miter;stroke:rgb(90.175223%,17.84476%,32.244211%);stroke-opacity:1;stroke-miterlimit:10;" d="M 109.234375 332.036458 L 109.234375 289.270833 " transform="matrix(0.75,0,0,0.75,0,0)"/>
<path style="fill:none;stroke-width:2;stroke-linecap:round;stroke-linejoin:miter;stroke:rgb(92.249006%,30.824682%,54.490912%);stroke-opacity:1;stroke-miterlimit:10;" d="M 163.739583 202.432292 L 163.739583 161.552083 " transform="matrix(0.75,0,0,0.75,0,0)"/>
<path style="fill:none;stroke-width:2;stroke-linecap:round;stroke-linejoin:miter;stroke:rgb(88.716018%,44.844544%,73.469841%);stroke-opacity:1;stroke-miterlimit:10;" d="M 218.244792 282.15625 L 218.244792 170.609375 " transform="matrix(0.75,0,0,0.75,0,0)"/>
<path style="fill:none;stroke-width:2;stroke-linecap:round;stroke-linejoin:miter;stroke:rgb(81.871933%,57.890195%,87.436962%);stroke-opacity:1;stroke-miterlimit:10;" d="M 272.75 36.40625 L 272.75 31.770833 " transform="matrix(0.75,0,0,0.75,0,0)"/>
<path style="fill:none;stroke-width:2;stroke-linecap:round;stroke-linejoin:miter;stroke:rgb(75.168145%,69.38206%,95.885921%);stroke-opacity:1;stroke-miterlimit:10;" d="M 327.25 321.161458 L 327.25 274.041667 " transform="matrix(0.75,0,0,0.75,0,0)"/>
<path style="fill:none;stroke-width:2;stroke-linecap:round;stroke-linejoin:miter;stroke:rgb(72.467071%,79.235107%,99.455947%);stroke-opacity:1;stroke-miterlimit:10;" d="M 381.755208 177.109375 L 381.755208 129.145833 " transform="matrix(0.75,0,0,0.75,0,0)"/>
<path style="fill:none;stroke-width:2;stroke-linecap:round;stroke-linejoin:miter;stroke:rgb(76.39426%,87.506068%,99.765897%);stroke-opacity:1;stroke-miterlimit:10;" d="M 436.260417 265.796875 L 436.260417 252.052083 " transform="matrix(0.75,0,0,0.75,0,0)"/>
<path style="fill:none;stroke-width:2;stroke-linecap:round;stroke-linejoin:miter;stroke:rgb(86.325842%,94.366837%,99.174607%);stroke-opacity:1;stroke-miterlimit:10;" d="M 490.765625 167.203125 L 490.765625 134.380208 " transform="matrix(0.75,0,0,0.75,0,0)"/>
<path style="fill:none;stroke-width:2;stroke-linecap:round;stroke-linejoin:miter;stroke:rgb(99.985999%,100%,100%);stroke-opacity:1;stroke-miterlimit:10;" d="M 545.270833 304.578125 L 545.270833 293.015625 " transform="matrix(0.75,0,0,0.75,0,0)"/>
<path style="fill:none;stroke-width:2;stroke-linecap:round;stroke-linejoin:miter;stroke:rgb(81.589001%,12.954%,5.5606%);stroke-opacity:1;stroke-miterlimit:10;" d="M 49.729167 291.401042 L 59.729167 291.401042 " transform="matrix(0.75,0,0,0.75,0,0)"/>
<path style="fill:none;stroke-width:2;stroke-linecap:round;stroke-linejoin:miter;stroke:rgb(81.589001%,12.954%,5.5606%);stroke-opacity:1;stroke-miterlimit:10;" d="M 49.729167 208.161458 L 59.729167 208.161458 " transform="matrix(0.75,0,0,0.75,0,0)"/>
<path style="fill:none;stroke-width:2;stroke-linecap:round;stroke-linejoin:miter;stroke:rgb(90.175223%,17.84476%,32.244211%);stroke-opacity:1;stroke-miterlimit:10;" d="M 104.234375 332.036458 L 114.234375 332.036458 " transform="matrix(0.75,0,0,0.75,0,0)"/>
<path style="fill:none;stroke-width:2;stroke-linecap:round;stroke-linejoin:miter;stroke:rgb(90.175223%,17.84476%,32.244211%);stroke-opacity:1;stroke-miterlimit:10;" d="M 104.234375 289.270833 L 114.234375 289.270833 " transform="matrix(0.75,0,0,0.75,0,0)"/>
<path style="fill:none;stroke-width:2;stroke-linecap:round;stroke-linejoin:miter;stroke:rgb(92.249006%,30.824682%,54.490912%);stroke-opacity:1;stroke-miterlimit:10;" d="M 158.739583 202.432292 L 168.739583 202.432292 " transform="matrix(0.75,0,0,0.75,0,0)"/>
<path style="fill:none;stroke-width:2;stroke-linecap:round;stroke-linejoin:miter;stroke:rgb(92.249006%,30.824682%,54.490912%);stroke-opacity:1;stroke-miterlimit:10;" d="M 158.739583 161.552083 L 168.739583 161.552083 " transform="matrix(0.75,0,0,0.75,0,0)"/>
<path style="fill:none;stroke-width:2;stroke-linecap:round;stroke-linejoin:miter;stroke:rgb(88.716018%,44.844544%,73.469841%);stroke-opacity:1;stroke-miterlimit:10;" d="M 213.244792 282.15625 L 223.244792 282.15625 " transform="matrix(0.75,0,0,0.75,0,0)"/>
<path style="fill:none;stroke-width:2;stroke-linecap:round;stroke-linejoin:miter;stroke:rgb(88.716018%,44.844544%,73.469841%);stroke-opacity:1;stroke-miterlimit:10;" d="M 213.244792 170.609375 L 223.244792 170.609375 " transform="matrix(0.75,0,0,0.75,0,0)"/>
<path style="fill:none;stroke-width:2;stroke-linecap:round;stroke-linejoin:miter;stroke:rgb(81.871933%,57.890195%,87.436962%);stroke-opacity:1;stroke-miterlimit:10;" d="M 267.75 36.40625 L 277.75 36.40625 " transform="matrix(0.75,0,0,0.75,0,0)"/>
<path style="fill:none;stroke-width:2;stroke-linecap:round;stroke-linejoin:miter;stroke:rgb(81.871933%,57.890195%,87.436962%);stroke-opacity:1;stroke-miterlimit:10;" d="M 267.75 31.770833 L 277.75 31.770833 " transform="matrix(0.75,0,0,0.75,0,0)"/>
<path style="fill:none;stroke-width:2;stroke-linecap:round;stroke-linejoin:miter;stroke:rgb(75.168145%,69.38206%,95.885921%);stroke-opacity:1;stroke-miterlimit:10;" d="M 322.25 321.161458 L 332.25 321.161458 " transform="matrix(0.75,0,0,0.75,0,0)"/>
<path style="fill:none;stroke-width:2;stroke-linecap:round;stroke-linejoin:miter;stroke:rgb(75.168145%,69.38206%,95.885921%);stroke-opacity:1;stroke-miterlimit:10;" d="M 322.25 274.041667 L 332.25 274.041667 " transform="matrix(0.75,0,0,0.75,0,0)"/>
<path style="fill:none;stroke-width:2;stroke-linecap:round;stroke-linejoin:miter;stroke:rgb(72.467071%,79.235107%,99.455947%);stroke-opacity:1;stroke-miterlimit:10;" d="M 376.755208 177.109375 L 386.755208 177.109375 " transform="matrix(0.75,0,0,0.75,0,0)"/>
<path style="fill:none;stroke-width:2;stroke-linecap:round;stroke-linejoin:miter;stroke:rgb(72.467071%,79.235107%,99.455947%);stroke-opacity:1;stroke-miterlimit:10;" d="M 376.755208 129.145833 L 386.755208 129.145833 " transform="matrix(0.75,0,0,0.75,0,0)"/>
<path style="fill:none;stroke-width:2;stroke-linecap:round;stroke-linejoin:miter;stroke:rgb(76.39426%,87.506068%,99.765897%);stroke-opacity:1;stroke-miterlimit:10;" d="M 431.260417 265.796875 L 441.260417 265.796875 " transform="matrix(0.75,0,0,0.75,0,0)"/>
<path style="fill:none;stroke-width:2;stroke-linecap:round;stroke-linejoin:miter;stroke:rgb(76.39426%,87.506068%,99.765897%);stroke-opacity:1;stroke-miterlimit:10;" d="M 431.260417 252.052083 L 441.260417 252.052083 " transform="matrix(0.75,0,0,0.75,0,0)"/>
<path style="fill:none;stroke-width:2;stroke-linecap:round;stroke-linejoin:miter;stroke:rgb(86.325842%,94.366837%,99.174607%);stroke-opacity:1;stroke-miterlimit:10;" d="M 485.765625 167.203125 L 495.765625 167.203125 " transform="matrix(0.75,0,0,0.75,0,0)"/>
<path style="fill:none;stroke-width:2;stroke-linecap:round;stroke-linejoin:miter;stroke:rgb(86.325842%,94.366837%,99.174607%);stroke-opacity:1;stroke-miterlimit:10;" d="M 485.765625 134.380208 L 495.765625 134.380208 " transform="matrix(0.75,0,0,0.75,0,0)"/>
<path style="fill:none;stroke-width:2;stroke-linecap:round;stroke-linejoin:miter;stroke:rgb(99.985999%,100%,100%);stroke-opacity:1;stroke-miterlimit:10;" d="M 540.270833 304.578125 L 550.270833 304.578125 " transform="matrix(0.75,0,0,0.75,0,0)"/>
<path style="fill:none;stroke-width:2;stroke-linecap:round;stroke-linejoin:miter;stroke:rgb(99.985999%,100%,100%);stroke-opacity:1;stroke-miterlimit:10;" d="M 540.270833 293.015625 L 550.270833 293.015625 " transform="matrix(0.75,0,0,0.75,0,0)"/>
</g>
</svg>
