<?xml version="1.0" encoding="UTF-8"?>
<svg xmlns="http://www.w3.org/2000/svg" xmlns:xlink="http://www.w3.org/1999/xlink" width="450pt" height="300pt" viewBox="0 0 450 300" version="1.1">
<defs>
<g>
<symbol overflow="visible" id="33wUYpeY0-0">
<path style="stroke:none;" d="M 0.59375 2.125 L 0.59375 -8.46875 L 6.59375 -8.46875 L 6.59375 2.125 Z M 1.265625 1.453125 L 5.9375 1.453125 L 5.9375 -7.78125 L 1.265625 -7.78125 Z M 1.265625 1.453125 "/>
</symbol>
<symbol overflow="visible" id="33wUYpeY0-1">
<path style="stroke:none;" d="M 5.859375 -6.3125 L 5.859375 -5.296875 C 5.546875 -5.472656 5.238281 -5.601562 4.9375 -5.6875 C 4.632812 -5.769531 4.328125 -5.8125 4.015625 -5.8125 C 3.304688 -5.8125 2.757812 -5.585938 2.375 -5.140625 C 1.988281 -4.703125 1.796875 -4.082031 1.796875 -3.28125 C 1.796875 -2.476562 1.988281 -1.851562 2.375 -1.40625 C 2.757812 -0.96875 3.304688 -0.75 4.015625 -0.75 C 4.328125 -0.75 4.632812 -0.789062 4.9375 -0.875 C 5.238281 -0.957031 5.546875 -1.082031 5.859375 -1.25 L 5.859375 -0.25 C 5.554688 -0.113281 5.242188 -0.0078125 4.921875 0.0625 C 4.597656 0.132812 4.253906 0.171875 3.890625 0.171875 C 2.898438 0.171875 2.113281 -0.132812 1.53125 -0.75 C 0.945312 -1.375 0.65625 -2.21875 0.65625 -3.28125 C 0.65625 -4.34375 0.945312 -5.179688 1.53125 -5.796875 C 2.125 -6.410156 2.9375 -6.71875 3.96875 -6.71875 C 4.289062 -6.71875 4.609375 -6.679688 4.921875 -6.609375 C 5.242188 -6.546875 5.554688 -6.445312 5.859375 -6.3125 Z M 5.859375 -6.3125 "/>
</symbol>
<symbol overflow="visible" id="33wUYpeY0-2">
<path style="stroke:none;" d="M 4.109375 -3.296875 C 3.242188 -3.296875 2.640625 -3.195312 2.296875 -3 C 1.960938 -2.800781 1.796875 -2.460938 1.796875 -1.984375 C 1.796875 -1.597656 1.921875 -1.289062 2.171875 -1.0625 C 2.429688 -0.84375 2.773438 -0.734375 3.203125 -0.734375 C 3.804688 -0.734375 4.285156 -0.941406 4.640625 -1.359375 C 5.003906 -1.785156 5.1875 -2.351562 5.1875 -3.0625 L 5.1875 -3.296875 Z M 6.265625 -3.75 L 6.265625 0 L 5.1875 0 L 5.1875 -1 C 4.9375 -0.601562 4.628906 -0.304688 4.265625 -0.109375 C 3.898438 0.078125 3.453125 0.171875 2.921875 0.171875 C 2.242188 0.171875 1.707031 -0.015625 1.3125 -0.390625 C 0.914062 -0.773438 0.71875 -1.28125 0.71875 -1.90625 C 0.71875 -2.644531 0.960938 -3.203125 1.453125 -3.578125 C 1.953125 -3.953125 2.691406 -4.140625 3.671875 -4.140625 L 5.1875 -4.140625 L 5.1875 -4.25 C 5.1875 -4.75 5.019531 -5.132812 4.6875 -5.40625 C 4.363281 -5.675781 3.910156 -5.8125 3.328125 -5.8125 C 2.953125 -5.8125 2.582031 -5.765625 2.21875 -5.671875 C 1.863281 -5.578125 1.523438 -5.441406 1.203125 -5.265625 L 1.203125 -6.265625 C 1.597656 -6.421875 1.976562 -6.535156 2.34375 -6.609375 C 2.71875 -6.679688 3.082031 -6.71875 3.4375 -6.71875 C 4.382812 -6.71875 5.09375 -6.472656 5.5625 -5.984375 C 6.03125 -5.492188 6.265625 -4.75 6.265625 -3.75 Z M 6.265625 -3.75 "/>
</symbol>
<symbol overflow="visible" id="33wUYpeY0-3">
<path style="stroke:none;" d="M 1.484375 -1 L 3.421875 -1 L 3.421875 -7.671875 L 1.3125 -7.25 L 1.3125 -8.328125 L 3.40625 -8.75 L 4.59375 -8.75 L 4.59375 -1 L 6.53125 -1 L 6.53125 0 L 1.484375 0 Z M 1.484375 -1 "/>
</symbol>
<symbol overflow="visible" id="33wUYpeY0-4">
<path style="stroke:none;" d="M 4.109375 -7.578125 L 2.5 -3.234375 L 5.71875 -3.234375 Z M 3.4375 -8.75 L 4.78125 -8.75 L 8.109375 0 L 6.875 0 L 6.078125 -2.25 L 2.140625 -2.25 L 1.34375 0 L 0.09375 0 Z M 3.4375 -8.75 "/>
</symbol>
<symbol overflow="visible" id="33wUYpeY0-5">
<path style="stroke:none;" d="M 2.359375 -4.171875 L 2.359375 -0.96875 L 4.265625 -0.96875 C 4.898438 -0.96875 5.367188 -1.097656 5.671875 -1.359375 C 5.984375 -1.628906 6.140625 -2.035156 6.140625 -2.578125 C 6.140625 -3.128906 5.984375 -3.53125 5.671875 -3.78125 C 5.367188 -4.039062 4.898438 -4.171875 4.265625 -4.171875 Z M 2.359375 -7.78125 L 2.359375 -5.140625 L 4.109375 -5.140625 C 4.691406 -5.140625 5.125 -5.25 5.40625 -5.46875 C 5.6875 -5.6875 5.828125 -6.015625 5.828125 -6.453125 C 5.828125 -6.898438 5.6875 -7.234375 5.40625 -7.453125 C 5.125 -7.671875 4.691406 -7.78125 4.109375 -7.78125 Z M 1.171875 -8.75 L 4.203125 -8.75 C 5.109375 -8.75 5.800781 -8.5625 6.28125 -8.1875 C 6.769531 -7.8125 7.015625 -7.28125 7.015625 -6.59375 C 7.015625 -6.050781 6.890625 -5.617188 6.640625 -5.296875 C 6.390625 -4.984375 6.023438 -4.789062 5.546875 -4.71875 C 6.128906 -4.59375 6.582031 -4.332031 6.90625 -3.9375 C 7.226562 -3.539062 7.390625 -3.046875 7.390625 -2.453125 C 7.390625 -1.671875 7.125 -1.066406 6.59375 -0.640625 C 6.0625 -0.210938 5.300781 0 4.3125 0 L 1.171875 0 Z M 1.171875 -8.75 "/>
</symbol>
<symbol overflow="visible" id="33wUYpeY0-6">
<path style="stroke:none;" d="M 2.359375 -7.78125 L 2.359375 -0.96875 L 3.796875 -0.96875 C 5.003906 -0.96875 5.882812 -1.238281 6.4375 -1.78125 C 7 -2.332031 7.28125 -3.203125 7.28125 -4.390625 C 7.28125 -5.554688 7 -6.410156 6.4375 -6.953125 C 5.882812 -7.503906 5.003906 -7.78125 3.796875 -7.78125 Z M 1.171875 -8.75 L 3.609375 -8.75 C 5.304688 -8.75 6.550781 -8.394531 7.34375 -7.6875 C 8.132812 -6.988281 8.53125 -5.890625 8.53125 -4.390625 C 8.53125 -2.878906 8.128906 -1.769531 7.328125 -1.0625 C 6.535156 -0.351562 5.296875 0 3.609375 0 L 1.171875 0 Z M 1.171875 -8.75 "/>
</symbol>
<symbol overflow="visible" id="33wUYpeY0-7">
<path style="stroke:none;" d="M 1.171875 -8.75 L 6.703125 -8.75 L 6.703125 -7.75 L 2.359375 -7.75 L 2.359375 -5.15625 L 6.53125 -5.15625 L 6.53125 -4.171875 L 2.359375 -4.171875 L 2.359375 -1 L 6.8125 -1 L 6.8125 0 L 1.171875 0 Z M 1.171875 -8.75 "/>
</symbol>
<symbol overflow="visible" id="33wUYpeY0-8">
<path style="stroke:none;" d="M 1.171875 -8.75 L 6.203125 -8.75 L 6.203125 -7.75 L 2.359375 -7.75 L 2.359375 -5.171875 L 5.828125 -5.171875 L 5.828125 -4.171875 L 2.359375 -4.171875 L 2.359375 0 L 1.171875 0 Z M 1.171875 -8.75 "/>
</symbol>
<symbol overflow="visible" id="33wUYpeY0-9">
<path style="stroke:none;" d="M 6.75 -3.546875 L 6.75 -3.03125 L 1.78125 -3.03125 C 1.832031 -2.28125 2.054688 -1.710938 2.453125 -1.328125 C 2.859375 -0.941406 3.414062 -0.75 4.125 -0.75 C 4.539062 -0.75 4.941406 -0.796875 5.328125 -0.890625 C 5.722656 -0.992188 6.113281 -1.148438 6.5 -1.359375 L 6.5 -0.328125 C 6.101562 -0.171875 5.703125 -0.0507812 5.296875 0.03125 C 4.890625 0.125 4.476562 0.171875 4.0625 0.171875 C 3.019531 0.171875 2.191406 -0.128906 1.578125 -0.734375 C 0.960938 -1.347656 0.65625 -2.175781 0.65625 -3.21875 C 0.65625 -4.289062 0.945312 -5.140625 1.53125 -5.765625 C 2.113281 -6.398438 2.894531 -6.71875 3.875 -6.71875 C 4.757812 -6.71875 5.457031 -6.429688 5.96875 -5.859375 C 6.488281 -5.296875 6.75 -4.523438 6.75 -3.546875 Z M 5.671875 -3.875 C 5.660156 -4.457031 5.492188 -4.925781 5.171875 -5.28125 C 4.847656 -5.632812 4.421875 -5.8125 3.890625 -5.8125 C 3.285156 -5.8125 2.800781 -5.640625 2.4375 -5.296875 C 2.082031 -4.953125 1.878906 -4.472656 1.828125 -3.859375 Z M 5.671875 -3.875 "/>
</symbol>
<symbol overflow="visible" id="33wUYpeY0-10">
<path style="stroke:none;" d="M 4.9375 -5.5625 C 4.8125 -5.625 4.675781 -5.671875 4.53125 -5.703125 C 4.394531 -5.742188 4.238281 -5.765625 4.0625 -5.765625 C 3.457031 -5.765625 2.988281 -5.566406 2.65625 -5.171875 C 2.332031 -4.773438 2.171875 -4.203125 2.171875 -3.453125 L 2.171875 0 L 1.09375 0 L 1.09375 -6.5625 L 2.171875 -6.5625 L 2.171875 -5.546875 C 2.398438 -5.941406 2.695312 -6.234375 3.0625 -6.421875 C 3.425781 -6.617188 3.867188 -6.71875 4.390625 -6.71875 C 4.460938 -6.71875 4.539062 -6.710938 4.625 -6.703125 C 4.71875 -6.691406 4.816406 -6.675781 4.921875 -6.65625 Z M 4.9375 -5.5625 "/>
</symbol>
<symbol overflow="visible" id="33wUYpeY0-11">
<path style="stroke:none;" d="M 1.125 -6.5625 L 2.203125 -6.5625 L 2.203125 0 L 1.125 0 Z M 1.125 -9.125 L 2.203125 -9.125 L 2.203125 -7.75 L 1.125 -7.75 Z M 1.125 -9.125 "/>
</symbol>
<symbol overflow="visible" id="33wUYpeY0-12">
<path style="stroke:none;" d="M 1.125 -9.125 L 2.203125 -9.125 L 2.203125 0 L 1.125 0 Z M 1.125 -9.125 "/>
</symbol>
<symbol overflow="visible" id="33wUYpeY1-0">
<path style="stroke:none;" d="M 0.59375 2.125 L 0.59375 -8.46875 L 6.59375 -8.46875 L 6.59375 2.125 Z M 1.265625 1.453125 L 5.9375 1.453125 L 5.9375 -7.78125 L 1.265625 -7.78125 Z M 1.265625 1.453125 "/>
</symbol>
<symbol overflow="visible" id="33wUYpeY1-1">
<path style="stroke:none;" d="M 2.203125 -8.421875 L 2.203125 -6.5625 L 4.421875 -6.5625 L 4.421875 -5.71875 L 2.203125 -5.71875 L 2.203125 -2.15625 C 2.203125 -1.625 2.273438 -1.28125 2.421875 -1.125 C 2.566406 -0.976562 2.863281 -0.90625 3.3125 -0.90625 L 4.421875 -0.90625 L 4.421875 0 L 3.3125 0 C 2.476562 0 1.898438 -0.15625 1.578125 -0.46875 C 1.265625 -0.78125 1.109375 -1.34375 1.109375 -2.15625 L 1.109375 -5.71875 L 0.328125 -5.71875 L 0.328125 -6.5625 L 1.109375 -6.5625 L 1.109375 -8.421875 Z M 2.203125 -8.421875 "/>
</symbol>
<symbol overflow="visible" id="33wUYpeY1-2">
<path style="stroke:none;" d=""/>
</symbol>
<symbol overflow="visible" id="33wUYpeY2-0">
<path style="stroke:none;" d="M 0.59375 2.125 L 0.59375 -8.46875 L 6.59375 -8.46875 L 6.59375 2.125 Z M 1.265625 1.453125 L 5.9375 1.453125 L 5.9375 -7.78125 L 1.265625 -7.78125 Z M 1.265625 1.453125 "/>
</symbol>
<symbol overflow="visible" id="33wUYpeY2-1">
<path style="stroke:none;" d="M 7.734375 -8.078125 L 7.734375 -6.828125 C 7.328125 -7.203125 6.898438 -7.476562 6.453125 -7.65625 C 6.003906 -7.84375 5.523438 -7.9375 5.015625 -7.9375 C 4.015625 -7.9375 3.25 -7.628906 2.71875 -7.015625 C 2.1875 -6.398438 1.921875 -5.515625 1.921875 -4.359375 C 1.921875 -3.210938 2.1875 -2.332031 2.71875 -1.71875 C 3.25 -1.101562 4.015625 -0.796875 5.015625 -0.796875 C 5.523438 -0.796875 6.003906 -0.890625 6.453125 -1.078125 C 6.898438 -1.265625 7.328125 -1.539062 7.734375 -1.90625 L 7.734375 -0.671875 C 7.316406 -0.390625 6.875 -0.175781 6.40625 -0.03125 C 5.945312 0.101562 5.460938 0.171875 4.953125 0.171875 C 3.617188 0.171875 2.570312 -0.234375 1.8125 -1.046875 C 1.050781 -1.859375 0.671875 -2.960938 0.671875 -4.359375 C 0.671875 -5.765625 1.050781 -6.875 1.8125 -7.6875 C 2.570312 -8.5 3.617188 -8.90625 4.953125 -8.90625 C 5.472656 -8.90625 5.960938 -8.832031 6.421875 -8.6875 C 6.890625 -8.550781 7.328125 -8.347656 7.734375 -8.078125 Z M 7.734375 -8.078125 "/>
</symbol>
<symbol overflow="visible" id="33wUYpeY3-0">
<path style="stroke:none;" d="M 2.125 -0.59375 L -8.46875 -0.59375 L -8.46875 -6.59375 L 2.125 -6.59375 Z M 1.453125 -1.265625 L 1.453125 -5.9375 L -7.78125 -5.9375 L -7.78125 -1.265625 Z M 1.453125 -1.265625 "/>
</symbol>
<symbol overflow="visible" id="33wUYpeY3-1">
<path style="stroke:none;" d="M -6.3125 -5.859375 L -5.296875 -5.859375 C -5.472656 -5.546875 -5.601562 -5.238281 -5.6875 -4.9375 C -5.769531 -4.632812 -5.8125 -4.328125 -5.8125 -4.015625 C -5.8125 -3.304688 -5.585938 -2.757812 -5.140625 -2.375 C -4.703125 -1.988281 -4.082031 -1.796875 -3.28125 -1.796875 C -2.476562 -1.796875 -1.851562 -1.988281 -1.40625 -2.375 C -0.96875 -2.757812 -0.75 -3.304688 -0.75 -4.015625 C -0.75 -4.328125 -0.789062 -4.632812 -0.875 -4.9375 C -0.957031 -5.238281 -1.082031 -5.546875 -1.25 -5.859375 L -0.25 -5.859375 C -0.113281 -5.554688 -0.0078125 -5.242188 0.0625 -4.921875 C 0.132812 -4.597656 0.171875 -4.253906 0.171875 -3.890625 C 0.171875 -2.898438 -0.132812 -2.113281 -0.75 -1.53125 C -1.375 -0.945312 -2.21875 -0.65625 -3.28125 -0.65625 C -4.34375 -0.65625 -5.179688 -0.945312 -5.796875 -1.53125 C -6.410156 -2.125 -6.71875 -2.9375 -6.71875 -3.96875 C -6.71875 -4.289062 -6.679688 -4.609375 -6.609375 -4.921875 C -6.546875 -5.242188 -6.445312 -5.554688 -6.3125 -5.859375 Z M -6.3125 -5.859375 "/>
</symbol>
<symbol overflow="visible" id="33wUYpeY3-2">
<path style="stroke:none;" d="M -3.296875 -4.109375 C -3.296875 -3.242188 -3.195312 -2.640625 -3 -2.296875 C -2.800781 -1.960938 -2.460938 -1.796875 -1.984375 -1.796875 C -1.597656 -1.796875 -1.289062 -1.921875 -1.0625 -2.171875 C -0.84375 -2.429688 -0.734375 -2.773438 -0.734375 -3.203125 C -0.734375 -3.804688 -0.941406 -4.285156 -1.359375 -4.640625 C -1.785156 -5.003906 -2.351562 -5.1875 -3.0625 -5.1875 L -3.296875 -5.1875 Z M -3.75 -6.265625 L 0 -6.265625 L 0 -5.1875 L -1 -5.1875 C -0.601562 -4.9375 -0.304688 -4.628906 -0.109375 -4.265625 C 0.078125 -3.898438 0.171875 -3.453125 0.171875 -2.921875 C 0.171875 -2.242188 -0.015625 -1.707031 -0.390625 -1.3125 C -0.773438 -0.914062 -1.28125 -0.71875 -1.90625 -0.71875 C -2.644531 -0.71875 -3.203125 -0.960938 -3.578125 -1.453125 C -3.953125 -1.953125 -4.140625 -2.691406 -4.140625 -3.671875 L -4.140625 -5.1875 L -4.25 -5.1875 C -4.75 -5.1875 -5.132812 -5.019531 -5.40625 -4.6875 C -5.675781 -4.363281 -5.8125 -3.910156 -5.8125 -3.328125 C -5.8125 -2.953125 -5.765625 -2.582031 -5.671875 -2.21875 C -5.578125 -1.863281 -5.441406 -1.523438 -5.265625 -1.203125 L -6.265625 -1.203125 C -6.421875 -1.597656 -6.535156 -1.976562 -6.609375 -2.34375 C -6.679688 -2.71875 -6.71875 -3.082031 -6.71875 -3.4375 C -6.71875 -4.382812 -6.472656 -5.09375 -5.984375 -5.5625 C -5.492188 -6.03125 -4.75 -6.265625 -3.75 -6.265625 Z M -3.75 -6.265625 "/>
</symbol>
<symbol overflow="visible" id="33wUYpeY3-3">
<path style="stroke:none;" d="M -8.421875 -2.203125 L -6.5625 -2.203125 L -6.5625 -4.421875 L -5.71875 -4.421875 L -5.71875 -2.203125 L -2.15625 -2.203125 C -1.625 -2.203125 -1.28125 -2.273438 -1.125 -2.421875 C -0.976562 -2.566406 -0.90625 -2.863281 -0.90625 -3.3125 L -0.90625 -4.421875 L 0 -4.421875 L 0 -3.3125 C 0 -2.476562 -0.15625 -1.898438 -0.46875 -1.578125 C -0.78125 -1.265625 -1.34375 -1.109375 -2.15625 -1.109375 L -5.71875 -1.109375 L -5.71875 -0.328125 L -6.5625 -0.328125 L -6.5625 -1.109375 L -8.421875 -1.109375 Z M -8.421875 -2.203125 "/>
</symbol>
<symbol overflow="visible" id="33wUYpeY3-4">
<path style="stroke:none;" d=""/>
</symbol>
<symbol overflow="visible" id="33wUYpeY4-0">
<path style="stroke:none;" d="M 2.125 -0.59375 L -8.46875 -0.59375 L -8.46875 -6.59375 L 2.125 -6.59375 Z M 1.453125 -1.265625 L 1.453125 -5.9375 L -7.78125 -5.9375 L -7.78125 -1.265625 Z M 1.453125 -1.265625 "/>
</symbol>
<symbol overflow="visible" id="33wUYpeY4-1">
<path style="stroke:none;" d="M -1 -2.296875 L -1 -6.4375 L 0 -6.4375 L 0 -0.875 L -1 -0.875 C -1.457031 -1.320312 -2.078125 -1.929688 -2.859375 -2.703125 C -3.648438 -3.484375 -4.160156 -3.972656 -4.390625 -4.171875 C -4.804688 -4.554688 -5.160156 -4.820312 -5.453125 -4.96875 C -5.753906 -5.125 -6.046875 -5.203125 -6.328125 -5.203125 C -6.796875 -5.203125 -7.175781 -5.035156 -7.46875 -4.703125 C -7.757812 -4.378906 -7.90625 -3.957031 -7.90625 -3.4375 C -7.90625 -3.0625 -7.84375 -2.664062 -7.71875 -2.25 C -7.59375 -1.84375 -7.394531 -1.40625 -7.125 -0.9375 L -8.328125 -0.9375 C -8.515625 -1.414062 -8.65625 -1.859375 -8.75 -2.265625 C -8.851562 -2.679688 -8.90625 -3.0625 -8.90625 -3.40625 C -8.90625 -4.3125 -8.675781 -5.035156 -8.21875 -5.578125 C -7.769531 -6.117188 -7.164062 -6.390625 -6.40625 -6.390625 C -6.050781 -6.390625 -5.710938 -6.320312 -5.390625 -6.1875 C -5.066406 -6.050781 -4.6875 -5.804688 -4.25 -5.453125 C -4.132812 -5.347656 -3.804688 -5.035156 -3.265625 -4.515625 C -2.722656 -3.992188 -1.96875 -3.253906 -1 -2.296875 Z M -1 -2.296875 "/>
</symbol>
<symbol overflow="visible" id="33wUYpeY5-0">
<path style="stroke:none;" d="M 0.59375 2.125 L 0.59375 -8.46875 L 6.59375 -8.46875 L 6.59375 2.125 Z M 1.265625 1.453125 L 5.9375 1.453125 L 5.9375 -7.78125 L 1.265625 -7.78125 Z M 1.265625 1.453125 "/>
</symbol>
<symbol overflow="visible" id="33wUYpeY5-1">
<path style="stroke:none;" d="M 6.59375 -3.96875 L 6.59375 0 L 5.515625 0 L 5.515625 -3.921875 C 5.515625 -4.546875 5.390625 -5.007812 5.140625 -5.3125 C 4.898438 -5.625 4.539062 -5.78125 4.0625 -5.78125 C 3.476562 -5.78125 3.015625 -5.59375 2.671875 -5.21875 C 2.335938 -4.851562 2.171875 -4.347656 2.171875 -3.703125 L 2.171875 0 L 1.09375 0 L 1.09375 -9.125 L 2.171875 -9.125 L 2.171875 -5.546875 C 2.429688 -5.941406 2.734375 -6.234375 3.078125 -6.421875 C 3.429688 -6.617188 3.835938 -6.71875 4.296875 -6.71875 C 5.046875 -6.71875 5.613281 -6.484375 6 -6.015625 C 6.394531 -5.554688 6.59375 -4.875 6.59375 -3.96875 Z M 6.59375 -3.96875 "/>
</symbol>
<symbol overflow="visible" id="33wUYpeY5-2">
<path style="stroke:none;" d="M 6.59375 -3.96875 L 6.59375 0 L 5.515625 0 L 5.515625 -3.921875 C 5.515625 -4.546875 5.390625 -5.007812 5.140625 -5.3125 C 4.898438 -5.625 4.539062 -5.78125 4.0625 -5.78125 C 3.476562 -5.78125 3.015625 -5.59375 2.671875 -5.21875 C 2.335938 -4.851562 2.171875 -4.347656 2.171875 -3.703125 L 2.171875 0 L 1.09375 0 L 1.09375 -6.5625 L 2.171875 -6.5625 L 2.171875 -5.546875 C 2.429688 -5.941406 2.734375 -6.234375 3.078125 -6.421875 C 3.429688 -6.617188 3.835938 -6.71875 4.296875 -6.71875 C 5.046875 -6.71875 5.613281 -6.484375 6 -6.015625 C 6.394531 -5.554688 6.59375 -4.875 6.59375 -3.96875 Z M 6.59375 -3.96875 "/>
</symbol>
<symbol overflow="visible" id="33wUYpeY5-3">
<path style="stroke:none;" d="M 1.125 -9.125 L 2.203125 -9.125 L 2.203125 0 L 1.125 0 Z M 1.125 -9.125 "/>
</symbol>
<symbol overflow="visible" id="33wUYpeY6-0">
<path style="stroke:none;" d="M 0.59375 2.125 L 0.59375 -8.46875 L 6.59375 -8.46875 L 6.59375 2.125 Z M 1.265625 1.453125 L 5.9375 1.453125 L 5.9375 -7.78125 L 1.265625 -7.78125 Z M 1.265625 1.453125 "/>
</symbol>
<symbol overflow="visible" id="33wUYpeY6-1">
<path style="stroke:none;" d="M 3.671875 -5.8125 C 3.097656 -5.8125 2.640625 -5.582031 2.296875 -5.125 C 1.960938 -4.675781 1.796875 -4.0625 1.796875 -3.28125 C 1.796875 -2.488281 1.960938 -1.867188 2.296875 -1.421875 C 2.628906 -0.972656 3.085938 -0.75 3.671875 -0.75 C 4.242188 -0.75 4.695312 -0.972656 5.03125 -1.421875 C 5.375 -1.878906 5.546875 -2.5 5.546875 -3.28125 C 5.546875 -4.050781 5.375 -4.664062 5.03125 -5.125 C 4.695312 -5.582031 4.242188 -5.8125 3.671875 -5.8125 Z M 3.671875 -6.71875 C 4.609375 -6.71875 5.34375 -6.410156 5.875 -5.796875 C 6.414062 -5.191406 6.6875 -4.351562 6.6875 -3.28125 C 6.6875 -2.207031 6.414062 -1.363281 5.875 -0.75 C 5.34375 -0.132812 4.609375 0.171875 3.671875 0.171875 C 2.734375 0.171875 1.992188 -0.132812 1.453125 -0.75 C 0.921875 -1.363281 0.65625 -2.207031 0.65625 -3.28125 C 0.65625 -4.351562 0.921875 -5.191406 1.453125 -5.796875 C 1.992188 -6.410156 2.734375 -6.71875 3.671875 -6.71875 Z M 3.671875 -6.71875 "/>
</symbol>
<symbol overflow="visible" id="33wUYpeY6-2">
<path style="stroke:none;" d="M 4.9375 -5.5625 C 4.8125 -5.625 4.675781 -5.671875 4.53125 -5.703125 C 4.394531 -5.742188 4.238281 -5.765625 4.0625 -5.765625 C 3.457031 -5.765625 2.988281 -5.566406 2.65625 -5.171875 C 2.332031 -4.773438 2.171875 -4.203125 2.171875 -3.453125 L 2.171875 0 L 1.09375 0 L 1.09375 -6.5625 L 2.171875 -6.5625 L 2.171875 -5.546875 C 2.398438 -5.941406 2.695312 -6.234375 3.0625 -6.421875 C 3.425781 -6.617188 3.867188 -6.71875 4.390625 -6.71875 C 4.460938 -6.71875 4.539062 -6.710938 4.625 -6.703125 C 4.71875 -6.691406 4.816406 -6.675781 4.921875 -6.65625 Z M 4.9375 -5.5625 "/>
</symbol>
<symbol overflow="visible" id="33wUYpeY7-0">
<path style="stroke:none;" d="M 0.59375 2.125 L 0.59375 -8.46875 L 6.59375 -8.46875 L 6.59375 2.125 Z M 1.265625 1.453125 L 5.9375 1.453125 L 5.9375 -7.78125 L 1.265625 -7.78125 Z M 1.265625 1.453125 "/>
</symbol>
<symbol overflow="visible" id="33wUYpeY7-1">
<path style="stroke:none;" d="M 1.125 -6.5625 L 2.203125 -6.5625 L 2.203125 0 L 1.125 0 Z M 1.125 -9.125 L 2.203125 -9.125 L 2.203125 -7.75 L 1.125 -7.75 Z M 1.125 -9.125 "/>
</symbol>
<symbol overflow="visible" id="33wUYpeY8-0">
<path style="stroke:none;" d="M 0.59375 2.125 L 0.59375 -8.46875 L 6.59375 -8.46875 L 6.59375 2.125 Z M 1.265625 1.453125 L 5.9375 1.453125 L 5.9375 -7.78125 L 1.265625 -7.78125 Z M 1.265625 1.453125 "/>
</symbol>
<symbol overflow="visible" id="33wUYpeY8-1">
<path style="stroke:none;" d="M 0.65625 -6.5625 L 5.78125 -6.5625 L 5.78125 -5.578125 L 1.734375 -0.859375 L 5.78125 -0.859375 L 5.78125 0 L 0.515625 0 L 0.515625 -0.984375 L 4.578125 -5.703125 L 0.65625 -5.703125 Z M 0.65625 -6.5625 "/>
</symbol>
<symbol overflow="visible" id="33wUYpeY8-2">
<path style="stroke:none;" d="M 4.109375 -3.296875 C 3.242188 -3.296875 2.640625 -3.195312 2.296875 -3 C 1.960938 -2.800781 1.796875 -2.460938 1.796875 -1.984375 C 1.796875 -1.597656 1.921875 -1.289062 2.171875 -1.0625 C 2.429688 -0.84375 2.773438 -0.734375 3.203125 -0.734375 C 3.804688 -0.734375 4.285156 -0.941406 4.640625 -1.359375 C 5.003906 -1.785156 5.1875 -2.351562 5.1875 -3.0625 L 5.1875 -3.296875 Z M 6.265625 -3.75 L 6.265625 0 L 5.1875 0 L 5.1875 -1 C 4.9375 -0.601562 4.628906 -0.304688 4.265625 -0.109375 C 3.898438 0.078125 3.453125 0.171875 2.921875 0.171875 C 2.242188 0.171875 1.707031 -0.015625 1.3125 -0.390625 C 0.914062 -0.773438 0.71875 -1.28125 0.71875 -1.90625 C 0.71875 -2.644531 0.960938 -3.203125 1.453125 -3.578125 C 1.953125 -3.953125 2.691406 -4.140625 3.671875 -4.140625 L 5.1875 -4.140625 L 5.1875 -4.25 C 5.1875 -4.75 5.019531 -5.132812 4.6875 -5.40625 C 4.363281 -5.675781 3.910156 -5.8125 3.328125 -5.8125 C 2.953125 -5.8125 2.582031 -5.765625 2.21875 -5.671875 C 1.863281 -5.578125 1.523438 -5.441406 1.203125 -5.265625 L 1.203125 -6.265625 C 1.597656 -6.421875 1.976562 -6.535156 2.34375 -6.609375 C 2.71875 -6.679688 3.082031 -6.71875 3.4375 -6.71875 C 4.382812 -6.71875 5.09375 -6.472656 5.5625 -5.984375 C 6.03125 -5.492188 6.265625 -4.75 6.265625 -3.75 Z M 6.265625 -3.75 "/>
</symbol>
<symbol overflow="visible" id="33wUYpeY9-0">
<path style="stroke:none;" d="M 0.59375 2.125 L 0.59375 -8.46875 L 6.59375 -8.46875 L 6.59375 2.125 Z M 1.265625 1.453125 L 5.9375 1.453125 L 5.9375 -7.78125 L 1.265625 -7.78125 Z M 1.265625 1.453125 "/>
</symbol>
<symbol overflow="visible" id="33wUYpeY9-1">
<path style="stroke:none;" d="M 3.671875 -5.8125 C 3.097656 -5.8125 2.640625 -5.582031 2.296875 -5.125 C 1.960938 -4.675781 1.796875 -4.0625 1.796875 -3.28125 C 1.796875 -2.488281 1.960938 -1.867188 2.296875 -1.421875 C 2.628906 -0.972656 3.085938 -0.75 3.671875 -0.75 C 4.242188 -0.75 4.695312 -0.972656 5.03125 -1.421875 C 5.375 -1.878906 5.546875 -2.5 5.546875 -3.28125 C 5.546875 -4.050781 5.375 -4.664062 5.03125 -5.125 C 4.695312 -5.582031 4.242188 -5.8125 3.671875 -5.8125 Z M 3.671875 -6.71875 C 4.609375 -6.71875 5.34375 -6.410156 5.875 -5.796875 C 6.414062 -5.191406 6.6875 -4.351562 6.6875 -3.28125 C 6.6875 -2.207031 6.414062 -1.363281 5.875 -0.75 C 5.34375 -0.132812 4.609375 0.171875 3.671875 0.171875 C 2.734375 0.171875 1.992188 -0.132812 1.453125 -0.75 C 0.921875 -1.363281 0.65625 -2.207031 0.65625 -3.28125 C 0.65625 -4.351562 0.921875 -5.191406 1.453125 -5.796875 C 1.992188 -6.410156 2.734375 -6.71875 3.671875 -6.71875 Z M 3.671875 -6.71875 "/>
</symbol>
<symbol overflow="visible" id="33wUYpeY9-2">
<path style="stroke:none;" d="M 2.203125 -8.421875 L 2.203125 -6.5625 L 4.421875 -6.5625 L 4.421875 -5.71875 L 2.203125 -5.71875 L 2.203125 -2.15625 C 2.203125 -1.625 2.273438 -1.28125 2.421875 -1.125 C 2.566406 -0.976562 2.863281 -0.90625 3.3125 -0.90625 L 4.421875 -0.90625 L 4.421875 0 L 3.3125 0 C 2.476562 0 1.898438 -0.15625 1.578125 -0.46875 C 1.265625 -0.78125 1.109375 -1.34375 1.109375 -2.15625 L 1.109375 -5.71875 L 0.328125 -5.71875 L 0.328125 -6.5625 L 1.109375 -6.5625 L 1.109375 -8.421875 Z M 2.203125 -8.421875 "/>
</symbol>
<symbol overflow="visible" id="33wUYpeY10-0">
<path style="stroke:none;" d="M 0.59375 2.125 L 0.59375 -8.46875 L 6.59375 -8.46875 L 6.59375 2.125 Z M 1.265625 1.453125 L 5.9375 1.453125 L 5.9375 -7.78125 L 1.265625 -7.78125 Z M 1.265625 1.453125 "/>
</symbol>
<symbol overflow="visible" id="33wUYpeY10-1">
<path style="stroke:none;" d="M 0.359375 -6.5625 L 1.5 -6.5625 L 3.546875 -1.0625 L 5.609375 -6.5625 L 6.75 -6.5625 L 4.28125 0 L 2.8125 0 Z M 0.359375 -6.5625 "/>
</symbol>
<symbol overflow="visible" id="33wUYpeY10-2">
<path style="stroke:none;" d="M 2.203125 -8.421875 L 2.203125 -6.5625 L 4.421875 -6.5625 L 4.421875 -5.71875 L 2.203125 -5.71875 L 2.203125 -2.15625 C 2.203125 -1.625 2.273438 -1.28125 2.421875 -1.125 C 2.566406 -0.976562 2.863281 -0.90625 3.3125 -0.90625 L 4.421875 -0.90625 L 4.421875 0 L 3.3125 0 C 2.476562 0 1.898438 -0.15625 1.578125 -0.46875 C 1.265625 -0.78125 1.109375 -1.34375 1.109375 -2.15625 L 1.109375 -5.71875 L 0.328125 -5.71875 L 0.328125 -6.5625 L 1.109375 -6.5625 L 1.109375 -8.421875 Z M 2.203125 -8.421875 "/>
</symbol>
<symbol overflow="visible" id="33wUYpeY11-0">
<path style="stroke:none;" d="M 0.59375 2.125 L 0.59375 -8.46875 L 6.59375 -8.46875 L 6.59375 2.125 Z M 1.265625 1.453125 L 5.9375 1.453125 L 5.9375 -7.78125 L 1.265625 -7.78125 Z M 1.265625 1.453125 "/>
</symbol>
<symbol overflow="visible" id="33wUYpeY11-1">
<path style="stroke:none;" d="M 5.859375 -6.3125 L 5.859375 -5.296875 C 5.546875 -5.472656 5.238281 -5.601562 4.9375 -5.6875 C 4.632812 -5.769531 4.328125 -5.8125 4.015625 -5.8125 C 3.304688 -5.8125 2.757812 -5.585938 2.375 -5.140625 C 1.988281 -4.703125 1.796875 -4.082031 1.796875 -3.28125 C 1.796875 -2.476562 1.988281 -1.851562 2.375 -1.40625 C 2.757812 -0.96875 3.304688 -0.75 4.015625 -0.75 C 4.328125 -0.75 4.632812 -0.789062 4.9375 -0.875 C 5.238281 -0.957031 5.546875 -1.082031 5.859375 -1.25 L 5.859375 -0.25 C 5.554688 -0.113281 5.242188 -0.0078125 4.921875 0.0625 C 4.597656 0.132812 4.253906 0.171875 3.890625 0.171875 C 2.898438 0.171875 2.113281 -0.132812 1.53125 -0.75 C 0.945312 -1.375 0.65625 -2.21875 0.65625 -3.28125 C 0.65625 -4.34375 0.945312 -5.179688 1.53125 -5.796875 C 2.125 -6.410156 2.9375 -6.71875 3.96875 -6.71875 C 4.289062 -6.71875 4.609375 -6.679688 4.921875 -6.609375 C 5.242188 -6.546875 5.554688 -6.445312 5.859375 -6.3125 Z M 5.859375 -6.3125 "/>
</symbol>
<symbol overflow="visible" id="33wUYpeY11-2">
<path style="stroke:none;" d="M 4.109375 -3.296875 C 3.242188 -3.296875 2.640625 -3.195312 2.296875 -3 C 1.960938 -2.800781 1.796875 -2.460938 1.796875 -1.984375 C 1.796875 -1.597656 1.921875 -1.289062 2.171875 -1.0625 C 2.429688 -0.84375 2.773438 -0.734375 3.203125 -0.734375 C 3.804688 -0.734375 4.285156 -0.941406 4.640625 -1.359375 C 5.003906 -1.785156 5.1875 -2.351562 5.1875 -3.0625 L 5.1875 -3.296875 Z M 6.265625 -3.75 L 6.265625 0 L 5.1875 0 L 5.1875 -1 C 4.9375 -0.601562 4.628906 -0.304688 4.265625 -0.109375 C 3.898438 0.078125 3.453125 0.171875 2.921875 0.171875 C 2.242188 0.171875 1.707031 -0.015625 1.3125 -0.390625 C 0.914062 -0.773438 0.71875 -1.28125 0.71875 -1.90625 C 0.71875 -2.644531 0.960938 -3.203125 1.453125 -3.578125 C 1.953125 -3.953125 2.691406 -4.140625 3.671875 -4.140625 L 5.1875 -4.140625 L 5.1875 -4.25 C 5.1875 -4.75 5.019531 -5.132812 4.6875 -5.40625 C 4.363281 -5.675781 3.910156 -5.8125 3.328125 -5.8125 C 2.953125 -5.8125 2.582031 -5.765625 2.21875 -5.671875 C 1.863281 -5.578125 1.523438 -5.441406 1.203125 -5.265625 L 1.203125 -6.265625 C 1.597656 -6.421875 1.976562 -6.535156 2.34375 -6.609375 C 2.71875 -6.679688 3.082031 -6.71875 3.4375 -6.71875 C 4.382812 -6.71875 5.09375 -6.472656 5.5625 -5.984375 C 6.03125 -5.492188 6.265625 -4.75 6.265625 -3.75 Z M 6.265625 -3.75 "/>
</symbol>
</g>
</defs>
<g id="surface1">
<rect x="0" y="0" width="450" height="300" style="fill:rgb(10.196079%,10.196079%,10.196079%);fill-opacity:1;stroke:none;"/>
<path style="fill:none;stroke-width:1;stroke-linecap:butt;stroke-linejoin:miter;stroke:rgb(100%,100%,100%);stroke-opacity:0.09;stroke-miterlimit:10;" d="M 218.401042 363 L 218.401042 16 " transform="matrix(0.75,0,0,0.75,0,0)"/>
<path style="fill:none;stroke-width:1;stroke-linecap:butt;stroke-linejoin:miter;stroke:rgb(100%,100%,100%);stroke-opacity:0.09;stroke-miterlimit:10;" d="M 273.59375 363 L 273.59375 16 " transform="matrix(0.75,0,0,0.75,0,0)"/>
<path style="fill:none;stroke-width:1;stroke-linecap:butt;stroke-linejoin:miter;stroke:rgb(100%,100%,100%);stroke-opacity:0.09;stroke-miterlimit:10;" d="M 328.791667 363 L 328.791667 16 " transform="matrix(0.75,0,0,0.75,0,0)"/>
<path style="fill:none;stroke-width:1;stroke-linecap:butt;stroke-linejoin:miter;stroke:rgb(100%,100%,100%);stroke-opacity:0.09;stroke-miterlimit:10;" d="M 383.984375 363 L 383.984375 16 " transform="matrix(0.75,0,0,0.75,0,0)"/>
<path style="fill:none;stroke-width:1;stroke-linecap:butt;stroke-linejoin:miter;stroke:rgb(100%,100%,100%);stroke-opacity:0.09;stroke-miterlimit:10;" d="M 439.177083 363 L 439.177083 16 " transform="matrix(0.75,0,0,0.75,0,0)"/>
<path style="fill:none;stroke-width:1;stroke-linecap:butt;stroke-linejoin:miter;stroke:rgb(100%,100%,100%);stroke-opacity:0.09;stroke-miterlimit:10;" d="M 494.375 363 L 494.375 16 " transform="matrix(0.75,0,0,0.75,0,0)"/>
<path style="fill:none;stroke-width:1;stroke-linecap:butt;stroke-linejoin:miter;stroke:rgb(100%,100%,100%);stroke-opacity:0.09;stroke-miterlimit:10;" d="M 549.567708 363 L 549.567708 16 " transform="matrix(0.75,0,0,0.75,0,0)"/>
<path style="fill:none;stroke-width:1;stroke-linecap:butt;stroke-linejoin:miter;stroke:rgb(100%,100%,100%);stroke-opacity:0.09;stroke-miterlimit:10;" d="M 39 270.776042 L 584 270.776042 " transform="matrix(0.75,0,0,0.75,0,0)"/>
<g style="fill:rgb(45.09804%,45.09804%,45.09804%);fill-opacity:1;">
  <use xlink:href="#33wUYpeY0-1" x="149.628906" y="285.640625"/>
</g>
<g style="fill:rgb(45.09804%,45.09804%,45.09804%);fill-opacity:1;">
  <use xlink:href="#33wUYpeY0-2" x="156.226562" y="285.640625"/>
</g>
<g style="fill:rgb(45.09804%,45.09804%,45.09804%);fill-opacity:1;">
  <use xlink:href="#33wUYpeY1-1" x="163.582031" y="285.640625"/>
</g>
<g style="fill:rgb(45.09804%,45.09804%,45.09804%);fill-opacity:1;">
  <use xlink:href="#33wUYpeY1-2" x="168.285156" y="285.640625"/>
</g>
<g style="fill:rgb(45.09804%,45.09804%,45.09804%);fill-opacity:1;">
  <use xlink:href="#33wUYpeY0-3" x="172.101562" y="285.640625"/>
</g>
<g style="fill:rgb(45.09804%,45.09804%,45.09804%);fill-opacity:1;">
  <use xlink:href="#33wUYpeY0-4" x="201.140625" y="285.640625"/>
</g>
<g style="fill:rgb(45.09804%,45.09804%,45.09804%);fill-opacity:1;">
  <use xlink:href="#33wUYpeY0-5" x="242.902344" y="285.640625"/>
</g>
<g style="fill:rgb(45.09804%,45.09804%,45.09804%);fill-opacity:1;">
  <use xlink:href="#33wUYpeY2-1" x="284.125" y="285.640625"/>
</g>
<g style="fill:rgb(45.09804%,45.09804%,45.09804%);fill-opacity:1;">
  <use xlink:href="#33wUYpeY0-6" x="325.117188" y="285.640625"/>
</g>
<g style="fill:rgb(45.09804%,45.09804%,45.09804%);fill-opacity:1;">
  <use xlink:href="#33wUYpeY0-7" x="367.371094" y="285.640625"/>
</g>
<g style="fill:rgb(45.09804%,45.09804%,45.09804%);fill-opacity:1;">
  <use xlink:href="#33wUYpeY0-8" x="409.074219" y="285.640625"/>
</g>
<g style="fill:rgb(45.09804%,45.09804%,45.09804%);fill-opacity:1;">
  <use xlink:href="#33wUYpeY3-1" x="22.671875" y="217.425781"/>
</g>
<g style="fill:rgb(45.09804%,45.09804%,45.09804%);fill-opacity:1;">
  <use xlink:href="#33wUYpeY3-2" x="22.671875" y="210.828125"/>
</g>
<g style="fill:rgb(45.09804%,45.09804%,45.09804%);fill-opacity:1;">
  <use xlink:href="#33wUYpeY3-3" x="22.671875" y="203.476562"/>
</g>
<g style="fill:rgb(45.09804%,45.09804%,45.09804%);fill-opacity:1;">
  <use xlink:href="#33wUYpeY3-4" x="22.671875" y="198.769531"/>
</g>
<g style="fill:rgb(45.09804%,45.09804%,45.09804%);fill-opacity:1;">
  <use xlink:href="#33wUYpeY4-1" x="22.671875" y="194.957031"/>
</g>
<path style=" stroke:none;fill-rule:nonzero;fill:rgb(100%,64.705884%,0%);fill-opacity:0.95;" d="M 54.570312 203.082031 C 54.570312 207.082031 48.570312 207.082031 48.570312 203.082031 C 48.570312 199.082031 54.570312 199.082031 54.570312 203.082031 "/>
<path style=" stroke:none;fill-rule:nonzero;fill:rgb(100%,64.705884%,0%);fill-opacity:0.95;" d="M 60.140625 203.082031 C 60.140625 207.082031 54.140625 207.082031 54.140625 203.082031 C 54.140625 199.082031 60.140625 199.082031 60.140625 203.082031 "/>
<path style=" stroke:none;fill-rule:nonzero;fill:rgb(100%,64.705884%,0%);fill-opacity:0.95;" d="M 188.628906 203.082031 C 188.628906 207.082031 182.628906 207.082031 182.628906 203.082031 C 182.628906 199.082031 188.628906 199.082031 188.628906 203.082031 "/>
<path style=" stroke:none;fill-rule:nonzero;fill:rgb(100%,64.705884%,0%);fill-opacity:0.95;" d="M 198.882812 203.082031 C 198.882812 207.082031 192.882812 207.082031 192.882812 203.082031 C 192.882812 199.082031 198.882812 199.082031 198.882812 203.082031 "/>
<path style=" stroke:none;fill-rule:nonzero;fill:rgb(100%,64.705884%,0%);fill-opacity:0.95;" d="M 186.179688 203.082031 C 186.179688 207.082031 180.179688 207.082031 180.179688 203.082031 C 180.179688 199.082031 186.179688 199.082031 186.179688 203.082031 "/>
<path style=" stroke:none;fill-rule:nonzero;fill:rgb(100%,64.705884%,0%);fill-opacity:0.95;" d="M 66.578125 203.082031 C 66.578125 207.082031 60.578125 207.082031 60.578125 203.082031 C 60.578125 199.082031 66.578125 199.082031 66.578125 203.082031 "/>
<path style=" stroke:none;fill-rule:nonzero;fill:rgb(100%,64.705884%,0%);fill-opacity:0.95;" d="M 58.121094 203.082031 C 58.121094 207.082031 52.121094 207.082031 52.121094 203.082031 C 52.121094 199.082031 58.121094 199.082031 58.121094 203.082031 "/>
<path style=" stroke:none;fill-rule:nonzero;fill:rgb(100%,64.705884%,0%);fill-opacity:0.95;" d="M 62.554688 203.082031 C 62.554688 207.082031 56.554688 207.082031 56.554688 203.082031 C 56.554688 199.082031 62.554688 199.082031 62.554688 203.082031 "/>
<path style=" stroke:none;fill-rule:nonzero;fill:rgb(100%,64.705884%,0%);fill-opacity:0.95;" d="M 201.101562 203.082031 C 201.101562 207.082031 195.101562 207.082031 195.101562 203.082031 C 195.101562 199.082031 201.101562 199.082031 201.101562 203.082031 "/>
<path style=" stroke:none;fill-rule:nonzero;fill:rgb(100%,64.705884%,0%);fill-opacity:0.95;" d="M 62.527344 203.082031 C 62.527344 207.082031 56.527344 207.082031 56.527344 203.082031 C 56.527344 199.082031 62.527344 199.082031 62.527344 203.082031 "/>
<path style=" stroke:none;fill-rule:nonzero;fill:rgb(100%,64.705884%,0%);fill-opacity:0.95;" d="M 67.152344 203.082031 C 67.152344 207.082031 61.152344 207.082031 61.152344 203.082031 C 61.152344 199.082031 67.152344 199.082031 67.152344 203.082031 "/>
<path style=" stroke:none;fill-rule:nonzero;fill:rgb(100%,64.705884%,0%);fill-opacity:0.95;" d="M 68.914062 203.082031 C 68.914062 207.082031 62.914062 207.082031 62.914062 203.082031 C 62.914062 199.082031 68.914062 199.082031 68.914062 203.082031 "/>
<path style=" stroke:none;fill-rule:nonzero;fill:rgb(100%,64.705884%,0%);fill-opacity:0.95;" d="M 67.476562 203.082031 C 67.476562 207.082031 61.476562 207.082031 61.476562 203.082031 C 61.476562 199.082031 67.476562 199.082031 67.476562 203.082031 "/>
<path style=" stroke:none;fill-rule:nonzero;fill:rgb(100%,64.705884%,0%);fill-opacity:0.95;" d="M 183.582031 203.082031 C 183.582031 207.082031 177.582031 207.082031 177.582031 203.082031 C 177.582031 199.082031 183.582031 199.082031 183.582031 203.082031 "/>
<path style=" stroke:none;fill-rule:nonzero;fill:rgb(100%,64.705884%,0%);fill-opacity:0.95;" d="M 50.828125 203.082031 C 50.828125 207.082031 44.828125 207.082031 44.828125 203.082031 C 44.828125 199.082031 50.828125 199.082031 50.828125 203.082031 "/>
<path style=" stroke:none;fill-rule:nonzero;fill:rgb(100%,64.705884%,0%);fill-opacity:0.95;" d="M 57.417969 203.082031 C 57.417969 207.082031 51.417969 207.082031 51.417969 203.082031 C 51.417969 199.082031 57.417969 199.082031 57.417969 203.082031 "/>
<path style=" stroke:none;fill-rule:nonzero;fill:rgb(100%,64.705884%,0%);fill-opacity:0.95;" d="M 200.363281 203.082031 C 200.363281 207.082031 194.363281 207.082031 194.363281 203.082031 C 194.363281 199.082031 200.363281 199.082031 200.363281 203.082031 "/>
<path style="fill:none;stroke-width:1.5;stroke-linecap:butt;stroke-linejoin:miter;stroke:rgb(100%,0%,0%);stroke-opacity:1;stroke-miterlimit:10;" d="M 144.958333 270.776042 L 90.28125 270.776042 " transform="matrix(0.75,0,0,0.75,0,0)"/>
<path style="fill:none;stroke-width:1.5;stroke-linecap:butt;stroke-linejoin:miter;stroke:rgb(100%,0%,0%);stroke-opacity:1;stroke-miterlimit:10;" d="M 90.28125 284.833333 L 90.28125 256.71875 " transform="matrix(0.75,0,0,0.75,0,0)"/>
<path style="fill:none;stroke-width:1.5;stroke-linecap:butt;stroke-linejoin:miter;stroke:rgb(100%,0%,0%);stroke-opacity:1;stroke-miterlimit:10;" d="M 182.546875 270.776042 L 235.979167 270.776042 " transform="matrix(0.75,0,0,0.75,0,0)"/>
<path style="fill:none;stroke-width:1.5;stroke-linecap:butt;stroke-linejoin:miter;stroke:rgb(100%,0%,0%);stroke-opacity:1;stroke-miterlimit:10;" d="M 235.979167 256.71875 L 235.979167 284.833333 " transform="matrix(0.75,0,0,0.75,0,0)"/>
<path style="fill-rule:nonzero;fill:rgb(100%,64.705884%,0%);fill-opacity:0.95;stroke-width:1;stroke-linecap:butt;stroke-linejoin:miter;stroke:rgb(0%,0%,0%);stroke-opacity:1;stroke-miterlimit:10;" d="M 144.958333 284.833333 L 182.541667 284.833333 L 182.541667 256.71875 L 144.958333 256.71875 Z M 144.958333 284.833333 " transform="matrix(0.75,0,0,0.75,0,0)"/>
<path style="fill:none;stroke-width:1.5;stroke-linecap:butt;stroke-linejoin:miter;stroke:rgb(100%,100%,0%);stroke-opacity:1;stroke-miterlimit:10;" d="M 163.447917 284.833333 L 163.447917 256.71875 " transform="matrix(0.75,0,0,0.75,0,0)"/>
<path style=" stroke:none;fill-rule:nonzero;fill:rgb(11.764706%,56.470591%,100%);fill-opacity:1;" d="M 165.675781 46.726562 C 165.675781 49.226562 161.925781 49.226562 161.925781 46.726562 C 161.925781 44.226562 165.675781 44.226562 165.675781 46.726562 "/>
<path style=" stroke:none;fill-rule:nonzero;fill:rgb(11.764706%,56.470591%,100%);fill-opacity:1;" d="M 165.675781 260.421875 C 165.675781 262.921875 161.925781 262.921875 161.925781 260.421875 C 161.925781 257.921875 165.675781 257.921875 165.675781 260.421875 "/>
<path style=" stroke:none;fill-rule:nonzero;fill:rgb(11.764706%,56.470591%,100%);fill-opacity:1;" d="M 165.675781 25.582031 C 165.675781 28.082031 161.925781 28.082031 161.925781 25.582031 C 161.925781 23.082031 165.675781 23.082031 165.675781 25.582031 "/>
<path style=" stroke:none;fill-rule:nonzero;fill:rgb(11.764706%,56.470591%,100%);fill-opacity:1;" d="M 165.675781 36.738281 C 165.675781 39.238281 161.925781 39.238281 161.925781 36.738281 C 161.925781 34.238281 165.675781 34.238281 165.675781 36.738281 "/>
<path style=" stroke:none;fill-rule:nonzero;fill:rgb(11.764706%,56.470591%,100%);fill-opacity:1;" d="M 165.675781 40.820312 C 165.675781 43.320312 161.925781 43.320312 161.925781 40.820312 C 161.925781 38.320312 165.675781 38.320312 165.675781 40.820312 "/>
<path style=" stroke:none;fill-rule:nonzero;fill:rgb(11.764706%,56.470591%,100%);fill-opacity:1;" d="M 165.675781 227.351562 C 165.675781 229.851562 161.925781 229.851562 161.925781 227.351562 C 161.925781 224.851562 165.675781 224.851562 165.675781 227.351562 "/>
<path style=" stroke:none;fill-rule:nonzero;fill:rgb(11.764706%,56.470591%,100%);fill-opacity:1;" d="M 165.675781 49.648438 C 165.675781 52.148438 161.925781 52.148438 161.925781 49.648438 C 161.925781 47.148438 165.675781 47.148438 165.675781 49.648438 "/>
<path style=" stroke:none;fill-rule:nonzero;fill:rgb(11.764706%,56.470591%,100%);fill-opacity:1;" d="M 165.675781 49.671875 C 165.675781 52.171875 161.925781 52.171875 161.925781 49.671875 C 161.925781 47.171875 165.675781 47.171875 165.675781 49.671875 "/>
<path style=" stroke:none;fill-rule:nonzero;fill:rgb(11.764706%,56.470591%,100%);fill-opacity:1;" d="M 165.675781 48.664062 C 165.675781 51.164062 161.925781 51.164062 161.925781 48.664062 C 161.925781 46.164062 165.675781 46.164062 165.675781 48.664062 "/>
<path style=" stroke:none;fill-rule:nonzero;fill:rgb(11.764706%,56.470591%,100%);fill-opacity:1;" d="M 165.675781 236.835938 C 165.675781 239.335938 161.925781 239.335938 161.925781 236.835938 C 161.925781 234.335938 165.675781 234.335938 165.675781 236.835938 "/>
<path style=" stroke:none;fill-rule:nonzero;fill:rgb(11.764706%,56.470591%,100%);fill-opacity:1;" d="M 165.675781 232.714844 C 165.675781 235.214844 161.925781 235.214844 161.925781 232.714844 C 161.925781 230.214844 165.675781 230.214844 165.675781 232.714844 "/>
<path style=" stroke:none;fill-rule:nonzero;fill:rgb(11.764706%,56.470591%,100%);fill-opacity:1;" d="M 165.675781 231.964844 C 165.675781 234.464844 161.925781 234.464844 161.925781 231.964844 C 161.925781 229.464844 165.675781 229.464844 165.675781 231.964844 "/>
<path style=" stroke:none;fill-rule:nonzero;fill:rgb(11.764706%,56.470591%,100%);fill-opacity:1;" d="M 165.675781 51.015625 C 165.675781 53.515625 161.925781 53.515625 161.925781 51.015625 C 161.925781 48.515625 165.675781 48.515625 165.675781 51.015625 "/>
<path style=" stroke:none;fill-rule:nonzero;fill:rgb(11.764706%,56.470591%,100%);fill-opacity:1;" d="M 165.675781 238.984375 C 165.675781 241.484375 161.925781 241.484375 161.925781 238.984375 C 161.925781 236.484375 165.675781 236.484375 165.675781 238.984375 "/>
<path style=" stroke:none;fill-rule:nonzero;fill:rgb(11.764706%,56.470591%,100%);fill-opacity:1;" d="M 165.675781 229.6875 C 165.675781 232.1875 161.925781 232.1875 161.925781 229.6875 C 161.925781 227.1875 165.675781 227.1875 165.675781 229.6875 "/>
<path style=" stroke:none;fill-rule:nonzero;fill:rgb(11.764706%,56.470591%,100%);fill-opacity:1;" d="M 165.675781 225.90625 C 165.675781 228.40625 161.925781 228.40625 161.925781 225.90625 C 161.925781 223.40625 165.675781 223.40625 165.675781 225.90625 "/>
<path style=" stroke:none;fill-rule:nonzero;fill:rgb(11.764706%,56.470591%,100%);fill-opacity:1;" d="M 165.675781 248.027344 C 165.675781 250.527344 161.925781 250.527344 161.925781 248.027344 C 161.925781 245.527344 165.675781 245.527344 165.675781 248.027344 "/>
<path style=" stroke:none;fill-rule:nonzero;fill:rgb(11.764706%,56.470591%,100%);fill-opacity:1;" d="M 165.675781 49.601562 C 165.675781 52.101562 161.925781 52.101562 161.925781 49.601562 C 161.925781 47.101562 165.675781 47.101562 165.675781 49.601562 "/>
<path style=" stroke:none;fill-rule:nonzero;fill:rgb(11.764706%,56.470591%,100%);fill-opacity:1;" d="M 165.675781 233.261719 C 165.675781 235.761719 161.925781 235.761719 161.925781 233.261719 C 161.925781 230.761719 165.675781 230.761719 165.675781 233.261719 "/>
<path style=" stroke:none;fill-rule:nonzero;fill:rgb(11.764706%,56.470591%,100%);fill-opacity:1;" d="M 165.675781 235.703125 C 165.675781 238.203125 161.925781 238.203125 161.925781 235.703125 C 161.925781 233.203125 165.675781 233.203125 165.675781 235.703125 "/>
<path style=" stroke:none;fill-rule:nonzero;fill:rgb(11.764706%,56.470591%,100%);fill-opacity:1;" d="M 165.675781 230.933594 C 165.675781 233.433594 161.925781 233.433594 161.925781 230.933594 C 161.925781 228.433594 165.675781 228.433594 165.675781 230.933594 "/>
<path style=" stroke:none;fill-rule:nonzero;fill:rgb(11.764706%,56.470591%,100%);fill-opacity:1;" d="M 165.675781 36.089844 C 165.675781 38.589844 161.925781 38.589844 161.925781 36.089844 C 161.925781 33.589844 165.675781 33.589844 165.675781 36.089844 "/>
<path style=" stroke:none;fill-rule:nonzero;fill:rgb(11.764706%,56.470591%,100%);fill-opacity:1;" d="M 165.675781 226.488281 C 165.675781 228.988281 161.925781 228.988281 161.925781 226.488281 C 161.925781 223.988281 165.675781 223.988281 165.675781 226.488281 "/>
<path style=" stroke:none;fill-rule:nonzero;fill:rgb(11.764706%,56.470591%,100%);fill-opacity:1;" d="M 165.675781 23.828125 C 165.675781 26.328125 161.925781 26.328125 161.925781 23.828125 C 161.925781 21.328125 165.675781 21.328125 165.675781 23.828125 "/>
<path style=" stroke:none;fill-rule:nonzero;fill:rgb(11.764706%,56.470591%,100%);fill-opacity:1;" d="M 165.675781 46.5 C 165.675781 49 161.925781 49 161.925781 46.5 C 161.925781 44 165.675781 44 165.675781 46.5 "/>
<path style="fill:none;stroke-width:1.5;stroke-linecap:butt;stroke-linejoin:miter;stroke:rgb(11.764706%,56.470591%,100%);stroke-opacity:1;stroke-miterlimit:10;" d="M 218.401042 214.354167 L 218.401042 299.78125 " transform="matrix(0.75,0,0,0.75,0,0)"/>
<path style="fill:none;stroke-width:1.5;stroke-linecap:butt;stroke-linejoin:miter;stroke:rgb(11.764706%,56.470591%,100%);stroke-opacity:1;stroke-miterlimit:10;" d="M 204.604167 299.78125 L 232.197917 299.78125 " transform="matrix(0.75,0,0,0.75,0,0)"/>
<path style="fill:none;stroke-width:1.5;stroke-linecap:butt;stroke-linejoin:miter;stroke:rgb(11.764706%,56.470591%,100%);stroke-opacity:1;stroke-miterlimit:10;" d="M 218.401042 156.828125 L 218.401042 70.661458 " transform="matrix(0.75,0,0,0.75,0,0)"/>
<path style="fill:none;stroke-width:1.5;stroke-linecap:butt;stroke-linejoin:miter;stroke:rgb(11.764706%,56.470591%,100%);stroke-opacity:1;stroke-miterlimit:10;" d="M 232.197917 70.661458 L 204.604167 70.661458 " transform="matrix(0.75,0,0,0.75,0,0)"/>
<path style="fill-rule:nonzero;fill:rgb(11.764706%,56.470591%,100%);fill-opacity:1;stroke-width:1;stroke-linecap:butt;stroke-linejoin:miter;stroke:rgb(100%,100%,100%);stroke-opacity:1;stroke-miterlimit:10;" d="M 204.604167 214.354167 L 232.203125 214.354167 L 232.203125 156.828125 L 204.604167 156.828125 Z M 204.604167 214.354167 " transform="matrix(0.75,0,0,0.75,0,0)"/>
<path style="fill:none;stroke-width:1.5;stroke-linecap:butt;stroke-linejoin:miter;stroke:rgb(100%,100%,100%);stroke-opacity:1;stroke-miterlimit:10;" d="M 204.604167 186.130208 L 232.197917 186.130208 " transform="matrix(0.75,0,0,0.75,0,0)"/>
<path style=" stroke:none;fill-rule:nonzero;fill:rgb(100%,28.57143%,71.428573%);fill-opacity:1;" d="M 208.570312 160.242188 C 208.570312 164.742188 201.820312 164.742188 201.820312 160.242188 C 201.820312 155.742188 208.570312 155.742188 208.570312 160.242188 "/>
<path style=" stroke:none;fill-rule:nonzero;fill:rgb(100%,28.57143%,71.428573%);fill-opacity:1;" d="M 208.570312 156.84375 C 208.570312 161.34375 201.820312 161.34375 201.820312 156.84375 C 201.820312 152.34375 208.570312 152.34375 208.570312 156.84375 "/>
<path style=" stroke:none;fill-rule:nonzero;fill:rgb(100%,28.57143%,71.428573%);fill-opacity:1;" d="M 208.570312 158.097656 C 208.570312 162.597656 201.820312 162.597656 201.820312 158.097656 C 201.820312 153.597656 208.570312 153.597656 208.570312 158.097656 "/>
<path style=" stroke:none;fill-rule:nonzero;fill:rgb(100%,28.57143%,71.428573%);fill-opacity:1;" d="M 208.570312 157.480469 C 208.570312 161.980469 201.820312 161.980469 201.820312 157.480469 C 201.820312 152.980469 208.570312 152.980469 208.570312 157.480469 "/>
<path style=" stroke:none;fill-rule:nonzero;fill:rgb(100%,28.57143%,71.428573%);fill-opacity:1;" d="M 208.570312 157.90625 C 208.570312 162.40625 201.820312 162.40625 201.820312 157.90625 C 201.820312 153.40625 208.570312 153.40625 208.570312 157.90625 "/>
<path style=" stroke:none;fill-rule:nonzero;fill:rgb(100%,28.57143%,71.428573%);fill-opacity:1;" d="M 208.570312 54.167969 C 208.570312 58.667969 201.820312 58.667969 201.820312 54.167969 C 201.820312 49.667969 208.570312 49.667969 208.570312 54.167969 "/>
<path style=" stroke:none;fill-rule:nonzero;fill:rgb(100%,28.57143%,71.428573%);fill-opacity:1;" d="M 208.570312 58.261719 C 208.570312 62.761719 201.820312 62.761719 201.820312 58.261719 C 201.820312 53.761719 208.570312 53.761719 208.570312 58.261719 "/>
<path style=" stroke:none;fill-rule:nonzero;fill:rgb(100%,28.57143%,71.428573%);fill-opacity:1;" d="M 208.570312 154.578125 C 208.570312 159.078125 201.820312 159.078125 201.820312 154.578125 C 201.820312 150.078125 208.570312 150.078125 208.570312 154.578125 "/>
<path style=" stroke:none;fill-rule:nonzero;fill:rgb(100%,28.57143%,71.428573%);fill-opacity:1;" d="M 208.570312 163.667969 C 208.570312 168.167969 201.820312 168.167969 201.820312 163.667969 C 201.820312 159.167969 208.570312 159.167969 208.570312 163.667969 "/>
<path style=" stroke:none;fill-rule:nonzero;fill:rgb(100%,28.57143%,71.428573%);fill-opacity:1;" d="M 208.570312 52.957031 C 208.570312 57.457031 201.820312 57.457031 201.820312 52.957031 C 201.820312 48.457031 208.570312 48.457031 208.570312 52.957031 "/>
<path style=" stroke:none;fill-rule:nonzero;fill:rgb(100%,28.57143%,71.428573%);fill-opacity:1;" d="M 208.570312 56.5625 C 208.570312 61.0625 201.820312 61.0625 201.820312 56.5625 C 201.820312 52.0625 208.570312 52.0625 208.570312 56.5625 "/>
<path style=" stroke:none;fill-rule:nonzero;fill:rgb(100%,28.57143%,71.428573%);fill-opacity:1;" d="M 208.570312 160.054688 C 208.570312 164.554688 201.820312 164.554688 201.820312 160.054688 C 201.820312 155.554688 208.570312 155.554688 208.570312 160.054688 "/>
<path style=" stroke:none;fill-rule:nonzero;fill:rgb(100%,28.57143%,71.428573%);fill-opacity:1;" d="M 208.570312 49.910156 C 208.570312 54.410156 201.820312 54.410156 201.820312 49.910156 C 201.820312 45.410156 208.570312 45.410156 208.570312 49.910156 "/>
<path style=" stroke:none;fill-rule:nonzero;fill:rgb(100%,28.57143%,71.428573%);fill-opacity:1;" d="M 208.570312 155.378906 C 208.570312 159.878906 201.820312 159.878906 201.820312 155.378906 C 201.820312 150.878906 208.570312 150.878906 208.570312 155.378906 "/>
<path style=" stroke:none;fill-rule:nonzero;fill:rgb(100%,28.57143%,71.428573%);fill-opacity:1;" d="M 208.570312 158.878906 C 208.570312 163.378906 201.820312 163.378906 201.820312 158.878906 C 201.820312 154.378906 208.570312 154.378906 208.570312 158.878906 "/>
<path style=" stroke:none;fill-rule:nonzero;fill:rgb(100%,28.57143%,71.428573%);fill-opacity:1;" d="M 208.570312 42.507812 C 208.570312 47.007812 201.820312 47.007812 201.820312 42.507812 C 201.820312 38.007812 208.570312 38.007812 208.570312 42.507812 "/>
<path style=" stroke:none;fill-rule:nonzero;fill:rgb(100%,28.57143%,71.428573%);fill-opacity:1;" d="M 208.570312 160.273438 C 208.570312 164.773438 201.820312 164.773438 201.820312 160.273438 C 201.820312 155.773438 208.570312 155.773438 208.570312 160.273438 "/>
<path style=" stroke:none;fill-rule:nonzero;fill:rgb(100%,28.57143%,71.428573%);fill-opacity:1;" d="M 208.570312 59.410156 C 208.570312 63.910156 201.820312 63.910156 201.820312 59.410156 C 201.820312 54.910156 208.570312 54.910156 208.570312 59.410156 "/>
<path style=" stroke:none;fill-rule:nonzero;fill:rgb(100%,28.57143%,71.428573%);fill-opacity:1;" d="M 208.570312 161.953125 C 208.570312 166.453125 201.820312 166.453125 201.820312 161.953125 C 201.820312 157.453125 208.570312 157.453125 208.570312 161.953125 "/>
<path style=" stroke:none;fill-rule:nonzero;fill:rgb(100%,28.57143%,71.428573%);fill-opacity:1;" d="M 208.570312 155.425781 C 208.570312 159.925781 201.820312 159.925781 201.820312 155.425781 C 201.820312 150.925781 208.570312 150.925781 208.570312 155.425781 "/>
<path style=" stroke:none;fill-rule:nonzero;fill:rgb(100%,28.57143%,71.428573%);fill-opacity:1;" d="M 208.570312 155.53125 C 208.570312 160.03125 201.820312 160.03125 201.820312 155.53125 C 201.820312 151.03125 208.570312 151.03125 208.570312 155.53125 "/>
<path style=" stroke:none;fill-rule:nonzero;fill:rgb(100%,28.57143%,71.428573%);fill-opacity:1;" d="M 208.570312 47.605469 C 208.570312 52.105469 201.820312 52.105469 201.820312 47.605469 C 201.820312 43.105469 208.570312 43.105469 208.570312 47.605469 "/>
<path style=" stroke:none;fill-rule:nonzero;fill:rgb(100%,28.57143%,71.428573%);fill-opacity:1;" d="M 208.570312 157.410156 C 208.570312 161.910156 201.820312 161.910156 201.820312 157.410156 C 201.820312 152.910156 208.570312 152.910156 208.570312 157.410156 "/>
<path style=" stroke:none;fill-rule:nonzero;fill:rgb(100%,28.57143%,71.428573%);fill-opacity:1;" d="M 208.570312 57.726562 C 208.570312 62.226562 201.820312 62.226562 201.820312 57.726562 C 201.820312 53.226562 208.570312 53.226562 208.570312 57.726562 "/>
<path style=" stroke:none;fill-rule:nonzero;fill:rgb(100%,28.57143%,71.428573%);fill-opacity:1;" d="M 208.570312 58.226562 C 208.570312 62.726562 201.820312 62.726562 201.820312 58.226562 C 201.820312 53.726562 208.570312 53.726562 208.570312 58.226562 "/>
<path style=" stroke:none;fill-rule:nonzero;fill:rgb(100%,28.57143%,71.428573%);fill-opacity:1;" d="M 208.570312 61.46875 C 208.570312 65.96875 201.820312 65.96875 201.820312 61.46875 C 201.820312 56.96875 208.570312 56.96875 208.570312 61.46875 "/>
<path style=" stroke:none;fill-rule:nonzero;fill:rgb(100%,28.57143%,71.428573%);fill-opacity:1;" d="M 208.570312 60.847656 C 208.570312 65.347656 201.820312 65.347656 201.820312 60.847656 C 201.820312 56.347656 208.570312 56.347656 208.570312 60.847656 "/>
<path style=" stroke:none;fill-rule:nonzero;fill:rgb(100%,28.57143%,71.428573%);fill-opacity:1;" d="M 208.570312 58.84375 C 208.570312 63.34375 201.820312 63.34375 201.820312 58.84375 C 201.820312 54.34375 208.570312 54.34375 208.570312 58.84375 "/>
<path style=" stroke:none;fill-rule:nonzero;fill:rgb(100%,28.57143%,71.428573%);fill-opacity:1;" d="M 208.570312 53.308594 C 208.570312 57.808594 201.820312 57.808594 201.820312 53.308594 C 201.820312 48.808594 208.570312 48.808594 208.570312 53.308594 "/>
<path style=" stroke:none;fill-rule:nonzero;fill:rgb(100%,28.57143%,71.428573%);fill-opacity:1;" d="M 208.570312 56.539062 C 208.570312 61.039062 201.820312 61.039062 201.820312 56.539062 C 201.820312 52.039062 208.570312 52.039062 208.570312 56.539062 "/>
<path style=" stroke:none;fill-rule:nonzero;fill:rgb(100%,28.57143%,71.428573%);fill-opacity:1;" d="M 208.570312 177.296875 C 208.570312 181.796875 201.820312 181.796875 201.820312 177.296875 C 201.820312 172.796875 208.570312 172.796875 208.570312 177.296875 "/>
<path style=" stroke:none;fill-rule:nonzero;fill:rgb(100%,28.57143%,71.428573%);fill-opacity:1;" d="M 208.570312 162.207031 C 208.570312 166.707031 201.820312 166.707031 201.820312 162.207031 C 201.820312 157.707031 208.570312 157.707031 208.570312 162.207031 "/>
<path style=" stroke:none;fill-rule:nonzero;fill:rgb(100%,28.57143%,71.428573%);fill-opacity:1;" d="M 208.570312 58.894531 C 208.570312 63.394531 201.820312 63.394531 201.820312 58.894531 C 201.820312 54.394531 208.570312 54.394531 208.570312 58.894531 "/>
<path style="fill:none;stroke-width:1.5;stroke-linecap:butt;stroke-linejoin:miter;stroke:rgb(60.000002%,60.000002%,60.000002%);stroke-opacity:1;stroke-miterlimit:10;" d="M 273.59375 159.65625 L 273.59375 205.598958 " transform="matrix(0.75,0,0,0.75,0,0)"/>
<path style="fill:none;stroke-width:1.5;stroke-linecap:butt;stroke-linejoin:miter;stroke:rgb(60.000002%,60.000002%,60.000002%);stroke-opacity:1;stroke-miterlimit:10;" d="M 263.9375 205.598958 L 283.255208 205.598958 " transform="matrix(0.75,0,0,0.75,0,0)"/>
<path style="fill:none;stroke-width:1.5;stroke-linecap:butt;stroke-linejoin:miter;stroke:rgb(60.000002%,60.000002%,60.000002%);stroke-opacity:1;stroke-miterlimit:10;" d="M 273.59375 128.880208 L 273.59375 82.979167 " transform="matrix(0.75,0,0,0.75,0,0)"/>
<path style="fill:none;stroke-width:1.5;stroke-linecap:butt;stroke-linejoin:miter;stroke:rgb(60.000002%,60.000002%,60.000002%);stroke-opacity:1;stroke-miterlimit:10;" d="M 283.255208 82.979167 L 263.9375 82.979167 " transform="matrix(0.75,0,0,0.75,0,0)"/>
<path style=" stroke:none;fill-rule:nonzero;fill:rgb(100%,28.57143%,71.428573%);fill-opacity:1;" d="M 197.953125 119.742188 L 212.441406 119.742188 L 212.441406 96.660156 L 197.953125 96.660156 Z M 197.953125 119.742188 "/>
<path style="fill:none;stroke-width:1.5;stroke-linecap:butt;stroke-linejoin:miter;stroke:rgb(60.000002%,60.000002%,60.000002%);stroke-opacity:1;stroke-miterlimit:10;" d="M 263.9375 143.796875 L 283.255208 143.796875 " transform="matrix(0.75,0,0,0.75,0,0)"/>
<path style=" stroke:none;fill-rule:nonzero;fill:rgb(100%,42.857143%,57.14286%);fill-opacity:1;" d="M 249.96875 208.347656 C 249.96875 212.847656 243.21875 212.847656 243.21875 208.347656 C 243.21875 203.847656 249.96875 203.847656 249.96875 208.347656 "/>
<path style=" stroke:none;fill-rule:nonzero;fill:rgb(100%,42.857143%,57.14286%);fill-opacity:1;" d="M 249.96875 210.628906 C 249.96875 215.128906 243.21875 215.128906 243.21875 210.628906 C 243.21875 206.128906 249.96875 206.128906 249.96875 210.628906 "/>
<path style=" stroke:none;fill-rule:nonzero;fill:rgb(100%,42.857143%,57.14286%);fill-opacity:1;" d="M 249.96875 91.015625 C 249.96875 95.515625 243.21875 95.515625 243.21875 91.015625 C 243.21875 86.515625 249.96875 86.515625 249.96875 91.015625 "/>
<path style=" stroke:none;fill-rule:nonzero;fill:rgb(100%,42.857143%,57.14286%);fill-opacity:1;" d="M 249.96875 214.167969 C 249.96875 218.667969 243.21875 218.667969 243.21875 214.167969 C 243.21875 209.667969 249.96875 209.667969 249.96875 214.167969 "/>
<path style=" stroke:none;fill-rule:nonzero;fill:rgb(100%,42.857143%,57.14286%);fill-opacity:1;" d="M 249.96875 207.347656 C 249.96875 211.847656 243.21875 211.847656 243.21875 207.347656 C 243.21875 202.847656 249.96875 202.847656 249.96875 207.347656 "/>
<path style=" stroke:none;fill-rule:nonzero;fill:rgb(100%,42.857143%,57.14286%);fill-opacity:1;" d="M 249.96875 209.863281 C 249.96875 214.363281 243.21875 214.363281 243.21875 209.863281 C 243.21875 205.363281 249.96875 205.363281 249.96875 209.863281 "/>
<path style=" stroke:none;fill-rule:nonzero;fill:rgb(100%,42.857143%,57.14286%);fill-opacity:1;" d="M 249.96875 91.605469 C 249.96875 96.105469 243.21875 96.105469 243.21875 91.605469 C 243.21875 87.105469 249.96875 87.105469 249.96875 91.605469 "/>
<path style=" stroke:none;fill-rule:nonzero;fill:rgb(100%,42.857143%,57.14286%);fill-opacity:1;" d="M 249.96875 88.824219 C 249.96875 93.324219 243.21875 93.324219 243.21875 88.824219 C 243.21875 84.324219 249.96875 84.324219 249.96875 88.824219 "/>
<path style=" stroke:none;fill-rule:nonzero;fill:rgb(100%,42.857143%,57.14286%);fill-opacity:1;" d="M 249.96875 207.105469 C 249.96875 211.605469 243.21875 211.605469 243.21875 207.105469 C 243.21875 202.605469 249.96875 202.605469 249.96875 207.105469 "/>
<path style=" stroke:none;fill-rule:nonzero;fill:rgb(100%,42.857143%,57.14286%);fill-opacity:1;" d="M 249.96875 208.441406 C 249.96875 212.941406 243.21875 212.941406 243.21875 208.441406 C 243.21875 203.941406 249.96875 203.941406 249.96875 208.441406 "/>
<path style=" stroke:none;fill-rule:nonzero;fill:rgb(100%,42.857143%,57.14286%);fill-opacity:1;" d="M 249.96875 209.179688 C 249.96875 213.679688 243.21875 213.679688 243.21875 209.179688 C 243.21875 204.679688 249.96875 204.679688 249.96875 209.179688 "/>
<path style=" stroke:none;fill-rule:nonzero;fill:rgb(100%,42.857143%,57.14286%);fill-opacity:1;" d="M 249.96875 213.4375 C 249.96875 217.9375 243.21875 217.9375 243.21875 213.4375 C 243.21875 208.9375 249.96875 208.9375 249.96875 213.4375 "/>
<path style=" stroke:none;fill-rule:nonzero;fill:rgb(100%,42.857143%,57.14286%);fill-opacity:1;" d="M 249.96875 217.460938 C 249.96875 221.960938 243.21875 221.960938 243.21875 217.460938 C 243.21875 212.960938 249.96875 212.960938 249.96875 217.460938 "/>
<path style=" stroke:none;fill-rule:nonzero;fill:rgb(100%,42.857143%,57.14286%);fill-opacity:1;" d="M 249.96875 212.027344 C 249.96875 216.527344 243.21875 216.527344 243.21875 212.027344 C 243.21875 207.527344 249.96875 207.527344 249.96875 212.027344 "/>
<path style=" stroke:none;fill-rule:nonzero;fill:rgb(100%,42.857143%,57.14286%);fill-opacity:1;" d="M 249.96875 209.695312 C 249.96875 214.195312 243.21875 214.195312 243.21875 209.695312 C 243.21875 205.195312 249.96875 205.195312 249.96875 209.695312 "/>
<path style=" stroke:none;fill-rule:nonzero;fill:rgb(100%,42.857143%,57.14286%);fill-opacity:1;" d="M 249.96875 85.292969 C 249.96875 89.792969 243.21875 89.792969 243.21875 85.292969 C 243.21875 80.792969 249.96875 80.792969 249.96875 85.292969 "/>
<path style=" stroke:none;fill-rule:nonzero;fill:rgb(100%,42.857143%,57.14286%);fill-opacity:1;" d="M 249.96875 209.0625 C 249.96875 213.5625 243.21875 213.5625 243.21875 209.0625 C 243.21875 204.5625 249.96875 204.5625 249.96875 209.0625 "/>
<path style=" stroke:none;fill-rule:nonzero;fill:rgb(100%,42.857143%,57.14286%);fill-opacity:1;" d="M 249.96875 209.066406 C 249.96875 213.566406 243.21875 213.566406 243.21875 209.066406 C 243.21875 204.566406 249.96875 204.566406 249.96875 209.066406 "/>
<path style=" stroke:none;fill-rule:nonzero;fill:rgb(100%,42.857143%,57.14286%);fill-opacity:1;" d="M 249.96875 90.640625 C 249.96875 95.140625 243.21875 95.140625 243.21875 90.640625 C 243.21875 86.140625 249.96875 86.140625 249.96875 90.640625 "/>
<path style=" stroke:none;fill-rule:nonzero;fill:rgb(100%,42.857143%,57.14286%);fill-opacity:1;" d="M 249.96875 81.300781 C 249.96875 85.800781 243.21875 85.800781 243.21875 81.300781 C 243.21875 76.800781 249.96875 76.800781 249.96875 81.300781 "/>
<path style=" stroke:none;fill-rule:nonzero;fill:rgb(100%,42.857143%,57.14286%);fill-opacity:1;" d="M 249.96875 208.875 C 249.96875 213.375 243.21875 213.375 243.21875 208.875 C 243.21875 204.375 249.96875 204.375 249.96875 208.875 "/>
<path style=" stroke:none;fill-rule:nonzero;fill:rgb(100%,42.857143%,57.14286%);fill-opacity:1;" d="M 249.96875 81.039062 C 249.96875 85.539062 243.21875 85.539062 243.21875 81.039062 C 243.21875 76.539062 249.96875 76.539062 249.96875 81.039062 "/>
<path style=" stroke:none;fill-rule:nonzero;fill:rgb(100%,42.857143%,57.14286%);fill-opacity:1;" d="M 249.96875 207.207031 C 249.96875 211.707031 243.21875 211.707031 243.21875 207.207031 C 243.21875 202.707031 249.96875 202.707031 249.96875 207.207031 "/>
<path style=" stroke:none;fill-rule:nonzero;fill:rgb(100%,42.857143%,57.14286%);fill-opacity:1;" d="M 249.96875 218.519531 C 249.96875 223.019531 243.21875 223.019531 243.21875 218.519531 C 243.21875 214.019531 249.96875 214.019531 249.96875 218.519531 "/>
<path style="fill:none;stroke-width:1.5;stroke-linecap:butt;stroke-linejoin:miter;stroke:rgb(60.000002%,60.000002%,60.000002%);stroke-opacity:1;stroke-miterlimit:10;" d="M 328.791667 219.333333 L 328.791667 275.984375 " transform="matrix(0.75,0,0,0.75,0,0)"/>
<path style="fill:none;stroke-width:1.5;stroke-linecap:butt;stroke-linejoin:miter;stroke:rgb(60.000002%,60.000002%,60.000002%);stroke-opacity:1;stroke-miterlimit:10;" d="M 319.130208 275.984375 L 338.447917 275.984375 " transform="matrix(0.75,0,0,0.75,0,0)"/>
<path style="fill:none;stroke-width:1.5;stroke-linecap:butt;stroke-linejoin:miter;stroke:rgb(60.000002%,60.000002%,60.000002%);stroke-opacity:1;stroke-miterlimit:10;" d="M 328.791667 181.5625 L 328.791667 125.489583 " transform="matrix(0.75,0,0,0.75,0,0)"/>
<path style="fill:none;stroke-width:1.5;stroke-linecap:butt;stroke-linejoin:miter;stroke:rgb(60.000002%,60.000002%,60.000002%);stroke-opacity:1;stroke-miterlimit:10;" d="M 338.447917 125.489583 L 319.130208 125.489583 " transform="matrix(0.75,0,0,0.75,0,0)"/>
<path style=" stroke:none;fill-rule:nonzero;fill:rgb(100%,42.857143%,57.14286%);fill-opacity:1;" d="M 239.347656 164.5 L 253.835938 164.5 L 253.835938 136.167969 L 239.347656 136.167969 Z M 239.347656 164.5 "/>
<path style="fill:none;stroke-width:1.5;stroke-linecap:butt;stroke-linejoin:miter;stroke:rgb(60.000002%,60.000002%,60.000002%);stroke-opacity:1;stroke-miterlimit:10;" d="M 319.130208 199.65625 L 338.447917 199.65625 " transform="matrix(0.75,0,0,0.75,0,0)"/>
<path style=" stroke:none;fill-rule:nonzero;fill:rgb(100%,57.14286%,42.857143%);fill-opacity:1;" d="M 291.363281 128.816406 C 291.363281 133.316406 284.613281 133.316406 284.613281 128.816406 C 284.613281 124.316406 291.363281 124.316406 291.363281 128.816406 "/>
<path style=" stroke:none;fill-rule:nonzero;fill:rgb(100%,57.14286%,42.857143%);fill-opacity:1;" d="M 291.363281 127.484375 C 291.363281 131.984375 284.613281 131.984375 284.613281 127.484375 C 284.613281 122.984375 291.363281 122.984375 291.363281 127.484375 "/>
<path style=" stroke:none;fill-rule:nonzero;fill:rgb(100%,57.14286%,42.857143%);fill-opacity:1;" d="M 291.363281 127.484375 C 291.363281 131.984375 284.613281 131.984375 284.613281 127.484375 C 284.613281 122.984375 291.363281 122.984375 291.363281 127.484375 "/>
<path style=" stroke:none;fill-rule:nonzero;fill:rgb(100%,57.14286%,42.857143%);fill-opacity:1;" d="M 291.363281 124.6875 C 291.363281 129.1875 284.613281 129.1875 284.613281 124.6875 C 284.613281 120.1875 291.363281 120.1875 291.363281 124.6875 "/>
<path style=" stroke:none;fill-rule:nonzero;fill:rgb(100%,57.14286%,42.857143%);fill-opacity:1;" d="M 291.363281 194.402344 C 291.363281 198.902344 284.613281 198.902344 284.613281 194.402344 C 284.613281 189.902344 291.363281 189.902344 291.363281 194.402344 "/>
<path style=" stroke:none;fill-rule:nonzero;fill:rgb(100%,57.14286%,42.857143%);fill-opacity:1;" d="M 291.363281 122.535156 C 291.363281 127.035156 284.613281 127.035156 284.613281 122.535156 C 284.613281 118.035156 291.363281 118.035156 291.363281 122.535156 "/>
<path style=" stroke:none;fill-rule:nonzero;fill:rgb(100%,57.14286%,42.857143%);fill-opacity:1;" d="M 291.363281 122.46875 C 291.363281 126.96875 284.613281 126.96875 284.613281 122.46875 C 284.613281 117.96875 291.363281 117.96875 291.363281 122.46875 "/>
<path style=" stroke:none;fill-rule:nonzero;fill:rgb(100%,57.14286%,42.857143%);fill-opacity:1;" d="M 291.363281 128.074219 C 291.363281 132.574219 284.613281 132.574219 284.613281 128.074219 C 284.613281 123.574219 291.363281 123.574219 291.363281 128.074219 "/>
<path style=" stroke:none;fill-rule:nonzero;fill:rgb(100%,57.14286%,42.857143%);fill-opacity:1;" d="M 291.363281 128.097656 C 291.363281 132.597656 284.613281 132.597656 284.613281 128.097656 C 284.613281 123.597656 291.363281 123.597656 291.363281 128.097656 "/>
<path style=" stroke:none;fill-rule:nonzero;fill:rgb(100%,57.14286%,42.857143%);fill-opacity:1;" d="M 291.363281 198.121094 C 291.363281 202.621094 284.613281 202.621094 284.613281 198.121094 C 284.613281 193.621094 291.363281 193.621094 291.363281 198.121094 "/>
<path style=" stroke:none;fill-rule:nonzero;fill:rgb(100%,57.14286%,42.857143%);fill-opacity:1;" d="M 291.363281 129.230469 C 291.363281 133.730469 284.613281 133.730469 284.613281 129.230469 C 284.613281 124.730469 291.363281 124.730469 291.363281 129.230469 "/>
<path style=" stroke:none;fill-rule:nonzero;fill:rgb(100%,57.14286%,42.857143%);fill-opacity:1;" d="M 291.363281 193.527344 C 291.363281 198.027344 284.613281 198.027344 284.613281 193.527344 C 284.613281 189.027344 291.363281 189.027344 291.363281 193.527344 "/>
<path style=" stroke:none;fill-rule:nonzero;fill:rgb(100%,57.14286%,42.857143%);fill-opacity:1;" d="M 291.363281 122.039062 C 291.363281 126.539062 284.613281 126.539062 284.613281 122.039062 C 284.613281 117.539062 291.363281 117.539062 291.363281 122.039062 "/>
<path style=" stroke:none;fill-rule:nonzero;fill:rgb(100%,57.14286%,42.857143%);fill-opacity:1;" d="M 291.363281 195.667969 C 291.363281 200.167969 284.613281 200.167969 284.613281 195.667969 C 284.613281 191.167969 291.363281 191.167969 291.363281 195.667969 "/>
<path style=" stroke:none;fill-rule:nonzero;fill:rgb(100%,57.14286%,42.857143%);fill-opacity:1;" d="M 291.363281 192.984375 C 291.363281 197.484375 284.613281 197.484375 284.613281 192.984375 C 284.613281 188.484375 291.363281 188.484375 291.363281 192.984375 "/>
<path style=" stroke:none;fill-rule:nonzero;fill:rgb(100%,57.14286%,42.857143%);fill-opacity:1;" d="M 291.363281 126.078125 C 291.363281 130.578125 284.613281 130.578125 284.613281 126.078125 C 284.613281 121.578125 291.363281 121.578125 291.363281 126.078125 "/>
<path style=" stroke:none;fill-rule:nonzero;fill:rgb(100%,57.14286%,42.857143%);fill-opacity:1;" d="M 291.363281 121.726562 C 291.363281 126.226562 284.613281 126.226562 284.613281 121.726562 C 284.613281 117.226562 291.363281 117.226562 291.363281 121.726562 "/>
<path style=" stroke:none;fill-rule:nonzero;fill:rgb(100%,57.14286%,42.857143%);fill-opacity:1;" d="M 291.363281 193.910156 C 291.363281 198.410156 284.613281 198.410156 284.613281 193.910156 C 284.613281 189.410156 291.363281 189.410156 291.363281 193.910156 "/>
<path style=" stroke:none;fill-rule:nonzero;fill:rgb(100%,57.14286%,42.857143%);fill-opacity:1;" d="M 291.363281 129.460938 C 291.363281 133.960938 284.613281 133.960938 284.613281 129.460938 C 284.613281 124.960938 291.363281 124.960938 291.363281 129.460938 "/>
<path style=" stroke:none;fill-rule:nonzero;fill:rgb(100%,57.14286%,42.857143%);fill-opacity:1;" d="M 291.363281 125.851562 C 291.363281 130.351562 284.613281 130.351562 284.613281 125.851562 C 284.613281 121.351562 291.363281 121.351562 291.363281 125.851562 "/>
<path style="fill:none;stroke-width:1.5;stroke-linecap:butt;stroke-linejoin:miter;stroke:rgb(60.000002%,60.000002%,60.000002%);stroke-opacity:1;stroke-miterlimit:10;" d="M 383.984375 225.026042 L 383.984375 256.072917 " transform="matrix(0.75,0,0,0.75,0,0)"/>
<path style="fill:none;stroke-width:1.5;stroke-linecap:butt;stroke-linejoin:miter;stroke:rgb(60.000002%,60.000002%,60.000002%);stroke-opacity:1;stroke-miterlimit:10;" d="M 374.328125 256.072917 L 393.645833 256.072917 " transform="matrix(0.75,0,0,0.75,0,0)"/>
<path style="fill:none;stroke-width:1.5;stroke-linecap:butt;stroke-linejoin:miter;stroke:rgb(60.000002%,60.000002%,60.000002%);stroke-opacity:1;stroke-miterlimit:10;" d="M 383.984375 204.078125 L 383.984375 173.135417 " transform="matrix(0.75,0,0,0.75,0,0)"/>
<path style="fill:none;stroke-width:1.5;stroke-linecap:butt;stroke-linejoin:miter;stroke:rgb(60.000002%,60.000002%,60.000002%);stroke-opacity:1;stroke-miterlimit:10;" d="M 393.645833 173.135417 L 374.328125 173.135417 " transform="matrix(0.75,0,0,0.75,0,0)"/>
<path style=" stroke:none;fill-rule:nonzero;fill:rgb(100%,57.14286%,42.857143%);fill-opacity:1;" d="M 280.746094 168.769531 L 295.234375 168.769531 L 295.234375 153.054688 L 280.746094 153.054688 Z M 280.746094 168.769531 "/>
<path style="fill:none;stroke-width:1.5;stroke-linecap:butt;stroke-linejoin:miter;stroke:rgb(60.000002%,60.000002%,60.000002%);stroke-opacity:1;stroke-miterlimit:10;" d="M 374.328125 214.71875 L 393.645833 214.71875 " transform="matrix(0.75,0,0,0.75,0,0)"/>
<path style=" stroke:none;fill-rule:nonzero;fill:rgb(100%,71.428573%,28.57143%);fill-opacity:1;" d="M 332.757812 45.273438 C 332.757812 49.773438 326.007812 49.773438 326.007812 45.273438 C 326.007812 40.773438 332.757812 40.773438 332.757812 45.273438 "/>
<path style=" stroke:none;fill-rule:nonzero;fill:rgb(100%,71.428573%,28.57143%);fill-opacity:1;" d="M 332.757812 44.613281 C 332.757812 49.113281 326.007812 49.113281 326.007812 44.613281 C 326.007812 40.113281 332.757812 40.113281 332.757812 44.613281 "/>
<path style=" stroke:none;fill-rule:nonzero;fill:rgb(100%,71.428573%,28.57143%);fill-opacity:1;" d="M 332.757812 153.574219 C 332.757812 158.074219 326.007812 158.074219 326.007812 153.574219 C 326.007812 149.074219 332.757812 149.074219 332.757812 153.574219 "/>
<path style=" stroke:none;fill-rule:nonzero;fill:rgb(100%,71.428573%,28.57143%);fill-opacity:1;" d="M 332.757812 52.953125 C 332.757812 57.453125 326.007812 57.453125 326.007812 52.953125 C 326.007812 48.453125 332.757812 48.453125 332.757812 52.953125 "/>
<path style=" stroke:none;fill-rule:nonzero;fill:rgb(100%,71.428573%,28.57143%);fill-opacity:1;" d="M 332.757812 153.523438 C 332.757812 158.023438 326.007812 158.023438 326.007812 153.523438 C 326.007812 149.023438 332.757812 149.023438 332.757812 153.523438 "/>
<path style=" stroke:none;fill-rule:nonzero;fill:rgb(100%,71.428573%,28.57143%);fill-opacity:1;" d="M 332.757812 143.394531 C 332.757812 147.894531 326.007812 147.894531 326.007812 143.394531 C 326.007812 138.894531 332.757812 138.894531 332.757812 143.394531 "/>
<path style=" stroke:none;fill-rule:nonzero;fill:rgb(100%,71.428573%,28.57143%);fill-opacity:1;" d="M 332.757812 144.394531 C 332.757812 148.894531 326.007812 148.894531 326.007812 144.394531 C 326.007812 139.894531 332.757812 139.894531 332.757812 144.394531 "/>
<path style=" stroke:none;fill-rule:nonzero;fill:rgb(100%,71.428573%,28.57143%);fill-opacity:1;" d="M 332.757812 49.3125 C 332.757812 53.8125 326.007812 53.8125 326.007812 49.3125 C 326.007812 44.8125 332.757812 44.8125 332.757812 49.3125 "/>
<path style=" stroke:none;fill-rule:nonzero;fill:rgb(100%,71.428573%,28.57143%);fill-opacity:1;" d="M 332.757812 143.671875 C 332.757812 148.171875 326.007812 148.171875 326.007812 143.671875 C 326.007812 139.171875 332.757812 139.171875 332.757812 143.671875 "/>
<path style=" stroke:none;fill-rule:nonzero;fill:rgb(100%,71.428573%,28.57143%);fill-opacity:1;" d="M 332.757812 50.214844 C 332.757812 54.714844 326.007812 54.714844 326.007812 50.214844 C 326.007812 45.714844 332.757812 45.714844 332.757812 50.214844 "/>
<path style=" stroke:none;fill-rule:nonzero;fill:rgb(100%,71.428573%,28.57143%);fill-opacity:1;" d="M 332.757812 150.308594 C 332.757812 154.808594 326.007812 154.808594 326.007812 150.308594 C 326.007812 145.808594 332.757812 145.808594 332.757812 150.308594 "/>
<path style=" stroke:none;fill-rule:nonzero;fill:rgb(100%,71.428573%,28.57143%);fill-opacity:1;" d="M 332.757812 149.960938 C 332.757812 154.460938 326.007812 154.460938 326.007812 149.960938 C 326.007812 145.460938 332.757812 145.460938 332.757812 149.960938 "/>
<path style=" stroke:none;fill-rule:nonzero;fill:rgb(100%,71.428573%,28.57143%);fill-opacity:1;" d="M 332.757812 52.03125 C 332.757812 56.53125 326.007812 56.53125 326.007812 52.03125 C 326.007812 47.53125 332.757812 47.53125 332.757812 52.03125 "/>
<path style=" stroke:none;fill-rule:nonzero;fill:rgb(100%,71.428573%,28.57143%);fill-opacity:1;" d="M 332.757812 143.648438 C 332.757812 148.148438 326.007812 148.148438 326.007812 143.648438 C 326.007812 139.148438 332.757812 139.148438 332.757812 143.648438 "/>
<path style=" stroke:none;fill-rule:nonzero;fill:rgb(100%,71.428573%,28.57143%);fill-opacity:1;" d="M 332.757812 157.632812 C 332.757812 162.132812 326.007812 162.132812 326.007812 157.632812 C 326.007812 153.132812 332.757812 153.132812 332.757812 157.632812 "/>
<path style=" stroke:none;fill-rule:nonzero;fill:rgb(100%,71.428573%,28.57143%);fill-opacity:1;" d="M 332.757812 51.820312 C 332.757812 56.320312 326.007812 56.320312 326.007812 51.820312 C 326.007812 47.320312 332.757812 47.320312 332.757812 51.820312 "/>
<path style=" stroke:none;fill-rule:nonzero;fill:rgb(100%,71.428573%,28.57143%);fill-opacity:1;" d="M 332.757812 52.039062 C 332.757812 56.539062 326.007812 56.539062 326.007812 52.039062 C 326.007812 47.539062 332.757812 47.539062 332.757812 52.039062 "/>
<path style=" stroke:none;fill-rule:nonzero;fill:rgb(100%,71.428573%,28.57143%);fill-opacity:1;" d="M 332.757812 145.480469 C 332.757812 149.980469 326.007812 149.980469 326.007812 145.480469 C 326.007812 140.980469 332.757812 140.980469 332.757812 145.480469 "/>
<path style=" stroke:none;fill-rule:nonzero;fill:rgb(100%,71.428573%,28.57143%);fill-opacity:1;" d="M 332.757812 47.285156 C 332.757812 51.785156 326.007812 51.785156 326.007812 47.285156 C 326.007812 42.785156 332.757812 42.785156 332.757812 47.285156 "/>
<path style=" stroke:none;fill-rule:nonzero;fill:rgb(100%,71.428573%,28.57143%);fill-opacity:1;" d="M 332.757812 48.789062 C 332.757812 53.289062 326.007812 53.289062 326.007812 48.789062 C 326.007812 44.289062 332.757812 44.289062 332.757812 48.789062 "/>
<path style=" stroke:none;fill-rule:nonzero;fill:rgb(100%,71.428573%,28.57143%);fill-opacity:1;" d="M 332.757812 37.945312 C 332.757812 42.445312 326.007812 42.445312 326.007812 37.945312 C 326.007812 33.445312 332.757812 33.445312 332.757812 37.945312 "/>
<path style=" stroke:none;fill-rule:nonzero;fill:rgb(100%,71.428573%,28.57143%);fill-opacity:1;" d="M 332.757812 141.90625 C 332.757812 146.40625 326.007812 146.40625 326.007812 141.90625 C 326.007812 137.40625 332.757812 137.40625 332.757812 141.90625 "/>
<path style=" stroke:none;fill-rule:nonzero;fill:rgb(100%,71.428573%,28.57143%);fill-opacity:1;" d="M 332.757812 44.980469 C 332.757812 49.480469 326.007812 49.480469 326.007812 44.980469 C 326.007812 40.480469 332.757812 40.480469 332.757812 44.980469 "/>
<path style="fill:none;stroke-width:1.5;stroke-linecap:butt;stroke-linejoin:miter;stroke:rgb(60.000002%,60.000002%,60.000002%);stroke-opacity:1;stroke-miterlimit:10;" d="M 439.177083 144.5 L 439.177083 188.020833 " transform="matrix(0.75,0,0,0.75,0,0)"/>
<path style="fill:none;stroke-width:1.5;stroke-linecap:butt;stroke-linejoin:miter;stroke:rgb(60.000002%,60.000002%,60.000002%);stroke-opacity:1;stroke-miterlimit:10;" d="M 429.520833 188.020833 L 448.838542 188.020833 " transform="matrix(0.75,0,0,0.75,0,0)"/>
<path style="fill:none;stroke-width:1.5;stroke-linecap:butt;stroke-linejoin:miter;stroke:rgb(60.000002%,60.000002%,60.000002%);stroke-opacity:1;stroke-miterlimit:10;" d="M 439.177083 114.979167 L 439.177083 70.75 " transform="matrix(0.75,0,0,0.75,0,0)"/>
<path style="fill:none;stroke-width:1.5;stroke-linecap:butt;stroke-linejoin:miter;stroke:rgb(60.000002%,60.000002%,60.000002%);stroke-opacity:1;stroke-miterlimit:10;" d="M 448.838542 70.75 L 429.520833 70.75 " transform="matrix(0.75,0,0,0.75,0,0)"/>
<path style=" stroke:none;fill-rule:nonzero;fill:rgb(100%,71.428573%,28.57143%);fill-opacity:1;" d="M 322.140625 108.375 L 336.628906 108.375 L 336.628906 86.234375 L 322.140625 86.234375 Z M 322.140625 108.375 "/>
<path style="fill:none;stroke-width:1.5;stroke-linecap:butt;stroke-linejoin:miter;stroke:rgb(60.000002%,60.000002%,60.000002%);stroke-opacity:1;stroke-miterlimit:10;" d="M 429.520833 129.583333 L 448.838542 129.583333 " transform="matrix(0.75,0,0,0.75,0,0)"/>
<path style=" stroke:none;fill-rule:nonzero;fill:rgb(100%,85.714287%,14.285715%);fill-opacity:1;" d="M 374.15625 71.210938 C 374.15625 75.710938 367.40625 75.710938 367.40625 71.210938 C 367.40625 66.710938 374.15625 66.710938 374.15625 71.210938 "/>
<path style=" stroke:none;fill-rule:nonzero;fill:rgb(100%,85.714287%,14.285715%);fill-opacity:1;" d="M 374.15625 127.203125 C 374.15625 131.703125 367.40625 131.703125 367.40625 127.203125 C 367.40625 122.703125 374.15625 122.703125 374.15625 127.203125 "/>
<path style=" stroke:none;fill-rule:nonzero;fill:rgb(100%,85.714287%,14.285715%);fill-opacity:1;" d="M 374.15625 57.359375 C 374.15625 61.859375 367.40625 61.859375 367.40625 57.359375 C 367.40625 52.859375 374.15625 52.859375 374.15625 57.359375 "/>
<path style=" stroke:none;fill-rule:nonzero;fill:rgb(100%,85.714287%,14.285715%);fill-opacity:1;" d="M 374.15625 71.011719 C 374.15625 75.511719 367.40625 75.511719 367.40625 71.011719 C 367.40625 66.511719 374.15625 66.511719 374.15625 71.011719 "/>
<path style=" stroke:none;fill-rule:nonzero;fill:rgb(100%,85.714287%,14.285715%);fill-opacity:1;" d="M 374.15625 68.847656 C 374.15625 73.347656 367.40625 73.347656 367.40625 68.847656 C 367.40625 64.347656 374.15625 64.347656 374.15625 68.847656 "/>
<path style=" stroke:none;fill-rule:nonzero;fill:rgb(100%,85.714287%,14.285715%);fill-opacity:1;" d="M 374.15625 71.398438 C 374.15625 75.898438 367.40625 75.898438 367.40625 71.398438 C 367.40625 66.898438 374.15625 66.898438 374.15625 71.398438 "/>
<path style=" stroke:none;fill-rule:nonzero;fill:rgb(100%,85.714287%,14.285715%);fill-opacity:1;" d="M 374.15625 68.574219 C 374.15625 73.074219 367.40625 73.074219 367.40625 68.574219 C 367.40625 64.074219 374.15625 64.074219 374.15625 68.574219 "/>
<path style=" stroke:none;fill-rule:nonzero;fill:rgb(100%,85.714287%,14.285715%);fill-opacity:1;" d="M 374.15625 128.03125 C 374.15625 132.53125 367.40625 132.53125 367.40625 128.03125 C 367.40625 123.53125 374.15625 123.53125 374.15625 128.03125 "/>
<path style=" stroke:none;fill-rule:nonzero;fill:rgb(100%,85.714287%,14.285715%);fill-opacity:1;" d="M 374.15625 71.058594 C 374.15625 75.558594 367.40625 75.558594 367.40625 71.058594 C 367.40625 66.558594 374.15625 66.558594 374.15625 71.058594 "/>
<path style=" stroke:none;fill-rule:nonzero;fill:rgb(100%,85.714287%,14.285715%);fill-opacity:1;" d="M 374.15625 129.636719 C 374.15625 134.136719 367.40625 134.136719 367.40625 129.636719 C 367.40625 125.136719 374.15625 125.136719 374.15625 129.636719 "/>
<path style=" stroke:none;fill-rule:nonzero;fill:rgb(100%,85.714287%,14.285715%);fill-opacity:1;" d="M 374.15625 124.65625 C 374.15625 129.15625 367.40625 129.15625 367.40625 124.65625 C 367.40625 120.15625 374.15625 120.15625 374.15625 124.65625 "/>
<path style=" stroke:none;fill-rule:nonzero;fill:rgb(100%,85.714287%,14.285715%);fill-opacity:1;" d="M 374.15625 126.929688 C 374.15625 131.429688 367.40625 131.429688 367.40625 126.929688 C 367.40625 122.429688 374.15625 122.429688 374.15625 126.929688 "/>
<path style=" stroke:none;fill-rule:nonzero;fill:rgb(100%,85.714287%,14.285715%);fill-opacity:1;" d="M 374.15625 124.953125 C 374.15625 129.453125 367.40625 129.453125 367.40625 124.953125 C 367.40625 120.453125 374.15625 120.453125 374.15625 124.953125 "/>
<path style=" stroke:none;fill-rule:nonzero;fill:rgb(100%,85.714287%,14.285715%);fill-opacity:1;" d="M 374.15625 127.648438 C 374.15625 132.148438 367.40625 132.148438 367.40625 127.648438 C 367.40625 123.148438 374.15625 123.148438 374.15625 127.648438 "/>
<path style=" stroke:none;fill-rule:nonzero;fill:rgb(100%,85.714287%,14.285715%);fill-opacity:1;" d="M 374.15625 124.3125 C 374.15625 128.8125 367.40625 128.8125 367.40625 124.3125 C 367.40625 119.8125 374.15625 119.8125 374.15625 124.3125 "/>
<path style=" stroke:none;fill-rule:nonzero;fill:rgb(100%,85.714287%,14.285715%);fill-opacity:1;" d="M 374.15625 69.601562 C 374.15625 74.101562 367.40625 74.101562 367.40625 69.601562 C 367.40625 65.101562 374.15625 65.101562 374.15625 69.601562 "/>
<path style=" stroke:none;fill-rule:nonzero;fill:rgb(100%,85.714287%,14.285715%);fill-opacity:1;" d="M 374.15625 66.609375 C 374.15625 71.109375 367.40625 71.109375 367.40625 66.609375 C 367.40625 62.109375 374.15625 62.109375 374.15625 66.609375 "/>
<path style=" stroke:none;fill-rule:nonzero;fill:rgb(100%,85.714287%,14.285715%);fill-opacity:1;" d="M 374.15625 123.925781 C 374.15625 128.425781 367.40625 128.425781 367.40625 123.925781 C 367.40625 119.425781 374.15625 119.425781 374.15625 123.925781 "/>
<path style=" stroke:none;fill-rule:nonzero;fill:rgb(100%,85.714287%,14.285715%);fill-opacity:1;" d="M 374.15625 69.070312 C 374.15625 73.570312 367.40625 73.570312 367.40625 69.070312 C 367.40625 64.570312 374.15625 64.570312 374.15625 69.070312 "/>
<path style=" stroke:none;fill-rule:nonzero;fill:rgb(100%,85.714287%,14.285715%);fill-opacity:1;" d="M 374.15625 123.992188 C 374.15625 128.492188 367.40625 128.492188 367.40625 123.992188 C 367.40625 119.492188 374.15625 119.492188 374.15625 123.992188 "/>
<path style=" stroke:none;fill-rule:nonzero;fill:rgb(100%,85.714287%,14.285715%);fill-opacity:1;" d="M 374.15625 66.335938 C 374.15625 70.835938 367.40625 70.835938 367.40625 66.335938 C 367.40625 61.835938 374.15625 61.835938 374.15625 66.335938 "/>
<path style=" stroke:none;fill-rule:nonzero;fill:rgb(100%,85.714287%,14.285715%);fill-opacity:1;" d="M 374.15625 125.359375 C 374.15625 129.859375 367.40625 129.859375 367.40625 125.359375 C 367.40625 120.859375 374.15625 120.859375 374.15625 125.359375 "/>
<path style=" stroke:none;fill-rule:nonzero;fill:rgb(100%,85.714287%,14.285715%);fill-opacity:1;" d="M 374.15625 67.730469 C 374.15625 72.230469 367.40625 72.230469 367.40625 67.730469 C 367.40625 63.230469 374.15625 63.230469 374.15625 67.730469 "/>
<path style="fill:none;stroke-width:1.5;stroke-linecap:butt;stroke-linejoin:miter;stroke:rgb(60.000002%,60.000002%,60.000002%);stroke-opacity:1;stroke-miterlimit:10;" d="M 494.375 139.083333 L 494.375 165.072917 " transform="matrix(0.75,0,0,0.75,0,0)"/>
<path style="fill:none;stroke-width:1.5;stroke-linecap:butt;stroke-linejoin:miter;stroke:rgb(60.000002%,60.000002%,60.000002%);stroke-opacity:1;stroke-miterlimit:10;" d="M 484.713542 165.072917 L 504.03125 165.072917 " transform="matrix(0.75,0,0,0.75,0,0)"/>
<path style="fill:none;stroke-width:1.5;stroke-linecap:butt;stroke-linejoin:miter;stroke:rgb(60.000002%,60.000002%,60.000002%);stroke-opacity:1;stroke-miterlimit:10;" d="M 494.375 121.692708 L 494.375 95.8125 " transform="matrix(0.75,0,0,0.75,0,0)"/>
<path style="fill:none;stroke-width:1.5;stroke-linecap:butt;stroke-linejoin:miter;stroke:rgb(60.000002%,60.000002%,60.000002%);stroke-opacity:1;stroke-miterlimit:10;" d="M 504.03125 95.8125 L 484.713542 95.8125 " transform="matrix(0.75,0,0,0.75,0,0)"/>
<path style=" stroke:none;fill-rule:nonzero;fill:rgb(100%,85.714287%,14.285715%);fill-opacity:1;" d="M 363.535156 104.3125 L 378.023438 104.3125 L 378.023438 91.269531 L 363.535156 91.269531 Z M 363.535156 104.3125 "/>
<path style="fill:none;stroke-width:1.5;stroke-linecap:butt;stroke-linejoin:miter;stroke:rgb(60.000002%,60.000002%,60.000002%);stroke-opacity:1;stroke-miterlimit:10;" d="M 484.713542 130.385417 L 504.03125 130.385417 " transform="matrix(0.75,0,0,0.75,0,0)"/>
<path style=" stroke:none;fill-rule:nonzero;fill:rgb(100%,100%,0%);fill-opacity:1;" d="M 415.550781 159.394531 C 415.550781 163.894531 408.800781 163.894531 408.800781 159.394531 C 408.800781 154.894531 415.550781 154.894531 415.550781 159.394531 "/>
<path style=" stroke:none;fill-rule:nonzero;fill:rgb(100%,100%,0%);fill-opacity:1;" d="M 415.550781 71.8125 C 415.550781 76.3125 408.800781 76.3125 408.800781 71.8125 C 408.800781 67.3125 415.550781 67.3125 415.550781 71.8125 "/>
<path style=" stroke:none;fill-rule:nonzero;fill:rgb(100%,100%,0%);fill-opacity:1;" d="M 415.550781 79.296875 C 415.550781 83.796875 408.800781 83.796875 408.800781 79.296875 C 408.800781 74.796875 415.550781 74.796875 415.550781 79.296875 "/>
<path style=" stroke:none;fill-rule:nonzero;fill:rgb(100%,100%,0%);fill-opacity:1;" d="M 415.550781 75.191406 C 415.550781 79.691406 408.800781 79.691406 408.800781 75.191406 C 408.800781 70.691406 415.550781 70.691406 415.550781 75.191406 "/>
<path style=" stroke:none;fill-rule:nonzero;fill:rgb(100%,100%,0%);fill-opacity:1;" d="M 415.550781 77.207031 C 415.550781 81.707031 408.800781 81.707031 408.800781 77.207031 C 408.800781 72.707031 415.550781 72.707031 415.550781 77.207031 "/>
<path style=" stroke:none;fill-rule:nonzero;fill:rgb(100%,100%,0%);fill-opacity:1;" d="M 415.550781 67.863281 C 415.550781 72.363281 408.800781 72.363281 408.800781 67.863281 C 408.800781 63.363281 415.550781 63.363281 415.550781 67.863281 "/>
<path style=" stroke:none;fill-rule:nonzero;fill:rgb(100%,100%,0%);fill-opacity:1;" d="M 415.550781 77.421875 C 415.550781 81.921875 408.800781 81.921875 408.800781 77.421875 C 408.800781 72.921875 415.550781 72.921875 415.550781 77.421875 "/>
<path style=" stroke:none;fill-rule:nonzero;fill:rgb(100%,100%,0%);fill-opacity:1;" d="M 415.550781 78.058594 C 415.550781 82.558594 408.800781 82.558594 408.800781 78.058594 C 408.800781 73.558594 415.550781 73.558594 415.550781 78.058594 "/>
<path style=" stroke:none;fill-rule:nonzero;fill:rgb(100%,100%,0%);fill-opacity:1;" d="M 415.550781 158.011719 C 415.550781 162.511719 408.800781 162.511719 408.800781 158.011719 C 408.800781 153.511719 415.550781 153.511719 415.550781 158.011719 "/>
<path style=" stroke:none;fill-rule:nonzero;fill:rgb(100%,100%,0%);fill-opacity:1;" d="M 415.550781 158.167969 C 415.550781 162.667969 408.800781 162.667969 408.800781 158.167969 C 408.800781 153.667969 415.550781 153.667969 415.550781 158.167969 "/>
<path style=" stroke:none;fill-rule:nonzero;fill:rgb(100%,100%,0%);fill-opacity:1;" d="M 415.550781 78.980469 C 415.550781 83.480469 408.800781 83.480469 408.800781 78.980469 C 408.800781 74.480469 415.550781 74.480469 415.550781 78.980469 "/>
<path style=" stroke:none;fill-rule:nonzero;fill:rgb(100%,100%,0%);fill-opacity:1;" d="M 415.550781 171.746094 C 415.550781 176.246094 408.800781 176.246094 408.800781 171.746094 C 408.800781 167.246094 415.550781 167.246094 415.550781 171.746094 "/>
<path style=" stroke:none;fill-rule:nonzero;fill:rgb(100%,100%,0%);fill-opacity:1;" d="M 415.550781 168.328125 C 415.550781 172.828125 408.800781 172.828125 408.800781 168.328125 C 408.800781 163.828125 415.550781 163.828125 415.550781 168.328125 "/>
<path style=" stroke:none;fill-rule:nonzero;fill:rgb(100%,100%,0%);fill-opacity:1;" d="M 415.550781 76.539062 C 415.550781 81.039062 408.800781 81.039062 408.800781 76.539062 C 408.800781 72.039062 415.550781 72.039062 415.550781 76.539062 "/>
<path style="fill:none;stroke-width:1.5;stroke-linecap:butt;stroke-linejoin:miter;stroke:rgb(60.000002%,60.000002%,60.000002%);stroke-opacity:1;stroke-miterlimit:10;" d="M 549.567708 171.244792 L 549.567708 210.125 " transform="matrix(0.75,0,0,0.75,0,0)"/>
<path style="fill:none;stroke-width:1.5;stroke-linecap:butt;stroke-linejoin:miter;stroke:rgb(60.000002%,60.000002%,60.000002%);stroke-opacity:1;stroke-miterlimit:10;" d="M 539.911458 210.125 L 559.229167 210.125 " transform="matrix(0.75,0,0,0.75,0,0)"/>
<path style="fill:none;stroke-width:1.5;stroke-linecap:butt;stroke-linejoin:miter;stroke:rgb(60.000002%,60.000002%,60.000002%);stroke-opacity:1;stroke-miterlimit:10;" d="M 549.567708 145.265625 L 549.567708 106.463542 " transform="matrix(0.75,0,0,0.75,0,0)"/>
<path style="fill:none;stroke-width:1.5;stroke-linecap:butt;stroke-linejoin:miter;stroke:rgb(60.000002%,60.000002%,60.000002%);stroke-opacity:1;stroke-miterlimit:10;" d="M 559.229167 106.463542 L 539.911458 106.463542 " transform="matrix(0.75,0,0,0.75,0,0)"/>
<path style=" stroke:none;fill-rule:nonzero;fill:rgb(100%,100%,0%);fill-opacity:1;" d="M 404.933594 128.433594 L 419.421875 128.433594 L 419.421875 108.953125 L 404.933594 108.953125 Z M 404.933594 128.433594 "/>
<path style="fill:none;stroke-width:1.5;stroke-linecap:butt;stroke-linejoin:miter;stroke:rgb(60.000002%,60.000002%,60.000002%);stroke-opacity:1;stroke-miterlimit:10;" d="M 539.911458 158.390625 L 559.229167 158.390625 " transform="matrix(0.75,0,0,0.75,0,0)"/>
<g style="fill:rgb(45.09804%,45.09804%,45.09804%);fill-opacity:1;">
  <use xlink:href="#33wUYpeY5-1" x="54.464844" y="31.152344"/>
</g>
<g style="fill:rgb(45.09804%,45.09804%,45.09804%);fill-opacity:1;">
  <use xlink:href="#33wUYpeY6-1" x="62.070312" y="31.152344"/>
</g>
<g style="fill:rgb(45.09804%,45.09804%,45.09804%);fill-opacity:1;">
  <use xlink:href="#33wUYpeY6-2" x="69.414062" y="31.152344"/>
</g>
<g style="fill:rgb(45.09804%,45.09804%,45.09804%);fill-opacity:1;">
  <use xlink:href="#33wUYpeY7-1" x="74.347656" y="31.152344"/>
</g>
<g style="fill:rgb(45.09804%,45.09804%,45.09804%);fill-opacity:1;">
  <use xlink:href="#33wUYpeY8-1" x="77.679688" y="31.152344"/>
</g>
<g style="fill:rgb(45.09804%,45.09804%,45.09804%);fill-opacity:1;">
  <use xlink:href="#33wUYpeY9-1" x="83.980469" y="31.152344"/>
</g>
<g style="fill:rgb(45.09804%,45.09804%,45.09804%);fill-opacity:1;">
  <use xlink:href="#33wUYpeY5-2" x="91.320312" y="31.152344"/>
</g>
<g style="fill:rgb(45.09804%,45.09804%,45.09804%);fill-opacity:1;">
  <use xlink:href="#33wUYpeY9-2" x="98.925781" y="31.152344"/>
</g>
<g style="fill:rgb(45.09804%,45.09804%,45.09804%);fill-opacity:1;">
  <use xlink:href="#33wUYpeY8-2" x="103.632812" y="31.152344"/>
</g>
<g style="fill:rgb(45.09804%,45.09804%,45.09804%);fill-opacity:1;">
  <use xlink:href="#33wUYpeY5-3" x="110.984375" y="31.152344"/>
</g>
<path style="fill-rule:nonzero;fill:rgb(100%,64.705884%,0%);fill-opacity:0.95;stroke-width:1;stroke-linecap:butt;stroke-linejoin:miter;stroke:rgb(0%,0%,0%);stroke-opacity:1;stroke-miterlimit:10;" d="M 49.072917 46 L 69.072917 46 L 69.072917 26 L 49.072917 26 Z M 49.072917 46 " transform="matrix(0.75,0,0,0.75,0,0)"/>
<g style="fill:rgb(45.09804%,45.09804%,45.09804%);fill-opacity:1;">
  <use xlink:href="#33wUYpeY10-1" x="55.199219" y="48.40625"/>
</g>
<g style="fill:rgb(45.09804%,45.09804%,45.09804%);fill-opacity:1;">
  <use xlink:href="#33wUYpeY0-9" x="62.300781" y="48.40625"/>
</g>
<g style="fill:rgb(45.09804%,45.09804%,45.09804%);fill-opacity:1;">
  <use xlink:href="#33wUYpeY0-10" x="69.683594" y="48.40625"/>
</g>
<g style="fill:rgb(45.09804%,45.09804%,45.09804%);fill-opacity:1;">
  <use xlink:href="#33wUYpeY10-2" x="74.617188" y="48.40625"/>
</g>
<g style="fill:rgb(45.09804%,45.09804%,45.09804%);fill-opacity:1;">
  <use xlink:href="#33wUYpeY0-11" x="79.320312" y="48.40625"/>
</g>
<g style="fill:rgb(45.09804%,45.09804%,45.09804%);fill-opacity:1;">
  <use xlink:href="#33wUYpeY11-1" x="82.65625" y="48.40625"/>
</g>
<g style="fill:rgb(45.09804%,45.09804%,45.09804%);fill-opacity:1;">
  <use xlink:href="#33wUYpeY11-2" x="89.253906" y="48.40625"/>
</g>
<g style="fill:rgb(45.09804%,45.09804%,45.09804%);fill-opacity:1;">
  <use xlink:href="#33wUYpeY0-12" x="96.605469" y="48.40625"/>
</g>
<path style="fill-rule:nonzero;fill:rgb(11.764706%,56.470591%,100%);fill-opacity:1;stroke-width:1;stroke-linecap:butt;stroke-linejoin:miter;stroke:rgb(100%,100%,100%);stroke-opacity:1;stroke-miterlimit:10;" d="M 49.072917 69 L 69.072917 69 L 69.072917 49 L 49.072917 49 Z M 49.072917 69 " transform="matrix(0.75,0,0,0.75,0,0)"/>
</g>
</svg>
