<?xml version="1.0" encoding="UTF-8"?>
<svg xmlns="http://www.w3.org/2000/svg" xmlns:xlink="http://www.w3.org/1999/xlink" width="450pt" height="300pt" viewBox="0 0 450 300" version="1.1">
<defs>
<g>
<symbol overflow="visible" id="8CtLPZTx0-0">
<path style="stroke:none;" d=""/>
</symbol>
<symbol overflow="visible" id="8CtLPZTx0-1">
<path style="stroke:none;" d="M 8.65625 -2.359375 C 8.625 -2.53125 8.484375 -2.53125 8.4375 -2.53125 C 8.265625 -2.53125 8.265625 -2.453125 8.265625 -2.234375 C 8.265625 -1.15625 8.203125 -0.1875 7.53125 -0.1875 C 7.078125 -0.1875 6.9375 -0.609375 6.84375 -0.9375 C 6.75 -1.296875 6.765625 -2.078125 6.75 -2.65625 L 6.765625 -4.4375 C 6.75 -4.6875 6.765625 -5.3125 6.765625 -5.5625 C 6.75 -5.9375 6.765625 -6.5625 6.734375 -6.671875 C 6.671875 -6.96875 6.390625 -7.109375 6.140625 -7.109375 C 6.0625 -7.109375 5.640625 -7.09375 5.640625 -6.53125 L 5.640625 -3.453125 L 5.625 -1.765625 C 5.640625 -1.6875 5.21875 -0.1875 3.875 -0.1875 C 3.046875 -0.1875 2.53125 -0.71875 2.3125 -1.609375 C 2.171875 -2.09375 2.171875 -2.5625 2.171875 -3.015625 L 2.171875 -5.796875 C 2.171875 -6.140625 2.1875 -6.765625 2.15625 -6.84375 C 2.09375 -7.125 1.859375 -7.296875 1.578125 -7.296875 C 1.53125 -7.296875 1.078125 -7.28125 1.078125 -6.703125 L 1.078125 2.859375 C 1.078125 3.046875 1.09375 3.125 1.09375 3.125 C 1.15625 3.359375 1.390625 3.5625 1.671875 3.5625 C 2.015625 3.5625 2.125 3.265625 2.15625 3.21875 C 2.171875 3.0625 2.171875 2.21875 2.171875 -0.328125 C 2.828125 0.109375 3.578125 0.1875 3.90625 0.1875 C 5.0625 0.1875 5.53125 -0.5625 5.8125 -1.015625 C 6.140625 -0.28125 6.859375 0.1875 7.59375 0.1875 C 8.171875 0.1875 8.453125 -0.203125 8.578125 -0.71875 C 8.71875 -1.3125 8.65625 -2.359375 8.65625 -2.359375 Z M 8.65625 -2.359375 "/>
</symbol>
<symbol overflow="visible" id="8CtLPZTx0-2">
<path style="stroke:none;" d="M 8.71875 -6.71875 C 8.609375 -7.109375 8.265625 -7.109375 7.96875 -7.109375 L 4.203125 -7.109375 C 1.71875 -7.109375 0.578125 -4.390625 1.0625 -2.421875 C 1.421875 -0.96875 2.6875 0.1875 4.1875 0.1875 C 6.140625 0.1875 7.84375 -1.8125 7.1875 -4.359375 C 7.125 -4.640625 6.9375 -5.421875 6.234375 -6.15625 L 8.046875 -6.15625 C 8.265625 -6.15625 8.859375 -6.15625 8.71875 -6.71875 Z M 6.09375 -4.546875 C 6.28125 -3.78125 6.28125 -2.421875 5.9375 -1.578125 C 5.546875 -0.609375 4.75 -0.1875 4.109375 -0.1875 C 3.296875 -0.1875 2.484375 -0.78125 2.1875 -1.96875 C 2.078125 -2.453125 1.9375 -3.8125 2.28125 -4.78125 C 2.671875 -5.921875 3.609375 -6.15625 4.171875 -6.15625 C 5.5625 -6.15625 5.953125 -5.0625 6.09375 -4.546875 Z M 6.09375 -4.546875 "/>
</symbol>
<symbol overflow="visible" id="8CtLPZTx1-0">
<path style="stroke:none;" d="M 0.828125 0 L 7.421875 0 L 7.421875 -8.859375 L 0.828125 -8.859375 Z M 1.65625 -0.828125 L 1.65625 -8.03125 L 6.59375 -8.03125 L 6.59375 -0.828125 Z M 1.65625 -0.828125 "/>
</symbol>
<symbol overflow="visible" id="8CtLPZTx1-1">
<path style="stroke:none;" d="M 3.34375 -0.015625 C 3.34375 -1.078125 2.953125 -1.75 2.296875 -1.75 C 1.71875 -1.75 1.421875 -1.296875 1.421875 -0.875 C 1.421875 -0.453125 1.703125 0 2.296875 0 C 2.546875 0 2.765625 -0.09375 2.953125 -0.265625 C 2.984375 1.046875 2.53125 2.046875 1.796875 2.828125 C 1.703125 2.921875 1.6875 2.9375 1.6875 3 C 1.6875 3.125 1.765625 3.1875 1.84375 3.1875 C 2.046875 3.1875 3.34375 1.875 3.34375 -0.015625 Z M 3.34375 -0.015625 "/>
</symbol>
<symbol overflow="visible" id="8CtLPZTx2-0">
<path style="stroke:none;" d="M 0.515625 1.859375 L 0.515625 -7.40625 L 5.765625 -7.40625 L 5.765625 1.859375 Z M 1.109375 1.265625 L 5.1875 1.265625 L 5.1875 -6.8125 L 1.109375 -6.8125 Z M 1.109375 1.265625 "/>
</symbol>
<symbol overflow="visible" id="8CtLPZTx2-1">
<path style="stroke:none;" d="M 2.015625 -0.875 L 5.625 -0.875 L 5.625 0 L 0.765625 0 L 0.765625 -0.875 C 1.160156 -1.28125 1.695312 -1.820312 2.375 -2.5 C 3.050781 -3.1875 3.476562 -3.628906 3.65625 -3.828125 C 3.988281 -4.203125 4.21875 -4.519531 4.34375 -4.78125 C 4.476562 -5.039062 4.546875 -5.296875 4.546875 -5.546875 C 4.546875 -5.953125 4.398438 -6.28125 4.109375 -6.53125 C 3.828125 -6.789062 3.457031 -6.921875 3 -6.921875 C 2.675781 -6.921875 2.332031 -6.863281 1.96875 -6.75 C 1.613281 -6.632812 1.234375 -6.460938 0.828125 -6.234375 L 0.828125 -7.28125 C 1.242188 -7.445312 1.628906 -7.570312 1.984375 -7.65625 C 2.347656 -7.75 2.679688 -7.796875 2.984375 -7.796875 C 3.773438 -7.796875 4.40625 -7.597656 4.875 -7.203125 C 5.351562 -6.804688 5.59375 -6.273438 5.59375 -5.609375 C 5.59375 -5.296875 5.53125 -5 5.40625 -4.71875 C 5.289062 -4.4375 5.078125 -4.101562 4.765625 -3.71875 C 4.679688 -3.613281 4.410156 -3.320312 3.953125 -2.84375 C 3.492188 -2.375 2.847656 -1.71875 2.015625 -0.875 Z M 2.015625 -0.875 "/>
</symbol>
<symbol overflow="visible" id="8CtLPZTx2-2">
<path style="stroke:none;" d=""/>
</symbol>
<symbol overflow="visible" id="8CtLPZTx2-3">
<path style="stroke:none;" d="M 3.34375 -6.96875 C 2.800781 -6.96875 2.394531 -6.707031 2.125 -6.1875 C 1.863281 -5.664062 1.734375 -4.875 1.734375 -3.8125 C 1.734375 -2.769531 1.863281 -1.984375 2.125 -1.453125 C 2.394531 -0.929688 2.800781 -0.671875 3.34375 -0.671875 C 3.875 -0.671875 4.273438 -0.929688 4.546875 -1.453125 C 4.816406 -1.984375 4.953125 -2.769531 4.953125 -3.8125 C 4.953125 -4.875 4.816406 -5.664062 4.546875 -6.1875 C 4.273438 -6.707031 3.875 -6.96875 3.34375 -6.96875 Z M 3.34375 -7.796875 C 4.195312 -7.796875 4.847656 -7.453125 5.296875 -6.765625 C 5.753906 -6.085938 5.984375 -5.101562 5.984375 -3.8125 C 5.984375 -2.53125 5.753906 -1.546875 5.296875 -0.859375 C 4.847656 -0.179688 4.195312 0.15625 3.34375 0.15625 C 2.476562 0.15625 1.816406 -0.179688 1.359375 -0.859375 C 0.910156 -1.546875 0.6875 -2.53125 0.6875 -3.8125 C 0.6875 -5.101562 0.910156 -6.085938 1.359375 -6.765625 C 1.816406 -7.453125 2.476562 -7.796875 3.34375 -7.796875 Z M 3.34375 -7.796875 "/>
</symbol>
<symbol overflow="visible" id="8CtLPZTx2-4">
<path style="stroke:none;" d="M 1.125 -1.296875 L 2.203125 -1.296875 L 2.203125 0 L 1.125 0 Z M 1.125 -1.296875 "/>
</symbol>
<symbol overflow="visible" id="8CtLPZTx2-5">
<path style="stroke:none;" d="M 1.140625 -7.65625 L 5.203125 -7.65625 L 5.203125 -6.78125 L 2.078125 -6.78125 L 2.078125 -4.90625 C 2.234375 -4.957031 2.382812 -4.992188 2.53125 -5.015625 C 2.6875 -5.046875 2.835938 -5.0625 2.984375 -5.0625 C 3.835938 -5.0625 4.515625 -4.828125 5.015625 -4.359375 C 5.515625 -3.890625 5.765625 -3.253906 5.765625 -2.453125 C 5.765625 -1.628906 5.503906 -0.988281 4.984375 -0.53125 C 4.472656 -0.0703125 3.753906 0.15625 2.828125 0.15625 C 2.503906 0.15625 2.175781 0.125 1.84375 0.0625 C 1.507812 0.0078125 1.164062 -0.0664062 0.8125 -0.171875 L 0.8125 -1.21875 C 1.113281 -1.050781 1.425781 -0.925781 1.75 -0.84375 C 2.082031 -0.757812 2.429688 -0.71875 2.796875 -0.71875 C 3.390625 -0.71875 3.859375 -0.875 4.203125 -1.1875 C 4.554688 -1.5 4.734375 -1.921875 4.734375 -2.453125 C 4.734375 -2.984375 4.554688 -3.40625 4.203125 -3.71875 C 3.859375 -4.03125 3.390625 -4.1875 2.796875 -4.1875 C 2.523438 -4.1875 2.25 -4.15625 1.96875 -4.09375 C 1.695312 -4.03125 1.421875 -3.9375 1.140625 -3.8125 Z M 1.140625 -7.65625 "/>
</symbol>
<symbol overflow="visible" id="8CtLPZTx2-6">
<path style="stroke:none;" d="M 1.234375 -1.296875 L 2.3125 -1.296875 L 2.3125 -0.421875 L 1.46875 1.21875 L 0.8125 1.21875 L 1.234375 -0.421875 Z M 1.234375 -1.296875 "/>
</symbol>
<symbol overflow="visible" id="8CtLPZTx2-7">
<path style="stroke:none;" d="M 1.296875 -0.875 L 3 -0.875 L 3 -6.71875 L 1.15625 -6.34375 L 1.15625 -7.28125 L 2.984375 -7.65625 L 4.015625 -7.65625 L 4.015625 -0.875 L 5.71875 -0.875 L 5.71875 0 L 1.296875 0 Z M 1.296875 -0.875 "/>
</symbol>
<symbol overflow="visible" id="8CtLPZTx3-0">
<path style="stroke:none;" d="M 0.515625 1.859375 L 0.515625 -7.40625 L 5.765625 -7.40625 L 5.765625 1.859375 Z M 1.109375 1.265625 L 5.1875 1.265625 L 5.1875 -6.8125 L 1.109375 -6.8125 Z M 1.109375 1.265625 "/>
</symbol>
<symbol overflow="visible" id="8CtLPZTx3-1">
<path style="stroke:none;" d="M 1.125 -1.296875 L 2.203125 -1.296875 L 2.203125 0 L 1.125 0 Z M 1.125 -1.296875 "/>
</symbol>
<symbol overflow="visible" id="8CtLPZTx3-2">
<path style="stroke:none;" d="M 0.515625 -3.296875 L 3.28125 -3.296875 L 3.28125 -2.453125 L 0.515625 -2.453125 Z M 0.515625 -3.296875 "/>
</symbol>
<symbol overflow="visible" id="8CtLPZTx3-3">
<path style="stroke:none;" d="M 1.296875 -0.875 L 3 -0.875 L 3 -6.71875 L 1.15625 -6.34375 L 1.15625 -7.28125 L 2.984375 -7.65625 L 4.015625 -7.65625 L 4.015625 -0.875 L 5.71875 -0.875 L 5.71875 0 L 1.296875 0 Z M 1.296875 -0.875 "/>
</symbol>
<symbol overflow="visible" id="8CtLPZTx3-4">
<path style="stroke:none;" d="M 3.34375 -6.96875 C 2.800781 -6.96875 2.394531 -6.707031 2.125 -6.1875 C 1.863281 -5.664062 1.734375 -4.875 1.734375 -3.8125 C 1.734375 -2.769531 1.863281 -1.984375 2.125 -1.453125 C 2.394531 -0.929688 2.800781 -0.671875 3.34375 -0.671875 C 3.875 -0.671875 4.273438 -0.929688 4.546875 -1.453125 C 4.816406 -1.984375 4.953125 -2.769531 4.953125 -3.8125 C 4.953125 -4.875 4.816406 -5.664062 4.546875 -6.1875 C 4.273438 -6.707031 3.875 -6.96875 3.34375 -6.96875 Z M 3.34375 -7.796875 C 4.195312 -7.796875 4.847656 -7.453125 5.296875 -6.765625 C 5.753906 -6.085938 5.984375 -5.101562 5.984375 -3.8125 C 5.984375 -2.53125 5.753906 -1.546875 5.296875 -0.859375 C 4.847656 -0.179688 4.195312 0.15625 3.34375 0.15625 C 2.476562 0.15625 1.816406 -0.179688 1.359375 -0.859375 C 0.910156 -1.546875 0.6875 -2.53125 0.6875 -3.8125 C 0.6875 -5.101562 0.910156 -6.085938 1.359375 -6.765625 C 1.816406 -7.453125 2.476562 -7.796875 3.34375 -7.796875 Z M 3.34375 -7.796875 "/>
</symbol>
<symbol overflow="visible" id="8CtLPZTx4-0">
<path style="stroke:none;" d="M 0.515625 1.859375 L 0.515625 -7.40625 L 5.765625 -7.40625 L 5.765625 1.859375 Z M 1.109375 1.265625 L 5.1875 1.265625 L 5.1875 -6.8125 L 1.109375 -6.8125 Z M 1.109375 1.265625 "/>
</symbol>
<symbol overflow="visible" id="8CtLPZTx4-1">
<path style="stroke:none;" d="M 3.34375 -6.96875 C 2.800781 -6.96875 2.394531 -6.707031 2.125 -6.1875 C 1.863281 -5.664062 1.734375 -4.875 1.734375 -3.8125 C 1.734375 -2.769531 1.863281 -1.984375 2.125 -1.453125 C 2.394531 -0.929688 2.800781 -0.671875 3.34375 -0.671875 C 3.875 -0.671875 4.273438 -0.929688 4.546875 -1.453125 C 4.816406 -1.984375 4.953125 -2.769531 4.953125 -3.8125 C 4.953125 -4.875 4.816406 -5.664062 4.546875 -6.1875 C 4.273438 -6.707031 3.875 -6.96875 3.34375 -6.96875 Z M 3.34375 -7.796875 C 4.195312 -7.796875 4.847656 -7.453125 5.296875 -6.765625 C 5.753906 -6.085938 5.984375 -5.101562 5.984375 -3.8125 C 5.984375 -2.53125 5.753906 -1.546875 5.296875 -0.859375 C 4.847656 -0.179688 4.195312 0.15625 3.34375 0.15625 C 2.476562 0.15625 1.816406 -0.179688 1.359375 -0.859375 C 0.910156 -1.546875 0.6875 -2.53125 0.6875 -3.8125 C 0.6875 -5.101562 0.910156 -6.085938 1.359375 -6.765625 C 1.816406 -7.453125 2.476562 -7.796875 3.34375 -7.796875 Z M 3.34375 -7.796875 "/>
</symbol>
<symbol overflow="visible" id="8CtLPZTx4-2">
<path style="stroke:none;" d="M 1.234375 -1.296875 L 2.3125 -1.296875 L 2.3125 -0.421875 L 1.46875 1.21875 L 0.8125 1.21875 L 1.234375 -0.421875 Z M 1.234375 -1.296875 "/>
</symbol>
<symbol overflow="visible" id="8CtLPZTx4-3">
<path style="stroke:none;" d=""/>
</symbol>
<symbol overflow="visible" id="8CtLPZTx5-0">
<path style="stroke:none;" d="M 0.515625 1.859375 L 0.515625 -7.40625 L 5.765625 -7.40625 L 5.765625 1.859375 Z M 1.109375 1.265625 L 5.1875 1.265625 L 5.1875 -6.8125 L 1.109375 -6.8125 Z M 1.109375 1.265625 "/>
</symbol>
<symbol overflow="visible" id="8CtLPZTx5-1">
<path style="stroke:none;" d="M 3.34375 -6.96875 C 2.800781 -6.96875 2.394531 -6.707031 2.125 -6.1875 C 1.863281 -5.664062 1.734375 -4.875 1.734375 -3.8125 C 1.734375 -2.769531 1.863281 -1.984375 2.125 -1.453125 C 2.394531 -0.929688 2.800781 -0.671875 3.34375 -0.671875 C 3.875 -0.671875 4.273438 -0.929688 4.546875 -1.453125 C 4.816406 -1.984375 4.953125 -2.769531 4.953125 -3.8125 C 4.953125 -4.875 4.816406 -5.664062 4.546875 -6.1875 C 4.273438 -6.707031 3.875 -6.96875 3.34375 -6.96875 Z M 3.34375 -7.796875 C 4.195312 -7.796875 4.847656 -7.453125 5.296875 -6.765625 C 5.753906 -6.085938 5.984375 -5.101562 5.984375 -3.8125 C 5.984375 -2.53125 5.753906 -1.546875 5.296875 -0.859375 C 4.847656 -0.179688 4.195312 0.15625 3.34375 0.15625 C 2.476562 0.15625 1.816406 -0.179688 1.359375 -0.859375 C 0.910156 -1.546875 0.6875 -2.53125 0.6875 -3.8125 C 0.6875 -5.101562 0.910156 -6.085938 1.359375 -6.765625 C 1.816406 -7.453125 2.476562 -7.796875 3.34375 -7.796875 Z M 3.34375 -7.796875 "/>
</symbol>
<symbol overflow="visible" id="8CtLPZTx5-2">
<path style="stroke:none;" d="M 1.125 -1.296875 L 2.203125 -1.296875 L 2.203125 0 L 1.125 0 Z M 1.125 -1.296875 "/>
</symbol>
<symbol overflow="visible" id="8CtLPZTx6-0">
<path style="stroke:none;" d="M 0.515625 1.859375 L 0.515625 -7.40625 L 5.765625 -7.40625 L 5.765625 1.859375 Z M 1.109375 1.265625 L 5.1875 1.265625 L 5.1875 -6.8125 L 1.109375 -6.8125 Z M 1.109375 1.265625 "/>
</symbol>
<symbol overflow="visible" id="8CtLPZTx6-1">
<path style="stroke:none;" d="M 3.34375 -6.96875 C 2.800781 -6.96875 2.394531 -6.707031 2.125 -6.1875 C 1.863281 -5.664062 1.734375 -4.875 1.734375 -3.8125 C 1.734375 -2.769531 1.863281 -1.984375 2.125 -1.453125 C 2.394531 -0.929688 2.800781 -0.671875 3.34375 -0.671875 C 3.875 -0.671875 4.273438 -0.929688 4.546875 -1.453125 C 4.816406 -1.984375 4.953125 -2.769531 4.953125 -3.8125 C 4.953125 -4.875 4.816406 -5.664062 4.546875 -6.1875 C 4.273438 -6.707031 3.875 -6.96875 3.34375 -6.96875 Z M 3.34375 -7.796875 C 4.195312 -7.796875 4.847656 -7.453125 5.296875 -6.765625 C 5.753906 -6.085938 5.984375 -5.101562 5.984375 -3.8125 C 5.984375 -2.53125 5.753906 -1.546875 5.296875 -0.859375 C 4.847656 -0.179688 4.195312 0.15625 3.34375 0.15625 C 2.476562 0.15625 1.816406 -0.179688 1.359375 -0.859375 C 0.910156 -1.546875 0.6875 -2.53125 0.6875 -3.8125 C 0.6875 -5.101562 0.910156 -6.085938 1.359375 -6.765625 C 1.816406 -7.453125 2.476562 -7.796875 3.34375 -7.796875 Z M 3.34375 -7.796875 "/>
</symbol>
<symbol overflow="visible" id="8CtLPZTx6-2">
<path style="stroke:none;" d="M 2.015625 -0.875 L 5.625 -0.875 L 5.625 0 L 0.765625 0 L 0.765625 -0.875 C 1.160156 -1.28125 1.695312 -1.820312 2.375 -2.5 C 3.050781 -3.1875 3.476562 -3.628906 3.65625 -3.828125 C 3.988281 -4.203125 4.21875 -4.519531 4.34375 -4.78125 C 4.476562 -5.039062 4.546875 -5.296875 4.546875 -5.546875 C 4.546875 -5.953125 4.398438 -6.28125 4.109375 -6.53125 C 3.828125 -6.789062 3.457031 -6.921875 3 -6.921875 C 2.675781 -6.921875 2.332031 -6.863281 1.96875 -6.75 C 1.613281 -6.632812 1.234375 -6.460938 0.828125 -6.234375 L 0.828125 -7.28125 C 1.242188 -7.445312 1.628906 -7.570312 1.984375 -7.65625 C 2.347656 -7.75 2.679688 -7.796875 2.984375 -7.796875 C 3.773438 -7.796875 4.40625 -7.597656 4.875 -7.203125 C 5.351562 -6.804688 5.59375 -6.273438 5.59375 -5.609375 C 5.59375 -5.296875 5.53125 -5 5.40625 -4.71875 C 5.289062 -4.4375 5.078125 -4.101562 4.765625 -3.71875 C 4.679688 -3.613281 4.410156 -3.320312 3.953125 -2.84375 C 3.492188 -2.375 2.847656 -1.71875 2.015625 -0.875 Z M 2.015625 -0.875 "/>
</symbol>
<symbol overflow="visible" id="8CtLPZTx6-3">
<path style="stroke:none;" d="M 1.234375 -1.296875 L 2.3125 -1.296875 L 2.3125 -0.421875 L 1.46875 1.21875 L 0.8125 1.21875 L 1.234375 -0.421875 Z M 1.234375 -1.296875 "/>
</symbol>
<symbol overflow="visible" id="8CtLPZTx6-4">
<path style="stroke:none;" d=""/>
</symbol>
<symbol overflow="visible" id="8CtLPZTx6-5">
<path style="stroke:none;" d="M 1.296875 -0.875 L 3 -0.875 L 3 -6.71875 L 1.15625 -6.34375 L 1.15625 -7.28125 L 2.984375 -7.65625 L 4.015625 -7.65625 L 4.015625 -0.875 L 5.71875 -0.875 L 5.71875 0 L 1.296875 0 Z M 1.296875 -0.875 "/>
</symbol>
<symbol overflow="visible" id="8CtLPZTx6-6">
<path style="stroke:none;" d="M 1.125 -1.296875 L 2.203125 -1.296875 L 2.203125 0 L 1.125 0 Z M 1.125 -1.296875 "/>
</symbol>
<symbol overflow="visible" id="8CtLPZTx7-0">
<path style="stroke:none;" d="M 0.515625 1.859375 L 0.515625 -7.40625 L 5.765625 -7.40625 L 5.765625 1.859375 Z M 1.109375 1.265625 L 5.1875 1.265625 L 5.1875 -6.8125 L 1.109375 -6.8125 Z M 1.109375 1.265625 "/>
</symbol>
<symbol overflow="visible" id="8CtLPZTx7-1">
<path style="stroke:none;" d="M 1.125 -1.296875 L 2.203125 -1.296875 L 2.203125 0 L 1.125 0 Z M 1.125 -1.296875 "/>
</symbol>
<symbol overflow="visible" id="8CtLPZTx8-0">
<path style="stroke:none;" d="M 0.515625 1.859375 L 0.515625 -7.40625 L 5.765625 -7.40625 L 5.765625 1.859375 Z M 1.109375 1.265625 L 5.1875 1.265625 L 5.1875 -6.8125 L 1.109375 -6.8125 Z M 1.109375 1.265625 "/>
</symbol>
<symbol overflow="visible" id="8CtLPZTx8-1">
<path style="stroke:none;" d="M 1.140625 -7.65625 L 5.203125 -7.65625 L 5.203125 -6.78125 L 2.078125 -6.78125 L 2.078125 -4.90625 C 2.234375 -4.957031 2.382812 -4.992188 2.53125 -5.015625 C 2.6875 -5.046875 2.835938 -5.0625 2.984375 -5.0625 C 3.835938 -5.0625 4.515625 -4.828125 5.015625 -4.359375 C 5.515625 -3.890625 5.765625 -3.253906 5.765625 -2.453125 C 5.765625 -1.628906 5.503906 -0.988281 4.984375 -0.53125 C 4.472656 -0.0703125 3.753906 0.15625 2.828125 0.15625 C 2.503906 0.15625 2.175781 0.125 1.84375 0.0625 C 1.507812 0.0078125 1.164062 -0.0664062 0.8125 -0.171875 L 0.8125 -1.21875 C 1.113281 -1.050781 1.425781 -0.925781 1.75 -0.84375 C 2.082031 -0.757812 2.429688 -0.71875 2.796875 -0.71875 C 3.390625 -0.71875 3.859375 -0.875 4.203125 -1.1875 C 4.554688 -1.5 4.734375 -1.921875 4.734375 -2.453125 C 4.734375 -2.984375 4.554688 -3.40625 4.203125 -3.71875 C 3.859375 -4.03125 3.390625 -4.1875 2.796875 -4.1875 C 2.523438 -4.1875 2.25 -4.15625 1.96875 -4.09375 C 1.695312 -4.03125 1.421875 -3.9375 1.140625 -3.8125 Z M 1.140625 -7.65625 "/>
</symbol>
<symbol overflow="visible" id="8CtLPZTx9-0">
<path style="stroke:none;" d="M 0.515625 1.859375 L 0.515625 -7.40625 L 5.765625 -7.40625 L 5.765625 1.859375 Z M 1.109375 1.265625 L 5.1875 1.265625 L 5.1875 -6.8125 L 1.109375 -6.8125 Z M 1.109375 1.265625 "/>
</symbol>
<symbol overflow="visible" id="8CtLPZTx9-1">
<path style="stroke:none;" d="M 1.296875 -0.875 L 3 -0.875 L 3 -6.71875 L 1.15625 -6.34375 L 1.15625 -7.28125 L 2.984375 -7.65625 L 4.015625 -7.65625 L 4.015625 -0.875 L 5.71875 -0.875 L 5.71875 0 L 1.296875 0 Z M 1.296875 -0.875 "/>
</symbol>
<symbol overflow="visible" id="8CtLPZTx9-2">
<path style="stroke:none;" d="M 1.125 -1.296875 L 2.203125 -1.296875 L 2.203125 0 L 1.125 0 Z M 1.125 -1.296875 "/>
</symbol>
<symbol overflow="visible" id="8CtLPZTx9-3">
<path style="stroke:none;" d="M 1.234375 -1.296875 L 2.3125 -1.296875 L 2.3125 -0.421875 L 1.46875 1.21875 L 0.8125 1.21875 L 1.234375 -0.421875 Z M 1.234375 -1.296875 "/>
</symbol>
<symbol overflow="visible" id="8CtLPZTx9-4">
<path style="stroke:none;" d=""/>
</symbol>
<symbol overflow="visible" id="8CtLPZTx9-5">
<path style="stroke:none;" d="M 3.34375 -6.96875 C 2.800781 -6.96875 2.394531 -6.707031 2.125 -6.1875 C 1.863281 -5.664062 1.734375 -4.875 1.734375 -3.8125 C 1.734375 -2.769531 1.863281 -1.984375 2.125 -1.453125 C 2.394531 -0.929688 2.800781 -0.671875 3.34375 -0.671875 C 3.875 -0.671875 4.273438 -0.929688 4.546875 -1.453125 C 4.816406 -1.984375 4.953125 -2.769531 4.953125 -3.8125 C 4.953125 -4.875 4.816406 -5.664062 4.546875 -6.1875 C 4.273438 -6.707031 3.875 -6.96875 3.34375 -6.96875 Z M 3.34375 -7.796875 C 4.195312 -7.796875 4.847656 -7.453125 5.296875 -6.765625 C 5.753906 -6.085938 5.984375 -5.101562 5.984375 -3.8125 C 5.984375 -2.53125 5.753906 -1.546875 5.296875 -0.859375 C 4.847656 -0.179688 4.195312 0.15625 3.34375 0.15625 C 2.476562 0.15625 1.816406 -0.179688 1.359375 -0.859375 C 0.910156 -1.546875 0.6875 -2.53125 0.6875 -3.8125 C 0.6875 -5.101562 0.910156 -6.085938 1.359375 -6.765625 C 1.816406 -7.453125 2.476562 -7.796875 3.34375 -7.796875 Z M 3.34375 -7.796875 "/>
</symbol>
<symbol overflow="visible" id="8CtLPZTx10-0">
<path style="stroke:none;" d="M 0.515625 1.859375 L 0.515625 -7.40625 L 5.765625 -7.40625 L 5.765625 1.859375 Z M 1.109375 1.265625 L 5.1875 1.265625 L 5.1875 -6.8125 L 1.109375 -6.8125 Z M 1.109375 1.265625 "/>
</symbol>
<symbol overflow="visible" id="8CtLPZTx10-1">
<path style="stroke:none;" d="M 2.015625 -0.875 L 5.625 -0.875 L 5.625 0 L 0.765625 0 L 0.765625 -0.875 C 1.160156 -1.28125 1.695312 -1.820312 2.375 -2.5 C 3.050781 -3.1875 3.476562 -3.628906 3.65625 -3.828125 C 3.988281 -4.203125 4.21875 -4.519531 4.34375 -4.78125 C 4.476562 -5.039062 4.546875 -5.296875 4.546875 -5.546875 C 4.546875 -5.953125 4.398438 -6.28125 4.109375 -6.53125 C 3.828125 -6.789062 3.457031 -6.921875 3 -6.921875 C 2.675781 -6.921875 2.332031 -6.863281 1.96875 -6.75 C 1.613281 -6.632812 1.234375 -6.460938 0.828125 -6.234375 L 0.828125 -7.28125 C 1.242188 -7.445312 1.628906 -7.570312 1.984375 -7.65625 C 2.347656 -7.75 2.679688 -7.796875 2.984375 -7.796875 C 3.773438 -7.796875 4.40625 -7.597656 4.875 -7.203125 C 5.351562 -6.804688 5.59375 -6.273438 5.59375 -5.609375 C 5.59375 -5.296875 5.53125 -5 5.40625 -4.71875 C 5.289062 -4.4375 5.078125 -4.101562 4.765625 -3.71875 C 4.679688 -3.613281 4.410156 -3.320312 3.953125 -2.84375 C 3.492188 -2.375 2.847656 -1.71875 2.015625 -0.875 Z M 2.015625 -0.875 "/>
</symbol>
<symbol overflow="visible" id="8CtLPZTx11-0">
<path style="stroke:none;" d="M 0.515625 1.859375 L 0.515625 -7.40625 L 5.765625 -7.40625 L 5.765625 1.859375 Z M 1.109375 1.265625 L 5.1875 1.265625 L 5.1875 -6.8125 L 1.109375 -6.8125 Z M 1.109375 1.265625 "/>
</symbol>
<symbol overflow="visible" id="8CtLPZTx11-1">
<path style="stroke:none;" d=""/>
</symbol>
<symbol overflow="visible" id="8CtLPZTx12-0">
<path style="stroke:none;" d="M 0.515625 1.859375 L 0.515625 -7.40625 L 5.765625 -7.40625 L 5.765625 1.859375 Z M 1.109375 1.265625 L 5.1875 1.265625 L 5.1875 -6.8125 L 1.109375 -6.8125 Z M 1.109375 1.265625 "/>
</symbol>
<symbol overflow="visible" id="8CtLPZTx12-1">
<path style="stroke:none;" d="M 1.125 -1.296875 L 2.203125 -1.296875 L 2.203125 0 L 1.125 0 Z M 1.125 -1.296875 "/>
</symbol>
</g>
<clipPath id="clip1">
  <path d="M 15 22 L 98 22 L 98 288 L 15 288 Z M 15 22 "/>
</clipPath>
<clipPath id="clip2">
  <path d="M 207 12 L 349 12 L 349 145 L 207 145 Z M 207 12 "/>
</clipPath>
</defs>
<g id="surface1">
<rect x="0" y="0" width="450" height="300" style="fill:rgb(10.196079%,10.196079%,10.196079%);fill-opacity:1;stroke:none;"/>
<path style="fill:none;stroke-width:1;stroke-linecap:butt;stroke-linejoin:miter;stroke:rgb(100%,100%,100%);stroke-opacity:0.09;stroke-miterlimit:10;" d="M 41.817708 384 L 41.817708 16 " transform="matrix(0.75,0,0,0.75,0,0)"/>
<path style="fill:none;stroke-width:1;stroke-linecap:butt;stroke-linejoin:miter;stroke:rgb(100%,100%,100%);stroke-opacity:0.09;stroke-miterlimit:10;" d="M 203.385417 384 L 203.385417 16 " transform="matrix(0.75,0,0,0.75,0,0)"/>
<path style="fill:none;stroke-width:1;stroke-linecap:butt;stroke-linejoin:miter;stroke:rgb(100%,100%,100%);stroke-opacity:0.09;stroke-miterlimit:10;" d="M 364.953125 384 L 364.953125 16 " transform="matrix(0.75,0,0,0.75,0,0)"/>
<path style="fill:none;stroke-width:1;stroke-linecap:butt;stroke-linejoin:miter;stroke:rgb(100%,100%,100%);stroke-opacity:0.09;stroke-miterlimit:10;" d="M 526.520833 384 L 526.520833 16 " transform="matrix(0.75,0,0,0.75,0,0)"/>
<path style="fill:none;stroke-width:1;stroke-linecap:butt;stroke-linejoin:miter;stroke:rgb(100%,100%,100%);stroke-opacity:0.09;stroke-miterlimit:10;" d="M 16 356.473958 L 584 356.473958 " transform="matrix(0.75,0,0,0.75,0,0)"/>
<path style="fill:none;stroke-width:1;stroke-linecap:butt;stroke-linejoin:miter;stroke:rgb(100%,100%,100%);stroke-opacity:0.09;stroke-miterlimit:10;" d="M 16 263.723958 L 584 263.723958 " transform="matrix(0.75,0,0,0.75,0,0)"/>
<path style="fill:none;stroke-width:1;stroke-linecap:butt;stroke-linejoin:miter;stroke:rgb(100%,100%,100%);stroke-opacity:0.09;stroke-miterlimit:10;" d="M 16 170.979167 L 584 170.979167 " transform="matrix(0.75,0,0,0.75,0,0)"/>
<path style="fill:none;stroke-width:1;stroke-linecap:butt;stroke-linejoin:miter;stroke:rgb(100%,100%,100%);stroke-opacity:0.09;stroke-miterlimit:10;" d="M 16 78.234375 L 584 78.234375 " transform="matrix(0.75,0,0,0.75,0,0)"/>
<path style=" stroke:none;fill-rule:nonzero;fill:rgb(100%,25.490198%,5.098039%);fill-opacity:0.45;" d="M 31.363281 129.253906 L 31.363281 128.640625 L 31.367188 128.332031 L 31.367188 128.023438 L 31.375 127.71875 L 31.378906 127.410156 L 31.394531 127.101562 L 31.414062 126.792969 L 31.441406 126.488281 L 31.480469 126.179688 L 31.535156 125.871094 L 31.605469 125.566406 L 31.691406 125.257812 L 31.789062 124.949219 L 31.898438 124.644531 L 32.125 124.027344 L 32.230469 123.71875 L 32.320312 123.414062 L 32.394531 123.105469 L 32.460938 122.796875 L 32.519531 122.492188 L 32.585938 122.183594 L 32.671875 121.875 L 32.796875 121.570312 L 32.972656 121.261719 L 33.21875 120.953125 L 33.546875 120.648438 L 33.96875 120.339844 L 34.484375 120.03125 L 35.101562 119.722656 L 35.8125 119.417969 L 36.601562 119.109375 L 37.460938 118.800781 L 38.367188 118.496094 L 39.304688 118.1875 L 40.273438 117.878906 L 41.269531 117.574219 L 42.308594 117.265625 L 43.414062 116.957031 L 44.621094 116.652344 L 45.960938 116.34375 L 47.476562 116.035156 L 49.191406 115.726562 L 51.136719 115.421875 L 53.320312 115.113281 L 55.746094 114.804688 L 58.402344 114.5 L 61.277344 114.191406 L 64.335938 113.882812 L 67.558594 113.578125 L 70.914062 113.269531 L 74.382812 112.960938 L 77.941406 112.652344 L 81.59375 112.347656 L 85.34375 112.039062 L 89.199219 111.730469 L 93.183594 111.425781 L 97.300781 111.117188 L 101.554688 110.808594 L 105.929688 110.503906 L 110.382812 110.195312 L 114.863281 109.886719 L 119.316406 109.582031 L 123.679688 109.273438 L 127.910156 108.964844 L 131.992188 108.65625 L 135.933594 108.351562 L 139.785156 108.042969 L 143.617188 107.734375 L 147.523438 107.429688 L 151.589844 107.121094 L 155.914062 106.8125 L 160.5625 106.507812 L 165.574219 106.199219 L 170.960938 105.890625 L 176.699219 105.582031 L 182.738281 105.277344 L 188.988281 104.96875 L 195.34375 104.660156 L 201.664062 104.355469 L 207.792969 104.046875 L 213.558594 103.738281 L 218.789062 103.433594 L 223.320312 103.125 L 227.019531 102.816406 L 229.789062 102.511719 L 231.585938 102.203125 L 232.417969 101.894531 L 232.339844 101.585938 L 231.464844 101.28125 L 229.921875 100.972656 L 227.875 100.664062 L 225.476562 100.359375 L 222.855469 100.050781 L 220.117188 99.742188 L 217.316406 99.4375 L 214.453125 99.128906 L 211.496094 98.820312 L 208.386719 98.515625 L 205.074219 98.207031 L 201.527344 97.898438 L 197.757812 97.589844 L 193.816406 97.285156 L 189.789062 96.976562 L 185.785156 96.667969 L 181.882812 96.363281 L 178.136719 96.054688 L 174.535156 95.746094 L 171.015625 95.441406 L 167.464844 95.132812 L 163.75 94.824219 L 159.742188 94.515625 L 155.359375 94.210938 L 150.566406 93.902344 L 145.421875 93.59375 L 140.035156 93.289062 L 134.574219 92.980469 L 129.21875 92.671875 L 124.132812 92.367188 L 119.433594 92.058594 L 115.164062 91.75 L 111.300781 91.445312 L 107.753906 91.136719 L 104.410156 90.828125 L 101.132812 90.519531 L 97.808594 90.214844 L 94.367188 89.90625 L 90.773438 89.597656 L 87.042969 89.292969 L 83.21875 88.984375 L 79.382812 88.675781 L 75.609375 88.371094 L 71.980469 88.0625 L 68.554688 87.753906 L 65.382812 87.445312 L 62.476562 87.140625 L 59.835938 86.832031 L 57.445312 86.523438 L 55.261719 86.21875 L 53.246094 85.910156 L 51.363281 85.601562 L 49.582031 85.296875 L 47.878906 84.988281 L 46.238281 84.679688 L 44.667969 84.375 L 43.164062 84.066406 L 41.742188 83.757812 L 40.40625 83.449219 L 39.164062 83.144531 L 38.027344 82.835938 L 36.988281 82.527344 L 36.050781 82.222656 L 35.210938 81.914062 L 34.472656 81.605469 L 33.832031 81.300781 L 33.285156 80.992188 L 32.835938 80.683594 L 32.480469 80.375 L 32.214844 80.070312 L 32.03125 79.761719 L 31.921875 79.453125 L 31.878906 79.148438 L 31.886719 78.839844 L 31.9375 78.53125 L 32.019531 78.226562 L 32.117188 77.917969 L 32.222656 77.609375 L 32.320312 77.304688 L 32.410156 76.996094 L 32.484375 76.6875 L 32.539062 76.378906 L 32.574219 76.074219 L 32.59375 75.765625 L 32.601562 75.457031 L 32.589844 75.152344 L 32.5625 74.84375 L 32.515625 74.535156 L 32.449219 74.230469 L 32.367188 73.921875 L 32.265625 73.613281 L 32.152344 73.308594 L 31.910156 72.691406 L 31.796875 72.382812 L 31.695312 72.078125 L 31.605469 71.769531 L 31.535156 71.460938 L 31.480469 71.15625 L 31.441406 70.847656 L 31.414062 70.539062 L 31.394531 70.234375 L 31.382812 69.925781 L 31.367188 69.308594 L 31.367188 69.003906 L 31.363281 68.695312 L 31.363281 68.082031 Z M 31.363281 129.253906 "/>
<path style="fill:none;stroke-width:1.5;stroke-linecap:butt;stroke-linejoin:miter;stroke:rgb(100%,100%,100%);stroke-opacity:1;stroke-miterlimit:10;" d="M 41.817708 172.338542 L 41.817708 171.520833 L 41.822917 171.109375 L 41.822917 170.697917 L 41.833333 170.291667 L 41.838542 169.880208 L 41.859375 169.46875 L 41.885417 169.057292 L 41.921875 168.651042 L 41.973958 168.239583 L 42.046875 167.828125 L 42.140625 167.421875 L 42.255208 167.010417 L 42.385417 166.598958 L 42.53125 166.192708 L 42.833333 165.369792 L 42.973958 164.958333 L 43.09375 164.552083 L 43.192708 164.140625 L 43.28125 163.729167 L 43.359375 163.322917 L 43.447917 162.911458 L 43.5625 162.5 L 43.729167 162.09375 L 43.963542 161.682292 L 44.291667 161.270833 L 44.729167 160.864583 L 45.291667 160.453125 L 45.979167 160.041667 L 46.802083 159.630208 L 47.75 159.223958 L 48.802083 158.8125 L 49.947917 158.401042 L 51.15625 157.994792 L 52.40625 157.583333 L 53.697917 157.171875 L 55.026042 156.765625 L 56.411458 156.354167 L 57.885417 155.942708 L 59.494792 155.536458 L 61.28125 155.125 L 63.302083 154.713542 L 65.588542 154.302083 L 68.182292 153.895833 L 71.09375 153.484375 L 74.328125 153.072917 L 77.869792 152.666667 L 81.703125 152.255208 L 85.78125 151.84375 L 90.078125 151.4375 L 94.552083 151.026042 L 99.177083 150.614583 L 103.921875 150.203125 L 108.791667 149.796875 L 113.791667 149.385417 L 118.932292 148.973958 L 124.244792 148.567708 L 129.734375 148.15625 L 135.40625 147.744792 L 141.239583 147.338542 L 147.177083 146.927083 L 153.151042 146.515625 L 159.088542 146.109375 L 164.90625 145.697917 L 170.546875 145.286458 L 175.989583 144.875 L 181.244792 144.46875 L 186.380208 144.057292 L 191.489583 143.645833 L 196.697917 143.239583 L 202.119792 142.828125 L 207.885417 142.416667 L 214.083333 142.010417 L 220.765625 141.598958 L 227.947917 141.1875 L 235.598958 140.776042 L 243.651042 140.369792 L 251.984375 139.958333 L 260.458333 139.546875 L 268.885417 139.140625 L 277.057292 138.729167 L 284.744792 138.317708 L 291.71875 137.911458 L 297.760417 137.5 L 302.692708 137.088542 L 306.385417 136.682292 L 308.78125 136.270833 L 309.890625 135.859375 L 309.786458 135.447917 L 308.619792 135.041667 L 306.5625 134.630208 L 303.833333 134.21875 L 300.635417 133.8125 L 297.140625 133.401042 L 293.489583 132.989583 L 289.755208 132.583333 L 285.9375 132.171875 L 281.994792 131.760417 L 277.848958 131.354167 L 273.432292 130.942708 L 268.703125 130.53125 L 263.677083 130.119792 L 258.421875 129.713542 L 253.052083 129.302083 L 247.713542 128.890625 L 242.510417 128.484375 L 237.515625 128.072917 L 232.713542 127.661458 L 228.020833 127.255208 L 223.286458 126.84375 L 218.333333 126.432292 L 212.989583 126.020833 L 207.145833 125.614583 L 200.755208 125.203125 L 193.895833 124.791667 L 186.713542 124.385417 L 179.432292 123.973958 L 172.291667 123.5625 L 165.510417 123.15625 L 159.244792 122.744792 L 153.552083 122.333333 L 148.401042 121.927083 L 143.671875 121.515625 L 139.213542 121.104167 L 134.84375 120.692708 L 130.411458 120.286458 L 125.822917 119.875 L 121.03125 119.463542 L 116.057292 119.057292 L 110.958333 118.645833 L 105.84375 118.234375 L 100.8125 117.828125 L 95.973958 117.416667 L 91.40625 117.005208 L 87.177083 116.59375 L 83.302083 116.1875 L 79.78125 115.776042 L 76.59375 115.364583 L 73.682292 114.958333 L 70.994792 114.546875 L 68.484375 114.135417 L 66.109375 113.729167 L 63.838542 113.317708 L 61.651042 112.90625 L 59.557292 112.5 L 57.552083 112.088542 L 55.65625 111.677083 L 53.875 111.265625 L 52.21875 110.859375 L 50.703125 110.447917 L 49.317708 110.036458 L 48.067708 109.630208 L 46.947917 109.21875 L 45.963542 108.807292 L 45.109375 108.401042 L 44.380208 107.989583 L 43.78125 107.578125 L 43.307292 107.166667 L 42.953125 106.760417 L 42.708333 106.348958 L 42.5625 105.9375 L 42.505208 105.53125 L 42.515625 105.119792 L 42.583333 104.708333 L 42.692708 104.302083 L 42.822917 103.890625 L 42.963542 103.479167 L 43.09375 103.072917 L 43.213542 102.661458 L 43.3125 102.25 L 43.385417 101.838542 L 43.432292 101.432292 L 43.458333 101.020833 L 43.46875 100.609375 L 43.453125 100.203125 L 43.416667 99.791667 L 43.354167 99.380208 L 43.265625 98.973958 L 43.15625 98.5625 L 43.020833 98.151042 L 42.869792 97.744792 L 42.546875 96.921875 L 42.395833 96.510417 L 42.260417 96.104167 L 42.140625 95.692708 L 42.046875 95.28125 L 41.973958 94.875 L 41.921875 94.463542 L 41.885417 94.052083 L 41.859375 93.645833 L 41.84375 93.234375 L 41.822917 92.411458 L 41.822917 92.005208 L 41.817708 91.59375 L 41.817708 90.776042 " transform="matrix(0.75,0,0,0.75,0,0)"/>
<path style=" stroke:none;fill-rule:nonzero;fill:rgb(43.137255%,88.627452%,100%);fill-opacity:0.45;" d="M 31.363281 275.453125 L 31.363281 270.683594 L 31.367188 269.488281 L 31.367188 268.296875 L 31.371094 267.105469 L 31.375 265.910156 L 31.382812 264.71875 L 31.390625 263.523438 L 31.402344 262.332031 L 31.417969 261.140625 L 31.4375 259.945312 L 31.460938 258.753906 L 31.484375 257.558594 L 31.511719 256.367188 L 31.535156 255.175781 L 31.558594 253.980469 L 31.574219 252.789062 L 31.585938 251.59375 L 31.589844 250.402344 L 31.589844 249.210938 L 31.582031 248.015625 L 31.574219 246.824219 L 31.570312 245.628906 L 31.570312 244.4375 L 31.574219 243.246094 L 31.589844 242.050781 L 31.613281 240.859375 L 31.644531 239.664062 L 31.722656 237.28125 L 31.761719 236.085938 L 31.796875 234.894531 L 31.824219 233.699219 L 31.847656 232.507812 L 31.863281 231.3125 L 31.878906 230.121094 L 31.902344 228.929688 L 31.929688 227.734375 L 31.976562 226.542969 L 32.042969 225.347656 L 32.128906 224.15625 L 32.238281 222.964844 L 32.363281 221.769531 L 32.5 220.578125 L 32.644531 219.382812 L 32.785156 218.191406 L 32.921875 217 L 33.050781 215.804688 L 33.171875 214.613281 L 33.285156 213.417969 L 33.402344 212.226562 L 33.539062 211.035156 L 33.699219 209.839844 L 33.898438 208.648438 L 34.152344 207.453125 L 34.46875 206.261719 L 34.855469 205.070312 L 35.316406 203.875 L 35.855469 202.683594 L 36.460938 201.488281 L 37.132812 200.296875 L 37.855469 199.105469 L 38.621094 197.910156 L 39.414062 196.71875 L 40.222656 195.523438 L 41.023438 194.332031 L 41.804688 193.140625 L 42.554688 191.945312 L 43.265625 190.753906 L 43.929688 189.558594 L 44.558594 188.367188 L 45.164062 187.175781 L 45.757812 185.980469 L 46.367188 184.789062 L 47.023438 183.59375 L 47.75 182.402344 L 48.578125 181.210938 L 49.53125 180.015625 L 50.625 178.824219 L 51.867188 177.628906 L 53.265625 176.4375 L 54.8125 175.246094 L 56.488281 174.050781 L 58.277344 172.859375 L 60.148438 171.664062 L 62.0625 170.472656 L 63.984375 169.28125 L 65.875 168.085938 L 67.699219 166.894531 L 69.421875 165.699219 L 71.023438 164.507812 L 72.492188 163.316406 L 73.828125 162.121094 L 75.042969 160.929688 L 76.160156 159.734375 L 77.195312 158.542969 L 78.164062 157.351562 L 79.074219 156.15625 L 79.914062 154.964844 L 80.664062 153.769531 L 81.289062 152.578125 L 81.75 151.386719 L 82.011719 150.191406 L 82.046875 149 L 81.835938 147.804688 L 81.386719 146.613281 L 80.722656 145.421875 L 79.882812 144.226562 L 78.921875 143.035156 L 77.90625 141.839844 L 76.898438 140.648438 L 75.957031 139.457031 L 75.128906 138.261719 L 74.445312 137.070312 L 73.90625 135.875 L 73.5 134.683594 L 73.195312 133.492188 L 72.933594 132.296875 L 72.65625 131.105469 L 72.304688 129.910156 L 71.824219 128.71875 L 71.167969 127.527344 L 70.3125 126.332031 L 69.253906 125.140625 L 68 123.945312 L 66.578125 122.753906 L 65.027344 121.5625 L 63.398438 120.367188 L 61.734375 119.175781 L 60.089844 117.980469 L 58.5 116.789062 L 56.996094 115.597656 L 55.601562 114.402344 L 54.332031 113.210938 L 53.183594 112.015625 L 52.164062 110.824219 L 51.253906 109.632812 L 50.445312 108.4375 L 49.722656 107.246094 L 49.074219 106.050781 L 48.476562 104.859375 L 47.921875 103.664062 L 47.390625 102.472656 L 46.871094 101.28125 L 46.355469 100.085938 L 45.828125 98.894531 L 45.292969 97.699219 L 44.738281 96.507812 L 44.167969 95.316406 L 43.585938 94.121094 L 42.984375 92.929688 L 42.367188 91.734375 L 41.734375 90.542969 L 41.085938 89.351562 L 40.425781 88.15625 L 39.753906 86.964844 L 39.078125 85.769531 L 38.402344 84.578125 L 37.734375 83.386719 L 37.082031 82.191406 L 36.457031 81 L 35.863281 79.804688 L 35.308594 78.613281 L 34.804688 77.421875 L 34.351562 76.226562 L 33.953125 75.035156 L 33.613281 73.839844 L 33.324219 72.648438 L 33.082031 71.457031 L 32.886719 70.261719 L 32.726562 69.070312 L 32.59375 67.875 L 32.480469 66.683594 L 32.378906 65.492188 L 32.285156 64.296875 L 32.191406 63.105469 L 32.097656 61.910156 L 31.910156 59.527344 L 31.820312 58.332031 L 31.734375 57.140625 L 31.65625 55.945312 L 31.585938 54.753906 L 31.527344 53.5625 L 31.480469 52.367188 L 31.445312 51.175781 L 31.417969 49.980469 L 31.398438 48.789062 L 31.386719 47.597656 L 31.378906 46.402344 L 31.371094 45.210938 L 31.367188 44.015625 L 31.367188 42.824219 L 31.363281 41.632812 L 31.363281 38.050781 Z M 31.363281 275.453125 "/>
<g clip-path="url(#clip1)" clip-rule="nonzero">
<path style="fill:none;stroke-width:1.5;stroke-linecap:butt;stroke-linejoin:miter;stroke:rgb(100%,100%,100%);stroke-opacity:1;stroke-miterlimit:10;" d="M 41.817708 367.270833 L 41.817708 360.911458 L 41.822917 359.317708 L 41.822917 357.729167 L 41.828125 356.140625 L 41.833333 354.546875 L 41.84375 352.958333 L 41.854167 351.364583 L 41.869792 349.776042 L 41.890625 348.1875 L 41.916667 346.59375 L 41.947917 345.005208 L 41.979167 343.411458 L 42.015625 341.822917 L 42.046875 340.234375 L 42.078125 338.640625 L 42.098958 337.052083 L 42.114583 335.458333 L 42.119792 333.869792 L 42.119792 332.28125 L 42.109375 330.6875 L 42.098958 329.098958 L 42.09375 327.505208 L 42.09375 325.916667 L 42.098958 324.328125 L 42.119792 322.734375 L 42.151042 321.145833 L 42.192708 319.552083 L 42.296875 316.375 L 42.348958 314.78125 L 42.395833 313.192708 L 42.432292 311.598958 L 42.463542 310.010417 L 42.484375 308.416667 L 42.505208 306.828125 L 42.536458 305.239583 L 42.572917 303.645833 L 42.635417 302.057292 L 42.723958 300.463542 L 42.838542 298.875 L 42.984375 297.286458 L 43.151042 295.692708 L 43.333333 294.104167 L 43.526042 292.510417 L 43.713542 290.921875 L 43.895833 289.333333 L 44.067708 287.739583 L 44.229167 286.151042 L 44.380208 284.557292 L 44.536458 282.96875 L 44.71875 281.380208 L 44.932292 279.786458 L 45.197917 278.197917 L 45.536458 276.604167 L 45.958333 275.015625 L 46.473958 273.427083 L 47.088542 271.833333 L 47.807292 270.244792 L 48.614583 268.651042 L 49.510417 267.0625 L 50.473958 265.473958 L 51.494792 263.880208 L 52.552083 262.291667 L 53.630208 260.697917 L 54.697917 259.109375 L 55.739583 257.520833 L 56.739583 255.927083 L 57.6875 254.338542 L 58.572917 252.744792 L 59.411458 251.15625 L 60.21875 249.567708 L 61.010417 247.973958 L 61.822917 246.385417 L 62.697917 244.791667 L 63.666667 243.203125 L 64.770833 241.614583 L 66.041667 240.020833 L 67.5 238.432292 L 69.15625 236.838542 L 71.020833 235.25 L 73.083333 233.661458 L 75.317708 232.067708 L 77.703125 230.479167 L 80.197917 228.885417 L 82.75 227.296875 L 85.3125 225.708333 L 87.833333 224.114583 L 90.265625 222.526042 L 92.5625 220.932292 L 94.697917 219.34375 L 96.65625 217.755208 L 98.4375 216.161458 L 100.057292 214.572917 L 101.546875 212.979167 L 102.927083 211.390625 L 104.21875 209.802083 L 105.432292 208.208333 L 106.552083 206.619792 L 107.552083 205.026042 L 108.385417 203.4375 L 109 201.848958 L 109.348958 200.255208 L 109.395833 198.666667 L 109.114583 197.072917 L 108.515625 195.484375 L 107.630208 193.895833 L 106.510417 192.302083 L 105.229167 190.713542 L 103.875 189.119792 L 102.53125 187.53125 L 101.276042 185.942708 L 100.171875 184.348958 L 99.260417 182.760417 L 98.541667 181.166667 L 98 179.578125 L 97.59375 177.989583 L 97.244792 176.395833 L 96.875 174.807292 L 96.40625 173.213542 L 95.765625 171.625 L 94.890625 170.036458 L 93.75 168.442708 L 92.338542 166.854167 L 90.666667 165.260417 L 88.770833 163.671875 L 86.703125 162.083333 L 84.53125 160.489583 L 82.3125 158.901042 L 80.119792 157.307292 L 78 155.71875 L 75.994792 154.130208 L 74.135417 152.536458 L 72.442708 150.947917 L 70.911458 149.354167 L 69.552083 147.765625 L 68.338542 146.177083 L 67.260417 144.583333 L 66.296875 142.994792 L 65.432292 141.401042 L 64.635417 139.8125 L 63.895833 138.21875 L 63.1875 136.630208 L 62.494792 135.041667 L 61.807292 133.447917 L 61.104167 131.859375 L 60.390625 130.265625 L 59.651042 128.677083 L 58.890625 127.088542 L 58.114583 125.494792 L 57.3125 123.90625 L 56.489583 122.3125 L 55.645833 120.723958 L 54.78125 119.135417 L 53.901042 117.541667 L 53.005208 115.953125 L 52.104167 114.359375 L 51.203125 112.770833 L 50.3125 111.182292 L 49.442708 109.588542 L 48.609375 108 L 47.817708 106.40625 L 47.078125 104.817708 L 46.40625 103.229167 L 45.802083 101.635417 L 45.270833 100.046875 L 44.817708 98.453125 L 44.432292 96.864583 L 44.109375 95.276042 L 43.848958 93.682292 L 43.635417 92.09375 L 43.458333 90.5 L 43.307292 88.911458 L 43.171875 87.322917 L 43.046875 85.729167 L 42.921875 84.140625 L 42.796875 82.546875 L 42.546875 79.369792 L 42.427083 77.776042 L 42.3125 76.1875 L 42.208333 74.59375 L 42.114583 73.005208 L 42.036458 71.416667 L 41.973958 69.822917 L 41.927083 68.234375 L 41.890625 66.640625 L 41.864583 65.052083 L 41.848958 63.463542 L 41.838542 61.869792 L 41.828125 60.28125 L 41.822917 58.6875 L 41.822917 57.098958 L 41.817708 55.510417 L 41.817708 50.734375 " transform="matrix(0.75,0,0,0.75,0,0)"/>
</g>
<path style=" stroke:none;fill-rule:nonzero;fill:rgb(96.862745%,77.254903%,18.82353%);fill-opacity:0.45;" d="M 31.363281 178.546875 L 31.363281 176.890625 L 31.367188 176.339844 L 31.367188 175.789062 L 31.371094 175.234375 L 31.378906 174.132812 L 31.390625 173.582031 L 31.402344 173.027344 L 31.421875 172.476562 L 31.445312 171.925781 L 31.472656 171.375 L 31.511719 170.824219 L 31.554688 170.269531 L 31.601562 169.71875 L 31.710938 168.617188 L 31.769531 168.0625 L 31.886719 166.960938 L 31.949219 166.410156 L 32.015625 165.859375 L 32.097656 165.304688 L 32.191406 164.753906 L 32.3125 164.203125 L 32.460938 163.652344 L 32.640625 163.097656 L 32.859375 162.546875 L 33.117188 161.996094 L 33.40625 161.445312 L 33.730469 160.894531 L 34.085938 160.339844 L 34.460938 159.789062 L 34.863281 159.238281 L 35.285156 158.6875 L 35.738281 158.136719 L 36.230469 157.582031 L 36.769531 157.03125 L 37.375 156.480469 L 38.0625 155.929688 L 38.847656 155.375 L 39.742188 154.824219 L 40.761719 154.273438 L 41.910156 153.722656 L 43.191406 153.171875 L 44.601562 152.617188 L 46.128906 152.066406 L 47.765625 151.515625 L 49.480469 150.964844 L 51.253906 150.410156 L 53.050781 149.859375 L 54.835938 149.308594 L 56.570312 148.757812 L 58.222656 148.207031 L 59.769531 147.652344 L 61.199219 147.101562 L 62.515625 146.550781 L 63.742188 146 L 64.925781 145.445312 L 66.121094 144.894531 L 67.402344 144.34375 L 68.84375 143.792969 L 70.511719 143.242188 L 72.457031 142.6875 L 74.726562 142.136719 L 77.324219 141.585938 L 80.246094 141.035156 L 83.457031 140.484375 L 86.894531 139.929688 L 90.492188 139.378906 L 94.167969 138.828125 L 97.839844 138.277344 L 101.414062 137.722656 L 104.828125 137.171875 L 108.007812 136.621094 L 110.917969 136.070312 L 113.519531 135.519531 L 115.804688 134.964844 L 117.769531 134.414062 L 119.429688 133.863281 L 120.8125 133.3125 L 121.941406 132.757812 L 122.851562 132.207031 L 123.570312 131.65625 L 124.128906 131.105469 L 124.546875 130.554688 L 124.835938 130 L 125.011719 129.449219 L 125.074219 128.898438 L 125.035156 128.347656 L 124.894531 127.796875 L 124.667969 127.242188 L 124.378906 126.691406 L 124.050781 126.140625 L 123.71875 125.589844 L 123.410156 125.035156 L 123.152344 124.484375 L 122.957031 123.933594 L 122.808594 123.382812 L 122.6875 122.832031 L 122.539062 122.277344 L 122.300781 121.726562 L 121.902344 121.175781 L 121.273438 120.625 L 120.363281 120.070312 L 119.125 119.519531 L 117.550781 118.96875 L 115.648438 118.417969 L 113.460938 117.867188 L 111.046875 117.3125 L 108.472656 116.761719 L 105.824219 116.210938 L 103.183594 115.660156 L 100.613281 115.105469 L 98.171875 114.554688 L 95.890625 114.003906 L 93.78125 113.453125 L 91.832031 112.902344 L 90 112.347656 L 88.242188 111.796875 L 86.492188 111.246094 L 84.703125 110.695312 L 82.816406 110.144531 L 80.8125 109.589844 L 78.679688 109.039062 L 76.429688 108.488281 L 74.097656 107.9375 L 71.730469 107.382812 L 69.371094 106.832031 L 67.078125 106.28125 L 64.890625 105.730469 L 62.835938 105.179688 L 60.933594 104.625 L 59.1875 104.074219 L 57.589844 103.523438 L 56.125 102.972656 L 54.777344 102.417969 L 53.539062 101.867188 L 52.390625 101.316406 L 51.328125 100.765625 L 50.347656 100.214844 L 49.441406 99.660156 L 48.613281 99.109375 L 47.859375 98.558594 L 47.171875 98.007812 L 46.550781 97.457031 L 45.976562 96.902344 L 45.4375 96.351562 L 44.398438 95.25 L 43.867188 94.695312 L 43.308594 94.144531 L 42.710938 93.59375 L 42.078125 93.042969 L 41.40625 92.492188 L 40.707031 91.9375 L 39.992188 91.386719 L 39.269531 90.835938 L 38.558594 90.285156 L 37.871094 89.730469 L 37.21875 89.179688 L 36.609375 88.628906 L 36.054688 88.078125 L 35.558594 87.527344 L 35.117188 86.972656 L 34.738281 86.421875 L 34.414062 85.871094 L 34.144531 85.320312 L 33.917969 84.765625 L 33.726562 84.214844 L 33.558594 83.664062 L 33.410156 83.113281 L 33.265625 82.5625 L 33.121094 82.007812 L 32.972656 81.457031 L 32.816406 80.90625 L 32.652344 80.355469 L 32.484375 79.804688 L 32.316406 79.25 L 32.15625 78.699219 L 32.003906 78.148438 L 31.871094 77.597656 L 31.753906 77.042969 L 31.65625 76.492188 L 31.574219 75.941406 L 31.511719 75.390625 L 31.464844 74.839844 L 31.429688 74.285156 L 31.40625 73.734375 L 31.390625 73.183594 L 31.378906 72.632812 L 31.375 72.078125 L 31.367188 70.976562 L 31.367188 70.425781 L 31.363281 69.875 L 31.363281 68.769531 Z M 31.363281 178.546875 "/>
<path style="fill:none;stroke-width:1.5;stroke-linecap:butt;stroke-linejoin:miter;stroke:rgb(100%,100%,100%);stroke-opacity:1;stroke-miterlimit:10;" d="M 41.817708 238.0625 L 41.817708 235.854167 L 41.822917 235.119792 L 41.822917 234.385417 L 41.828125 233.645833 L 41.838542 232.177083 L 41.854167 231.442708 L 41.869792 230.703125 L 41.895833 229.96875 L 41.927083 229.234375 L 41.963542 228.5 L 42.015625 227.765625 L 42.072917 227.026042 L 42.135417 226.291667 L 42.28125 224.822917 L 42.359375 224.083333 L 42.515625 222.614583 L 42.598958 221.880208 L 42.6875 221.145833 L 42.796875 220.40625 L 42.921875 219.671875 L 43.083333 218.9375 L 43.28125 218.203125 L 43.520833 217.463542 L 43.8125 216.729167 L 44.15625 215.994792 L 44.541667 215.260417 L 44.973958 214.526042 L 45.447917 213.786458 L 45.947917 213.052083 L 46.484375 212.317708 L 47.046875 211.583333 L 47.651042 210.848958 L 48.307292 210.109375 L 49.026042 209.375 L 49.833333 208.640625 L 50.75 207.90625 L 51.796875 207.166667 L 52.989583 206.432292 L 54.348958 205.697917 L 55.880208 204.963542 L 57.588542 204.229167 L 59.46875 203.489583 L 61.505208 202.755208 L 63.6875 202.020833 L 65.973958 201.286458 L 68.338542 200.546875 L 70.734375 199.8125 L 73.114583 199.078125 L 75.427083 198.34375 L 77.630208 197.609375 L 79.692708 196.869792 L 81.598958 196.135417 L 83.354167 195.401042 L 84.989583 194.666667 L 86.567708 193.927083 L 88.161458 193.192708 L 89.869792 192.458333 L 91.791667 191.723958 L 94.015625 190.989583 L 96.609375 190.25 L 99.635417 189.515625 L 103.098958 188.78125 L 106.994792 188.046875 L 111.276042 187.3125 L 115.859375 186.572917 L 120.65625 185.838542 L 125.557292 185.104167 L 130.453125 184.369792 L 135.21875 183.630208 L 139.770833 182.895833 L 144.010417 182.161458 L 147.890625 181.427083 L 151.359375 180.692708 L 154.40625 179.953125 L 157.026042 179.21875 L 159.239583 178.484375 L 161.083333 177.75 L 162.588542 177.010417 L 163.802083 176.276042 L 164.760417 175.541667 L 165.505208 174.807292 L 166.0625 174.072917 L 166.447917 173.333333 L 166.682292 172.598958 L 166.765625 171.864583 L 166.713542 171.130208 L 166.526042 170.395833 L 166.223958 169.65625 L 165.838542 168.921875 L 165.401042 168.1875 L 164.958333 167.453125 L 164.546875 166.713542 L 164.203125 165.979167 L 163.942708 165.244792 L 163.744792 164.510417 L 163.583333 163.776042 L 163.385417 163.036458 L 163.067708 162.302083 L 162.536458 161.567708 L 161.697917 160.833333 L 160.484375 160.09375 L 158.833333 159.359375 L 156.734375 158.625 L 154.197917 157.890625 L 151.28125 157.15625 L 148.0625 156.416667 L 144.630208 155.682292 L 141.098958 154.947917 L 137.578125 154.213542 L 134.151042 153.473958 L 130.895833 152.739583 L 127.854167 152.005208 L 125.041667 151.270833 L 122.442708 150.536458 L 120 149.796875 L 117.65625 149.0625 L 115.322917 148.328125 L 112.9375 147.59375 L 110.421875 146.859375 L 107.75 146.119792 L 104.90625 145.385417 L 101.90625 144.651042 L 98.796875 143.916667 L 95.640625 143.177083 L 92.494792 142.442708 L 89.4375 141.708333 L 86.520833 140.973958 L 83.78125 140.239583 L 81.244792 139.5 L 78.916667 138.765625 L 76.786458 138.03125 L 74.833333 137.296875 L 73.036458 136.557292 L 71.385417 135.822917 L 69.854167 135.088542 L 68.4375 134.354167 L 67.130208 133.619792 L 65.921875 132.880208 L 64.817708 132.145833 L 63.8125 131.411458 L 62.895833 130.677083 L 62.067708 129.942708 L 61.302083 129.203125 L 60.583333 128.46875 L 59.197917 127 L 58.489583 126.260417 L 57.744792 125.526042 L 56.947917 124.791667 L 56.104167 124.057292 L 55.208333 123.322917 L 54.276042 122.583333 L 53.322917 121.848958 L 52.359375 121.114583 L 51.411458 120.380208 L 50.494792 119.640625 L 49.625 118.90625 L 48.8125 118.171875 L 48.072917 117.4375 L 47.411458 116.703125 L 46.822917 115.963542 L 46.317708 115.229167 L 45.885417 114.494792 L 45.526042 113.760417 L 45.223958 113.020833 L 44.96875 112.286458 L 44.744792 111.552083 L 44.546875 110.817708 L 44.354167 110.083333 L 44.161458 109.34375 L 43.963542 108.609375 L 43.755208 107.875 L 43.536458 107.140625 L 43.3125 106.40625 L 43.088542 105.666667 L 42.875 104.932292 L 42.671875 104.197917 L 42.494792 103.463542 L 42.338542 102.723958 L 42.208333 101.989583 L 42.098958 101.255208 L 42.015625 100.520833 L 41.953125 99.786458 L 41.90625 99.046875 L 41.875 98.3125 L 41.854167 97.578125 L 41.838542 96.84375 L 41.833333 96.104167 L 41.822917 94.635417 L 41.822917 93.901042 L 41.817708 93.166667 L 41.817708 91.692708 " transform="matrix(0.75,0,0,0.75,0,0)"/>
<path style=" stroke:none;fill-rule:nonzero;fill:rgb(58.431375%,80.000001%,36.862746%);fill-opacity:0.45;" d="M 153.972656 128.234375 L 159.496094 128.234375 L 162.8125 128.222656 L 163.914062 128.214844 L 165.019531 128.203125 L 166.125 128.1875 L 168.335938 128.140625 L 169.441406 128.113281 L 170.542969 128.085938 L 171.648438 128.054688 L 172.753906 128.027344 L 173.859375 128.007812 L 174.964844 127.996094 L 176.066406 127.992188 L 177.171875 127.996094 L 178.277344 128.011719 L 180.488281 128.058594 L 181.589844 128.089844 L 182.695312 128.117188 L 183.800781 128.140625 L 184.90625 128.15625 L 186.011719 128.164062 L 187.113281 128.160156 L 188.21875 128.144531 L 189.324219 128.109375 L 190.429688 128.058594 L 191.535156 127.984375 L 192.636719 127.886719 L 193.742188 127.761719 L 194.847656 127.613281 L 195.953125 127.445312 L 197.058594 127.261719 L 198.160156 127.074219 L 199.265625 126.886719 L 200.371094 126.710938 L 201.476562 126.554688 L 202.582031 126.421875 L 203.683594 126.320312 L 204.789062 126.238281 L 205.894531 126.175781 L 207 126.125 L 208.105469 126.078125 L 209.207031 126.015625 L 210.3125 125.9375 L 211.417969 125.828125 L 212.523438 125.679688 L 213.628906 125.488281 L 214.730469 125.246094 L 215.835938 124.953125 L 216.941406 124.597656 L 218.046875 124.1875 L 219.152344 123.71875 L 220.253906 123.199219 L 221.359375 122.636719 L 222.464844 122.042969 L 224.675781 120.816406 L 225.777344 120.210938 L 226.882812 119.625 L 227.988281 119.054688 L 230.199219 117.9375 L 231.300781 117.351562 L 232.40625 116.71875 L 233.511719 116.015625 L 234.617188 115.21875 L 235.722656 114.308594 L 236.824219 113.277344 L 237.929688 112.128906 L 239.035156 110.875 L 240.140625 109.535156 L 241.246094 108.132812 L 242.351562 106.703125 L 243.453125 105.257812 L 244.558594 103.816406 L 246.769531 100.949219 L 247.875 99.5 L 248.976562 98.023438 L 250.082031 96.511719 L 251.1875 94.957031 L 252.292969 93.375 L 253.398438 91.777344 L 254.5 90.191406 L 255.605469 88.644531 L 256.710938 87.148438 L 257.816406 85.714844 L 258.921875 84.347656 L 260.023438 83.035156 L 261.128906 81.773438 L 262.234375 80.546875 L 263.339844 79.355469 L 264.445312 78.195312 L 265.546875 77.082031 L 266.652344 76.03125 L 267.757812 75.0625 L 268.863281 74.203125 L 269.96875 73.480469 L 271.070312 72.921875 L 272.175781 72.542969 L 273.28125 72.367188 L 274.386719 72.40625 L 275.492188 72.65625 L 276.59375 73.109375 L 277.699219 73.746094 L 278.804688 74.542969 L 279.910156 75.453125 L 281.015625 76.4375 L 282.117188 77.457031 L 283.222656 78.46875 L 284.328125 79.441406 L 285.433594 80.367188 L 286.539062 81.234375 L 287.640625 82.058594 L 288.746094 82.867188 L 289.851562 83.683594 L 290.957031 84.546875 L 292.0625 85.480469 L 293.164062 86.492188 L 294.269531 87.585938 L 295.375 88.738281 L 296.480469 89.917969 L 297.585938 91.101562 L 298.6875 92.25 L 299.792969 93.355469 L 300.898438 94.421875 L 302.003906 95.476562 L 303.109375 96.558594 L 304.210938 97.714844 L 305.316406 98.992188 L 306.421875 100.421875 L 307.527344 102.015625 L 308.632812 103.761719 L 309.734375 105.636719 L 310.839844 107.59375 L 311.945312 109.570312 L 313.050781 111.511719 L 314.15625 113.359375 L 315.257812 115.074219 L 316.363281 116.617188 L 317.46875 117.972656 L 318.574219 119.140625 L 319.679688 120.128906 L 320.785156 120.953125 L 321.886719 121.644531 L 322.992188 122.226562 L 324.097656 122.71875 L 325.203125 123.144531 L 326.308594 123.523438 L 327.410156 123.859375 L 328.515625 124.171875 L 329.621094 124.464844 L 330.726562 124.746094 L 331.832031 125.019531 L 332.933594 125.289062 L 334.039062 125.558594 L 335.144531 125.816406 L 336.25 126.066406 L 337.355469 126.296875 L 338.457031 126.503906 L 339.5625 126.683594 L 340.667969 126.835938 L 341.773438 126.964844 L 342.878906 127.078125 L 343.980469 127.175781 L 345.085938 127.269531 L 346.191406 127.355469 L 347.296875 127.4375 L 348.402344 127.523438 L 349.503906 127.601562 L 350.609375 127.679688 L 351.714844 127.753906 L 352.820312 127.824219 L 353.925781 127.890625 L 355.027344 127.949219 L 356.132812 128.003906 L 357.238281 128.054688 L 359.449219 128.132812 L 360.550781 128.160156 L 361.65625 128.183594 L 362.761719 128.199219 L 364.972656 128.222656 L 366.074219 128.226562 L 368.285156 128.234375 L 373.808594 128.234375 Z M 153.972656 128.234375 "/>
<path style="fill:none;stroke-width:1.5;stroke-linecap:butt;stroke-linejoin:miter;stroke:rgb(100%,100%,100%);stroke-opacity:1;stroke-dasharray:4.5,4.5;stroke-miterlimit:10;" d="M 205.296875 170.979167 L 212.661458 170.979167 L 217.083333 170.963542 L 218.552083 170.953125 L 220.026042 170.9375 L 221.5 170.916667 L 224.447917 170.854167 L 225.921875 170.817708 L 227.390625 170.78125 L 228.864583 170.739583 L 230.338542 170.703125 L 231.8125 170.677083 L 233.286458 170.661458 L 234.755208 170.65625 L 236.229167 170.661458 L 237.703125 170.682292 L 240.651042 170.744792 L 242.119792 170.786458 L 243.59375 170.822917 L 245.067708 170.854167 L 246.541667 170.875 L 248.015625 170.885417 L 249.484375 170.880208 L 250.958333 170.859375 L 252.432292 170.8125 L 253.90625 170.744792 L 255.380208 170.645833 L 256.848958 170.515625 L 258.322917 170.348958 L 259.796875 170.151042 L 261.270833 169.927083 L 262.744792 169.682292 L 264.213542 169.432292 L 265.6875 169.182292 L 267.161458 168.947917 L 268.635417 168.739583 L 270.109375 168.5625 L 271.578125 168.427083 L 273.052083 168.317708 L 274.526042 168.234375 L 276 168.166667 L 277.473958 168.104167 L 278.942708 168.020833 L 280.416667 167.916667 L 281.890625 167.770833 L 283.364583 167.572917 L 284.838542 167.317708 L 286.307292 166.994792 L 287.78125 166.604167 L 289.255208 166.130208 L 290.729167 165.583333 L 292.203125 164.958333 L 293.671875 164.265625 L 295.145833 163.515625 L 296.619792 162.723958 L 299.567708 161.088542 L 301.036458 160.28125 L 302.510417 159.5 L 303.984375 158.739583 L 306.932292 157.25 L 308.401042 156.46875 L 309.875 155.625 L 311.348958 154.6875 L 312.822917 153.625 L 314.296875 152.411458 L 315.765625 151.036458 L 317.239583 149.505208 L 318.713542 147.833333 L 320.1875 146.046875 L 321.661458 144.177083 L 323.135417 142.270833 L 324.604167 140.34375 L 326.078125 138.421875 L 329.026042 134.598958 L 330.5 132.666667 L 331.96875 130.697917 L 333.442708 128.682292 L 334.916667 126.609375 L 336.390625 124.5 L 337.864583 122.369792 L 339.333333 120.255208 L 340.807292 118.192708 L 342.28125 116.197917 L 343.755208 114.286458 L 345.229167 112.463542 L 346.697917 110.713542 L 348.171875 109.03125 L 349.645833 107.395833 L 351.119792 105.807292 L 352.59375 104.260417 L 354.0625 102.776042 L 355.536458 101.375 L 357.010417 100.083333 L 358.484375 98.9375 L 359.958333 97.973958 L 361.427083 97.229167 L 362.901042 96.723958 L 364.375 96.489583 L 365.848958 96.541667 L 367.322917 96.875 L 368.791667 97.479167 L 370.265625 98.328125 L 371.739583 99.390625 L 373.213542 100.604167 L 374.6875 101.916667 L 376.15625 103.276042 L 377.630208 104.625 L 379.104167 105.921875 L 380.578125 107.15625 L 382.052083 108.3125 L 383.520833 109.411458 L 384.994792 110.489583 L 386.46875 111.578125 L 387.942708 112.729167 L 389.416667 113.973958 L 390.885417 115.322917 L 392.359375 116.78125 L 393.833333 118.317708 L 395.307292 119.890625 L 396.78125 121.46875 L 398.25 123 L 399.723958 124.473958 L 401.197917 125.895833 L 402.671875 127.302083 L 404.145833 128.744792 L 405.614583 130.286458 L 407.088542 131.989583 L 408.5625 133.895833 L 410.036458 136.020833 L 411.510417 138.348958 L 412.979167 140.848958 L 414.453125 143.458333 L 415.927083 146.09375 L 417.401042 148.682292 L 418.875 151.145833 L 420.34375 153.432292 L 421.817708 155.489583 L 423.291667 157.296875 L 424.765625 158.854167 L 426.239583 160.171875 L 427.713542 161.270833 L 429.182292 162.192708 L 430.65625 162.96875 L 432.130208 163.625 L 433.604167 164.192708 L 435.078125 164.697917 L 436.546875 165.145833 L 438.020833 165.5625 L 439.494792 165.953125 L 440.96875 166.328125 L 442.442708 166.692708 L 443.911458 167.052083 L 445.385417 167.411458 L 446.859375 167.755208 L 448.333333 168.088542 L 449.807292 168.395833 L 451.276042 168.671875 L 452.75 168.911458 L 454.223958 169.114583 L 455.697917 169.286458 L 457.171875 169.4375 L 458.640625 169.567708 L 460.114583 169.692708 L 461.588542 169.807292 L 463.0625 169.916667 L 464.536458 170.03125 L 466.005208 170.135417 L 467.479167 170.239583 L 468.953125 170.338542 L 470.427083 170.432292 L 471.901042 170.520833 L 473.369792 170.598958 L 474.84375 170.671875 L 476.317708 170.739583 L 479.265625 170.84375 L 480.734375 170.880208 L 482.208333 170.911458 L 483.682292 170.932292 L 486.630208 170.963542 L 488.098958 170.96875 L 491.046875 170.979167 L 498.411458 170.979167 " transform="matrix(0.75,0,0,0.75,0,0)"/>
<path style=" stroke:none;fill-rule:nonzero;fill:rgb(81.568629%,87.450981%,90.196079%);fill-opacity:0.45;" d="M 223.683594 128.234375 L 225.324219 128.234375 L 226.417969 128.226562 L 226.964844 128.21875 L 227.507812 128.207031 L 228.054688 128.1875 L 228.601562 128.160156 L 229.148438 128.121094 L 229.695312 128.0625 L 230.242188 127.980469 L 230.789062 127.878906 L 231.335938 127.746094 L 231.878906 127.589844 L 232.425781 127.40625 L 232.972656 127.203125 L 234.066406 126.765625 L 234.613281 126.554688 L 235.160156 126.363281 L 235.707031 126.203125 L 236.25 126.074219 L 236.796875 125.988281 L 237.34375 125.933594 L 237.890625 125.902344 L 238.4375 125.875 L 238.984375 125.828125 L 239.53125 125.730469 L 240.078125 125.566406 L 240.621094 125.300781 L 241.167969 124.914062 L 241.714844 124.402344 L 242.261719 123.757812 L 242.808594 122.984375 L 243.355469 122.097656 L 243.902344 121.113281 L 244.449219 120.046875 L 244.992188 118.921875 L 245.539062 117.75 L 246.085938 116.546875 L 246.632812 115.320312 L 247.179688 114.078125 L 247.726562 112.816406 L 248.273438 111.542969 L 248.820312 110.253906 L 249.363281 108.945312 L 249.910156 107.609375 L 250.457031 106.242188 L 251.003906 104.828125 L 251.550781 103.355469 L 252.097656 101.816406 L 252.644531 100.199219 L 253.191406 98.496094 L 253.734375 96.707031 L 254.28125 94.828125 L 254.828125 92.847656 L 255.375 90.757812 L 255.921875 88.550781 L 256.46875 86.210938 L 257.015625 83.734375 L 257.5625 81.113281 L 258.105469 78.351562 L 258.652344 75.460938 L 259.199219 72.457031 L 259.746094 69.363281 L 260.292969 66.214844 L 260.839844 63.046875 L 261.386719 59.898438 L 261.933594 56.816406 L 262.476562 53.847656 L 263.023438 51.039062 L 263.570312 48.441406 L 264.117188 46.09375 L 264.664062 44.023438 L 265.210938 42.253906 L 265.757812 40.773438 L 266.304688 39.566406 L 266.847656 38.597656 L 267.394531 37.820312 L 267.941406 37.179688 L 268.488281 36.621094 L 269.035156 36.089844 L 269.582031 35.535156 L 270.128906 34.910156 L 270.675781 34.179688 L 271.21875 33.3125 L 271.765625 32.300781 L 272.3125 31.148438 L 272.859375 29.886719 L 273.40625 28.570312 L 273.953125 27.28125 L 274.5 26.128906 L 275.046875 25.21875 L 275.589844 24.660156 L 276.136719 24.546875 L 276.683594 24.925781 L 277.230469 25.816406 L 277.777344 27.171875 L 278.324219 28.914062 L 278.871094 30.925781 L 279.417969 33.070312 L 279.960938 35.210938 L 280.507812 37.246094 L 281.054688 39.089844 L 281.601562 40.730469 L 282.148438 42.183594 L 282.695312 43.527344 L 283.242188 44.867188 L 283.789062 46.324219 L 284.332031 48.023438 L 284.878906 50.050781 L 285.425781 52.464844 L 285.972656 55.28125 L 286.519531 58.457031 L 287.066406 61.917969 L 287.613281 65.570312 L 288.160156 69.300781 L 288.703125 73.015625 L 289.25 76.625 L 289.796875 80.078125 L 290.34375 83.34375 L 290.890625 86.410156 L 291.4375 89.28125 L 291.984375 91.964844 L 292.53125 94.472656 L 293.074219 96.808594 L 293.621094 98.980469 L 294.167969 100.988281 L 294.714844 102.84375 L 295.261719 104.554688 L 295.808594 106.148438 L 296.355469 107.644531 L 296.902344 109.070312 L 297.445312 110.445312 L 297.992188 111.785156 L 298.539062 113.09375 L 299.085938 114.375 L 299.632812 115.613281 L 300.179688 116.792969 L 300.726562 117.90625 L 301.273438 118.933594 L 301.816406 119.867188 L 302.363281 120.703125 L 302.910156 121.441406 L 303.457031 122.085938 L 304.003906 122.652344 L 304.550781 123.148438 L 305.097656 123.582031 L 305.640625 123.964844 L 306.1875 124.308594 L 306.734375 124.617188 L 307.28125 124.902344 L 307.828125 125.164062 L 308.375 125.410156 L 309.46875 125.878906 L 310.015625 126.109375 L 310.558594 126.335938 L 311.105469 126.566406 L 311.652344 126.789062 L 312.199219 127.007812 L 312.746094 127.214844 L 313.292969 127.40625 L 313.839844 127.570312 L 314.386719 127.710938 L 314.929688 127.820312 L 315.476562 127.898438 L 316.023438 127.949219 L 316.570312 127.972656 L 317.117188 127.96875 L 317.664062 127.949219 L 318.210938 127.914062 L 318.757812 127.875 L 319.300781 127.832031 L 319.847656 127.796875 L 320.394531 127.773438 L 320.941406 127.761719 L 321.488281 127.769531 L 322.035156 127.792969 L 322.582031 127.828125 L 323.128906 127.875 L 323.671875 127.929688 L 324.21875 127.984375 L 324.765625 128.035156 L 325.3125 128.082031 L 325.859375 128.121094 L 326.40625 128.15625 L 326.953125 128.179688 L 327.5 128.199219 L 328.042969 128.210938 L 328.589844 128.222656 L 330.230469 128.234375 L 332.414062 128.234375 Z M 223.683594 128.234375 "/>
<g clip-path="url(#clip2)" clip-rule="nonzero">
<path style="fill:none;stroke-width:1.5;stroke-linecap:butt;stroke-linejoin:miter;stroke:rgb(100%,100%,100%);stroke-opacity:1;stroke-dasharray:4.5,4.5;stroke-miterlimit:10;" d="M 298.244792 170.979167 L 300.432292 170.979167 L 301.890625 170.96875 L 302.619792 170.958333 L 303.34375 170.942708 L 304.072917 170.916667 L 304.802083 170.880208 L 305.53125 170.828125 L 306.260417 170.75 L 306.989583 170.640625 L 307.71875 170.505208 L 308.447917 170.328125 L 309.171875 170.119792 L 309.901042 169.875 L 310.630208 169.604167 L 312.088542 169.020833 L 312.817708 168.739583 L 313.546875 168.484375 L 314.276042 168.270833 L 315 168.098958 L 315.729167 167.984375 L 316.458333 167.911458 L 317.1875 167.869792 L 317.916667 167.833333 L 318.645833 167.770833 L 319.375 167.640625 L 320.104167 167.421875 L 320.828125 167.067708 L 321.557292 166.552083 L 322.286458 165.869792 L 323.015625 165.010417 L 323.744792 163.979167 L 324.473958 162.796875 L 325.203125 161.484375 L 325.932292 160.0625 L 326.65625 158.5625 L 327.385417 157 L 328.114583 155.395833 L 328.84375 153.760417 L 329.572917 152.104167 L 330.302083 150.421875 L 331.03125 148.723958 L 331.760417 147.005208 L 332.484375 145.260417 L 333.213542 143.479167 L 333.942708 141.65625 L 334.671875 139.770833 L 335.401042 137.807292 L 336.130208 135.755208 L 336.859375 133.598958 L 337.588542 131.328125 L 338.3125 128.942708 L 339.041667 126.4375 L 339.770833 123.796875 L 340.5 121.010417 L 341.229167 118.067708 L 341.958333 114.947917 L 342.6875 111.645833 L 343.416667 108.151042 L 344.140625 104.46875 L 344.869792 100.614583 L 345.598958 96.609375 L 346.328125 92.484375 L 347.057292 88.286458 L 347.786458 84.0625 L 348.515625 79.864583 L 349.244792 75.755208 L 349.96875 71.796875 L 350.697917 68.052083 L 351.427083 64.588542 L 352.15625 61.458333 L 352.885417 58.697917 L 353.614583 56.338542 L 354.34375 54.364583 L 355.072917 52.755208 L 355.796875 51.463542 L 356.526042 50.427083 L 357.255208 49.572917 L 357.984375 48.828125 L 358.713542 48.119792 L 359.442708 47.380208 L 360.171875 46.546875 L 360.901042 45.572917 L 361.625 44.416667 L 362.354167 43.067708 L 363.083333 41.53125 L 363.8125 39.848958 L 364.541667 38.09375 L 365.270833 36.375 L 366 34.838542 L 366.729167 33.625 L 367.453125 32.880208 L 368.182292 32.729167 L 368.911458 33.234375 L 369.640625 34.421875 L 370.369792 36.229167 L 371.098958 38.552083 L 371.828125 41.234375 L 372.557292 44.09375 L 373.28125 46.947917 L 374.010417 49.661458 L 374.739583 52.119792 L 375.46875 54.307292 L 376.197917 56.244792 L 376.927083 58.036458 L 377.65625 59.822917 L 378.385417 61.765625 L 379.109375 64.03125 L 379.838542 66.734375 L 380.567708 69.953125 L 381.296875 73.708333 L 382.026042 77.942708 L 382.755208 82.557292 L 383.484375 87.427083 L 384.213542 92.401042 L 384.9375 97.354167 L 385.666667 102.166667 L 386.395833 106.770833 L 387.125 111.125 L 387.854167 115.213542 L 388.583333 119.041667 L 389.3125 122.619792 L 390.041667 125.963542 L 390.765625 129.078125 L 391.494792 131.973958 L 392.223958 134.651042 L 392.953125 137.125 L 393.682292 139.40625 L 394.411458 141.53125 L 395.140625 143.526042 L 395.869792 145.427083 L 396.59375 147.260417 L 397.322917 149.046875 L 398.052083 150.791667 L 398.78125 152.5 L 399.510417 154.151042 L 400.239583 155.723958 L 400.96875 157.208333 L 401.697917 158.578125 L 402.421875 159.822917 L 403.151042 160.9375 L 403.880208 161.921875 L 404.609375 162.78125 L 405.338542 163.536458 L 406.067708 164.197917 L 406.796875 164.776042 L 407.520833 165.286458 L 408.25 165.744792 L 408.979167 166.15625 L 409.708333 166.536458 L 410.4375 166.885417 L 411.166667 167.213542 L 412.625 167.838542 L 413.354167 168.145833 L 414.078125 168.447917 L 414.807292 168.755208 L 415.536458 169.052083 L 416.265625 169.34375 L 416.994792 169.619792 L 417.723958 169.875 L 418.453125 170.09375 L 419.182292 170.28125 L 419.90625 170.427083 L 420.635417 170.53125 L 421.364583 170.598958 L 422.09375 170.630208 L 422.822917 170.625 L 423.552083 170.598958 L 424.28125 170.552083 L 425.010417 170.5 L 425.734375 170.442708 L 426.463542 170.395833 L 427.192708 170.364583 L 427.921875 170.348958 L 428.651042 170.359375 L 429.380208 170.390625 L 430.109375 170.4375 L 430.838542 170.5 L 431.5625 170.572917 L 432.291667 170.645833 L 433.020833 170.713542 L 433.75 170.776042 L 434.479167 170.828125 L 435.208333 170.875 L 435.9375 170.90625 L 436.666667 170.932292 L 437.390625 170.947917 L 438.119792 170.963542 L 440.307292 170.979167 L 443.21875 170.979167 " transform="matrix(0.75,0,0,0.75,0,0)"/>
</g>
<path style=" stroke:none;fill-rule:nonzero;fill:rgb(96.862745%,61.56863%,11.764706%);fill-opacity:0.45;" d="M 221.726562 128.234375 L 226.675781 128.234375 L 228.652344 128.226562 L 229.644531 128.222656 L 231.621094 128.207031 L 232.609375 128.191406 L 233.601562 128.171875 L 234.589844 128.144531 L 235.578125 128.109375 L 236.570312 128.0625 L 237.558594 128.011719 L 238.546875 127.949219 L 239.539062 127.878906 L 240.527344 127.796875 L 241.515625 127.710938 L 242.507812 127.621094 L 243.496094 127.523438 L 244.484375 127.421875 L 245.472656 127.316406 L 246.464844 127.203125 L 247.453125 127.085938 L 248.441406 126.960938 L 249.433594 126.832031 L 251.410156 126.558594 L 252.402344 126.425781 L 253.390625 126.292969 L 254.378906 126.171875 L 255.371094 126.066406 L 256.359375 125.972656 L 257.347656 125.898438 L 258.339844 125.835938 L 259.328125 125.789062 L 261.304688 125.710938 L 262.296875 125.671875 L 263.285156 125.617188 L 264.273438 125.546875 L 265.265625 125.457031 L 266.253906 125.335938 L 267.242188 125.183594 L 268.234375 124.992188 L 269.222656 124.75 L 270.210938 124.445312 L 271.203125 124.070312 L 272.191406 123.617188 L 273.179688 123.070312 L 274.171875 122.429688 L 275.160156 121.6875 L 276.148438 120.851562 L 277.136719 119.933594 L 278.128906 118.941406 L 279.117188 117.898438 L 280.105469 116.820312 L 281.097656 115.726562 L 282.085938 114.636719 L 283.074219 113.5625 L 284.066406 112.519531 L 285.054688 111.507812 L 286.042969 110.539062 L 287.035156 109.605469 L 288.023438 108.714844 L 289.011719 107.851562 L 290 107.015625 L 290.992188 106.195312 L 291.980469 105.378906 L 292.96875 104.550781 L 293.960938 103.6875 L 294.949219 102.773438 L 295.9375 101.789062 L 296.929688 100.710938 L 297.917969 99.523438 L 298.90625 98.214844 L 299.898438 96.789062 L 300.886719 95.246094 L 301.875 93.605469 L 302.867188 91.894531 L 303.855469 90.144531 L 304.84375 88.398438 L 305.832031 86.6875 L 306.824219 85.050781 L 307.8125 83.511719 L 308.800781 82.082031 L 309.792969 80.769531 L 310.78125 79.558594 L 311.769531 78.445312 L 312.761719 77.414062 L 313.75 76.453125 L 314.738281 75.566406 L 315.730469 74.753906 L 316.71875 74.042969 L 317.707031 73.453125 L 318.695312 73 L 319.6875 72.703125 L 320.675781 72.566406 L 321.664062 72.589844 L 322.65625 72.757812 L 323.644531 73.054688 L 324.632812 73.453125 L 325.625 73.9375 L 326.613281 74.496094 L 327.601562 75.109375 L 328.59375 75.78125 L 329.582031 76.5 L 330.570312 77.269531 L 331.5625 78.082031 L 332.550781 78.929688 L 333.539062 79.800781 L 334.527344 80.695312 L 335.519531 81.601562 L 336.507812 82.519531 L 337.496094 83.453125 L 338.488281 84.410156 L 339.476562 85.394531 L 340.464844 86.414062 L 341.457031 87.46875 L 342.445312 88.554688 L 343.433594 89.667969 L 344.425781 90.796875 L 345.414062 91.929688 L 346.402344 93.050781 L 347.394531 94.152344 L 348.382812 95.226562 L 349.371094 96.269531 L 350.359375 97.285156 L 351.351562 98.273438 L 352.339844 99.246094 L 353.328125 100.207031 L 354.320312 101.167969 L 355.308594 102.140625 L 356.296875 103.136719 L 357.289062 104.167969 L 358.277344 105.242188 L 359.265625 106.359375 L 360.257812 107.523438 L 361.246094 108.726562 L 362.234375 109.953125 L 363.222656 111.195312 L 364.214844 112.425781 L 365.203125 113.625 L 366.191406 114.777344 L 367.183594 115.859375 L 368.171875 116.859375 L 369.160156 117.773438 L 370.152344 118.59375 L 371.140625 119.328125 L 372.128906 119.988281 L 373.121094 120.582031 L 374.109375 121.132812 L 375.097656 121.652344 L 376.089844 122.148438 L 377.078125 122.636719 L 378.066406 123.117188 L 379.054688 123.585938 L 380.046875 124.046875 L 381.035156 124.488281 L 382.023438 124.902344 L 383.015625 125.289062 L 384.003906 125.644531 L 384.992188 125.957031 L 385.984375 126.238281 L 386.972656 126.480469 L 387.960938 126.6875 L 388.953125 126.863281 L 389.941406 127.007812 L 390.929688 127.128906 L 391.921875 127.230469 L 392.910156 127.3125 L 393.898438 127.382812 L 394.886719 127.449219 L 395.878906 127.511719 L 397.855469 127.636719 L 398.847656 127.703125 L 399.835938 127.773438 L 400.824219 127.839844 L 401.816406 127.910156 L 402.804688 127.972656 L 403.792969 128.027344 L 404.785156 128.078125 L 405.773438 128.117188 L 406.761719 128.152344 L 407.75 128.175781 L 408.742188 128.195312 L 409.730469 128.210938 L 410.71875 128.21875 L 411.710938 128.226562 L 412.699219 128.230469 L 413.6875 128.230469 L 414.679688 128.234375 L 418.636719 128.234375 Z M 221.726562 128.234375 "/>
<path style="fill:none;stroke-width:1.5;stroke-linecap:butt;stroke-linejoin:miter;stroke:rgb(100%,100%,100%);stroke-opacity:1;stroke-dasharray:4.5,4.5;stroke-miterlimit:10;" d="M 295.635417 170.979167 L 302.234375 170.979167 L 304.869792 170.96875 L 306.192708 170.963542 L 308.828125 170.942708 L 310.145833 170.921875 L 311.46875 170.895833 L 312.786458 170.859375 L 314.104167 170.8125 L 315.427083 170.75 L 316.744792 170.682292 L 318.0625 170.598958 L 319.385417 170.505208 L 320.703125 170.395833 L 322.020833 170.28125 L 323.34375 170.161458 L 324.661458 170.03125 L 325.979167 169.895833 L 327.296875 169.755208 L 328.619792 169.604167 L 329.9375 169.447917 L 331.255208 169.28125 L 332.578125 169.109375 L 335.213542 168.744792 L 336.536458 168.567708 L 337.854167 168.390625 L 339.171875 168.229167 L 340.494792 168.088542 L 341.8125 167.963542 L 343.130208 167.864583 L 344.453125 167.78125 L 345.770833 167.71875 L 348.40625 167.614583 L 349.729167 167.5625 L 351.046875 167.489583 L 352.364583 167.395833 L 353.6875 167.276042 L 355.005208 167.114583 L 356.322917 166.911458 L 357.645833 166.65625 L 358.963542 166.333333 L 360.28125 165.927083 L 361.604167 165.427083 L 362.921875 164.822917 L 364.239583 164.09375 L 365.5625 163.239583 L 366.880208 162.25 L 368.197917 161.135417 L 369.515625 159.911458 L 370.838542 158.588542 L 372.15625 157.197917 L 373.473958 155.760417 L 374.796875 154.302083 L 376.114583 152.848958 L 377.432292 151.416667 L 378.755208 150.026042 L 380.072917 148.677083 L 381.390625 147.385417 L 382.713542 146.140625 L 384.03125 144.953125 L 385.348958 143.802083 L 386.666667 142.6875 L 387.989583 141.59375 L 389.307292 140.505208 L 390.625 139.401042 L 391.947917 138.25 L 393.265625 137.03125 L 394.583333 135.71875 L 395.90625 134.28125 L 397.223958 132.697917 L 398.541667 130.953125 L 399.864583 129.052083 L 401.182292 126.994792 L 402.5 124.807292 L 403.822917 122.526042 L 405.140625 120.192708 L 406.458333 117.864583 L 407.776042 115.583333 L 409.098958 113.401042 L 410.416667 111.348958 L 411.734375 109.442708 L 413.057292 107.692708 L 414.375 106.078125 L 415.692708 104.59375 L 417.015625 103.21875 L 418.333333 101.9375 L 419.651042 100.755208 L 420.973958 99.671875 L 422.291667 98.723958 L 423.609375 97.9375 L 424.927083 97.333333 L 426.25 96.9375 L 427.567708 96.755208 L 428.885417 96.786458 L 430.208333 97.010417 L 431.526042 97.40625 L 432.84375 97.9375 L 434.166667 98.583333 L 435.484375 99.328125 L 436.802083 100.145833 L 438.125 101.041667 L 439.442708 102 L 440.760417 103.026042 L 442.083333 104.109375 L 443.401042 105.239583 L 444.71875 106.401042 L 446.036458 107.59375 L 447.359375 108.802083 L 448.677083 110.026042 L 449.994792 111.270833 L 451.317708 112.546875 L 452.635417 113.859375 L 453.953125 115.21875 L 455.276042 116.625 L 456.59375 118.072917 L 457.911458 119.557292 L 459.234375 121.0625 L 460.552083 122.572917 L 461.869792 124.067708 L 463.192708 125.536458 L 464.510417 126.96875 L 465.828125 128.359375 L 467.145833 129.713542 L 468.46875 131.03125 L 469.786458 132.328125 L 471.104167 133.609375 L 472.427083 134.890625 L 473.744792 136.1875 L 475.0625 137.515625 L 476.385417 138.890625 L 477.703125 140.322917 L 479.020833 141.8125 L 480.34375 143.364583 L 481.661458 144.96875 L 482.979167 146.604167 L 484.296875 148.260417 L 485.619792 149.901042 L 486.9375 151.5 L 488.255208 153.036458 L 489.578125 154.479167 L 490.895833 155.8125 L 492.213542 157.03125 L 493.536458 158.125 L 494.854167 159.104167 L 496.171875 159.984375 L 497.494792 160.776042 L 498.8125 161.510417 L 500.130208 162.203125 L 501.453125 162.864583 L 502.770833 163.515625 L 504.088542 164.15625 L 505.40625 164.78125 L 506.729167 165.395833 L 508.046875 165.984375 L 509.364583 166.536458 L 510.6875 167.052083 L 512.005208 167.526042 L 513.322917 167.942708 L 514.645833 168.317708 L 515.963542 168.640625 L 517.28125 168.916667 L 518.604167 169.151042 L 519.921875 169.34375 L 521.239583 169.505208 L 522.5625 169.640625 L 523.880208 169.75 L 525.197917 169.84375 L 526.515625 169.932292 L 527.838542 170.015625 L 530.473958 170.182292 L 531.796875 170.270833 L 533.114583 170.364583 L 534.432292 170.453125 L 535.755208 170.546875 L 537.072917 170.630208 L 538.390625 170.703125 L 539.713542 170.770833 L 541.03125 170.822917 L 542.348958 170.869792 L 543.666667 170.901042 L 544.989583 170.927083 L 546.307292 170.947917 L 547.625 170.958333 L 548.947917 170.96875 L 550.265625 170.973958 L 551.583333 170.973958 L 552.90625 170.979167 L 558.182292 170.979167 " transform="matrix(0.75,0,0,0.75,0,0)"/>
<g style="fill:rgb(45.09804%,45.09804%,45.09804%);fill-opacity:1;">
  <use xlink:href="#8CtLPZTx0-1" x="206.191406" y="168.53125"/>
</g>
<g style="fill:rgb(45.09804%,45.09804%,45.09804%);fill-opacity:1;">
  <use xlink:href="#8CtLPZTx1-1" x="214.933594" y="168.53125"/>
</g>
<g style="fill:rgb(45.09804%,45.09804%,45.09804%);fill-opacity:1;">
  <use xlink:href="#8CtLPZTx0-2" x="236.023437" y="168.53125"/>
</g>
<g style="fill:rgb(45.09804%,45.09804%,45.09804%);fill-opacity:1;">
  <use xlink:href="#8CtLPZTx2-1" x="209.253906" y="190.449219"/>
</g>
<g style="fill:rgb(45.09804%,45.09804%,45.09804%);fill-opacity:1;">
  <use xlink:href="#8CtLPZTx3-1" x="215.9375" y="190.449219"/>
</g>
<g style="fill:rgb(45.09804%,45.09804%,45.09804%);fill-opacity:1;">
  <use xlink:href="#8CtLPZTx4-1" x="219.273438" y="190.449219"/>
</g>
<g style="fill:rgb(45.09804%,45.09804%,45.09804%);fill-opacity:1;">
  <use xlink:href="#8CtLPZTx4-2" x="225.953125" y="190.449219"/>
</g>
<g style="fill:rgb(45.09804%,45.09804%,45.09804%);fill-opacity:1;">
  <use xlink:href="#8CtLPZTx2-2" x="229.292969" y="190.449219"/>
</g>
<g style="fill:rgb(45.09804%,45.09804%,45.09804%);fill-opacity:1;">
  <use xlink:href="#8CtLPZTx2-2" x="232.628906" y="190.449219"/>
</g>
<g style="fill:rgb(45.09804%,45.09804%,45.09804%);fill-opacity:1;">
  <use xlink:href="#8CtLPZTx2-3" x="235.96875" y="190.449219"/>
</g>
<g style="fill:rgb(45.09804%,45.09804%,45.09804%);fill-opacity:1;">
  <use xlink:href="#8CtLPZTx2-4" x="242.648438" y="190.449219"/>
</g>
<g style="fill:rgb(45.09804%,45.09804%,45.09804%);fill-opacity:1;">
  <use xlink:href="#8CtLPZTx2-5" x="245.984375" y="190.449219"/>
</g>
<path style="fill-rule:nonzero;fill:rgb(100%,25.490198%,5.098039%);fill-opacity:0.45;stroke-width:1.5;stroke-linecap:butt;stroke-linejoin:miter;stroke:rgb(100%,100%,100%);stroke-opacity:1;stroke-miterlimit:10;" d="M 255.03125 259.088542 L 275.03125 259.088542 L 275.03125 239.088542 L 255.03125 239.088542 Z M 255.03125 259.088542 " transform="matrix(0.75,0,0,0.75,0,0)"/>
<g style="fill:rgb(45.09804%,45.09804%,45.09804%);fill-opacity:1;">
  <use xlink:href="#8CtLPZTx3-2" x="209.511719" y="207.699219"/>
</g>
<g style="fill:rgb(45.09804%,45.09804%,45.09804%);fill-opacity:1;">
  <use xlink:href="#8CtLPZTx3-3" x="213.300781" y="207.699219"/>
</g>
<g style="fill:rgb(45.09804%,45.09804%,45.09804%);fill-opacity:1;">
  <use xlink:href="#8CtLPZTx3-1" x="219.980469" y="207.699219"/>
</g>
<g style="fill:rgb(45.09804%,45.09804%,45.09804%);fill-opacity:1;">
  <use xlink:href="#8CtLPZTx5-1" x="223.320312" y="207.699219"/>
</g>
<g style="fill:rgb(45.09804%,45.09804%,45.09804%);fill-opacity:1;">
  <use xlink:href="#8CtLPZTx2-6" x="230" y="207.699219"/>
</g>
<g style="fill:rgb(45.09804%,45.09804%,45.09804%);fill-opacity:1;">
  <use xlink:href="#8CtLPZTx2-2" x="233.335938" y="207.699219"/>
</g>
<g style="fill:rgb(45.09804%,45.09804%,45.09804%);fill-opacity:1;">
  <use xlink:href="#8CtLPZTx2-2" x="236.675781" y="207.699219"/>
</g>
<g style="fill:rgb(45.09804%,45.09804%,45.09804%);fill-opacity:1;">
  <use xlink:href="#8CtLPZTx2-1" x="240.011719" y="207.699219"/>
</g>
<g style="fill:rgb(45.09804%,45.09804%,45.09804%);fill-opacity:1;">
  <use xlink:href="#8CtLPZTx2-4" x="246.691406" y="207.699219"/>
</g>
<g style="fill:rgb(45.09804%,45.09804%,45.09804%);fill-opacity:1;">
  <use xlink:href="#8CtLPZTx2-3" x="250.03125" y="207.699219"/>
</g>
<path style="fill-rule:nonzero;fill:rgb(43.137255%,88.627452%,100%);fill-opacity:0.45;stroke-width:1.5;stroke-linecap:butt;stroke-linejoin:miter;stroke:rgb(100%,100%,100%);stroke-opacity:1;stroke-miterlimit:10;" d="M 255.03125 282.088542 L 275.03125 282.088542 L 275.03125 262.088542 L 255.03125 262.088542 Z M 255.03125 282.088542 " transform="matrix(0.75,0,0,0.75,0,0)"/>
<g style="fill:rgb(45.09804%,45.09804%,45.09804%);fill-opacity:1;">
  <use xlink:href="#8CtLPZTx6-1" x="209.332031" y="224.949219"/>
</g>
<g style="fill:rgb(45.09804%,45.09804%,45.09804%);fill-opacity:1;">
  <use xlink:href="#8CtLPZTx7-1" x="216.011719" y="224.949219"/>
</g>
<g style="fill:rgb(45.09804%,45.09804%,45.09804%);fill-opacity:1;">
  <use xlink:href="#8CtLPZTx6-2" x="219.351562" y="224.949219"/>
</g>
<g style="fill:rgb(45.09804%,45.09804%,45.09804%);fill-opacity:1;">
  <use xlink:href="#8CtLPZTx8-1" x="226.03125" y="224.949219"/>
</g>
<g style="fill:rgb(45.09804%,45.09804%,45.09804%);fill-opacity:1;">
  <use xlink:href="#8CtLPZTx6-3" x="232.710938" y="224.949219"/>
</g>
<g style="fill:rgb(45.09804%,45.09804%,45.09804%);fill-opacity:1;">
  <use xlink:href="#8CtLPZTx6-4" x="236.050781" y="224.949219"/>
</g>
<g style="fill:rgb(45.09804%,45.09804%,45.09804%);fill-opacity:1;">
  <use xlink:href="#8CtLPZTx6-4" x="239.386719" y="224.949219"/>
</g>
<g style="fill:rgb(45.09804%,45.09804%,45.09804%);fill-opacity:1;">
  <use xlink:href="#8CtLPZTx6-5" x="242.722656" y="224.949219"/>
</g>
<g style="fill:rgb(45.09804%,45.09804%,45.09804%);fill-opacity:1;">
  <use xlink:href="#8CtLPZTx6-6" x="249.40625" y="224.949219"/>
</g>
<g style="fill:rgb(45.09804%,45.09804%,45.09804%);fill-opacity:1;">
  <use xlink:href="#8CtLPZTx6-1" x="252.742188" y="224.949219"/>
</g>
<path style="fill-rule:nonzero;fill:rgb(96.862745%,77.254903%,18.82353%);fill-opacity:0.45;stroke-width:1.5;stroke-linecap:butt;stroke-linejoin:miter;stroke:rgb(100%,100%,100%);stroke-opacity:1;stroke-miterlimit:10;" d="M 255.03125 305.088542 L 275.03125 305.088542 L 275.03125 285.088542 L 255.03125 285.088542 Z M 255.03125 305.088542 " transform="matrix(0.75,0,0,0.75,0,0)"/>
<g style="fill:rgb(45.09804%,45.09804%,45.09804%);fill-opacity:1;">
  <use xlink:href="#8CtLPZTx2-7" x="208.871094" y="242.199219"/>
</g>
<g style="fill:rgb(45.09804%,45.09804%,45.09804%);fill-opacity:1;">
  <use xlink:href="#8CtLPZTx2-4" x="215.550781" y="242.199219"/>
</g>
<g style="fill:rgb(45.09804%,45.09804%,45.09804%);fill-opacity:1;">
  <use xlink:href="#8CtLPZTx3-4" x="218.890625" y="242.199219"/>
</g>
<g style="fill:rgb(45.09804%,45.09804%,45.09804%);fill-opacity:1;">
  <use xlink:href="#8CtLPZTx2-6" x="225.570312" y="242.199219"/>
</g>
<g style="fill:rgb(45.09804%,45.09804%,45.09804%);fill-opacity:1;">
  <use xlink:href="#8CtLPZTx4-3" x="228.90625" y="242.199219"/>
</g>
<g style="fill:rgb(45.09804%,45.09804%,45.09804%);fill-opacity:1;">
  <use xlink:href="#8CtLPZTx2-2" x="232.246094" y="242.199219"/>
</g>
<g style="fill:rgb(45.09804%,45.09804%,45.09804%);fill-opacity:1;">
  <use xlink:href="#8CtLPZTx2-3" x="235.582031" y="242.199219"/>
</g>
<g style="fill:rgb(45.09804%,45.09804%,45.09804%);fill-opacity:1;">
  <use xlink:href="#8CtLPZTx5-2" x="242.261719" y="242.199219"/>
</g>
<g style="fill:rgb(45.09804%,45.09804%,45.09804%);fill-opacity:1;">
  <use xlink:href="#8CtLPZTx2-7" x="245.601562" y="242.199219"/>
</g>
<path style="fill-rule:nonzero;fill:rgb(58.431375%,80.000001%,36.862746%);fill-opacity:0.45;stroke-width:1.5;stroke-linecap:butt;stroke-linejoin:miter;stroke:rgb(100%,100%,100%);stroke-opacity:1;stroke-miterlimit:10;" d="M 255.03125 328.088542 L 275.03125 328.088542 L 275.03125 308.088542 L 255.03125 308.088542 Z M 255.03125 328.088542 " transform="matrix(0.75,0,0,0.75,0,0)"/>
<g style="fill:rgb(45.09804%,45.09804%,45.09804%);fill-opacity:1;">
  <use xlink:href="#8CtLPZTx2-7" x="208.871094" y="259.449219"/>
</g>
<g style="fill:rgb(45.09804%,45.09804%,45.09804%);fill-opacity:1;">
  <use xlink:href="#8CtLPZTx2-4" x="215.550781" y="259.449219"/>
</g>
<g style="fill:rgb(45.09804%,45.09804%,45.09804%);fill-opacity:1;">
  <use xlink:href="#8CtLPZTx3-4" x="218.890625" y="259.449219"/>
</g>
<g style="fill:rgb(45.09804%,45.09804%,45.09804%);fill-opacity:1;">
  <use xlink:href="#8CtLPZTx2-6" x="225.570312" y="259.449219"/>
</g>
<g style="fill:rgb(45.09804%,45.09804%,45.09804%);fill-opacity:1;">
  <use xlink:href="#8CtLPZTx4-3" x="228.90625" y="259.449219"/>
</g>
<g style="fill:rgb(45.09804%,45.09804%,45.09804%);fill-opacity:1;">
  <use xlink:href="#8CtLPZTx2-2" x="232.246094" y="259.449219"/>
</g>
<g style="fill:rgb(45.09804%,45.09804%,45.09804%);fill-opacity:1;">
  <use xlink:href="#8CtLPZTx2-3" x="235.582031" y="259.449219"/>
</g>
<g style="fill:rgb(45.09804%,45.09804%,45.09804%);fill-opacity:1;">
  <use xlink:href="#8CtLPZTx5-2" x="242.261719" y="259.449219"/>
</g>
<g style="fill:rgb(45.09804%,45.09804%,45.09804%);fill-opacity:1;">
  <use xlink:href="#8CtLPZTx2-3" x="245.601562" y="259.449219"/>
</g>
<g style="fill:rgb(45.09804%,45.09804%,45.09804%);fill-opacity:1;">
  <use xlink:href="#8CtLPZTx2-5" x="252.28125" y="259.449219"/>
</g>
<path style="fill-rule:nonzero;fill:rgb(81.568629%,87.450981%,90.196079%);fill-opacity:0.45;stroke-width:1.5;stroke-linecap:butt;stroke-linejoin:miter;stroke:rgb(100%,100%,100%);stroke-opacity:1;stroke-miterlimit:10;" d="M 255.03125 351.088542 L 275.03125 351.088542 L 275.03125 331.088542 L 255.03125 331.088542 Z M 255.03125 351.088542 " transform="matrix(0.75,0,0,0.75,0,0)"/>
<g style="fill:rgb(45.09804%,45.09804%,45.09804%);fill-opacity:1;">
  <use xlink:href="#8CtLPZTx9-1" x="208.871094" y="276.699219"/>
</g>
<g style="fill:rgb(45.09804%,45.09804%,45.09804%);fill-opacity:1;">
  <use xlink:href="#8CtLPZTx9-2" x="215.550781" y="276.699219"/>
</g>
<g style="fill:rgb(45.09804%,45.09804%,45.09804%);fill-opacity:1;">
  <use xlink:href="#8CtLPZTx10-1" x="218.890625" y="276.699219"/>
</g>
<g style="fill:rgb(45.09804%,45.09804%,45.09804%);fill-opacity:1;">
  <use xlink:href="#8CtLPZTx9-3" x="225.570312" y="276.699219"/>
</g>
<g style="fill:rgb(45.09804%,45.09804%,45.09804%);fill-opacity:1;">
  <use xlink:href="#8CtLPZTx11-1" x="228.90625" y="276.699219"/>
</g>
<g style="fill:rgb(45.09804%,45.09804%,45.09804%);fill-opacity:1;">
  <use xlink:href="#8CtLPZTx9-4" x="232.246094" y="276.699219"/>
</g>
<g style="fill:rgb(45.09804%,45.09804%,45.09804%);fill-opacity:1;">
  <use xlink:href="#8CtLPZTx9-5" x="235.582031" y="276.699219"/>
</g>
<g style="fill:rgb(45.09804%,45.09804%,45.09804%);fill-opacity:1;">
  <use xlink:href="#8CtLPZTx12-1" x="242.261719" y="276.699219"/>
</g>
<g style="fill:rgb(45.09804%,45.09804%,45.09804%);fill-opacity:1;">
  <use xlink:href="#8CtLPZTx9-1" x="245.601562" y="276.699219"/>
</g>
<path style="fill-rule:nonzero;fill:rgb(96.862745%,61.56863%,11.764706%);fill-opacity:0.45;stroke-width:1.5;stroke-linecap:butt;stroke-linejoin:miter;stroke:rgb(100%,100%,100%);stroke-opacity:1;stroke-miterlimit:10;" d="M 255.03125 374.088542 L 275.03125 374.088542 L 275.03125 354.088542 L 255.03125 354.088542 Z M 255.03125 374.088542 " transform="matrix(0.75,0,0,0.75,0,0)"/>
</g>
</svg>
