<?xml version="1.0" encoding="UTF-8"?>
<svg xmlns="http://www.w3.org/2000/svg" xmlns:xlink="http://www.w3.org/1999/xlink" width="450pt" height="300pt" viewBox="0 0 450 300" version="1.1">
<defs>
<g>
<symbol overflow="visible" id="9t6N+adb0-0">
<path style="stroke:none;" d="M 0.453125 1.59375 L 0.453125 -6.34375 L 4.953125 -6.34375 L 4.953125 1.59375 Z M 0.953125 1.09375 L 4.453125 1.09375 L 4.453125 -5.84375 L 0.953125 -5.84375 Z M 0.953125 1.09375 "/>
</symbol>
<symbol overflow="visible" id="9t6N+adb0-1">
<path style="stroke:none;" d="M 2.859375 -5.984375 C 2.398438 -5.984375 2.054688 -5.753906 1.828125 -5.296875 C 1.597656 -4.847656 1.484375 -4.175781 1.484375 -3.28125 C 1.484375 -2.375 1.597656 -1.695312 1.828125 -1.25 C 2.054688 -0.800781 2.398438 -0.578125 2.859375 -0.578125 C 3.316406 -0.578125 3.660156 -0.800781 3.890625 -1.25 C 4.117188 -1.695312 4.234375 -2.375 4.234375 -3.28125 C 4.234375 -4.175781 4.117188 -4.847656 3.890625 -5.296875 C 3.660156 -5.753906 3.316406 -5.984375 2.859375 -5.984375 Z M 2.859375 -6.6875 C 3.597656 -6.6875 4.160156 -6.394531 4.546875 -5.8125 C 4.929688 -5.226562 5.125 -4.382812 5.125 -3.28125 C 5.125 -2.175781 4.929688 -1.332031 4.546875 -0.75 C 4.160156 -0.164062 3.597656 0.125 2.859375 0.125 C 2.128906 0.125 1.566406 -0.164062 1.171875 -0.75 C 0.785156 -1.332031 0.59375 -2.175781 0.59375 -3.28125 C 0.59375 -4.382812 0.785156 -5.226562 1.171875 -5.8125 C 1.566406 -6.394531 2.128906 -6.6875 2.859375 -6.6875 Z M 2.859375 -6.6875 "/>
</symbol>
<symbol overflow="visible" id="9t6N+adb0-2">
<path style="stroke:none;" d="M 0.96875 -1.109375 L 1.890625 -1.109375 L 1.890625 0 L 0.96875 0 Z M 0.96875 -1.109375 "/>
</symbol>
<symbol overflow="visible" id="9t6N+adb0-3">
<path style="stroke:none;" d="M 1.109375 -0.75 L 2.5625 -0.75 L 2.5625 -5.75 L 0.984375 -5.4375 L 0.984375 -6.25 L 2.5625 -6.5625 L 3.453125 -6.5625 L 3.453125 -0.75 L 4.890625 -0.75 L 4.890625 0 L 1.109375 0 Z M 1.109375 -0.75 "/>
</symbol>
<symbol overflow="visible" id="9t6N+adb0-4">
<path style="stroke:none;" d="M 3.65625 -3.53125 C 4.082031 -3.445312 4.410156 -3.257812 4.640625 -2.96875 C 4.878906 -2.6875 5 -2.332031 5 -1.90625 C 5 -1.257812 4.773438 -0.757812 4.328125 -0.40625 C 3.890625 -0.0507812 3.257812 0.125 2.4375 0.125 C 2.164062 0.125 1.882812 0.0976562 1.59375 0.046875 C 1.300781 -0.00390625 1 -0.0859375 0.6875 -0.203125 L 0.6875 -1.0625 C 0.9375 -0.914062 1.207031 -0.804688 1.5 -0.734375 C 1.789062 -0.660156 2.09375 -0.625 2.40625 -0.625 C 2.96875 -0.625 3.394531 -0.734375 3.6875 -0.953125 C 3.976562 -1.171875 4.125 -1.488281 4.125 -1.90625 C 4.125 -2.289062 3.988281 -2.59375 3.71875 -2.8125 C 3.445312 -3.03125 3.066406 -3.140625 2.578125 -3.140625 L 1.8125 -3.140625 L 1.8125 -3.875 L 2.625 -3.875 C 3.0625 -3.875 3.394531 -3.957031 3.625 -4.125 C 3.851562 -4.300781 3.96875 -4.554688 3.96875 -4.890625 C 3.96875 -5.222656 3.847656 -5.476562 3.609375 -5.65625 C 3.367188 -5.84375 3.023438 -5.9375 2.578125 -5.9375 C 2.335938 -5.9375 2.078125 -5.910156 1.796875 -5.859375 C 1.523438 -5.804688 1.222656 -5.722656 0.890625 -5.609375 L 0.890625 -6.40625 C 1.222656 -6.5 1.535156 -6.566406 1.828125 -6.609375 C 2.117188 -6.660156 2.394531 -6.6875 2.65625 -6.6875 C 3.332031 -6.6875 3.867188 -6.53125 4.265625 -6.21875 C 4.660156 -5.914062 4.859375 -5.503906 4.859375 -4.984375 C 4.859375 -4.617188 4.753906 -4.3125 4.546875 -4.0625 C 4.335938 -3.8125 4.039062 -3.632812 3.65625 -3.53125 Z M 3.65625 -3.53125 "/>
</symbol>
<symbol overflow="visible" id="9t6N+adb0-5">
<path style="stroke:none;" d="M 0.734375 -6.5625 L 4.953125 -6.5625 L 4.953125 -6.1875 L 2.578125 0 L 1.640625 0 L 3.890625 -5.8125 L 0.734375 -5.8125 Z M 0.734375 -6.5625 "/>
</symbol>
<symbol overflow="visible" id="9t6N+adb0-6">
<path style="stroke:none;" d="M 1.734375 -0.75 L 4.828125 -0.75 L 4.828125 0 L 0.65625 0 L 0.65625 -0.75 C 1 -1.09375 1.457031 -1.554688 2.03125 -2.140625 C 2.613281 -2.734375 2.984375 -3.113281 3.140625 -3.28125 C 3.421875 -3.601562 3.613281 -3.875 3.71875 -4.09375 C 3.832031 -4.320312 3.890625 -4.539062 3.890625 -4.75 C 3.890625 -5.101562 3.769531 -5.390625 3.53125 -5.609375 C 3.289062 -5.828125 2.972656 -5.9375 2.578125 -5.9375 C 2.296875 -5.9375 2 -5.882812 1.6875 -5.78125 C 1.382812 -5.6875 1.054688 -5.539062 0.703125 -5.34375 L 0.703125 -6.25 C 1.054688 -6.382812 1.390625 -6.488281 1.703125 -6.5625 C 2.015625 -6.644531 2.300781 -6.6875 2.5625 -6.6875 C 3.238281 -6.6875 3.78125 -6.515625 4.1875 -6.171875 C 4.59375 -5.828125 4.796875 -5.375 4.796875 -4.8125 C 4.796875 -4.539062 4.742188 -4.28125 4.640625 -4.03125 C 4.535156 -3.789062 4.351562 -3.507812 4.09375 -3.1875 C 4.019531 -3.101562 3.785156 -2.859375 3.390625 -2.453125 C 2.992188 -2.046875 2.441406 -1.476562 1.734375 -0.75 Z M 1.734375 -0.75 "/>
</symbol>
<symbol overflow="visible" id="9t6N+adb0-7">
<path style="stroke:none;" d="M 2.859375 -3.109375 C 2.441406 -3.109375 2.109375 -2.992188 1.859375 -2.765625 C 1.617188 -2.546875 1.5 -2.238281 1.5 -1.84375 C 1.5 -1.445312 1.617188 -1.132812 1.859375 -0.90625 C 2.109375 -0.6875 2.441406 -0.578125 2.859375 -0.578125 C 3.285156 -0.578125 3.617188 -0.6875 3.859375 -0.90625 C 4.097656 -1.132812 4.21875 -1.445312 4.21875 -1.84375 C 4.21875 -2.238281 4.097656 -2.546875 3.859375 -2.765625 C 3.617188 -2.992188 3.285156 -3.109375 2.859375 -3.109375 Z M 1.96875 -3.5 C 1.59375 -3.59375 1.296875 -3.769531 1.078125 -4.03125 C 0.867188 -4.289062 0.765625 -4.609375 0.765625 -4.984375 C 0.765625 -5.503906 0.953125 -5.914062 1.328125 -6.21875 C 1.703125 -6.53125 2.210938 -6.6875 2.859375 -6.6875 C 3.515625 -6.6875 4.023438 -6.53125 4.390625 -6.21875 C 4.765625 -5.914062 4.953125 -5.503906 4.953125 -4.984375 C 4.953125 -4.609375 4.84375 -4.289062 4.625 -4.03125 C 4.414062 -3.769531 4.125 -3.59375 3.75 -3.5 C 4.175781 -3.394531 4.507812 -3.195312 4.75 -2.90625 C 4.988281 -2.613281 5.109375 -2.257812 5.109375 -1.84375 C 5.109375 -1.207031 4.914062 -0.71875 4.53125 -0.375 C 4.144531 -0.0390625 3.585938 0.125 2.859375 0.125 C 2.140625 0.125 1.582031 -0.0390625 1.1875 -0.375 C 0.800781 -0.71875 0.609375 -1.207031 0.609375 -1.84375 C 0.609375 -2.257812 0.726562 -2.613281 0.96875 -2.90625 C 1.207031 -3.195312 1.539062 -3.394531 1.96875 -3.5 Z M 1.640625 -4.890625 C 1.640625 -4.554688 1.742188 -4.289062 1.953125 -4.09375 C 2.171875 -3.90625 2.472656 -3.8125 2.859375 -3.8125 C 3.242188 -3.8125 3.539062 -3.90625 3.75 -4.09375 C 3.96875 -4.289062 4.078125 -4.554688 4.078125 -4.890625 C 4.078125 -5.234375 3.96875 -5.5 3.75 -5.6875 C 3.539062 -5.882812 3.242188 -5.984375 2.859375 -5.984375 C 2.472656 -5.984375 2.171875 -5.882812 1.953125 -5.6875 C 1.742188 -5.5 1.640625 -5.234375 1.640625 -4.890625 Z M 1.640625 -4.890625 "/>
</symbol>
</g>
</defs>
<g id="surface1">
<rect x="0" y="0" width="450" height="300" style="fill:rgb(10.196079%,10.196079%,10.196079%);fill-opacity:1;stroke:none;"/>
<path style="fill:none;stroke-width:1;stroke-linecap:butt;stroke-linejoin:miter;stroke:rgb(100%,100%,100%);stroke-opacity:0.09;stroke-miterlimit:10;" d="M 41.817708 384 L 41.817708 16 " transform="matrix(0.75,0,0,0.75,0,0)"/>
<path style="fill:none;stroke-width:1;stroke-linecap:butt;stroke-linejoin:miter;stroke:rgb(100%,100%,100%);stroke-opacity:0.09;stroke-miterlimit:10;" d="M 170.911458 384 L 170.911458 16 " transform="matrix(0.75,0,0,0.75,0,0)"/>
<path style="fill:none;stroke-width:1;stroke-linecap:butt;stroke-linejoin:miter;stroke:rgb(100%,100%,100%);stroke-opacity:0.09;stroke-miterlimit:10;" d="M 300 384 L 300 16 " transform="matrix(0.75,0,0,0.75,0,0)"/>
<path style="fill:none;stroke-width:1;stroke-linecap:butt;stroke-linejoin:miter;stroke:rgb(100%,100%,100%);stroke-opacity:0.09;stroke-miterlimit:10;" d="M 429.088542 384 L 429.088542 16 " transform="matrix(0.75,0,0,0.75,0,0)"/>
<path style="fill:none;stroke-width:1;stroke-linecap:butt;stroke-linejoin:miter;stroke:rgb(100%,100%,100%);stroke-opacity:0.09;stroke-miterlimit:10;" d="M 558.182292 384 L 558.182292 16 " transform="matrix(0.75,0,0,0.75,0,0)"/>
<path style="fill:none;stroke-width:1;stroke-linecap:butt;stroke-linejoin:miter;stroke:rgb(100%,100%,100%);stroke-opacity:0.09;stroke-miterlimit:10;" d="M 16 367.270833 L 584 367.270833 " transform="matrix(0.75,0,0,0.75,0,0)"/>
<path style="fill:none;stroke-width:1;stroke-linecap:butt;stroke-linejoin:miter;stroke:rgb(100%,100%,100%);stroke-opacity:0.09;stroke-miterlimit:10;" d="M 16 285.760417 L 584 285.760417 " transform="matrix(0.75,0,0,0.75,0,0)"/>
<path style="fill:none;stroke-width:1;stroke-linecap:butt;stroke-linejoin:miter;stroke:rgb(100%,100%,100%);stroke-opacity:0.09;stroke-miterlimit:10;" d="M 16 204.244792 L 584 204.244792 " transform="matrix(0.75,0,0,0.75,0,0)"/>
<path style="fill:none;stroke-width:1;stroke-linecap:butt;stroke-linejoin:miter;stroke:rgb(100%,100%,100%);stroke-opacity:0.09;stroke-miterlimit:10;" d="M 16 122.729167 L 584 122.729167 " transform="matrix(0.75,0,0,0.75,0,0)"/>
<path style="fill:none;stroke-width:1;stroke-linecap:butt;stroke-linejoin:miter;stroke:rgb(100%,100%,100%);stroke-opacity:0.09;stroke-miterlimit:10;" d="M 16 41.213542 L 584 41.213542 " transform="matrix(0.75,0,0,0.75,0,0)"/>
<path style=" stroke:none;fill-rule:nonzero;fill:rgb(7.720734%,2.724982%,53.941345%);fill-opacity:1;" d="M 33.433594 196.191406 L 128.183594 196.191406 L 128.183594 184.75 L 33.433594 184.75 Z M 33.433594 196.191406 "/>
<path style=" stroke:none;fill-rule:nonzero;fill:rgb(14.832604%,2.127418%,57.037187%);fill-opacity:1;" d="M 39.640625 184.75 L 128.183594 184.75 L 128.183594 173.308594 L 39.640625 173.308594 Z M 39.640625 184.75 "/>
<path style=" stroke:none;fill-rule:nonzero;fill:rgb(26.447693%,1.299299%,61.908996%);fill-opacity:1;" d="M 53.089844 173.304688 L 128.183594 173.304688 L 128.183594 161.863281 L 53.089844 161.863281 Z M 53.089844 173.304688 "/>
<path style=" stroke:none;fill-rule:nonzero;fill:rgb(52.594304%,2.714136%,65.180296%);fill-opacity:1;" d="M 88.261719 161.863281 L 128.179688 161.863281 L 128.179688 150.421875 L 88.261719 150.421875 Z M 88.261719 161.863281 "/>
<path style=" stroke:none;fill-rule:nonzero;fill:rgb(79.160744%,27.240524%,47.590357%);fill-opacity:1;" d="M 128.183594 150.417969 L 134.816406 150.417969 L 134.816406 138.976562 L 128.183594 138.976562 Z M 128.183594 150.417969 "/>
<path style=" stroke:none;fill-rule:nonzero;fill:rgb(96.678114%,56.499106%,26.479736%);fill-opacity:1;" d="M 128.183594 138.976562 L 185.507812 138.976562 L 185.507812 127.535156 L 128.183594 127.535156 Z M 128.183594 138.976562 "/>
<path style=" stroke:none;fill-rule:nonzero;fill:rgb(94.001502%,97.515798%,13.1326%);fill-opacity:1;" d="M 128.183594 127.535156 L 240.335938 127.535156 L 240.335938 116.09375 L 128.183594 116.09375 Z M 128.183594 127.535156 "/>
<path style=" stroke:none;fill-rule:nonzero;fill:rgb(99.415791%,73.7306%,16.83695%);fill-opacity:1;" d="M 128.183594 116.089844 L 210.335938 116.089844 L 210.335938 104.648438 L 128.183594 104.648438 Z M 128.183594 116.089844 "/>
<path style=" stroke:none;fill-rule:nonzero;fill:rgb(90.608519%,43.262896%,35.436702%);fill-opacity:1;" d="M 128.183594 104.648438 L 163.785156 104.648438 L 163.785156 93.207031 L 128.183594 93.207031 Z M 128.183594 104.648438 "/>
<path style=" stroke:none;fill-rule:nonzero;fill:rgb(73.736358%,21.099146%,52.661699%);fill-opacity:1;" d="M 123.433594 93.203125 L 128.179688 93.203125 L 128.179688 81.761719 L 123.433594 81.761719 Z M 123.433594 93.203125 "/>
<path style=" stroke:none;fill-rule:nonzero;fill:rgb(48.225352%,0.924614%,65.858889%);fill-opacity:1;" d="M 82.054688 81.761719 L 128.183594 81.761719 L 128.183594 70.320312 L 82.054688 70.320312 Z M 82.054688 81.761719 "/>
<path style=" stroke:none;fill-rule:nonzero;fill:rgb(23.929504%,1.503422%,60.920924%);fill-opacity:1;" d="M 49.984375 70.316406 L 128.179688 70.316406 L 128.179688 58.875 L 49.984375 58.875 Z M 49.984375 70.316406 "/>
<path style=" stroke:none;fill-rule:nonzero;fill:rgb(10.403167%,2.469664%,55.085188%);fill-opacity:1;" d="M 35.5 58.875 L 128.179688 58.875 L 128.179688 47.433594 L 35.5 47.433594 Z M 35.5 58.875 "/>
<path style=" stroke:none;fill-rule:nonzero;fill:rgb(5.0383%,2.9803%,52.797502%);fill-opacity:1;" d="M 31.363281 47.433594 L 128.179688 47.433594 L 128.179688 35.992188 L 31.363281 35.992188 Z M 31.363281 47.433594 "/>
<path style=" stroke:none;fill-rule:nonzero;fill:rgb(7.720734%,2.724982%,53.941345%);fill-opacity:1;" d="M 33.433594 35.988281 L 128.183594 35.988281 L 128.183594 24.546875 L 33.433594 24.546875 Z M 33.433594 35.988281 "/>
<path style=" stroke:none;fill-rule:nonzero;fill:rgb(89.803922%,89.803922%,89.803922%);fill-opacity:1;" d="M 418.101562 212.078125 L 418.636719 212.078125 L 418.636719 201.046875 L 418.101562 201.046875 Z M 418.101562 212.078125 "/>
<path style=" stroke:none;fill-rule:nonzero;fill:rgb(89.803922%,89.803922%,89.803922%);fill-opacity:1;" d="M 417.566406 201.046875 L 418.636719 201.046875 L 418.636719 190.015625 L 417.566406 190.015625 Z M 417.566406 201.046875 "/>
<path style=" stroke:none;fill-rule:nonzero;fill:rgb(89.803922%,89.803922%,89.803922%);fill-opacity:1;" d="M 416.496094 190.015625 L 418.636719 190.015625 L 418.636719 178.984375 L 416.496094 178.984375 Z M 416.496094 190.015625 "/>
<path style=" stroke:none;fill-rule:nonzero;fill:rgb(89.803922%,89.803922%,89.803922%);fill-opacity:1;" d="M 413.820312 178.984375 L 418.632812 178.984375 L 418.632812 167.953125 L 413.820312 167.953125 Z M 413.820312 178.984375 "/>
<path style=" stroke:none;fill-rule:nonzero;fill:rgb(89.803922%,89.803922%,89.803922%);fill-opacity:1;" d="M 398.308594 167.949219 L 418.636719 167.949219 L 418.636719 156.917969 L 398.308594 156.917969 Z M 398.308594 167.949219 "/>
<path style=" stroke:none;fill-rule:nonzero;fill:rgb(89.803922%,89.803922%,89.803922%);fill-opacity:1;" d="M 386.542969 156.917969 L 418.636719 156.917969 L 418.636719 145.886719 L 386.542969 145.886719 Z M 386.542969 156.917969 "/>
<path style=" stroke:none;fill-rule:nonzero;fill:rgb(89.803922%,89.803922%,89.803922%);fill-opacity:1;" d="M 354.449219 145.886719 L 418.636719 145.886719 L 418.636719 134.855469 L 354.449219 134.855469 Z M 354.449219 145.886719 "/>
<path style=" stroke:none;fill-rule:nonzero;fill:rgb(89.803922%,89.803922%,89.803922%);fill-opacity:1;" d="M 322.351562 134.855469 L 418.636719 134.855469 L 418.636719 123.824219 L 322.351562 123.824219 Z M 322.351562 134.855469 "/>
<path style=" stroke:none;fill-rule:nonzero;fill:rgb(89.803922%,89.803922%,89.803922%);fill-opacity:1;" d="M 321.816406 123.824219 L 418.632812 123.824219 L 418.632812 112.792969 L 321.816406 112.792969 Z M 321.816406 123.824219 "/>
<path style=" stroke:none;fill-rule:nonzero;fill:rgb(89.803922%,89.803922%,89.803922%);fill-opacity:1;" d="M 336.796875 112.792969 L 418.636719 112.792969 L 418.636719 101.761719 L 336.796875 101.761719 Z M 336.796875 112.792969 "/>
<path style=" stroke:none;fill-rule:nonzero;fill:rgb(89.803922%,89.803922%,89.803922%);fill-opacity:1;" d="M 357.65625 101.757812 L 418.636719 101.757812 L 418.636719 90.726562 L 357.65625 90.726562 Z M 357.65625 101.757812 "/>
<path style=" stroke:none;fill-rule:nonzero;fill:rgb(89.803922%,89.803922%,89.803922%);fill-opacity:1;" d="M 383.867188 90.726562 L 418.636719 90.726562 L 418.636719 79.695312 L 383.867188 79.695312 Z M 383.867188 90.726562 "/>
<path style=" stroke:none;fill-rule:nonzero;fill:rgb(89.803922%,89.803922%,89.803922%);fill-opacity:1;" d="M 390.820312 79.695312 L 418.636719 79.695312 L 418.636719 68.664062 L 390.820312 68.664062 Z M 390.820312 79.695312 "/>
<path style=" stroke:none;fill-rule:nonzero;fill:rgb(89.803922%,89.803922%,89.803922%);fill-opacity:1;" d="M 410.078125 68.664062 L 418.636719 68.664062 L 418.636719 57.632812 L 410.078125 57.632812 Z M 410.078125 68.664062 "/>
<path style=" stroke:none;fill-rule:nonzero;fill:rgb(89.803922%,89.803922%,89.803922%);fill-opacity:1;" d="M 415.960938 57.632812 L 418.636719 57.632812 L 418.636719 46.601562 L 415.960938 46.601562 Z M 415.960938 57.632812 "/>
<path style="fill:none;stroke-width:1;stroke-linecap:butt;stroke-linejoin:miter;stroke:rgb(100%,100%,100%);stroke-opacity:1;stroke-miterlimit:10;" d="M 197.739583 41.682292 L 218.802083 41.682292 L 218.802083 41.21875 L 197.739583 41.21875 Z M 197.739583 41.682292 " transform="matrix(0.75,0,0,0.75,0,0)"/>
<path style="fill:none;stroke-width:1;stroke-linecap:butt;stroke-linejoin:miter;stroke:rgb(100%,100%,100%);stroke-opacity:1;stroke-miterlimit:10;" d="M 218.802083 44.942708 L 239.864583 44.942708 L 239.864583 41.21875 L 218.802083 41.21875 Z M 218.802083 44.942708 " transform="matrix(0.75,0,0,0.75,0,0)"/>
<path style="fill:none;stroke-width:1;stroke-linecap:butt;stroke-linejoin:miter;stroke:rgb(100%,100%,100%);stroke-opacity:1;stroke-miterlimit:10;" d="M 239.864583 51 L 260.927083 51 L 260.927083 41.21875 L 239.864583 41.21875 Z M 239.864583 51 " transform="matrix(0.75,0,0,0.75,0,0)"/>
<path style="fill:none;stroke-width:1;stroke-linecap:butt;stroke-linejoin:miter;stroke:rgb(100%,100%,100%);stroke-opacity:1;stroke-miterlimit:10;" d="M 260.932292 65.4375 L 281.994792 65.4375 L 281.994792 41.213542 L 260.932292 41.213542 Z M 260.932292 65.4375 " transform="matrix(0.75,0,0,0.75,0,0)"/>
<path style="fill:none;stroke-width:1;stroke-linecap:butt;stroke-linejoin:miter;stroke:rgb(100%,100%,100%);stroke-opacity:1;stroke-miterlimit:10;" d="M 281.994792 81.276042 L 303.057292 81.276042 L 303.057292 41.21875 L 281.994792 41.21875 Z M 281.994792 81.276042 " transform="matrix(0.75,0,0,0.75,0,0)"/>
<path style="fill:none;stroke-width:1;stroke-linecap:butt;stroke-linejoin:miter;stroke:rgb(100%,100%,100%);stroke-opacity:1;stroke-miterlimit:10;" d="M 303.057292 107.359375 L 324.119792 107.359375 L 324.119792 41.21875 L 303.057292 41.21875 Z M 303.057292 107.359375 " transform="matrix(0.75,0,0,0.75,0,0)"/>
<path style="fill:none;stroke-width:1;stroke-linecap:butt;stroke-linejoin:miter;stroke:rgb(100%,100%,100%);stroke-opacity:1;stroke-miterlimit:10;" d="M 324.119792 122.729167 L 345.182292 122.729167 L 345.182292 41.213542 L 324.119792 41.213542 Z M 324.119792 122.729167 " transform="matrix(0.75,0,0,0.75,0,0)"/>
<path style="fill:none;stroke-width:1;stroke-linecap:butt;stroke-linejoin:miter;stroke:rgb(100%,100%,100%);stroke-opacity:1;stroke-miterlimit:10;" d="M 345.1875 106.890625 L 366.25 106.890625 L 366.25 41.213542 L 345.1875 41.213542 Z M 345.1875 106.890625 " transform="matrix(0.75,0,0,0.75,0,0)"/>
<path style="fill:none;stroke-width:1;stroke-linecap:butt;stroke-linejoin:miter;stroke:rgb(100%,100%,100%);stroke-opacity:1;stroke-miterlimit:10;" d="M 366.25 111.083333 L 387.3125 111.083333 L 387.3125 41.213542 L 366.25 41.213542 Z M 366.25 111.083333 " transform="matrix(0.75,0,0,0.75,0,0)"/>
<path style="fill:none;stroke-width:1;stroke-linecap:butt;stroke-linejoin:miter;stroke:rgb(100%,100%,100%);stroke-opacity:1;stroke-miterlimit:10;" d="M 387.3125 85.46875 L 408.375 85.46875 L 408.375 41.21875 L 387.3125 41.21875 Z M 387.3125 85.46875 " transform="matrix(0.75,0,0,0.75,0,0)"/>
<path style="fill:none;stroke-width:1;stroke-linecap:butt;stroke-linejoin:miter;stroke:rgb(100%,100%,100%);stroke-opacity:1;stroke-miterlimit:10;" d="M 408.380208 69.630208 L 429.442708 69.630208 L 429.442708 41.21875 L 408.380208 41.21875 Z M 408.380208 69.630208 " transform="matrix(0.75,0,0,0.75,0,0)"/>
<path style="fill:none;stroke-width:1;stroke-linecap:butt;stroke-linejoin:miter;stroke:rgb(100%,100%,100%);stroke-opacity:1;stroke-miterlimit:10;" d="M 429.442708 55.65625 L 450.505208 55.65625 L 450.505208 41.21875 L 429.442708 41.21875 Z M 429.442708 55.65625 " transform="matrix(0.75,0,0,0.75,0,0)"/>
<path style="fill:none;stroke-width:1;stroke-linecap:butt;stroke-linejoin:miter;stroke:rgb(100%,100%,100%);stroke-opacity:1;stroke-miterlimit:10;" d="M 450.505208 51.463542 L 471.567708 51.463542 L 471.567708 41.213542 L 450.505208 41.213542 Z M 450.505208 51.463542 " transform="matrix(0.75,0,0,0.75,0,0)"/>
<path style="fill:none;stroke-width:1;stroke-linecap:butt;stroke-linejoin:miter;stroke:rgb(100%,100%,100%);stroke-opacity:1;stroke-miterlimit:10;" d="M 471.572917 46.338542 L 492.635417 46.338542 L 492.635417 41.213542 L 471.572917 41.213542 Z M 471.572917 46.338542 " transform="matrix(0.75,0,0,0.75,0,0)"/>
<path style="fill:none;stroke-width:1;stroke-linecap:butt;stroke-linejoin:miter;stroke:rgb(100%,100%,100%);stroke-opacity:1;stroke-miterlimit:10;" d="M 492.635417 43.078125 L 513.697917 43.078125 L 513.697917 41.213542 L 492.635417 41.213542 Z M 492.635417 43.078125 " transform="matrix(0.75,0,0,0.75,0,0)"/>
<path style="fill-rule:nonzero;fill:rgb(99.333584%,99.746728%,99.947554%);fill-opacity:0.561504;stroke-width:1;stroke-linecap:butt;stroke-linejoin:miter;stroke:rgb(0%,0%,0%);stroke-opacity:1;stroke-miterlimit:10;" d="M 143.338542 367.270833 L 168.322917 367.270833 L 168.322917 366.427083 L 143.338542 366.427083 Z M 143.338542 367.270833 " transform="matrix(0.75,0,0,0.75,0,0)"/>
<path style="fill:none;stroke-width:1;stroke-linecap:butt;stroke-linejoin:miter;stroke:rgb(0%,0%,0%);stroke-opacity:1;stroke-miterlimit:10;" d="M 168.322917 367.270833 L 193.307292 367.270833 Z M 168.322917 367.270833 " transform="matrix(0.75,0,0,0.75,0,0)"/>
<path style="fill-rule:nonzero;fill:rgb(94.747996%,97.970104%,99.578536%);fill-opacity:0.568025;stroke-width:1;stroke-linecap:butt;stroke-linejoin:miter;stroke:rgb(0%,0%,0%);stroke-opacity:1;stroke-miterlimit:10;" d="M 193.302083 367.270833 L 218.286458 367.270833 L 218.286458 360.53125 L 193.302083 360.53125 Z M 193.302083 367.270833 " transform="matrix(0.75,0,0,0.75,0,0)"/>
<path style="fill-rule:nonzero;fill:rgb(92.764688%,97.20695%,99.418563%);fill-opacity:0.259534;stroke-width:1;stroke-linecap:butt;stroke-linejoin:miter;stroke:rgb(0%,0%,0%);stroke-opacity:1;stroke-miterlimit:10;" d="M 218.286458 367.270833 L 243.270833 367.270833 L 243.270833 358.005208 L 218.286458 358.005208 Z M 218.286458 367.270833 " transform="matrix(0.75,0,0,0.75,0,0)"/>
<path style="fill-rule:nonzero;fill:rgb(80.097938%,90.896833%,99.478418%);fill-opacity:0.295977;stroke-width:1;stroke-linecap:butt;stroke-linejoin:miter;stroke:rgb(0%,0%,0%);stroke-opacity:1;stroke-miterlimit:10;" d="M 243.270833 367.270833 L 268.255208 367.270833 L 268.255208 339.473958 L 243.270833 339.473958 Z M 243.270833 367.270833 " transform="matrix(0.75,0,0,0.75,0,0)"/>
<path style="fill-rule:nonzero;fill:rgb(72.296673%,76.427191%,98.979568%);fill-opacity:0.56887;stroke-width:1;stroke-linecap:butt;stroke-linejoin:miter;stroke:rgb(0%,0%,0%);stroke-opacity:1;stroke-miterlimit:10;" d="M 268.25 367.270833 L 293.234375 367.270833 L 293.234375 307.458333 L 268.25 307.458333 Z M 268.25 367.270833 " transform="matrix(0.75,0,0,0.75,0,0)"/>
<path style="fill-rule:nonzero;fill:rgb(87.740451%,47.170335%,76.537997%);fill-opacity:0.626298;stroke-width:1;stroke-linecap:butt;stroke-linejoin:miter;stroke:rgb(0%,0%,0%);stroke-opacity:1;stroke-miterlimit:10;" d="M 293.234375 367.270833 L 318.21875 367.270833 L 318.21875 261.96875 L 293.234375 261.96875 Z M 293.234375 367.270833 " transform="matrix(0.75,0,0,0.75,0,0)"/>
<path style="fill-rule:nonzero;fill:rgb(91.778004%,22.704038%,41.427273%);fill-opacity:0.466009;stroke-width:1;stroke-linecap:butt;stroke-linejoin:miter;stroke:rgb(0%,0%,0%);stroke-opacity:1;stroke-miterlimit:10;" d="M 318.21875 367.270833 L 343.203125 367.270833 L 343.203125 229.958333 L 318.21875 229.958333 Z M 318.21875 367.270833 " transform="matrix(0.75,0,0,0.75,0,0)"/>
<path style="fill-rule:nonzero;fill:rgb(81.589001%,12.954%,5.5606%);fill-opacity:0.971994;stroke-width:1;stroke-linecap:butt;stroke-linejoin:miter;stroke:rgb(0%,0%,0%);stroke-opacity:1;stroke-miterlimit:10;" d="M 343.197917 367.270833 L 368.182292 367.270833 L 368.182292 204.6875 L 343.197917 204.6875 Z M 343.197917 367.270833 " transform="matrix(0.75,0,0,0.75,0,0)"/>
<path style="fill-rule:nonzero;fill:rgb(91.42952%,21.611133%,39.27184%);fill-opacity:0.357701;stroke-width:1;stroke-linecap:butt;stroke-linejoin:miter;stroke:rgb(0%,0%,0%);stroke-opacity:1;stroke-miterlimit:10;" d="M 368.182292 367.270833 L 393.166667 367.270833 L 393.166667 228.276042 L 368.182292 228.276042 Z M 368.182292 367.270833 " transform="matrix(0.75,0,0,0.75,0,0)"/>
<path style="fill-rule:nonzero;fill:rgb(87.453121%,47.791976%,77.360541%);fill-opacity:0.632798;stroke-width:1;stroke-linecap:butt;stroke-linejoin:miter;stroke:rgb(0%,0%,0%);stroke-opacity:1;stroke-miterlimit:10;" d="M 393.166667 367.270833 L 418.151042 367.270833 L 418.151042 262.8125 L 393.166667 262.8125 Z M 393.166667 367.270833 " transform="matrix(0.75,0,0,0.75,0,0)"/>
<path style="fill-rule:nonzero;fill:rgb(73.305166%,73.636907%,97.906017%);fill-opacity:0.480709;stroke-width:1;stroke-linecap:butt;stroke-linejoin:miter;stroke:rgb(0%,0%,0%);stroke-opacity:1;stroke-miterlimit:10;" d="M 418.145833 367.270833 L 443.130208 367.270833 L 443.130208 302.40625 L 418.145833 302.40625 Z M 418.145833 367.270833 " transform="matrix(0.75,0,0,0.75,0,0)"/>
<path style="fill-rule:nonzero;fill:rgb(88.294011%,95.359015%,99.159265%);fill-opacity:0.151308;stroke-width:1;stroke-linecap:butt;stroke-linejoin:miter;stroke:rgb(0%,0%,0%);stroke-opacity:1;stroke-miterlimit:10;" d="M 443.130208 367.270833 L 468.114583 367.270833 L 468.114583 352.109375 L 443.130208 352.109375 Z M 443.130208 367.270833 " transform="matrix(0.75,0,0,0.75,0,0)"/>
<path style="fill-rule:nonzero;fill:rgb(95.406532%,98.224592%,99.631608%);fill-opacity:0.709088;stroke-width:1;stroke-linecap:butt;stroke-linejoin:miter;stroke:rgb(0%,0%,0%);stroke-opacity:1;stroke-miterlimit:10;" d="M 468.114583 367.270833 L 493.098958 367.270833 L 493.098958 361.375 L 468.114583 361.375 Z M 468.114583 367.270833 " transform="matrix(0.75,0,0,0.75,0,0)"/>
<path style="fill-rule:nonzero;fill:rgb(97.376341%,98.9869%,99.790221%);fill-opacity:0.893469;stroke-width:1;stroke-linecap:butt;stroke-linejoin:miter;stroke:rgb(0%,0%,0%);stroke-opacity:1;stroke-miterlimit:10;" d="M 493.09375 367.270833 L 518.078125 367.270833 L 518.078125 363.901042 L 493.09375 363.901042 Z M 493.09375 367.270833 " transform="matrix(0.75,0,0,0.75,0,0)"/>
<g style="fill:rgb(100%,100%,100%);fill-opacity:1;">
  <use xlink:href="#9t6N+adb0-1" x="110.015625" y="268.949219"/>
</g>
<g style="fill:rgb(100%,100%,100%);fill-opacity:1;">
  <use xlink:href="#9t6N+adb0-2" x="115.742188" y="268.949219"/>
</g>
<g style="fill:rgb(100%,100%,100%);fill-opacity:1;">
  <use xlink:href="#9t6N+adb0-1" x="118.601562" y="268.949219"/>
</g>
<g style="fill:rgb(100%,100%,100%);fill-opacity:1;">
  <use xlink:href="#9t6N+adb0-1" x="128.75" y="269.582031"/>
</g>
<g style="fill:rgb(100%,100%,100%);fill-opacity:1;">
  <use xlink:href="#9t6N+adb0-2" x="134.476562" y="269.582031"/>
</g>
<g style="fill:rgb(100%,100%,100%);fill-opacity:1;">
  <use xlink:href="#9t6N+adb0-1" x="137.339844" y="269.582031"/>
</g>
<g style="fill:rgb(100%,100%,100%);fill-opacity:1;">
  <use xlink:href="#9t6N+adb0-1" x="147.800781" y="264.527344"/>
</g>
<g style="fill:rgb(100%,100%,100%);fill-opacity:1;">
  <use xlink:href="#9t6N+adb0-2" x="153.527344" y="264.527344"/>
</g>
<g style="fill:rgb(100%,100%,100%);fill-opacity:1;">
  <use xlink:href="#9t6N+adb0-3" x="156.390625" y="264.527344"/>
</g>
<g style="fill:rgb(100%,100%,100%);fill-opacity:1;">
  <use xlink:href="#9t6N+adb0-1" x="166.539062" y="262.632812"/>
</g>
<g style="fill:rgb(100%,100%,100%);fill-opacity:1;">
  <use xlink:href="#9t6N+adb0-2" x="172.265625" y="262.632812"/>
</g>
<g style="fill:rgb(100%,100%,100%);fill-opacity:1;">
  <use xlink:href="#9t6N+adb0-3" x="175.125" y="262.632812"/>
</g>
<g style="fill:rgb(100%,100%,100%);fill-opacity:1;">
  <use xlink:href="#9t6N+adb0-1" x="185.070312" y="248.734375"/>
</g>
<g style="fill:rgb(100%,100%,100%);fill-opacity:1;">
  <use xlink:href="#9t6N+adb0-2" x="190.796875" y="248.734375"/>
</g>
<g style="fill:rgb(100%,100%,100%);fill-opacity:1;">
  <use xlink:href="#9t6N+adb0-4" x="193.65625" y="248.734375"/>
</g>
<g style="fill:rgb(100%,100%,100%);fill-opacity:1;">
  <use xlink:href="#9t6N+adb0-1" x="203.859375" y="224.722656"/>
</g>
<g style="fill:rgb(100%,100%,100%);fill-opacity:1;">
  <use xlink:href="#9t6N+adb0-2" x="209.582031" y="224.722656"/>
</g>
<g style="fill:rgb(100%,100%,100%);fill-opacity:1;">
  <use xlink:href="#9t6N+adb0-5" x="212.445312" y="224.722656"/>
</g>
<g style="fill:rgb(100%,100%,100%);fill-opacity:1;">
  <use xlink:href="#9t6N+adb0-3" x="222.347656" y="190.605469"/>
</g>
<g style="fill:rgb(100%,100%,100%);fill-opacity:1;">
  <use xlink:href="#9t6N+adb0-2" x="228.074219" y="190.605469"/>
</g>
<g style="fill:rgb(100%,100%,100%);fill-opacity:1;">
  <use xlink:href="#9t6N+adb0-4" x="230.933594" y="190.605469"/>
</g>
<g style="fill:rgb(100%,100%,100%);fill-opacity:1;">
  <use xlink:href="#9t6N+adb0-3" x="241.132812" y="166.597656"/>
</g>
<g style="fill:rgb(100%,100%,100%);fill-opacity:1;">
  <use xlink:href="#9t6N+adb0-2" x="246.859375" y="166.597656"/>
</g>
<g style="fill:rgb(100%,100%,100%);fill-opacity:1;">
  <use xlink:href="#9t6N+adb0-5" x="249.71875" y="166.597656"/>
</g>
<g style="fill:rgb(100%,100%,100%);fill-opacity:1;">
  <use xlink:href="#9t6N+adb0-6" x="259.878906" y="147.644531"/>
</g>
<g style="fill:rgb(100%,100%,100%);fill-opacity:1;">
  <use xlink:href="#9t6N+adb0-2" x="265.601562" y="147.644531"/>
</g>
<g style="fill:rgb(100%,100%,100%);fill-opacity:1;">
  <use xlink:href="#9t6N+adb0-1" x="268.464844" y="147.644531"/>
</g>
<g style="fill:rgb(100%,100%,100%);fill-opacity:1;">
  <use xlink:href="#9t6N+adb0-3" x="278.609375" y="165.335938"/>
</g>
<g style="fill:rgb(100%,100%,100%);fill-opacity:1;">
  <use xlink:href="#9t6N+adb0-2" x="284.332031" y="165.335938"/>
</g>
<g style="fill:rgb(100%,100%,100%);fill-opacity:1;">
  <use xlink:href="#9t6N+adb0-5" x="287.195312" y="165.335938"/>
</g>
<g style="fill:rgb(100%,100%,100%);fill-opacity:1;">
  <use xlink:href="#9t6N+adb0-3" x="297.292969" y="191.238281"/>
</g>
<g style="fill:rgb(100%,100%,100%);fill-opacity:1;">
  <use xlink:href="#9t6N+adb0-2" x="303.019531" y="191.238281"/>
</g>
<g style="fill:rgb(100%,100%,100%);fill-opacity:1;">
  <use xlink:href="#9t6N+adb0-4" x="305.882812" y="191.238281"/>
</g>
<g style="fill:rgb(100%,100%,100%);fill-opacity:1;">
  <use xlink:href="#9t6N+adb0-1" x="316.140625" y="220.933594"/>
</g>
<g style="fill:rgb(100%,100%,100%);fill-opacity:1;">
  <use xlink:href="#9t6N+adb0-2" x="321.863281" y="220.933594"/>
</g>
<g style="fill:rgb(100%,100%,100%);fill-opacity:1;">
  <use xlink:href="#9t6N+adb0-7" x="324.726562" y="220.933594"/>
</g>
<g style="fill:rgb(100%,100%,100%);fill-opacity:1;">
  <use xlink:href="#9t6N+adb0-1" x="335.042969" y="258.210938"/>
</g>
<g style="fill:rgb(100%,100%,100%);fill-opacity:1;">
  <use xlink:href="#9t6N+adb0-2" x="340.769531" y="258.210938"/>
</g>
<g style="fill:rgb(100%,100%,100%);fill-opacity:1;">
  <use xlink:href="#9t6N+adb0-6" x="343.628906" y="258.210938"/>
</g>
<g style="fill:rgb(100%,100%,100%);fill-opacity:1;">
  <use xlink:href="#9t6N+adb0-1" x="353.910156" y="265.160156"/>
</g>
<g style="fill:rgb(100%,100%,100%);fill-opacity:1;">
  <use xlink:href="#9t6N+adb0-2" x="359.636719" y="265.160156"/>
</g>
<g style="fill:rgb(100%,100%,100%);fill-opacity:1;">
  <use xlink:href="#9t6N+adb0-3" x="362.496094" y="265.160156"/>
</g>
<g style="fill:rgb(100%,100%,100%);fill-opacity:1;">
  <use xlink:href="#9t6N+adb0-1" x="372.332031" y="267.054688"/>
</g>
<g style="fill:rgb(100%,100%,100%);fill-opacity:1;">
  <use xlink:href="#9t6N+adb0-2" x="378.058594" y="267.054688"/>
</g>
<g style="fill:rgb(100%,100%,100%);fill-opacity:1;">
  <use xlink:href="#9t6N+adb0-1" x="380.917969" y="267.054688"/>
</g>
</g>
</svg>
