<?xml version="1.0" encoding="UTF-8"?>
<svg xmlns="http://www.w3.org/2000/svg" xmlns:xlink="http://www.w3.org/1999/xlink" width="450pt" height="300pt" viewBox="0 0 450 300" version="1.1">
<defs>
<g>
<symbol overflow="visible" id="zohmiIaN0-0">
<path style="stroke:none;" d="M 0.59375 2.125 L 0.59375 -8.46875 L 6.59375 -8.46875 L 6.59375 2.125 Z M 1.265625 1.453125 L 5.9375 1.453125 L 5.9375 -7.78125 L 1.265625 -7.78125 Z M 1.265625 1.453125 "/>
</symbol>
<symbol overflow="visible" id="zohmiIaN0-1">
<path style="stroke:none;" d="M 3.8125 -7.96875 C 3.207031 -7.96875 2.75 -7.664062 2.4375 -7.0625 C 2.132812 -6.46875 1.984375 -5.566406 1.984375 -4.359375 C 1.984375 -3.160156 2.132812 -2.257812 2.4375 -1.65625 C 2.75 -1.0625 3.207031 -0.765625 3.8125 -0.765625 C 4.425781 -0.765625 4.882812 -1.0625 5.1875 -1.65625 C 5.5 -2.257812 5.65625 -3.160156 5.65625 -4.359375 C 5.65625 -5.566406 5.5 -6.46875 5.1875 -7.0625 C 4.882812 -7.664062 4.425781 -7.96875 3.8125 -7.96875 Z M 3.8125 -8.90625 C 4.789062 -8.90625 5.539062 -8.515625 6.0625 -7.734375 C 6.582031 -6.960938 6.84375 -5.835938 6.84375 -4.359375 C 6.84375 -2.890625 6.582031 -1.765625 6.0625 -0.984375 C 5.539062 -0.210938 4.789062 0.171875 3.8125 0.171875 C 2.832031 0.171875 2.082031 -0.210938 1.5625 -0.984375 C 1.050781 -1.765625 0.796875 -2.890625 0.796875 -4.359375 C 0.796875 -5.835938 1.050781 -6.960938 1.5625 -7.734375 C 2.082031 -8.515625 2.832031 -8.90625 3.8125 -8.90625 Z M 3.8125 -8.90625 "/>
</symbol>
<symbol overflow="visible" id="zohmiIaN0-2">
<path style="stroke:none;" d="M 1.28125 -1.484375 L 2.515625 -1.484375 L 2.515625 0 L 1.28125 0 Z M 1.28125 -1.484375 "/>
</symbol>
<symbol overflow="visible" id="zohmiIaN0-3">
<path style="stroke:none;" d="M 1.296875 -8.75 L 5.9375 -8.75 L 5.9375 -7.75 L 2.375 -7.75 L 2.375 -5.609375 C 2.550781 -5.671875 2.722656 -5.710938 2.890625 -5.734375 C 3.066406 -5.765625 3.238281 -5.78125 3.40625 -5.78125 C 4.382812 -5.78125 5.160156 -5.507812 5.734375 -4.96875 C 6.304688 -4.4375 6.59375 -3.71875 6.59375 -2.8125 C 6.59375 -1.863281 6.296875 -1.128906 5.703125 -0.609375 C 5.117188 -0.0859375 4.296875 0.171875 3.234375 0.171875 C 2.859375 0.171875 2.476562 0.140625 2.09375 0.078125 C 1.71875 0.015625 1.328125 -0.078125 0.921875 -0.203125 L 0.921875 -1.390625 C 1.273438 -1.203125 1.640625 -1.0625 2.015625 -0.96875 C 2.390625 -0.875 2.785156 -0.828125 3.203125 -0.828125 C 3.878906 -0.828125 4.414062 -1.003906 4.8125 -1.359375 C 5.207031 -1.710938 5.40625 -2.195312 5.40625 -2.8125 C 5.40625 -3.414062 5.207031 -3.894531 4.8125 -4.25 C 4.414062 -4.601562 3.878906 -4.78125 3.203125 -4.78125 C 2.890625 -4.78125 2.570312 -4.742188 2.25 -4.671875 C 1.9375 -4.609375 1.617188 -4.503906 1.296875 -4.359375 Z M 1.296875 -8.75 "/>
</symbol>
<symbol overflow="visible" id="zohmiIaN0-4">
<path style="stroke:none;" d="M 1.484375 -1 L 3.421875 -1 L 3.421875 -7.671875 L 1.3125 -7.25 L 1.3125 -8.328125 L 3.40625 -8.75 L 4.59375 -8.75 L 4.59375 -1 L 6.53125 -1 L 6.53125 0 L 1.484375 0 Z M 1.484375 -1 "/>
</symbol>
<symbol overflow="visible" id="zohmiIaN0-5">
<path style="stroke:none;" d="M 2.171875 -0.984375 L 2.171875 2.5 L 1.09375 2.5 L 1.09375 -6.5625 L 2.171875 -6.5625 L 2.171875 -5.5625 C 2.398438 -5.957031 2.6875 -6.25 3.03125 -6.4375 C 3.375 -6.625 3.785156 -6.71875 4.265625 -6.71875 C 5.066406 -6.71875 5.71875 -6.398438 6.21875 -5.765625 C 6.71875 -5.140625 6.96875 -4.3125 6.96875 -3.28125 C 6.96875 -2.25 6.71875 -1.414062 6.21875 -0.78125 C 5.71875 -0.144531 5.066406 0.171875 4.265625 0.171875 C 3.785156 0.171875 3.375 0.078125 3.03125 -0.109375 C 2.6875 -0.304688 2.398438 -0.597656 2.171875 -0.984375 Z M 5.84375 -3.28125 C 5.84375 -4.070312 5.675781 -4.691406 5.34375 -5.140625 C 5.019531 -5.585938 4.578125 -5.8125 4.015625 -5.8125 C 3.441406 -5.8125 2.988281 -5.585938 2.65625 -5.140625 C 2.332031 -4.691406 2.171875 -4.070312 2.171875 -3.28125 C 2.171875 -2.488281 2.332031 -1.863281 2.65625 -1.40625 C 2.988281 -0.957031 3.441406 -0.734375 4.015625 -0.734375 C 4.578125 -0.734375 5.019531 -0.957031 5.34375 -1.40625 C 5.675781 -1.863281 5.84375 -2.488281 5.84375 -3.28125 Z M 5.84375 -3.28125 "/>
</symbol>
<symbol overflow="visible" id="zohmiIaN0-6">
<path style="stroke:none;" d="M 5.859375 -6.3125 L 5.859375 -5.296875 C 5.546875 -5.472656 5.238281 -5.601562 4.9375 -5.6875 C 4.632812 -5.769531 4.328125 -5.8125 4.015625 -5.8125 C 3.304688 -5.8125 2.757812 -5.585938 2.375 -5.140625 C 1.988281 -4.703125 1.796875 -4.082031 1.796875 -3.28125 C 1.796875 -2.476562 1.988281 -1.851562 2.375 -1.40625 C 2.757812 -0.96875 3.304688 -0.75 4.015625 -0.75 C 4.328125 -0.75 4.632812 -0.789062 4.9375 -0.875 C 5.238281 -0.957031 5.546875 -1.082031 5.859375 -1.25 L 5.859375 -0.25 C 5.554688 -0.113281 5.242188 -0.0078125 4.921875 0.0625 C 4.597656 0.132812 4.253906 0.171875 3.890625 0.171875 C 2.898438 0.171875 2.113281 -0.132812 1.53125 -0.75 C 0.945312 -1.375 0.65625 -2.21875 0.65625 -3.28125 C 0.65625 -4.34375 0.945312 -5.179688 1.53125 -5.796875 C 2.125 -6.410156 2.9375 -6.71875 3.96875 -6.71875 C 4.289062 -6.71875 4.609375 -6.679688 4.921875 -6.609375 C 5.242188 -6.546875 5.554688 -6.445312 5.859375 -6.3125 Z M 5.859375 -6.3125 "/>
</symbol>
<symbol overflow="visible" id="zohmiIaN1-0">
<path style="stroke:none;" d="M 0.59375 2.125 L 0.59375 -8.46875 L 6.59375 -8.46875 L 6.59375 2.125 Z M 1.265625 1.453125 L 5.9375 1.453125 L 5.9375 -7.78125 L 1.265625 -7.78125 Z M 1.265625 1.453125 "/>
</symbol>
<symbol overflow="visible" id="zohmiIaN1-1">
<path style="stroke:none;" d="M 1.484375 -1 L 3.421875 -1 L 3.421875 -7.671875 L 1.3125 -7.25 L 1.3125 -8.328125 L 3.40625 -8.75 L 4.59375 -8.75 L 4.59375 -1 L 6.53125 -1 L 6.53125 0 L 1.484375 0 Z M 1.484375 -1 "/>
</symbol>
<symbol overflow="visible" id="zohmiIaN1-2">
<path style="stroke:none;" d="M 4.875 -4.71875 C 5.4375 -4.59375 5.875 -4.335938 6.1875 -3.953125 C 6.507812 -3.578125 6.671875 -3.109375 6.671875 -2.546875 C 6.671875 -1.679688 6.375 -1.007812 5.78125 -0.53125 C 5.1875 -0.0625 4.34375 0.171875 3.25 0.171875 C 2.882812 0.171875 2.503906 0.132812 2.109375 0.0625 C 1.722656 -0.0078125 1.328125 -0.117188 0.921875 -0.265625 L 0.921875 -1.40625 C 1.242188 -1.21875 1.597656 -1.070312 1.984375 -0.96875 C 2.378906 -0.875 2.789062 -0.828125 3.21875 -0.828125 C 3.957031 -0.828125 4.519531 -0.972656 4.90625 -1.265625 C 5.300781 -1.554688 5.5 -1.984375 5.5 -2.546875 C 5.5 -3.054688 5.316406 -3.457031 4.953125 -3.75 C 4.585938 -4.039062 4.085938 -4.1875 3.453125 -4.1875 L 2.421875 -4.1875 L 2.421875 -5.15625 L 3.5 -5.15625 C 4.070312 -5.15625 4.515625 -5.269531 4.828125 -5.5 C 5.140625 -5.738281 5.296875 -6.078125 5.296875 -6.515625 C 5.296875 -6.960938 5.132812 -7.304688 4.8125 -7.546875 C 4.5 -7.785156 4.046875 -7.90625 3.453125 -7.90625 C 3.117188 -7.90625 2.765625 -7.867188 2.390625 -7.796875 C 2.023438 -7.734375 1.617188 -7.628906 1.171875 -7.484375 L 1.171875 -8.53125 C 1.628906 -8.65625 2.050781 -8.75 2.4375 -8.8125 C 2.832031 -8.875 3.203125 -8.90625 3.546875 -8.90625 C 4.453125 -8.90625 5.164062 -8.703125 5.6875 -8.296875 C 6.207031 -7.890625 6.46875 -7.335938 6.46875 -6.640625 C 6.46875 -6.148438 6.328125 -5.738281 6.046875 -5.40625 C 5.773438 -5.070312 5.382812 -4.84375 4.875 -4.71875 Z M 4.875 -4.71875 "/>
</symbol>
<symbol overflow="visible" id="zohmiIaN1-3">
<path style="stroke:none;" d="M 3.8125 -7.96875 C 3.207031 -7.96875 2.75 -7.664062 2.4375 -7.0625 C 2.132812 -6.46875 1.984375 -5.566406 1.984375 -4.359375 C 1.984375 -3.160156 2.132812 -2.257812 2.4375 -1.65625 C 2.75 -1.0625 3.207031 -0.765625 3.8125 -0.765625 C 4.425781 -0.765625 4.882812 -1.0625 5.1875 -1.65625 C 5.5 -2.257812 5.65625 -3.160156 5.65625 -4.359375 C 5.65625 -5.566406 5.5 -6.46875 5.1875 -7.0625 C 4.882812 -7.664062 4.425781 -7.96875 3.8125 -7.96875 Z M 3.8125 -8.90625 C 4.789062 -8.90625 5.539062 -8.515625 6.0625 -7.734375 C 6.582031 -6.960938 6.84375 -5.835938 6.84375 -4.359375 C 6.84375 -2.890625 6.582031 -1.765625 6.0625 -0.984375 C 5.539062 -0.210938 4.789062 0.171875 3.8125 0.171875 C 2.832031 0.171875 2.082031 -0.210938 1.5625 -0.984375 C 1.050781 -1.765625 0.796875 -2.890625 0.796875 -4.359375 C 0.796875 -5.835938 1.050781 -6.960938 1.5625 -7.734375 C 2.082031 -8.515625 2.832031 -8.90625 3.8125 -8.90625 Z M 3.8125 -8.90625 "/>
</symbol>
<symbol overflow="visible" id="zohmiIaN1-4">
<path style="stroke:none;" d=""/>
</symbol>
<symbol overflow="visible" id="zohmiIaN1-5">
<path style="stroke:none;" d="M 1.40625 -1.484375 L 2.640625 -1.484375 L 2.640625 0 L 1.40625 0 Z M 1.40625 -6.203125 L 2.640625 -6.203125 L 2.640625 -4.71875 L 1.40625 -4.71875 Z M 1.40625 -6.203125 "/>
</symbol>
<symbol overflow="visible" id="zohmiIaN1-6">
<path style="stroke:none;" d="M 6.59375 -3.96875 L 6.59375 0 L 5.515625 0 L 5.515625 -3.921875 C 5.515625 -4.546875 5.390625 -5.007812 5.140625 -5.3125 C 4.898438 -5.625 4.539062 -5.78125 4.0625 -5.78125 C 3.476562 -5.78125 3.015625 -5.59375 2.671875 -5.21875 C 2.335938 -4.851562 2.171875 -4.347656 2.171875 -3.703125 L 2.171875 0 L 1.09375 0 L 1.09375 -6.5625 L 2.171875 -6.5625 L 2.171875 -5.546875 C 2.429688 -5.941406 2.734375 -6.234375 3.078125 -6.421875 C 3.429688 -6.617188 3.835938 -6.71875 4.296875 -6.71875 C 5.046875 -6.71875 5.613281 -6.484375 6 -6.015625 C 6.394531 -5.554688 6.59375 -4.875 6.59375 -3.96875 Z M 6.59375 -3.96875 "/>
</symbol>
<symbol overflow="visible" id="zohmiIaN1-7">
<path style="stroke:none;" d="M 2.203125 -8.421875 L 2.203125 -6.5625 L 4.421875 -6.5625 L 4.421875 -5.71875 L 2.203125 -5.71875 L 2.203125 -2.15625 C 2.203125 -1.625 2.273438 -1.28125 2.421875 -1.125 C 2.566406 -0.976562 2.863281 -0.90625 3.3125 -0.90625 L 4.421875 -0.90625 L 4.421875 0 L 3.3125 0 C 2.476562 0 1.898438 -0.15625 1.578125 -0.46875 C 1.265625 -0.78125 1.109375 -1.34375 1.109375 -2.15625 L 1.109375 -5.71875 L 0.328125 -5.71875 L 0.328125 -6.5625 L 1.109375 -6.5625 L 1.109375 -8.421875 Z M 2.203125 -8.421875 "/>
</symbol>
<symbol overflow="visible" id="zohmiIaN1-8">
<path style="stroke:none;" d="M 6.75 -3.546875 L 6.75 -3.03125 L 1.78125 -3.03125 C 1.832031 -2.28125 2.054688 -1.710938 2.453125 -1.328125 C 2.859375 -0.941406 3.414062 -0.75 4.125 -0.75 C 4.539062 -0.75 4.941406 -0.796875 5.328125 -0.890625 C 5.722656 -0.992188 6.113281 -1.148438 6.5 -1.359375 L 6.5 -0.328125 C 6.101562 -0.171875 5.703125 -0.0507812 5.296875 0.03125 C 4.890625 0.125 4.476562 0.171875 4.0625 0.171875 C 3.019531 0.171875 2.191406 -0.128906 1.578125 -0.734375 C 0.960938 -1.347656 0.65625 -2.175781 0.65625 -3.21875 C 0.65625 -4.289062 0.945312 -5.140625 1.53125 -5.765625 C 2.113281 -6.398438 2.894531 -6.71875 3.875 -6.71875 C 4.757812 -6.71875 5.457031 -6.429688 5.96875 -5.859375 C 6.488281 -5.296875 6.75 -4.523438 6.75 -3.546875 Z M 5.671875 -3.875 C 5.660156 -4.457031 5.492188 -4.925781 5.171875 -5.28125 C 4.847656 -5.632812 4.421875 -5.8125 3.890625 -5.8125 C 3.285156 -5.8125 2.800781 -5.640625 2.4375 -5.296875 C 2.082031 -4.953125 1.878906 -4.472656 1.828125 -3.859375 Z M 5.671875 -3.875 "/>
</symbol>
<symbol overflow="visible" id="zohmiIaN1-9">
<path style="stroke:none;" d="M 4.9375 -5.5625 C 4.8125 -5.625 4.675781 -5.671875 4.53125 -5.703125 C 4.394531 -5.742188 4.238281 -5.765625 4.0625 -5.765625 C 3.457031 -5.765625 2.988281 -5.566406 2.65625 -5.171875 C 2.332031 -4.773438 2.171875 -4.203125 2.171875 -3.453125 L 2.171875 0 L 1.09375 0 L 1.09375 -6.5625 L 2.171875 -6.5625 L 2.171875 -5.546875 C 2.398438 -5.941406 2.695312 -6.234375 3.0625 -6.421875 C 3.425781 -6.617188 3.867188 -6.71875 4.390625 -6.71875 C 4.460938 -6.71875 4.539062 -6.710938 4.625 -6.703125 C 4.71875 -6.691406 4.816406 -6.675781 4.921875 -6.65625 Z M 4.9375 -5.5625 "/>
</symbol>
<symbol overflow="visible" id="zohmiIaN1-10">
<path style="stroke:none;" d="M 5.3125 -6.375 L 5.3125 -5.34375 C 5.007812 -5.5 4.691406 -5.613281 4.359375 -5.6875 C 4.035156 -5.769531 3.695312 -5.8125 3.34375 -5.8125 C 2.8125 -5.8125 2.410156 -5.726562 2.140625 -5.5625 C 1.867188 -5.40625 1.734375 -5.160156 1.734375 -4.828125 C 1.734375 -4.578125 1.828125 -4.378906 2.015625 -4.234375 C 2.210938 -4.097656 2.601562 -3.96875 3.1875 -3.84375 L 3.546875 -3.75 C 4.316406 -3.59375 4.863281 -3.363281 5.1875 -3.0625 C 5.507812 -2.757812 5.671875 -2.34375 5.671875 -1.8125 C 5.671875 -1.195312 5.425781 -0.710938 4.9375 -0.359375 C 4.457031 -0.00390625 3.796875 0.171875 2.953125 0.171875 C 2.597656 0.171875 2.226562 0.132812 1.84375 0.0625 C 1.46875 0 1.070312 -0.0976562 0.65625 -0.234375 L 0.65625 -1.359375 C 1.050781 -1.148438 1.441406 -0.992188 1.828125 -0.890625 C 2.210938 -0.785156 2.597656 -0.734375 2.984375 -0.734375 C 3.484375 -0.734375 3.867188 -0.816406 4.140625 -0.984375 C 4.421875 -1.160156 4.5625 -1.410156 4.5625 -1.734375 C 4.5625 -2.023438 4.460938 -2.25 4.265625 -2.40625 C 4.066406 -2.5625 3.632812 -2.710938 2.96875 -2.859375 L 2.59375 -2.9375 C 1.925781 -3.082031 1.441406 -3.300781 1.140625 -3.59375 C 0.847656 -3.882812 0.703125 -4.28125 0.703125 -4.78125 C 0.703125 -5.40625 0.921875 -5.882812 1.359375 -6.21875 C 1.796875 -6.550781 2.414062 -6.71875 3.21875 -6.71875 C 3.613281 -6.71875 3.988281 -6.6875 4.34375 -6.625 C 4.695312 -6.570312 5.019531 -6.488281 5.3125 -6.375 Z M 5.3125 -6.375 "/>
</symbol>
<symbol overflow="visible" id="zohmiIaN2-0">
<path style="stroke:none;" d="M 0.59375 2.125 L 0.59375 -8.46875 L 6.59375 -8.46875 L 6.59375 2.125 Z M 1.265625 1.453125 L 5.9375 1.453125 L 5.9375 -7.78125 L 1.265625 -7.78125 Z M 1.265625 1.453125 "/>
</symbol>
<symbol overflow="visible" id="zohmiIaN2-1">
<path style="stroke:none;" d="M 2.296875 -1 L 6.4375 -1 L 6.4375 0 L 0.875 0 L 0.875 -1 C 1.320312 -1.457031 1.929688 -2.078125 2.703125 -2.859375 C 3.484375 -3.648438 3.972656 -4.160156 4.171875 -4.390625 C 4.554688 -4.804688 4.820312 -5.160156 4.96875 -5.453125 C 5.125 -5.753906 5.203125 -6.046875 5.203125 -6.328125 C 5.203125 -6.796875 5.035156 -7.175781 4.703125 -7.46875 C 4.378906 -7.757812 3.957031 -7.90625 3.4375 -7.90625 C 3.0625 -7.90625 2.664062 -7.84375 2.25 -7.71875 C 1.84375 -7.59375 1.40625 -7.394531 0.9375 -7.125 L 0.9375 -8.328125 C 1.414062 -8.515625 1.859375 -8.65625 2.265625 -8.75 C 2.679688 -8.851562 3.0625 -8.90625 3.40625 -8.90625 C 4.3125 -8.90625 5.035156 -8.675781 5.578125 -8.21875 C 6.117188 -7.769531 6.390625 -7.164062 6.390625 -6.40625 C 6.390625 -6.050781 6.320312 -5.710938 6.1875 -5.390625 C 6.050781 -5.066406 5.804688 -4.6875 5.453125 -4.25 C 5.347656 -4.132812 5.035156 -3.804688 4.515625 -3.265625 C 3.992188 -2.722656 3.253906 -1.96875 2.296875 -1 Z M 2.296875 -1 "/>
</symbol>
<symbol overflow="visible" id="zohmiIaN3-0">
<path style="stroke:none;" d="M 0.59375 2.125 L 0.59375 -8.46875 L 6.59375 -8.46875 L 6.59375 2.125 Z M 1.265625 1.453125 L 5.9375 1.453125 L 5.9375 -7.78125 L 1.265625 -7.78125 Z M 1.265625 1.453125 "/>
</symbol>
<symbol overflow="visible" id="zohmiIaN3-1">
<path style="stroke:none;" d="M 1.484375 -1 L 3.421875 -1 L 3.421875 -7.671875 L 1.3125 -7.25 L 1.3125 -8.328125 L 3.40625 -8.75 L 4.59375 -8.75 L 4.59375 -1 L 6.53125 -1 L 6.53125 0 L 1.484375 0 Z M 1.484375 -1 "/>
</symbol>
<symbol overflow="visible" id="zohmiIaN3-2">
<path style="stroke:none;" d="M 1.28125 -1.484375 L 2.515625 -1.484375 L 2.515625 0 L 1.28125 0 Z M 1.28125 -1.484375 "/>
</symbol>
<symbol overflow="visible" id="zohmiIaN3-3">
<path style="stroke:none;" d="M 3.8125 -7.96875 C 3.207031 -7.96875 2.75 -7.664062 2.4375 -7.0625 C 2.132812 -6.46875 1.984375 -5.566406 1.984375 -4.359375 C 1.984375 -3.160156 2.132812 -2.257812 2.4375 -1.65625 C 2.75 -1.0625 3.207031 -0.765625 3.8125 -0.765625 C 4.425781 -0.765625 4.882812 -1.0625 5.1875 -1.65625 C 5.5 -2.257812 5.65625 -3.160156 5.65625 -4.359375 C 5.65625 -5.566406 5.5 -6.46875 5.1875 -7.0625 C 4.882812 -7.664062 4.425781 -7.96875 3.8125 -7.96875 Z M 3.8125 -8.90625 C 4.789062 -8.90625 5.539062 -8.515625 6.0625 -7.734375 C 6.582031 -6.960938 6.84375 -5.835938 6.84375 -4.359375 C 6.84375 -2.890625 6.582031 -1.765625 6.0625 -0.984375 C 5.539062 -0.210938 4.789062 0.171875 3.8125 0.171875 C 2.832031 0.171875 2.082031 -0.210938 1.5625 -0.984375 C 1.050781 -1.765625 0.796875 -2.890625 0.796875 -4.359375 C 0.796875 -5.835938 1.050781 -6.960938 1.5625 -7.734375 C 2.082031 -8.515625 2.832031 -8.90625 3.8125 -8.90625 Z M 3.8125 -8.90625 "/>
</symbol>
<symbol overflow="visible" id="zohmiIaN4-0">
<path style="stroke:none;" d=""/>
</symbol>
<symbol overflow="visible" id="zohmiIaN4-1">
<path style="stroke:none;" d="M 7.65625 -4.296875 C 7.65625 -5.890625 6.75 -6.625 5.84375 -6.625 C 5.109375 -6.625 4.46875 -6.09375 4.03125 -5.578125 C 3.859375 -6.453125 3.1875 -6.625 2.8125 -6.625 C 2.265625 -6.625 1.96875 -6.28125 1.71875 -5.828125 C 1.4375 -5.234375 1.25 -4.3125 1.25 -4.3125 C 1.25 -4.171875 1.390625 -4.171875 1.46875 -4.171875 C 1.671875 -4.171875 1.6875 -4.1875 1.75 -4.515625 C 2.03125 -5.5625 2.3125 -6.296875 2.78125 -6.296875 C 3.171875 -6.296875 3.171875 -5.859375 3.171875 -5.703125 C 3.171875 -5.609375 3.171875 -5.375 3.0625 -4.953125 L 1.34375 1.921875 C 1.234375 2.390625 1.109375 2.4375 0.53125 2.4375 C 0.390625 2.4375 0.203125 2.4375 0.203125 2.734375 C 0.203125 2.828125 0.28125 2.90625 0.390625 2.90625 C 0.796875 2.90625 1.234375 2.859375 1.65625 2.859375 C 2.125 2.859375 2.640625 2.90625 3.109375 2.90625 C 3.1875 2.90625 3.390625 2.90625 3.390625 2.625 C 3.390625 2.4375 3.234375 2.4375 3.03125 2.4375 C 2.265625 2.4375 2.265625 2.359375 2.265625 2.203125 C 2.265625 2.109375 2.375 1.71875 2.4375 1.484375 L 2.96875 -0.703125 C 3.078125 -0.453125 3.453125 0.171875 4.234375 0.171875 C 5.859375 0.171875 7.65625 -2.0625 7.65625 -4.296875 Z M 5.8125 -1.59375 C 5.625 -1.21875 4.984375 -0.171875 4.21875 -0.171875 C 3.34375 -0.171875 3.1875 -1.4375 3.1875 -1.5625 C 3.1875 -1.609375 3.203125 -1.65625 3.234375 -1.765625 L 3.9375 -4.609375 C 4.0625 -5.109375 5 -6.296875 5.8125 -6.296875 C 6.5 -6.296875 6.640625 -5.4375 6.640625 -4.96875 C 6.640625 -4.328125 6.234375 -2.546875 5.8125 -1.59375 Z M 5.8125 -1.59375 "/>
</symbol>
<symbol overflow="visible" id="zohmiIaN4-2">
<path style="stroke:none;" d="M 5.890625 -2.359375 C 5.890625 -3.65625 4.71875 -3.9375 4.109375 -4.0625 C 3.6875 -4.15625 3.15625 -4.28125 3.15625 -4.921875 C 3.15625 -5.28125 3.46875 -6.296875 4.671875 -6.296875 C 5.0625 -6.296875 5.625 -6.15625 5.796875 -5.5625 C 5.3125 -5.5 5.1875 -5.09375 5.1875 -4.953125 C 5.1875 -4.78125 5.28125 -4.53125 5.640625 -4.53125 C 5.890625 -4.53125 6.28125 -4.703125 6.28125 -5.359375 C 6.28125 -6.046875 5.671875 -6.625 4.6875 -6.625 C 2.921875 -6.625 2.3125 -5.1875 2.3125 -4.40625 C 2.3125 -3.25 3.28125 -3.046875 3.703125 -2.953125 C 4.359375 -2.8125 5.046875 -2.65625 5.046875 -1.84375 C 5.046875 -1.359375 4.640625 -0.171875 3.09375 -0.171875 C 2.765625 -0.171875 1.890625 -0.234375 1.65625 -1 C 2.421875 -1.078125 2.421875 -1.734375 2.421875 -1.734375 C 2.421875 -2.03125 2.21875 -2.21875 1.90625 -2.21875 C 1.5625 -2.21875 1.140625 -1.96875 1.140625 -1.296875 C 1.140625 -0.375 2.015625 0.171875 3.078125 0.171875 C 5.328125 0.171875 5.890625 -1.671875 5.890625 -2.359375 Z M 5.890625 -2.359375 "/>
</symbol>
<symbol overflow="visible" id="zohmiIaN4-3">
<path style="stroke:none;" d="M 7.875 -2.140625 C 7.875 -2.296875 7.75 -2.296875 7.65625 -2.296875 C 7.46875 -2.296875 7.453125 -2.28125 7.359375 -1.953125 C 7.15625 -1.109375 6.875 -0.171875 6.359375 -0.171875 C 5.96875 -0.171875 5.96875 -0.5625 5.96875 -0.78125 C 5.96875 -0.890625 5.96875 -1.125 6.078125 -1.546875 L 7.09375 -5.625 C 7.15625 -5.828125 7.15625 -5.859375 7.15625 -5.9375 C 7.15625 -6.25 6.90625 -6.328125 6.75 -6.328125 C 6.265625 -6.328125 6.171875 -5.8125 6.15625 -5.75 C 5.859375 -6.390625 5.390625 -6.625 4.90625 -6.625 C 3.234375 -6.625 1.46875 -4.34375 1.46875 -2.15625 C 1.46875 -0.890625 2.15625 0.171875 3.28125 0.171875 C 3.828125 0.171875 4.484375 -0.15625 5.078125 -0.890625 C 5.25 -0.15625 5.8125 0.171875 6.328125 0.171875 C 6.890625 0.171875 7.203125 -0.203125 7.421875 -0.671875 C 7.6875 -1.25 7.875 -2.140625 7.875 -2.140625 Z M 5.1875 -1.859375 C 5.0625 -1.375 4.140625 -0.171875 3.3125 -0.171875 C 2.609375 -0.171875 2.484375 -1.046875 2.484375 -1.5 C 2.484375 -2.25 2.953125 -4 3.21875 -4.640625 C 3.59375 -5.546875 4.296875 -6.296875 4.90625 -6.296875 C 5.5625 -6.296875 5.9375 -5.515625 5.9375 -4.890625 C 5.9375 -4.890625 5.921875 -4.78125 5.890625 -4.6875 Z M 5.1875 -1.859375 "/>
</symbol>
<symbol overflow="visible" id="zohmiIaN5-0">
<path style="stroke:none;" d="M 0.75 0 L 6.75 0 L 6.75 -8.0625 L 0.75 -8.0625 Z M 1.5 -0.75 L 1.5 -7.3125 L 6 -7.3125 L 6 -0.75 Z M 1.5 -0.75 "/>
</symbol>
<symbol overflow="visible" id="zohmiIaN5-1">
<path style="stroke:none;" d="M 4.96875 3.59375 C 4.96875 3.5625 4.96875 3.53125 4.703125 3.265625 C 2.828125 1.375 2.359375 -1.453125 2.359375 -3.75 C 2.359375 -6.359375 2.921875 -8.96875 4.765625 -10.84375 C 4.96875 -11.03125 4.96875 -11.0625 4.96875 -11.09375 C 4.96875 -11.203125 4.90625 -11.25 4.8125 -11.25 C 4.671875 -11.25 3.3125 -10.234375 2.4375 -8.328125 C 1.671875 -6.671875 1.484375 -5.015625 1.484375 -3.75 C 1.484375 -2.578125 1.65625 -0.765625 2.46875 0.9375 C 3.375 2.78125 4.671875 3.75 4.8125 3.75 C 4.90625 3.75 4.96875 3.703125 4.96875 3.59375 Z M 4.96875 3.59375 "/>
</symbol>
<symbol overflow="visible" id="zohmiIaN5-2">
<path style="stroke:none;" d="M 4.328125 -3.75 C 4.328125 -4.921875 4.171875 -6.734375 3.34375 -8.4375 C 2.4375 -10.28125 1.15625 -11.25 1 -11.25 C 0.921875 -11.25 0.859375 -11.1875 0.859375 -11.09375 C 0.859375 -11.0625 0.859375 -11.03125 1.140625 -10.75 C 2.609375 -9.265625 3.46875 -6.890625 3.46875 -3.75 C 3.46875 -1.1875 2.90625 1.453125 1.046875 3.34375 C 0.859375 3.53125 0.859375 3.5625 0.859375 3.59375 C 0.859375 3.6875 0.921875 3.75 1 3.75 C 1.15625 3.75 2.5 2.734375 3.390625 0.828125 C 4.15625 -0.828125 4.328125 -2.484375 4.328125 -3.75 Z M 4.328125 -3.75 "/>
</symbol>
<symbol overflow="visible" id="zohmiIaN5-3">
<path style="stroke:none;" d="M 6.28125 0 L 6.28125 -0.46875 L 5.8125 -0.46875 C 4.453125 -0.46875 4.40625 -0.625 4.40625 -1.1875 L 4.40625 -9.59375 C 4.40625 -9.953125 4.40625 -9.984375 4.0625 -9.984375 C 3.140625 -9.03125 1.8125 -9.03125 1.328125 -9.03125 L 1.328125 -8.5625 C 1.640625 -8.5625 2.515625 -8.5625 3.296875 -8.953125 L 3.296875 -1.1875 C 3.296875 -0.640625 3.25 -0.46875 1.90625 -0.46875 L 1.421875 -0.46875 L 1.421875 0 C 1.953125 -0.046875 3.25 -0.046875 3.859375 -0.046875 C 4.453125 -0.046875 5.765625 -0.046875 6.28125 0 Z M 6.28125 0 "/>
</symbol>
<symbol overflow="visible" id="zohmiIaN5-4">
<path style="stroke:none;" d="M 6.21875 -1.78125 C 6.21875 -1.9375 6.109375 -1.96875 6.03125 -1.96875 C 5.890625 -1.96875 5.859375 -1.875 5.828125 -1.75 C 5.3125 -0.203125 3.953125 -0.203125 3.8125 -0.203125 C 3.0625 -0.203125 2.453125 -0.65625 2.109375 -1.21875 C 1.671875 -1.9375 1.671875 -2.921875 1.671875 -3.46875 L 5.84375 -3.46875 C 6.1875 -3.46875 6.21875 -3.46875 6.21875 -3.78125 C 6.21875 -5.265625 5.421875 -6.71875 3.546875 -6.71875 C 1.796875 -6.71875 0.421875 -5.171875 0.421875 -3.296875 C 0.421875 -1.296875 2 0.171875 3.71875 0.171875 C 5.546875 0.171875 6.21875 -1.5 6.21875 -1.78125 Z M 5.234375 -3.78125 L 1.6875 -3.78125 C 1.765625 -6.015625 3.03125 -6.390625 3.546875 -6.390625 C 5.078125 -6.390625 5.234375 -4.359375 5.234375 -3.78125 Z M 5.234375 -3.78125 "/>
</symbol>
<symbol overflow="visible" id="zohmiIaN5-5">
<path style="stroke:none;" d="M 7.734375 0 L 7.734375 -0.46875 C 6.9375 -0.46875 6.65625 -0.5 6.3125 -0.9375 L 4.3125 -3.53125 C 4.75 -4.09375 5.328125 -4.828125 5.6875 -5.21875 C 6.15625 -5.765625 6.765625 -5.984375 7.46875 -6 L 7.46875 -6.46875 C 7.078125 -6.4375 6.625 -6.421875 6.234375 -6.421875 C 5.796875 -6.421875 5 -6.453125 4.796875 -6.46875 L 4.796875 -6 C 5.109375 -5.96875 5.234375 -5.78125 5.234375 -5.53125 C 5.234375 -5.296875 5.078125 -5.09375 5.015625 -5.015625 L 4.078125 -3.84375 L 2.90625 -5.359375 C 2.78125 -5.5 2.78125 -5.53125 2.78125 -5.625 C 2.78125 -5.84375 3 -5.984375 3.296875 -6 L 3.296875 -6.46875 L 1.6875 -6.421875 C 1.359375 -6.421875 0.65625 -6.4375 0.25 -6.46875 L 0.25 -6 C 1.3125 -6 1.3125 -5.984375 2.03125 -5.078125 L 3.515625 -3.15625 C 2.8125 -2.25 2.8125 -2.21875 2.09375 -1.359375 C 1.375 -0.5 0.5 -0.46875 0.1875 -0.46875 L 0.1875 0 C 0.5625 -0.03125 1.03125 -0.046875 1.421875 -0.046875 L 2.84375 0 L 2.84375 -0.46875 C 2.515625 -0.515625 2.421875 -0.703125 2.421875 -0.9375 C 2.421875 -1.265625 2.84375 -1.75 3.765625 -2.828125 L 4.90625 -1.328125 C 5.03125 -1.171875 5.21875 -0.9375 5.21875 -0.84375 C 5.21875 -0.703125 5.078125 -0.484375 4.6875 -0.46875 L 4.6875 0 L 6.296875 -0.046875 C 6.703125 -0.046875 7.296875 -0.03125 7.734375 0 Z M 7.734375 0 "/>
</symbol>
<symbol overflow="visible" id="zohmiIaN5-6">
<path style="stroke:none;" d="M 7.8125 -3.234375 C 7.8125 -5.140625 6.359375 -6.625 4.6875 -6.625 C 3.515625 -6.625 2.875 -5.96875 2.578125 -5.640625 L 2.578125 -6.625 L 0.421875 -6.46875 L 0.421875 -6 C 1.484375 -6 1.59375 -5.90625 1.59375 -5.25 L 1.59375 1.765625 C 1.59375 2.4375 1.421875 2.4375 0.421875 2.4375 L 0.421875 2.90625 L 2.09375 2.859375 L 3.796875 2.90625 L 3.796875 2.4375 C 2.796875 2.4375 2.625 2.4375 2.625 1.765625 L 2.625 -0.890625 C 2.703125 -0.640625 3.328125 0.171875 4.46875 0.171875 C 6.25 0.171875 7.8125 -1.3125 7.8125 -3.234375 Z M 6.5625 -3.234375 C 6.5625 -1.421875 5.515625 -0.171875 4.40625 -0.171875 C 3.8125 -0.171875 3.234375 -0.46875 2.828125 -1.078125 C 2.625 -1.390625 2.625 -1.40625 2.625 -1.703125 L 2.625 -5.0625 C 3.0625 -5.8125 3.796875 -6.25 4.5625 -6.25 C 5.65625 -6.25 6.5625 -4.9375 6.5625 -3.234375 Z M 6.5625 -3.234375 "/>
</symbol>
<symbol overflow="visible" id="zohmiIaN5-7">
<path style="stroke:none;" d="M 3.828125 3.75 L 3.828125 3.15625 L 2.375 3.15625 L 2.375 -10.65625 L 3.828125 -10.65625 L 3.828125 -11.25 L 1.765625 -11.25 L 1.765625 3.75 Z M 3.828125 3.75 "/>
</symbol>
<symbol overflow="visible" id="zohmiIaN5-8">
<path style="stroke:none;" d="M 6.734375 -2.609375 L 6.359375 -2.609375 C 6.28125 -2.15625 6.1875 -1.5 6.03125 -1.28125 C 5.921875 -1.15625 4.9375 -1.15625 4.609375 -1.15625 L 1.90625 -1.15625 L 3.5 -2.703125 C 5.828125 -4.765625 6.734375 -5.578125 6.734375 -7.078125 C 6.734375 -8.796875 5.390625 -9.984375 3.5625 -9.984375 C 1.859375 -9.984375 0.75 -8.609375 0.75 -7.28125 C 0.75 -6.4375 1.5 -6.4375 1.546875 -6.4375 C 1.796875 -6.4375 2.328125 -6.609375 2.328125 -7.234375 C 2.328125 -7.625 2.0625 -8.015625 1.53125 -8.015625 C 1.40625 -8.015625 1.375 -8.015625 1.328125 -8 C 1.6875 -8.96875 2.484375 -9.53125 3.359375 -9.53125 C 4.71875 -9.53125 5.375 -8.3125 5.375 -7.078125 C 5.375 -5.875 4.625 -4.6875 3.796875 -3.765625 L 0.921875 -0.5625 C 0.75 -0.390625 0.75 -0.359375 0.75 0 L 6.3125 0 Z M 6.734375 -2.609375 "/>
</symbol>
<symbol overflow="visible" id="zohmiIaN5-9">
<path style="stroke:none;" d="M 6.640625 -10.953125 C 6.640625 -11.109375 6.515625 -11.25 6.34375 -11.25 C 6.140625 -11.25 6.078125 -11.09375 6.03125 -10.953125 L 0.921875 3.1875 C 0.84375 3.375 0.84375 3.453125 0.84375 3.453125 C 0.84375 3.609375 0.96875 3.75 1.140625 3.75 C 1.34375 3.75 1.40625 3.59375 1.453125 3.453125 L 6.5625 -10.6875 C 6.640625 -10.875 6.640625 -10.953125 6.640625 -10.953125 Z M 6.640625 -10.953125 "/>
</symbol>
<symbol overflow="visible" id="zohmiIaN5-10">
<path style="stroke:none;" d="M 2.390625 3.75 L 2.390625 -11.25 L 0.328125 -11.25 L 0.328125 -10.65625 L 1.78125 -10.65625 L 1.78125 3.15625 L 0.328125 3.15625 L 0.328125 3.75 Z M 2.390625 3.75 "/>
</symbol>
<symbol overflow="visible" id="zohmiIaN6-0">
<path style="stroke:none;" d=""/>
</symbol>
<symbol overflow="visible" id="zohmiIaN6-1">
<path style="stroke:none;" d="M 10.828125 -5.203125 C 10.828125 -5.375 10.6875 -5.5 10.53125 -5.5 L 1.140625 -5.5 C 0.96875 -5.5 0.84375 -5.375 0.84375 -5.203125 C 0.84375 -5.046875 0.96875 -4.90625 1.140625 -4.90625 L 10.53125 -4.90625 C 10.6875 -4.90625 10.828125 -5.046875 10.828125 -5.203125 Z M 10.828125 -2.296875 C 10.828125 -2.453125 10.6875 -2.59375 10.53125 -2.59375 L 1.140625 -2.59375 C 0.96875 -2.59375 0.84375 -2.453125 0.84375 -2.296875 C 0.84375 -2.125 0.96875 -2 1.140625 -2 L 10.53125 -2 C 10.6875 -2 10.828125 -2.125 10.828125 -2.296875 Z M 10.828125 -2.296875 "/>
</symbol>
<symbol overflow="visible" id="zohmiIaN6-2">
<path style="stroke:none;" d="M 7.296875 -2.796875 C 7.28125 -3.125 7.25 -3.453125 7.171875 -3.75 C 7.015625 -4.34375 6.71875 -4.90625 6.3125 -5.375 C 6.0625 -5.625 5.8125 -5.84375 5.5 -6.015625 C 5.625 -6.109375 5.765625 -6.1875 5.875 -6.3125 C 6.359375 -6.765625 6.65625 -7.375 6.65625 -8.0625 C 6.65625 -8.25 6.640625 -8.4375 6.59375 -8.609375 C 6.484375 -9.078125 6.203125 -9.515625 5.84375 -9.84375 C 5.328125 -10.3125 4.640625 -10.59375 3.9375 -10.59375 C 2.125 -10.59375 1.28125 -8.53125 1.28125 -6.5 L 1.265625 2.734375 C 1.296875 2.84375 1.359375 2.90625 1.453125 2.90625 L 1.53125 2.90625 C 1.609375 2.90625 1.671875 2.859375 1.671875 2.8125 L 1.65625 -1.3125 C 2.125 -0.4375 2.96875 0.171875 3.984375 0.171875 C 4.84375 0.171875 5.6875 -0.125 6.328125 -0.6875 C 6.921875 -1.234375 7.28125 -2 7.296875 -2.796875 Z M 6.265625 -2.859375 C 6.265625 -2.171875 6.125 -1.46875 5.65625 -0.9375 C 5.21875 -0.453125 4.578125 -0.171875 3.921875 -0.171875 C 2.828125 -0.171875 2.03125 -0.984375 1.75 -2.0625 C 1.6875 -2.296875 1.671875 -2.53125 1.671875 -2.796875 L 1.65625 -6.421875 C 1.671875 -8.3125 2.34375 -10.25 3.984375 -10.25 C 4.5 -10.25 4.984375 -10.03125 5.3125 -9.640625 C 5.5 -9.421875 5.609375 -9.171875 5.6875 -8.875 C 5.75 -8.640625 5.78125 -8.390625 5.78125 -8.125 C 5.78125 -7.5625 5.65625 -6.984375 5.296875 -6.5625 C 5.203125 -6.453125 5.078125 -6.34375 4.984375 -6.265625 C 4.65625 -6.390625 4.28125 -6.46875 3.921875 -6.46875 C 3.375 -6.46875 2.75 -6.46875 2.75 -6.0625 L 2.765625 -5.953125 C 2.84375 -5.59375 3.46875 -5.59375 3.984375 -5.59375 C 4.359375 -5.59375 4.71875 -5.65625 5.0625 -5.796875 C 5.296875 -5.640625 5.484375 -5.4375 5.65625 -5.203125 C 5.890625 -4.890625 6.03125 -4.546875 6.140625 -4.171875 C 6.234375 -3.75 6.265625 -3.296875 6.265625 -2.859375 Z M 4.546875 -6.046875 C 4.34375 -5.96875 4.125 -5.921875 3.921875 -5.921875 C 3.578125 -5.921875 3.125 -5.921875 3.125 -5.984375 C 3.140625 -6.125 3.625 -6.125 3.984375 -6.125 C 4.1875 -6.125 4.375 -6.09375 4.546875 -6.046875 Z M 4.546875 -6.046875 "/>
</symbol>
<symbol overflow="visible" id="zohmiIaN6-3">
<path style="stroke:none;" d="M 10.828125 -3.75 C 10.828125 -3.921875 10.6875 -4.046875 10.53125 -4.046875 L 6.140625 -4.046875 L 6.140625 -8.4375 C 6.140625 -8.609375 6 -8.75 5.828125 -8.75 C 5.671875 -8.75 5.53125 -8.609375 5.53125 -8.4375 L 5.53125 -4.046875 L 1.140625 -4.046875 C 0.96875 -4.046875 0.84375 -3.921875 0.84375 -3.75 C 0.84375 -3.578125 0.96875 -3.453125 1.140625 -3.453125 L 5.53125 -3.453125 L 5.53125 0.9375 C 5.53125 1.109375 5.671875 1.25 5.828125 1.25 C 6 1.25 6.140625 1.109375 6.140625 0.9375 L 6.140625 -3.453125 L 10.53125 -3.453125 C 10.6875 -3.453125 10.828125 -3.578125 10.828125 -3.75 Z M 10.828125 -3.75 "/>
</symbol>
<symbol overflow="visible" id="zohmiIaN6-4">
<path style="stroke:none;" d="M 10.828125 -3.75 C 10.828125 -3.921875 10.6875 -4.046875 10.53125 -4.046875 L 1.140625 -4.046875 C 0.96875 -4.046875 0.84375 -3.921875 0.84375 -3.75 C 0.84375 -3.578125 0.96875 -3.453125 1.140625 -3.453125 L 10.53125 -3.453125 C 10.6875 -3.453125 10.828125 -3.578125 10.828125 -3.75 Z M 10.828125 -3.75 "/>
</symbol>
<symbol overflow="visible" id="zohmiIaN6-5">
<path style="stroke:none;" d="M 8.734375 -6.828125 L 8.3125 -10.203125 L 0.5 -10.203125 L 0.5 -9.734375 L 0.859375 -9.734375 C 2.015625 -9.734375 2.046875 -9.5625 2.046875 -9.03125 L 2.046875 -1.171875 C 2.046875 -0.625 2.015625 -0.46875 0.859375 -0.46875 L 0.5 -0.46875 L 0.5 0 C 1.015625 -0.046875 2.1875 -0.046875 2.78125 -0.046875 C 3.390625 -0.046875 4.75 -0.046875 5.296875 0 L 5.296875 -0.46875 L 4.796875 -0.46875 C 3.375 -0.46875 3.375 -0.65625 3.375 -1.1875 L 3.375 -9.140625 C 3.375 -9.625 3.40625 -9.734375 4.109375 -9.734375 L 5.65625 -9.734375 C 7.796875 -9.734375 8.109375 -8.84375 8.359375 -6.828125 Z M 8.734375 -6.828125 "/>
</symbol>
<symbol overflow="visible" id="zohmiIaN7-0">
<path style="stroke:none;" d=""/>
</symbol>
<symbol overflow="visible" id="zohmiIaN7-1">
<path style="stroke:none;" d="M 4.375 -1.671875 C 4.359375 -1.875 4.34375 -2.0625 4.296875 -2.25 C 4.21875 -2.609375 4.03125 -2.9375 3.78125 -3.21875 C 3.640625 -3.375 3.484375 -3.515625 3.296875 -3.609375 C 3.375 -3.65625 3.453125 -3.71875 3.53125 -3.78125 C 3.8125 -4.0625 4 -4.421875 4 -4.828125 C 4 -4.953125 3.984375 -5.0625 3.953125 -5.171875 C 3.890625 -5.4375 3.71875 -5.703125 3.515625 -5.90625 C 3.1875 -6.1875 2.78125 -6.359375 2.359375 -6.359375 C 1.28125 -6.359375 0.765625 -5.125 0.765625 -3.890625 L 0.75 1.640625 C 0.78125 1.703125 0.8125 1.75 0.875 1.75 L 0.921875 1.75 C 0.96875 1.75 1 1.71875 1 1.6875 L 0.984375 -0.78125 C 1.28125 -0.265625 1.78125 0.09375 2.390625 0.09375 C 2.90625 0.09375 3.40625 -0.078125 3.796875 -0.40625 C 4.15625 -0.734375 4.359375 -1.203125 4.375 -1.671875 Z M 3.765625 -1.71875 C 3.765625 -1.3125 3.671875 -0.875 3.390625 -0.5625 C 3.125 -0.265625 2.75 -0.09375 2.34375 -0.09375 C 1.703125 -0.09375 1.21875 -0.59375 1.046875 -1.234375 C 1.015625 -1.375 1 -1.515625 1 -1.671875 L 0.984375 -3.859375 C 1 -4.984375 1.40625 -6.140625 2.390625 -6.140625 C 2.703125 -6.140625 2.984375 -6.015625 3.1875 -5.78125 C 3.296875 -5.65625 3.359375 -5.5 3.40625 -5.328125 C 3.453125 -5.1875 3.46875 -5.03125 3.46875 -4.875 C 3.46875 -4.53125 3.390625 -4.1875 3.171875 -3.9375 C 3.125 -3.875 3.046875 -3.8125 2.984375 -3.765625 C 2.796875 -3.828125 2.5625 -3.875 2.34375 -3.875 C 2.03125 -3.875 1.640625 -3.875 1.640625 -3.640625 L 1.65625 -3.578125 C 1.703125 -3.359375 2.078125 -3.359375 2.390625 -3.359375 C 2.625 -3.359375 2.828125 -3.390625 3.046875 -3.46875 C 3.171875 -3.390625 3.296875 -3.265625 3.390625 -3.125 C 3.53125 -2.9375 3.625 -2.734375 3.6875 -2.5 C 3.75 -2.25 3.765625 -1.984375 3.765625 -1.71875 Z M 2.734375 -3.625 C 2.609375 -3.578125 2.46875 -3.5625 2.34375 -3.5625 C 2.15625 -3.5625 1.875 -3.5625 1.875 -3.59375 C 1.875 -3.671875 2.171875 -3.671875 2.390625 -3.671875 C 2.515625 -3.671875 2.625 -3.65625 2.734375 -3.625 Z M 2.734375 -3.625 "/>
</symbol>
<symbol overflow="visible" id="zohmiIaN7-2">
<path style="stroke:none;" d="M 6.5 -2.25 C 6.5 -2.34375 6.421875 -2.4375 6.3125 -2.4375 L 3.6875 -2.4375 L 3.6875 -5.0625 C 3.6875 -5.171875 3.59375 -5.25 3.5 -5.25 C 3.40625 -5.25 3.328125 -5.171875 3.328125 -5.0625 L 3.328125 -2.4375 L 0.6875 -2.4375 C 0.578125 -2.4375 0.5 -2.34375 0.5 -2.25 C 0.5 -2.15625 0.578125 -2.0625 0.6875 -2.0625 L 3.328125 -2.0625 L 3.328125 0.5625 C 3.328125 0.671875 3.40625 0.75 3.5 0.75 C 3.59375 0.75 3.6875 0.671875 3.6875 0.5625 L 3.6875 -2.0625 L 6.3125 -2.0625 C 6.421875 -2.0625 6.5 -2.15625 6.5 -2.25 Z M 6.5 -2.25 "/>
</symbol>
<symbol overflow="visible" id="zohmiIaN8-0">
<path style="stroke:none;" d="M 0.453125 0 L 4.046875 0 L 4.046875 -4.828125 L 0.453125 -4.828125 Z M 0.90625 -0.453125 L 0.90625 -4.390625 L 3.59375 -4.390625 L 3.59375 -0.453125 Z M 0.90625 -0.453125 "/>
</symbol>
<symbol overflow="visible" id="zohmiIaN8-1">
<path style="stroke:none;" d="M 3.765625 0 L 3.765625 -0.28125 L 3.484375 -0.28125 C 2.671875 -0.28125 2.640625 -0.375 2.640625 -0.71875 L 2.640625 -5.765625 C 2.640625 -5.96875 2.640625 -6 2.4375 -6 C 1.875 -5.421875 1.09375 -5.421875 0.796875 -5.421875 L 0.796875 -5.140625 C 0.984375 -5.140625 1.515625 -5.140625 1.984375 -5.375 L 1.984375 -0.71875 C 1.984375 -0.390625 1.953125 -0.28125 1.140625 -0.28125 L 0.859375 -0.28125 L 0.859375 0 C 1.171875 -0.03125 1.953125 -0.03125 2.3125 -0.03125 C 2.671875 -0.03125 3.453125 -0.03125 3.765625 0 Z M 3.765625 0 "/>
</symbol>
<symbol overflow="visible" id="zohmiIaN9-0">
<path style="stroke:none;" d="M 0.59375 2.125 L 0.59375 -8.46875 L 6.59375 -8.46875 L 6.59375 2.125 Z M 1.265625 1.453125 L 5.9375 1.453125 L 5.9375 -7.78125 L 1.265625 -7.78125 Z M 1.265625 1.453125 "/>
</symbol>
<symbol overflow="visible" id="zohmiIaN9-1">
<path style="stroke:none;" d="M 2.203125 -0.40625 L 2.203125 2.5 L 1.125 2.5 L 1.125 -6.515625 C 1.125 -8.296875 1.957031 -9.1875 3.625 -9.1875 C 5.320312 -9.1875 6.171875 -8.4375 6.171875 -6.9375 C 6.171875 -5.863281 5.832031 -5.132812 5.15625 -4.75 C 6.25 -4.394531 6.796875 -3.695312 6.796875 -2.65625 C 6.796875 -0.800781 5.851562 0.125 3.96875 0.125 C 3.144531 0.125 2.554688 -0.0507812 2.203125 -0.40625 Z M 2.203125 -1.8125 C 2.640625 -1.132812 3.242188 -0.796875 4.015625 -0.796875 C 5.140625 -0.796875 5.703125 -1.410156 5.703125 -2.640625 C 5.703125 -3.742188 4.796875 -4.25 2.984375 -4.15625 L 2.984375 -5.15625 C 4.398438 -5.15625 5.109375 -5.78125 5.109375 -7.03125 C 5.109375 -7.882812 4.648438 -8.3125 3.734375 -8.3125 C 2.710938 -8.3125 2.203125 -7.703125 2.203125 -6.484375 Z M 2.203125 -1.8125 "/>
</symbol>
<symbol overflow="visible" id="zohmiIaN9-2">
<path style="stroke:none;" d=""/>
</symbol>
<symbol overflow="visible" id="zohmiIaN9-3">
<path style="stroke:none;" d="M 5.3125 -6.375 L 5.3125 -5.34375 C 5.007812 -5.5 4.691406 -5.613281 4.359375 -5.6875 C 4.035156 -5.769531 3.695312 -5.8125 3.34375 -5.8125 C 2.8125 -5.8125 2.410156 -5.726562 2.140625 -5.5625 C 1.867188 -5.40625 1.734375 -5.160156 1.734375 -4.828125 C 1.734375 -4.578125 1.828125 -4.378906 2.015625 -4.234375 C 2.210938 -4.097656 2.601562 -3.96875 3.1875 -3.84375 L 3.546875 -3.75 C 4.316406 -3.59375 4.863281 -3.363281 5.1875 -3.0625 C 5.507812 -2.757812 5.671875 -2.34375 5.671875 -1.8125 C 5.671875 -1.195312 5.425781 -0.710938 4.9375 -0.359375 C 4.457031 -0.00390625 3.796875 0.171875 2.953125 0.171875 C 2.597656 0.171875 2.226562 0.132812 1.84375 0.0625 C 1.46875 0 1.070312 -0.0976562 0.65625 -0.234375 L 0.65625 -1.359375 C 1.050781 -1.148438 1.441406 -0.992188 1.828125 -0.890625 C 2.210938 -0.785156 2.597656 -0.734375 2.984375 -0.734375 C 3.484375 -0.734375 3.867188 -0.816406 4.140625 -0.984375 C 4.421875 -1.160156 4.5625 -1.410156 4.5625 -1.734375 C 4.5625 -2.023438 4.460938 -2.25 4.265625 -2.40625 C 4.066406 -2.5625 3.632812 -2.710938 2.96875 -2.859375 L 2.59375 -2.9375 C 1.925781 -3.082031 1.441406 -3.300781 1.140625 -3.59375 C 0.847656 -3.882812 0.703125 -4.28125 0.703125 -4.78125 C 0.703125 -5.40625 0.921875 -5.882812 1.359375 -6.21875 C 1.796875 -6.550781 2.414062 -6.71875 3.21875 -6.71875 C 3.613281 -6.71875 3.988281 -6.6875 4.34375 -6.625 C 4.695312 -6.570312 5.019531 -6.488281 5.3125 -6.375 Z M 5.3125 -6.375 "/>
</symbol>
<symbol overflow="visible" id="zohmiIaN9-4">
<path style="stroke:none;" d="M 2.203125 -8.421875 L 2.203125 -6.5625 L 4.421875 -6.5625 L 4.421875 -5.71875 L 2.203125 -5.71875 L 2.203125 -2.15625 C 2.203125 -1.625 2.273438 -1.28125 2.421875 -1.125 C 2.566406 -0.976562 2.863281 -0.90625 3.3125 -0.90625 L 4.421875 -0.90625 L 4.421875 0 L 3.3125 0 C 2.476562 0 1.898438 -0.15625 1.578125 -0.46875 C 1.265625 -0.78125 1.109375 -1.34375 1.109375 -2.15625 L 1.109375 -5.71875 L 0.328125 -5.71875 L 0.328125 -6.5625 L 1.109375 -6.5625 L 1.109375 -8.421875 Z M 2.203125 -8.421875 "/>
</symbol>
<symbol overflow="visible" id="zohmiIaN10-0">
<path style="stroke:none;" d="M 0.59375 2.125 L 0.59375 -8.46875 L 6.59375 -8.46875 L 6.59375 2.125 Z M 1.265625 1.453125 L 5.9375 1.453125 L 5.9375 -7.78125 L 1.265625 -7.78125 Z M 1.265625 1.453125 "/>
</symbol>
<symbol overflow="visible" id="zohmiIaN10-1">
<path style="stroke:none;" d="M 1.40625 -1.484375 L 2.640625 -1.484375 L 2.640625 -0.484375 L 1.6875 1.390625 L 0.921875 1.390625 L 1.40625 -0.484375 Z M 1.40625 -1.484375 "/>
</symbol>
<symbol overflow="visible" id="zohmiIaN10-2">
<path style="stroke:none;" d="M 6.75 -3.546875 L 6.75 -3.03125 L 1.78125 -3.03125 C 1.832031 -2.28125 2.054688 -1.710938 2.453125 -1.328125 C 2.859375 -0.941406 3.414062 -0.75 4.125 -0.75 C 4.539062 -0.75 4.941406 -0.796875 5.328125 -0.890625 C 5.722656 -0.992188 6.113281 -1.148438 6.5 -1.359375 L 6.5 -0.328125 C 6.101562 -0.171875 5.703125 -0.0507812 5.296875 0.03125 C 4.890625 0.125 4.476562 0.171875 4.0625 0.171875 C 3.019531 0.171875 2.191406 -0.128906 1.578125 -0.734375 C 0.960938 -1.347656 0.65625 -2.175781 0.65625 -3.21875 C 0.65625 -4.289062 0.945312 -5.140625 1.53125 -5.765625 C 2.113281 -6.398438 2.894531 -6.71875 3.875 -6.71875 C 4.757812 -6.71875 5.457031 -6.429688 5.96875 -5.859375 C 6.488281 -5.296875 6.75 -4.523438 6.75 -3.546875 Z M 5.671875 -3.875 C 5.660156 -4.457031 5.492188 -4.925781 5.171875 -5.28125 C 4.847656 -5.632812 4.421875 -5.8125 3.890625 -5.8125 C 3.285156 -5.8125 2.800781 -5.640625 2.4375 -5.296875 C 2.082031 -4.953125 1.878906 -4.472656 1.828125 -3.859375 Z M 5.671875 -3.875 "/>
</symbol>
<symbol overflow="visible" id="zohmiIaN11-0">
<path style="stroke:none;" d="M 0.59375 2.125 L 0.59375 -8.46875 L 6.59375 -8.46875 L 6.59375 2.125 Z M 1.265625 1.453125 L 5.9375 1.453125 L 5.9375 -7.78125 L 1.265625 -7.78125 Z M 1.265625 1.453125 "/>
</symbol>
<symbol overflow="visible" id="zohmiIaN11-1">
<path style="stroke:none;" d="M 2.171875 -0.984375 L 2.171875 2.5 L 1.09375 2.5 L 1.09375 -6.5625 L 2.171875 -6.5625 L 2.171875 -5.5625 C 2.398438 -5.957031 2.6875 -6.25 3.03125 -6.4375 C 3.375 -6.625 3.785156 -6.71875 4.265625 -6.71875 C 5.066406 -6.71875 5.71875 -6.398438 6.21875 -5.765625 C 6.71875 -5.140625 6.96875 -4.3125 6.96875 -3.28125 C 6.96875 -2.25 6.71875 -1.414062 6.21875 -0.78125 C 5.71875 -0.144531 5.066406 0.171875 4.265625 0.171875 C 3.785156 0.171875 3.375 0.078125 3.03125 -0.109375 C 2.6875 -0.304688 2.398438 -0.597656 2.171875 -0.984375 Z M 5.84375 -3.28125 C 5.84375 -4.070312 5.675781 -4.691406 5.34375 -5.140625 C 5.019531 -5.585938 4.578125 -5.8125 4.015625 -5.8125 C 3.441406 -5.8125 2.988281 -5.585938 2.65625 -5.140625 C 2.332031 -4.691406 2.171875 -4.070312 2.171875 -3.28125 C 2.171875 -2.488281 2.332031 -1.863281 2.65625 -1.40625 C 2.988281 -0.957031 3.441406 -0.734375 4.015625 -0.734375 C 4.578125 -0.734375 5.019531 -0.957031 5.34375 -1.40625 C 5.675781 -1.863281 5.84375 -2.488281 5.84375 -3.28125 Z M 5.84375 -3.28125 "/>
</symbol>
<symbol overflow="visible" id="zohmiIaN12-0">
<path style="stroke:none;" d="M 0.59375 2.125 L 0.59375 -8.46875 L 6.59375 -8.46875 L 6.59375 2.125 Z M 1.265625 1.453125 L 5.9375 1.453125 L 5.9375 -7.78125 L 1.265625 -7.78125 Z M 1.265625 1.453125 "/>
</symbol>
<symbol overflow="visible" id="zohmiIaN12-1">
<path style="stroke:none;" d="M 3.8125 -7.96875 C 3.207031 -7.96875 2.75 -7.664062 2.4375 -7.0625 C 2.132812 -6.46875 1.984375 -5.566406 1.984375 -4.359375 C 1.984375 -3.160156 2.132812 -2.257812 2.4375 -1.65625 C 2.75 -1.0625 3.207031 -0.765625 3.8125 -0.765625 C 4.425781 -0.765625 4.882812 -1.0625 5.1875 -1.65625 C 5.5 -2.257812 5.65625 -3.160156 5.65625 -4.359375 C 5.65625 -5.566406 5.5 -6.46875 5.1875 -7.0625 C 4.882812 -7.664062 4.425781 -7.96875 3.8125 -7.96875 Z M 3.8125 -8.90625 C 4.789062 -8.90625 5.539062 -8.515625 6.0625 -7.734375 C 6.582031 -6.960938 6.84375 -5.835938 6.84375 -4.359375 C 6.84375 -2.890625 6.582031 -1.765625 6.0625 -0.984375 C 5.539062 -0.210938 4.789062 0.171875 3.8125 0.171875 C 2.832031 0.171875 2.082031 -0.210938 1.5625 -0.984375 C 1.050781 -1.765625 0.796875 -2.890625 0.796875 -4.359375 C 0.796875 -5.835938 1.050781 -6.960938 1.5625 -7.734375 C 2.082031 -8.515625 2.832031 -8.90625 3.8125 -8.90625 Z M 3.8125 -8.90625 "/>
</symbol>
<symbol overflow="visible" id="zohmiIaN13-0">
<path style="stroke:none;" d="M 0.59375 2.125 L 0.59375 -8.46875 L 6.59375 -8.46875 L 6.59375 2.125 Z M 1.265625 1.453125 L 5.9375 1.453125 L 5.9375 -7.78125 L 1.265625 -7.78125 Z M 1.265625 1.453125 "/>
</symbol>
<symbol overflow="visible" id="zohmiIaN13-1">
<path style="stroke:none;" d="M 1.40625 -1.484375 L 2.640625 -1.484375 L 2.640625 -0.484375 L 1.6875 1.390625 L 0.921875 1.390625 L 1.40625 -0.484375 Z M 1.40625 -1.484375 "/>
</symbol>
<symbol overflow="visible" id="zohmiIaN13-2">
<path style="stroke:none;" d="M 2.171875 -0.984375 L 2.171875 2.5 L 1.09375 2.5 L 1.09375 -6.5625 L 2.171875 -6.5625 L 2.171875 -5.5625 C 2.398438 -5.957031 2.6875 -6.25 3.03125 -6.4375 C 3.375 -6.625 3.785156 -6.71875 4.265625 -6.71875 C 5.066406 -6.71875 5.71875 -6.398438 6.21875 -5.765625 C 6.71875 -5.140625 6.96875 -4.3125 6.96875 -3.28125 C 6.96875 -2.25 6.71875 -1.414062 6.21875 -0.78125 C 5.71875 -0.144531 5.066406 0.171875 4.265625 0.171875 C 3.785156 0.171875 3.375 0.078125 3.03125 -0.109375 C 2.6875 -0.304688 2.398438 -0.597656 2.171875 -0.984375 Z M 5.84375 -3.28125 C 5.84375 -4.070312 5.675781 -4.691406 5.34375 -5.140625 C 5.019531 -5.585938 4.578125 -5.8125 4.015625 -5.8125 C 3.441406 -5.8125 2.988281 -5.585938 2.65625 -5.140625 C 2.332031 -4.691406 2.171875 -4.070312 2.171875 -3.28125 C 2.171875 -2.488281 2.332031 -1.863281 2.65625 -1.40625 C 2.988281 -0.957031 3.441406 -0.734375 4.015625 -0.734375 C 4.578125 -0.734375 5.019531 -0.957031 5.34375 -1.40625 C 5.675781 -1.863281 5.84375 -2.488281 5.84375 -3.28125 Z M 5.84375 -3.28125 "/>
</symbol>
<symbol overflow="visible" id="zohmiIaN14-0">
<path style="stroke:none;" d="M 0.59375 2.125 L 0.59375 -8.46875 L 6.59375 -8.46875 L 6.59375 2.125 Z M 1.265625 1.453125 L 5.9375 1.453125 L 5.9375 -7.78125 L 1.265625 -7.78125 Z M 1.265625 1.453125 "/>
</symbol>
<symbol overflow="visible" id="zohmiIaN14-1">
<path style="stroke:none;" d=""/>
</symbol>
<symbol overflow="visible" id="zohmiIaN14-2">
<path style="stroke:none;" d="M 1.40625 -1.484375 L 2.640625 -1.484375 L 2.640625 0 L 1.40625 0 Z M 1.40625 -6.203125 L 2.640625 -6.203125 L 2.640625 -4.71875 L 1.40625 -4.71875 Z M 1.40625 -6.203125 "/>
</symbol>
<symbol overflow="visible" id="zohmiIaN14-3">
<path style="stroke:none;" d="M 6.75 -3.546875 L 6.75 -3.03125 L 1.78125 -3.03125 C 1.832031 -2.28125 2.054688 -1.710938 2.453125 -1.328125 C 2.859375 -0.941406 3.414062 -0.75 4.125 -0.75 C 4.539062 -0.75 4.941406 -0.796875 5.328125 -0.890625 C 5.722656 -0.992188 6.113281 -1.148438 6.5 -1.359375 L 6.5 -0.328125 C 6.101562 -0.171875 5.703125 -0.0507812 5.296875 0.03125 C 4.890625 0.125 4.476562 0.171875 4.0625 0.171875 C 3.019531 0.171875 2.191406 -0.128906 1.578125 -0.734375 C 0.960938 -1.347656 0.65625 -2.175781 0.65625 -3.21875 C 0.65625 -4.289062 0.945312 -5.140625 1.53125 -5.765625 C 2.113281 -6.398438 2.894531 -6.71875 3.875 -6.71875 C 4.757812 -6.71875 5.457031 -6.429688 5.96875 -5.859375 C 6.488281 -5.296875 6.75 -4.523438 6.75 -3.546875 Z M 5.671875 -3.875 C 5.660156 -4.457031 5.492188 -4.925781 5.171875 -5.28125 C 4.847656 -5.632812 4.421875 -5.8125 3.890625 -5.8125 C 3.285156 -5.8125 2.800781 -5.640625 2.4375 -5.296875 C 2.082031 -4.953125 1.878906 -4.472656 1.828125 -3.859375 Z M 5.671875 -3.875 "/>
</symbol>
<symbol overflow="visible" id="zohmiIaN15-0">
<path style="stroke:none;" d="M 0.59375 2.125 L 0.59375 -8.46875 L 6.59375 -8.46875 L 6.59375 2.125 Z M 1.265625 1.453125 L 5.9375 1.453125 L 5.9375 -7.78125 L 1.265625 -7.78125 Z M 1.265625 1.453125 "/>
</symbol>
<symbol overflow="visible" id="zohmiIaN15-1">
<path style="stroke:none;" d="M 4.9375 -5.5625 C 4.8125 -5.625 4.675781 -5.671875 4.53125 -5.703125 C 4.394531 -5.742188 4.238281 -5.765625 4.0625 -5.765625 C 3.457031 -5.765625 2.988281 -5.566406 2.65625 -5.171875 C 2.332031 -4.773438 2.171875 -4.203125 2.171875 -3.453125 L 2.171875 0 L 1.09375 0 L 1.09375 -6.5625 L 2.171875 -6.5625 L 2.171875 -5.546875 C 2.398438 -5.941406 2.695312 -6.234375 3.0625 -6.421875 C 3.425781 -6.617188 3.867188 -6.71875 4.390625 -6.71875 C 4.460938 -6.71875 4.539062 -6.710938 4.625 -6.703125 C 4.71875 -6.691406 4.816406 -6.675781 4.921875 -6.65625 Z M 4.9375 -5.5625 "/>
</symbol>
<symbol overflow="visible" id="zohmiIaN16-0">
<path style="stroke:none;" d="M 0.59375 2.125 L 0.59375 -8.46875 L 6.59375 -8.46875 L 6.59375 2.125 Z M 1.265625 1.453125 L 5.9375 1.453125 L 5.9375 -7.78125 L 1.265625 -7.78125 Z M 1.265625 1.453125 "/>
</symbol>
<symbol overflow="visible" id="zohmiIaN16-1">
<path style="stroke:none;" d="M 1.40625 -1.484375 L 2.640625 -1.484375 L 2.640625 -0.484375 L 1.6875 1.390625 L 0.921875 1.390625 L 1.40625 -0.484375 Z M 1.40625 -1.484375 "/>
</symbol>
<symbol overflow="visible" id="zohmiIaN16-2">
<path style="stroke:none;" d="M 5.859375 -6.3125 L 5.859375 -5.296875 C 5.546875 -5.472656 5.238281 -5.601562 4.9375 -5.6875 C 4.632812 -5.769531 4.328125 -5.8125 4.015625 -5.8125 C 3.304688 -5.8125 2.757812 -5.585938 2.375 -5.140625 C 1.988281 -4.703125 1.796875 -4.082031 1.796875 -3.28125 C 1.796875 -2.476562 1.988281 -1.851562 2.375 -1.40625 C 2.757812 -0.96875 3.304688 -0.75 4.015625 -0.75 C 4.328125 -0.75 4.632812 -0.789062 4.9375 -0.875 C 5.238281 -0.957031 5.546875 -1.082031 5.859375 -1.25 L 5.859375 -0.25 C 5.554688 -0.113281 5.242188 -0.0078125 4.921875 0.0625 C 4.597656 0.132812 4.253906 0.171875 3.890625 0.171875 C 2.898438 0.171875 2.113281 -0.132812 1.53125 -0.75 C 0.945312 -1.375 0.65625 -2.21875 0.65625 -3.28125 C 0.65625 -4.34375 0.945312 -5.179688 1.53125 -5.796875 C 2.125 -6.410156 2.9375 -6.71875 3.96875 -6.71875 C 4.289062 -6.71875 4.609375 -6.679688 4.921875 -6.609375 C 5.242188 -6.546875 5.554688 -6.445312 5.859375 -6.3125 Z M 5.859375 -6.3125 "/>
</symbol>
<symbol overflow="visible" id="zohmiIaN16-3">
<path style="stroke:none;" d="M 2.171875 -0.984375 L 2.171875 2.5 L 1.09375 2.5 L 1.09375 -6.5625 L 2.171875 -6.5625 L 2.171875 -5.5625 C 2.398438 -5.957031 2.6875 -6.25 3.03125 -6.4375 C 3.375 -6.625 3.785156 -6.71875 4.265625 -6.71875 C 5.066406 -6.71875 5.71875 -6.398438 6.21875 -5.765625 C 6.71875 -5.140625 6.96875 -4.3125 6.96875 -3.28125 C 6.96875 -2.25 6.71875 -1.414062 6.21875 -0.78125 C 5.71875 -0.144531 5.066406 0.171875 4.265625 0.171875 C 3.785156 0.171875 3.375 0.078125 3.03125 -0.109375 C 2.6875 -0.304688 2.398438 -0.597656 2.171875 -0.984375 Z M 5.84375 -3.28125 C 5.84375 -4.070312 5.675781 -4.691406 5.34375 -5.140625 C 5.019531 -5.585938 4.578125 -5.8125 4.015625 -5.8125 C 3.441406 -5.8125 2.988281 -5.585938 2.65625 -5.140625 C 2.332031 -4.691406 2.171875 -4.070312 2.171875 -3.28125 C 2.171875 -2.488281 2.332031 -1.863281 2.65625 -1.40625 C 2.988281 -0.957031 3.441406 -0.734375 4.015625 -0.734375 C 4.578125 -0.734375 5.019531 -0.957031 5.34375 -1.40625 C 5.675781 -1.863281 5.84375 -2.488281 5.84375 -3.28125 Z M 5.84375 -3.28125 "/>
</symbol>
<symbol overflow="visible" id="zohmiIaN17-0">
<path style="stroke:none;" d="M 0.59375 2.125 L 0.59375 -8.46875 L 6.59375 -8.46875 L 6.59375 2.125 Z M 1.265625 1.453125 L 5.9375 1.453125 L 5.9375 -7.78125 L 1.265625 -7.78125 Z M 1.265625 1.453125 "/>
</symbol>
<symbol overflow="visible" id="zohmiIaN17-1">
<path style="stroke:none;" d="M 6.75 -3.546875 L 6.75 -3.03125 L 1.78125 -3.03125 C 1.832031 -2.28125 2.054688 -1.710938 2.453125 -1.328125 C 2.859375 -0.941406 3.414062 -0.75 4.125 -0.75 C 4.539062 -0.75 4.941406 -0.796875 5.328125 -0.890625 C 5.722656 -0.992188 6.113281 -1.148438 6.5 -1.359375 L 6.5 -0.328125 C 6.101562 -0.171875 5.703125 -0.0507812 5.296875 0.03125 C 4.890625 0.125 4.476562 0.171875 4.0625 0.171875 C 3.019531 0.171875 2.191406 -0.128906 1.578125 -0.734375 C 0.960938 -1.347656 0.65625 -2.175781 0.65625 -3.21875 C 0.65625 -4.289062 0.945312 -5.140625 1.53125 -5.765625 C 2.113281 -6.398438 2.894531 -6.71875 3.875 -6.71875 C 4.757812 -6.71875 5.457031 -6.429688 5.96875 -5.859375 C 6.488281 -5.296875 6.75 -4.523438 6.75 -3.546875 Z M 5.671875 -3.875 C 5.660156 -4.457031 5.492188 -4.925781 5.171875 -5.28125 C 4.847656 -5.632812 4.421875 -5.8125 3.890625 -5.8125 C 3.285156 -5.8125 2.800781 -5.640625 2.4375 -5.296875 C 2.082031 -4.953125 1.878906 -4.472656 1.828125 -3.859375 Z M 5.671875 -3.875 "/>
</symbol>
<symbol overflow="visible" id="zohmiIaN17-2">
<path style="stroke:none;" d="M 4.9375 -5.5625 C 4.8125 -5.625 4.675781 -5.671875 4.53125 -5.703125 C 4.394531 -5.742188 4.238281 -5.765625 4.0625 -5.765625 C 3.457031 -5.765625 2.988281 -5.566406 2.65625 -5.171875 C 2.332031 -4.773438 2.171875 -4.203125 2.171875 -3.453125 L 2.171875 0 L 1.09375 0 L 1.09375 -6.5625 L 2.171875 -6.5625 L 2.171875 -5.546875 C 2.398438 -5.941406 2.695312 -6.234375 3.0625 -6.421875 C 3.425781 -6.617188 3.867188 -6.71875 4.390625 -6.71875 C 4.460938 -6.71875 4.539062 -6.710938 4.625 -6.703125 C 4.71875 -6.691406 4.816406 -6.675781 4.921875 -6.65625 Z M 4.9375 -5.5625 "/>
</symbol>
<symbol overflow="visible" id="zohmiIaN17-3">
<path style="stroke:none;" d="M 3.671875 -5.8125 C 3.097656 -5.8125 2.640625 -5.582031 2.296875 -5.125 C 1.960938 -4.675781 1.796875 -4.0625 1.796875 -3.28125 C 1.796875 -2.488281 1.960938 -1.867188 2.296875 -1.421875 C 2.628906 -0.972656 3.085938 -0.75 3.671875 -0.75 C 4.242188 -0.75 4.695312 -0.972656 5.03125 -1.421875 C 5.375 -1.878906 5.546875 -2.5 5.546875 -3.28125 C 5.546875 -4.050781 5.375 -4.664062 5.03125 -5.125 C 4.695312 -5.582031 4.242188 -5.8125 3.671875 -5.8125 Z M 3.671875 -6.71875 C 4.609375 -6.71875 5.34375 -6.410156 5.875 -5.796875 C 6.414062 -5.191406 6.6875 -4.351562 6.6875 -3.28125 C 6.6875 -2.207031 6.414062 -1.363281 5.875 -0.75 C 5.34375 -0.132812 4.609375 0.171875 3.671875 0.171875 C 2.734375 0.171875 1.992188 -0.132812 1.453125 -0.75 C 0.921875 -1.363281 0.65625 -2.207031 0.65625 -3.28125 C 0.65625 -4.351562 0.921875 -5.191406 1.453125 -5.796875 C 1.992188 -6.410156 2.734375 -6.71875 3.671875 -6.71875 Z M 3.671875 -6.71875 "/>
</symbol>
<symbol overflow="visible" id="zohmiIaN17-4">
<path style="stroke:none;" d="M 2.203125 -8.421875 L 2.203125 -6.5625 L 4.421875 -6.5625 L 4.421875 -5.71875 L 2.203125 -5.71875 L 2.203125 -2.15625 C 2.203125 -1.625 2.273438 -1.28125 2.421875 -1.125 C 2.566406 -0.976562 2.863281 -0.90625 3.3125 -0.90625 L 4.421875 -0.90625 L 4.421875 0 L 3.3125 0 C 2.476562 0 1.898438 -0.15625 1.578125 -0.46875 C 1.265625 -0.78125 1.109375 -1.34375 1.109375 -2.15625 L 1.109375 -5.71875 L 0.328125 -5.71875 L 0.328125 -6.5625 L 1.109375 -6.5625 L 1.109375 -8.421875 Z M 2.203125 -8.421875 "/>
</symbol>
<symbol overflow="visible" id="zohmiIaN18-0">
<path style="stroke:none;" d="M 0.59375 2.125 L 0.59375 -8.46875 L 6.59375 -8.46875 L 6.59375 2.125 Z M 1.265625 1.453125 L 5.9375 1.453125 L 5.9375 -7.78125 L 1.265625 -7.78125 Z M 1.265625 1.453125 "/>
</symbol>
<symbol overflow="visible" id="zohmiIaN18-1">
<path style="stroke:none;" d="M 3.671875 -5.8125 C 3.097656 -5.8125 2.640625 -5.582031 2.296875 -5.125 C 1.960938 -4.675781 1.796875 -4.0625 1.796875 -3.28125 C 1.796875 -2.488281 1.960938 -1.867188 2.296875 -1.421875 C 2.628906 -0.972656 3.085938 -0.75 3.671875 -0.75 C 4.242188 -0.75 4.695312 -0.972656 5.03125 -1.421875 C 5.375 -1.878906 5.546875 -2.5 5.546875 -3.28125 C 5.546875 -4.050781 5.375 -4.664062 5.03125 -5.125 C 4.695312 -5.582031 4.242188 -5.8125 3.671875 -5.8125 Z M 3.671875 -6.71875 C 4.609375 -6.71875 5.34375 -6.410156 5.875 -5.796875 C 6.414062 -5.191406 6.6875 -4.351562 6.6875 -3.28125 C 6.6875 -2.207031 6.414062 -1.363281 5.875 -0.75 C 5.34375 -0.132812 4.609375 0.171875 3.671875 0.171875 C 2.734375 0.171875 1.992188 -0.132812 1.453125 -0.75 C 0.921875 -1.363281 0.65625 -2.207031 0.65625 -3.28125 C 0.65625 -4.351562 0.921875 -5.191406 1.453125 -5.796875 C 1.992188 -6.410156 2.734375 -6.71875 3.671875 -6.71875 Z M 3.671875 -6.71875 "/>
</symbol>
<symbol overflow="visible" id="zohmiIaN18-2">
<path style="stroke:none;" d="M 2.203125 -8.421875 L 2.203125 -6.5625 L 4.421875 -6.5625 L 4.421875 -5.71875 L 2.203125 -5.71875 L 2.203125 -2.15625 C 2.203125 -1.625 2.273438 -1.28125 2.421875 -1.125 C 2.566406 -0.976562 2.863281 -0.90625 3.3125 -0.90625 L 4.421875 -0.90625 L 4.421875 0 L 3.3125 0 C 2.476562 0 1.898438 -0.15625 1.578125 -0.46875 C 1.265625 -0.78125 1.109375 -1.34375 1.109375 -2.15625 L 1.109375 -5.71875 L 0.328125 -5.71875 L 0.328125 -6.5625 L 1.109375 -6.5625 L 1.109375 -8.421875 Z M 2.203125 -8.421875 "/>
</symbol>
</g>
<clipPath id="clip1">
  <path d="M 35 29 L 436 29 L 436 272.25 L 35 272.25 Z M 35 29 "/>
</clipPath>
<clipPath id="clip2">
  <path d="M 35 12 L 436 12 L 436 265 L 35 265 Z M 35 12 "/>
</clipPath>
</defs>
<g id="surface1">
<rect x="0" y="0" width="450" height="300" style="fill:rgb(10.196079%,10.196079%,10.196079%);fill-opacity:1;stroke:none;"/>
<path style="fill:none;stroke-width:1;stroke-linecap:butt;stroke-linejoin:miter;stroke:rgb(100%,100%,100%);stroke-opacity:0.09;stroke-miterlimit:10;" d="M 68.546875 363 L 68.546875 16 " transform="matrix(0.75,0,0,0.75,0,0)"/>
<path style="fill:none;stroke-width:1;stroke-linecap:butt;stroke-linejoin:miter;stroke:rgb(100%,100%,100%);stroke-opacity:0.09;stroke-miterlimit:10;" d="M 232.182292 363 L 232.182292 16 " transform="matrix(0.75,0,0,0.75,0,0)"/>
<path style="fill:none;stroke-width:1;stroke-linecap:butt;stroke-linejoin:miter;stroke:rgb(100%,100%,100%);stroke-opacity:0.09;stroke-miterlimit:10;" d="M 395.817708 363 L 395.817708 16 " transform="matrix(0.75,0,0,0.75,0,0)"/>
<path style="fill:none;stroke-width:1;stroke-linecap:butt;stroke-linejoin:miter;stroke:rgb(100%,100%,100%);stroke-opacity:0.09;stroke-miterlimit:10;" d="M 559.453125 363 L 559.453125 16 " transform="matrix(0.75,0,0,0.75,0,0)"/>
<path style="fill:none;stroke-width:1;stroke-linecap:butt;stroke-linejoin:miter;stroke:rgb(100%,100%,100%);stroke-opacity:0.09;stroke-miterlimit:10;" d="M 44 347.229167 L 584 347.229167 " transform="matrix(0.75,0,0,0.75,0,0)"/>
<path style="fill:none;stroke-width:1;stroke-linecap:butt;stroke-linejoin:miter;stroke:rgb(100%,100%,100%);stroke-opacity:0.09;stroke-miterlimit:10;" d="M 44 189.5 L 584 189.5 " transform="matrix(0.75,0,0,0.75,0,0)"/>
<path style="fill:none;stroke-width:1;stroke-linecap:butt;stroke-linejoin:miter;stroke:rgb(100%,100%,100%);stroke-opacity:0.09;stroke-miterlimit:10;" d="M 44 31.770833 L 584 31.770833 " transform="matrix(0.75,0,0,0.75,0,0)"/>
<g style="fill:rgb(45.09804%,45.09804%,45.09804%);fill-opacity:1;">
  <use xlink:href="#zohmiIaN0-1" x="47.988281" y="285.640625"/>
</g>
<g style="fill:rgb(45.09804%,45.09804%,45.09804%);fill-opacity:1;">
  <use xlink:href="#zohmiIaN1-1" x="170.871094" y="285.640625"/>
</g>
<g style="fill:rgb(45.09804%,45.09804%,45.09804%);fill-opacity:1;">
  <use xlink:href="#zohmiIaN2-1" x="293.648438" y="285.640625"/>
</g>
<g style="fill:rgb(45.09804%,45.09804%,45.09804%);fill-opacity:1;">
  <use xlink:href="#zohmiIaN1-2" x="416.253906" y="285.640625"/>
</g>
<g style="fill:rgb(45.09804%,45.09804%,45.09804%);fill-opacity:1;">
  <use xlink:href="#zohmiIaN0-1" x="11.753906" y="264.574219"/>
</g>
<g style="fill:rgb(45.09804%,45.09804%,45.09804%);fill-opacity:1;">
  <use xlink:href="#zohmiIaN0-2" x="19.386719" y="264.574219"/>
</g>
<g style="fill:rgb(45.09804%,45.09804%,45.09804%);fill-opacity:1;">
  <use xlink:href="#zohmiIaN0-1" x="23.203125" y="264.574219"/>
</g>
<g style="fill:rgb(45.09804%,45.09804%,45.09804%);fill-opacity:1;">
  <use xlink:href="#zohmiIaN1-3" x="12.140625" y="146.28125"/>
</g>
<g style="fill:rgb(45.09804%,45.09804%,45.09804%);fill-opacity:1;">
  <use xlink:href="#zohmiIaN0-2" x="19.773438" y="146.28125"/>
</g>
<g style="fill:rgb(45.09804%,45.09804%,45.09804%);fill-opacity:1;">
  <use xlink:href="#zohmiIaN0-3" x="23.589844" y="146.28125"/>
</g>
<g style="fill:rgb(45.09804%,45.09804%,45.09804%);fill-opacity:1;">
  <use xlink:href="#zohmiIaN3-1" x="11.753906" y="27.984375"/>
</g>
<g style="fill:rgb(45.09804%,45.09804%,45.09804%);fill-opacity:1;">
  <use xlink:href="#zohmiIaN3-2" x="19.386719" y="27.984375"/>
</g>
<g style="fill:rgb(45.09804%,45.09804%,45.09804%);fill-opacity:1;">
  <use xlink:href="#zohmiIaN3-3" x="23.203125" y="27.984375"/>
</g>
<path style="fill:none;stroke-width:1.5;stroke-linecap:butt;stroke-linejoin:miter;stroke:rgb(100%,25.490198%,5.098039%);stroke-opacity:1;stroke-miterlimit:10;" d="M 68.546875 31.770833 L 68.546875 62.776042 L 85.473958 62.776042 L 85.473958 90.729167 L 102.401042 90.729167 L 102.401042 115.9375 L 119.328125 115.9375 L 119.328125 138.666667 L 136.255208 138.666667 L 136.255208 159.166667 L 153.1875 159.166667 L 153.1875 177.645833 L 170.114583 177.645833 L 170.114583 194.3125 L 187.041667 194.3125 L 187.041667 209.338542 L 203.96875 209.338542 L 203.96875 222.890625 L 220.895833 222.890625 L 220.895833 235.109375 L 237.822917 235.109375 L 237.822917 246.130208 L 254.75 246.130208 L 254.75 256.067708 L 271.682292 256.067708 L 271.682292 265.026042 L 288.609375 265.026042 L 288.609375 273.104167 L 305.536458 273.104167 L 305.536458 280.390625 L 322.463542 280.390625 L 322.463542 286.958333 L 339.390625 286.958333 L 339.390625 292.880208 L 356.317708 292.880208 L 356.317708 298.21875 L 373.25 298.21875 L 373.25 303.036458 L 390.177083 303.036458 L 390.177083 307.380208 L 407.104167 307.380208 L 407.104167 311.296875 L 424.03125 311.296875 L 424.03125 314.828125 L 440.958333 314.828125 L 440.958333 318.010417 L 457.885417 318.010417 L 457.885417 320.885417 L 474.8125 320.885417 L 474.8125 323.473958 L 491.744792 323.473958 L 491.744792 325.807292 L 508.671875 325.807292 L 508.671875 327.911458 L 525.598958 327.911458 L 525.598958 329.8125 L 542.526042 329.8125 L 542.526042 331.520833 L 559.453125 331.520833 " transform="matrix(0.75,0,0,0.75,0,0)"/>
<path style="fill:none;stroke-width:1.5;stroke-linecap:butt;stroke-linejoin:miter;stroke:rgb(43.137255%,88.627452%,100%);stroke-opacity:1;stroke-miterlimit:10;" d="M 68.546875 31.770833 L 77.010417 31.770833 L 77.010417 62.776042 L 93.9375 62.776042 L 93.9375 90.729167 L 110.864583 90.729167 L 110.864583 115.9375 L 127.791667 115.9375 L 127.791667 138.666667 L 144.71875 138.666667 L 144.71875 159.166667 L 161.651042 159.166667 L 161.651042 177.645833 L 178.578125 177.645833 L 178.578125 194.3125 L 195.505208 194.3125 L 195.505208 209.338542 L 212.432292 209.338542 L 212.432292 222.890625 L 229.359375 222.890625 L 229.359375 235.109375 L 246.286458 235.109375 L 246.286458 246.130208 L 263.21875 246.130208 L 263.21875 256.067708 L 280.145833 256.067708 L 280.145833 265.026042 L 297.072917 265.026042 L 297.072917 273.104167 L 314 273.104167 L 314 280.390625 L 330.927083 280.390625 L 330.927083 286.958333 L 347.854167 286.958333 L 347.854167 292.880208 L 364.78125 292.880208 L 364.78125 298.21875 L 381.713542 298.21875 L 381.713542 303.036458 L 398.640625 303.036458 L 398.640625 307.380208 L 415.567708 307.380208 L 415.567708 311.296875 L 432.494792 311.296875 L 432.494792 314.828125 L 449.421875 314.828125 L 449.421875 318.010417 L 466.348958 318.010417 L 466.348958 320.885417 L 483.28125 320.885417 L 483.28125 323.473958 L 500.208333 323.473958 L 500.208333 325.807292 L 517.135417 325.807292 L 517.135417 327.911458 L 534.0625 327.911458 L 534.0625 329.8125 L 550.989583 329.8125 L 550.989583 331.520833 L 559.453125 331.520833 " transform="matrix(0.75,0,0,0.75,0,0)"/>
<path style="fill:none;stroke-width:1.5;stroke-linecap:butt;stroke-linejoin:miter;stroke:rgb(96.862745%,77.254903%,18.82353%);stroke-opacity:1;stroke-miterlimit:10;" d="M 68.546875 31.770833 L 85.473958 31.770833 L 85.473958 62.776042 L 102.401042 62.776042 L 102.401042 90.729167 L 119.328125 90.729167 L 119.328125 115.9375 L 136.255208 115.9375 L 136.255208 138.666667 L 153.1875 138.666667 L 153.1875 159.166667 L 170.114583 159.166667 L 170.114583 177.645833 L 187.041667 177.645833 L 187.041667 194.3125 L 203.96875 194.3125 L 203.96875 209.338542 L 220.895833 209.338542 L 220.895833 222.890625 L 237.822917 222.890625 L 237.822917 235.109375 L 254.75 235.109375 L 254.75 246.130208 L 271.682292 246.130208 L 271.682292 256.067708 L 288.609375 256.067708 L 288.609375 265.026042 L 305.536458 265.026042 L 305.536458 273.104167 L 322.463542 273.104167 L 322.463542 280.390625 L 339.390625 280.390625 L 339.390625 286.958333 L 356.317708 286.958333 L 356.317708 292.880208 L 373.25 292.880208 L 373.25 298.21875 L 390.177083 298.21875 L 390.177083 303.036458 L 407.104167 303.036458 L 407.104167 307.380208 L 424.03125 307.380208 L 424.03125 311.296875 L 440.958333 311.296875 L 440.958333 314.828125 L 457.885417 314.828125 L 457.885417 318.010417 L 474.8125 318.010417 L 474.8125 320.885417 L 491.744792 320.885417 L 491.744792 323.473958 L 508.671875 323.473958 L 508.671875 325.807292 L 525.598958 325.807292 L 525.598958 327.911458 L 542.526042 327.911458 L 542.526042 329.8125 L 559.453125 329.8125 L 559.453125 331.520833 " transform="matrix(0.75,0,0,0.75,0,0)"/>
<path style="fill:none;stroke-width:1.5;stroke-linecap:butt;stroke-linejoin:miter;stroke:rgb(58.431375%,80.000001%,36.862746%);stroke-opacity:1;stroke-miterlimit:10;" d="M 68.546875 347.229167 L 68.546875 274.171875 L 85.473958 274.171875 L 85.473958 206.333333 L 102.401042 206.333333 L 102.401042 148.317708 L 119.328125 148.317708 L 119.328125 103.598958 L 136.255208 103.598958 L 136.255208 74.171875 L 153.1875 74.171875 L 153.1875 60.473958 L 170.114583 60.473958 L 170.114583 61.46875 L 187.041667 61.46875 L 187.041667 74.958333 L 203.96875 74.958333 L 203.96875 97.979167 L 220.895833 97.979167 L 220.895833 127.265625 L 237.822917 127.265625 L 237.822917 159.661458 L 254.75 159.661458 L 254.75 192.40625 L 271.682292 192.40625 L 271.682292 223.364583 L 288.609375 223.364583 L 288.609375 251.072917 L 305.536458 251.072917 L 305.536458 274.75 L 322.463542 274.75 L 322.463542 294.140625 L 339.390625 294.140625 L 339.390625 309.421875 L 356.317708 309.421875 L 356.317708 321.041667 L 373.25 321.041667 L 373.25 329.578125 L 390.177083 329.578125 L 390.177083 335.651042 L 407.104167 335.651042 L 407.104167 339.833333 L 424.03125 339.833333 L 424.03125 342.630208 L 440.958333 342.630208 L 440.958333 344.442708 L 457.885417 344.442708 L 457.885417 345.583333 L 474.8125 345.583333 L 474.8125 346.28125 L 491.744792 346.28125 L 491.744792 346.697917 L 508.671875 346.697917 L 508.671875 346.9375 L 525.598958 346.9375 L 525.598958 347.072917 L 542.526042 347.072917 L 542.526042 347.145833 L 559.453125 347.145833 " transform="matrix(0.75,0,0,0.75,0,0)"/>
<path style="fill:none;stroke-width:1.5;stroke-linecap:butt;stroke-linejoin:miter;stroke:rgb(81.568629%,87.450981%,90.196079%);stroke-opacity:1;stroke-miterlimit:10;" d="M 68.546875 347.229167 L 77.010417 347.229167 L 77.010417 274.171875 L 93.9375 274.171875 L 93.9375 206.333333 L 110.864583 206.333333 L 110.864583 148.317708 L 127.791667 148.317708 L 127.791667 103.598958 L 144.71875 103.598958 L 144.71875 74.171875 L 161.651042 74.171875 L 161.651042 60.473958 L 178.578125 60.473958 L 178.578125 61.46875 L 195.505208 61.46875 L 195.505208 74.958333 L 212.432292 74.958333 L 212.432292 97.979167 L 229.359375 97.979167 L 229.359375 127.265625 L 246.286458 127.265625 L 246.286458 159.661458 L 263.21875 159.661458 L 263.21875 192.40625 L 280.145833 192.40625 L 280.145833 223.364583 L 297.072917 223.364583 L 297.072917 251.072917 L 314 251.072917 L 314 274.75 L 330.927083 274.75 L 330.927083 294.140625 L 347.854167 294.140625 L 347.854167 309.421875 L 364.78125 309.421875 L 364.78125 321.041667 L 381.713542 321.041667 L 381.713542 329.578125 L 398.640625 329.578125 L 398.640625 335.651042 L 415.567708 335.651042 L 415.567708 339.833333 L 432.494792 339.833333 L 432.494792 342.630208 L 449.421875 342.630208 L 449.421875 344.442708 L 466.348958 344.442708 L 466.348958 345.583333 L 483.28125 345.583333 L 483.28125 346.28125 L 500.208333 346.28125 L 500.208333 346.697917 L 517.135417 346.697917 L 517.135417 346.9375 L 534.0625 346.9375 L 534.0625 347.072917 L 550.989583 347.072917 L 550.989583 347.145833 L 559.453125 347.145833 " transform="matrix(0.75,0,0,0.75,0,0)"/>
<path style="fill:none;stroke-width:1.5;stroke-linecap:butt;stroke-linejoin:miter;stroke:rgb(96.862745%,61.56863%,11.764706%);stroke-opacity:1;stroke-miterlimit:10;" d="M 68.546875 347.229167 L 85.473958 347.229167 L 85.473958 274.171875 L 102.401042 274.171875 L 102.401042 206.333333 L 119.328125 206.333333 L 119.328125 148.317708 L 136.255208 148.317708 L 136.255208 103.598958 L 153.1875 103.598958 L 153.1875 74.171875 L 170.114583 74.171875 L 170.114583 60.473958 L 187.041667 60.473958 L 187.041667 61.46875 L 203.96875 61.46875 L 203.96875 74.958333 L 220.895833 74.958333 L 220.895833 97.979167 L 237.822917 97.979167 L 237.822917 127.265625 L 254.75 127.265625 L 254.75 159.661458 L 271.682292 159.661458 L 271.682292 192.40625 L 288.609375 192.40625 L 288.609375 223.364583 L 305.536458 223.364583 L 305.536458 251.072917 L 322.463542 251.072917 L 322.463542 274.75 L 339.390625 274.75 L 339.390625 294.140625 L 356.317708 294.140625 L 356.317708 309.421875 L 373.25 309.421875 L 373.25 321.041667 L 390.177083 321.041667 L 390.177083 329.578125 L 407.104167 329.578125 L 407.104167 335.651042 L 424.03125 335.651042 L 424.03125 339.833333 L 440.958333 339.833333 L 440.958333 342.630208 L 457.885417 342.630208 L 457.885417 344.442708 L 474.8125 344.442708 L 474.8125 345.583333 L 491.744792 345.583333 L 491.744792 346.28125 L 508.671875 346.28125 L 508.671875 346.697917 L 525.598958 346.697917 L 525.598958 346.9375 L 542.526042 346.9375 L 542.526042 347.072917 L 559.453125 347.072917 L 559.453125 347.145833 " transform="matrix(0.75,0,0,0.75,0,0)"/>
<g clip-path="url(#clip1)" clip-rule="nonzero">
<path style="fill:none;stroke-width:1.5;stroke-linecap:butt;stroke-linejoin:miter;stroke:rgb(89.803922%,89.803922%,89.803922%);stroke-opacity:1;stroke-miterlimit:10;" d="M 68.546875 347.229167 L 85.473958 274.171875 L 102.401042 206.333333 L 119.328125 148.317708 L 136.255208 103.598958 L 153.1875 74.171875 L 170.114583 60.473958 L 187.041667 61.46875 L 203.96875 74.958333 L 220.895833 97.979167 L 237.822917 127.265625 L 254.75 159.661458 L 271.682292 192.40625 L 288.609375 223.364583 L 305.536458 251.072917 L 322.463542 274.75 L 339.390625 294.140625 L 356.317708 309.421875 L 373.25 321.041667 L 390.177083 329.578125 L 407.104167 335.651042 L 424.03125 339.833333 L 440.958333 342.630208 L 457.885417 344.442708 L 474.8125 345.583333 L 491.744792 346.28125 L 508.671875 346.697917 L 525.598958 346.9375 L 542.526042 347.072917 L 559.453125 347.145833 " transform="matrix(0.75,0,0,0.75,0,0)"/>
</g>
<g clip-path="url(#clip2)" clip-rule="nonzero">
<path style="fill:none;stroke-width:1.5;stroke-linecap:butt;stroke-linejoin:miter;stroke:rgb(70.19608%,70.19608%,70.19608%);stroke-opacity:1;stroke-miterlimit:10;" d="M 68.546875 31.770833 L 85.473958 62.776042 L 102.401042 90.729167 L 119.328125 115.9375 L 136.255208 138.666667 L 153.1875 159.166667 L 170.114583 177.645833 L 187.041667 194.3125 L 203.96875 209.338542 L 220.895833 222.890625 L 237.822917 235.109375 L 254.75 246.130208 L 271.682292 256.067708 L 288.609375 265.026042 L 305.536458 273.104167 L 322.463542 280.390625 L 339.390625 286.958333 L 356.317708 292.880208 L 373.25 298.21875 L 390.177083 303.036458 L 407.104167 307.380208 L 424.03125 311.296875 L 440.958333 314.828125 L 457.885417 318.010417 L 474.8125 320.885417 L 491.744792 323.473958 L 508.671875 325.807292 L 525.598958 327.911458 L 542.526042 329.8125 L 559.453125 331.520833 " transform="matrix(0.75,0,0,0.75,0,0)"/>
</g>
<g style="fill:rgb(100%,100%,100%);fill-opacity:1;">
  <use xlink:href="#zohmiIaN4-1" x="137.109375" y="30.914062"/>
</g>
<g style="fill:rgb(100%,100%,100%);fill-opacity:1;">
  <use xlink:href="#zohmiIaN5-1" x="144.773438" y="30.914062"/>
</g>
<g style="fill:rgb(100%,100%,100%);fill-opacity:1;">
  <use xlink:href="#zohmiIaN4-2" x="150.609375" y="30.914062"/>
</g>
<g style="fill:rgb(100%,100%,100%);fill-opacity:1;">
  <use xlink:href="#zohmiIaN5-2" x="156.742188" y="30.914062"/>
</g>
<g style="fill:rgb(100%,100%,100%);fill-opacity:1;">
  <use xlink:href="#zohmiIaN6-1" x="165.578125" y="30.914062"/>
</g>
<g style="fill:rgb(100%,100%,100%);fill-opacity:1;">
  <use xlink:href="#zohmiIaN5-1" x="180.25" y="30.914062"/>
</g>
<g style="fill:rgb(100%,100%,100%);fill-opacity:1;">
  <use xlink:href="#zohmiIaN6-2" x="186.082031" y="30.914062"/>
</g>
<g style="fill:rgb(100%,100%,100%);fill-opacity:1;">
  <use xlink:href="#zohmiIaN6-3" x="197.453125" y="30.914062"/>
</g>
<g style="fill:rgb(100%,100%,100%);fill-opacity:1;">
  <use xlink:href="#zohmiIaN5-3" x="212.125" y="30.914062"/>
</g>
<g style="fill:rgb(100%,100%,100%);fill-opacity:1;">
  <use xlink:href="#zohmiIaN5-2" x="219.625" y="30.914062"/>
</g>
<g style="fill:rgb(100%,100%,100%);fill-opacity:1;">
  <use xlink:href="#zohmiIaN4-3" x="225.457031" y="30.914062"/>
</g>
<g style="fill:rgb(100%,100%,100%);fill-opacity:1;">
  <use xlink:href="#zohmiIaN7-1" x="233.125" y="33.914062"/>
</g>
<g style="fill:rgb(100%,100%,100%);fill-opacity:1;">
  <use xlink:href="#zohmiIaN4-2" x="240.644531" y="30.914062"/>
</g>
<g style="fill:rgb(100%,100%,100%);fill-opacity:1;">
  <use xlink:href="#zohmiIaN7-1" x="246.78125" y="22.664062"/>
</g>
<g style="fill:rgb(100%,100%,100%);fill-opacity:1;">
  <use xlink:href="#zohmiIaN5-4" x="251.800781" y="30.914062"/>
</g>
<g style="fill:rgb(100%,100%,100%);fill-opacity:1;">
  <use xlink:href="#zohmiIaN5-5" x="258.460938" y="30.914062"/>
</g>
<g style="fill:rgb(100%,100%,100%);fill-opacity:1;">
  <use xlink:href="#zohmiIaN5-6" x="266.382812" y="30.914062"/>
</g>
<g style="fill:rgb(100%,100%,100%);fill-opacity:1;">
  <use xlink:href="#zohmiIaN5-1" x="274.722656" y="30.914062"/>
</g>
<g style="fill:rgb(100%,100%,100%);fill-opacity:1;">
  <use xlink:href="#zohmiIaN6-4" x="283.558594" y="30.914062"/>
</g>
<g style="fill:rgb(100%,100%,100%);fill-opacity:1;">
  <use xlink:href="#zohmiIaN4-3" x="298.226562" y="30.914062"/>
</g>
<g style="fill:rgb(100%,100%,100%);fill-opacity:1;">
  <use xlink:href="#zohmiIaN7-1" x="305.890625" y="33.914062"/>
</g>
<g style="fill:rgb(100%,100%,100%);fill-opacity:1;">
  <use xlink:href="#zohmiIaN4-2" x="310.914062" y="30.914062"/>
</g>
<g style="fill:rgb(100%,100%,100%);fill-opacity:1;">
  <use xlink:href="#zohmiIaN7-1" x="317.050781" y="21.941406"/>
</g>
<g style="fill:rgb(100%,100%,100%);fill-opacity:1;">
  <use xlink:href="#zohmiIaN7-2" x="323.871094" y="21.941406"/>
</g>
<g style="fill:rgb(100%,100%,100%);fill-opacity:1;">
  <use xlink:href="#zohmiIaN8-1" x="332.671875" y="21.941406"/>
</g>
<g style="fill:rgb(100%,100%,100%);fill-opacity:1;">
  <use xlink:href="#zohmiIaN5-2" x="337.171875" y="30.914062"/>
</g>
<g style="fill:rgb(100%,100%,100%);fill-opacity:1;">
  <use xlink:href="#zohmiIaN4-3" x="258.574219" y="196.527344"/>
</g>
<g style="fill:rgb(100%,100%,100%);fill-opacity:1;">
  <use xlink:href="#zohmiIaN7-1" x="266.242188" y="199.527344"/>
</g>
<g style="fill:rgb(100%,100%,100%);fill-opacity:1;">
  <use xlink:href="#zohmiIaN6-1" x="274.261719" y="196.527344"/>
</g>
<g style="fill:rgb(100%,100%,100%);fill-opacity:1;">
  <use xlink:href="#zohmiIaN6-5" x="288.933594" y="196.527344"/>
</g>
<g style="fill:rgb(100%,100%,100%);fill-opacity:1;">
  <use xlink:href="#zohmiIaN5-7" x="298.308594" y="196.527344"/>
</g>
<g style="fill:rgb(100%,100%,100%);fill-opacity:1;">
  <use xlink:href="#zohmiIaN5-1" x="302.476562" y="196.527344"/>
</g>
<g style="fill:rgb(100%,100%,100%);fill-opacity:1;">
  <use xlink:href="#zohmiIaN6-2" x="308.3125" y="196.527344"/>
</g>
<g style="fill:rgb(100%,100%,100%);fill-opacity:1;">
  <use xlink:href="#zohmiIaN6-3" x="319.683594" y="196.527344"/>
</g>
<g style="fill:rgb(100%,100%,100%);fill-opacity:1;">
  <use xlink:href="#zohmiIaN5-8" x="334.351562" y="196.527344"/>
</g>
<g style="fill:rgb(100%,100%,100%);fill-opacity:1;">
  <use xlink:href="#zohmiIaN5-2" x="341.851562" y="196.527344"/>
</g>
<g style="fill:rgb(100%,100%,100%);fill-opacity:1;">
  <use xlink:href="#zohmiIaN5-9" x="347.6875" y="196.527344"/>
</g>
<g style="fill:rgb(100%,100%,100%);fill-opacity:1;">
  <use xlink:href="#zohmiIaN5-1" x="355.1875" y="196.527344"/>
</g>
<g style="fill:rgb(100%,100%,100%);fill-opacity:1;">
  <use xlink:href="#zohmiIaN6-2" x="361.023438" y="196.527344"/>
</g>
<g style="fill:rgb(100%,100%,100%);fill-opacity:1;">
  <use xlink:href="#zohmiIaN6-3" x="372.390625" y="196.527344"/>
</g>
<g style="fill:rgb(100%,100%,100%);fill-opacity:1;">
  <use xlink:href="#zohmiIaN5-3" x="387.0625" y="196.527344"/>
</g>
<g style="fill:rgb(100%,100%,100%);fill-opacity:1;">
  <use xlink:href="#zohmiIaN5-2" x="394.5625" y="196.527344"/>
</g>
<g style="fill:rgb(100%,100%,100%);fill-opacity:1;">
  <use xlink:href="#zohmiIaN5-10" x="400.398437" y="196.527344"/>
</g>
<g style="fill:rgb(100%,100%,100%);fill-opacity:1;">
  <use xlink:href="#zohmiIaN7-1" x="404.566406" y="187.886719"/>
</g>
<g style="fill:rgb(100%,100%,100%);fill-opacity:1;">
  <use xlink:href="#zohmiIaN7-2" x="411.390625" y="187.886719"/>
</g>
<g style="fill:rgb(100%,100%,100%);fill-opacity:1;">
  <use xlink:href="#zohmiIaN8-1" x="420.191406" y="187.886719"/>
</g>
<g style="fill:rgb(45.09804%,45.09804%,45.09804%);fill-opacity:1;">
  <use xlink:href="#zohmiIaN9-1" x="372.3125" y="30.777344"/>
</g>
<g style="fill:rgb(45.09804%,45.09804%,45.09804%);fill-opacity:1;">
  <use xlink:href="#zohmiIaN10-1" x="379.972656" y="30.777344"/>
</g>
<g style="fill:rgb(45.09804%,45.09804%,45.09804%);fill-opacity:1;">
  <use xlink:href="#zohmiIaN9-2" x="383.785156" y="30.777344"/>
</g>
<g style="fill:rgb(45.09804%,45.09804%,45.09804%);fill-opacity:1;">
  <use xlink:href="#zohmiIaN9-3" x="387.601562" y="30.777344"/>
</g>
<g style="fill:rgb(45.09804%,45.09804%,45.09804%);fill-opacity:1;">
  <use xlink:href="#zohmiIaN9-4" x="393.851562" y="30.777344"/>
</g>
<g style="fill:rgb(45.09804%,45.09804%,45.09804%);fill-opacity:1;">
  <use xlink:href="#zohmiIaN10-2" x="398.558594" y="30.777344"/>
</g>
<g style="fill:rgb(45.09804%,45.09804%,45.09804%);fill-opacity:1;">
  <use xlink:href="#zohmiIaN11-1" x="405.941406" y="30.777344"/>
</g>
<g style="fill:rgb(45.09804%,45.09804%,45.09804%);fill-opacity:1;">
  <use xlink:href="#zohmiIaN12-1" x="372.648438" y="51.261719"/>
</g>
<g style="fill:rgb(45.09804%,45.09804%,45.09804%);fill-opacity:1;">
  <use xlink:href="#zohmiIaN13-1" x="380.28125" y="51.261719"/>
</g>
<g style="fill:rgb(45.09804%,45.09804%,45.09804%);fill-opacity:1;">
  <use xlink:href="#zohmiIaN14-1" x="384.097656" y="51.261719"/>
</g>
<g style="fill:rgb(45.09804%,45.09804%,45.09804%);fill-opacity:1;">
  <use xlink:href="#zohmiIaN14-2" x="387.910156" y="51.261719"/>
</g>
<g style="fill:rgb(45.09804%,45.09804%,45.09804%);fill-opacity:1;">
  <use xlink:href="#zohmiIaN13-2" x="391.953125" y="51.261719"/>
</g>
<g style="fill:rgb(45.09804%,45.09804%,45.09804%);fill-opacity:1;">
  <use xlink:href="#zohmiIaN15-1" x="399.570312" y="51.261719"/>
</g>
<g style="fill:rgb(45.09804%,45.09804%,45.09804%);fill-opacity:1;">
  <use xlink:href="#zohmiIaN14-3" x="404.503906" y="51.261719"/>
</g>
<path style="fill:none;stroke-width:1.5;stroke-linecap:butt;stroke-linejoin:miter;stroke:rgb(100%,25.490198%,5.098039%);stroke-opacity:1;stroke-miterlimit:10;" d="M 472.916667 62.8125 L 492.916667 62.8125 " transform="matrix(0.75,0,0,0.75,0,0)"/>
<g style="fill:rgb(45.09804%,45.09804%,45.09804%);fill-opacity:1;">
  <use xlink:href="#zohmiIaN0-1" x="372.648438" y="68.515625"/>
</g>
<g style="fill:rgb(45.09804%,45.09804%,45.09804%);fill-opacity:1;">
  <use xlink:href="#zohmiIaN16-1" x="380.28125" y="68.515625"/>
</g>
<g style="fill:rgb(45.09804%,45.09804%,45.09804%);fill-opacity:1;">
  <use xlink:href="#zohmiIaN1-4" x="384.097656" y="68.515625"/>
</g>
<g style="fill:rgb(45.09804%,45.09804%,45.09804%);fill-opacity:1;">
  <use xlink:href="#zohmiIaN1-5" x="387.910156" y="68.515625"/>
</g>
<g style="fill:rgb(45.09804%,45.09804%,45.09804%);fill-opacity:1;">
  <use xlink:href="#zohmiIaN16-2" x="391.953125" y="68.515625"/>
</g>
<g style="fill:rgb(45.09804%,45.09804%,45.09804%);fill-opacity:1;">
  <use xlink:href="#zohmiIaN17-1" x="398.550781" y="68.515625"/>
</g>
<g style="fill:rgb(45.09804%,45.09804%,45.09804%);fill-opacity:1;">
  <use xlink:href="#zohmiIaN1-6" x="405.933594" y="68.515625"/>
</g>
<g style="fill:rgb(45.09804%,45.09804%,45.09804%);fill-opacity:1;">
  <use xlink:href="#zohmiIaN1-7" x="413.539062" y="68.515625"/>
</g>
<g style="fill:rgb(45.09804%,45.09804%,45.09804%);fill-opacity:1;">
  <use xlink:href="#zohmiIaN1-8" x="418.246094" y="68.515625"/>
</g>
<g style="fill:rgb(45.09804%,45.09804%,45.09804%);fill-opacity:1;">
  <use xlink:href="#zohmiIaN1-9" x="425.628906" y="68.515625"/>
</g>
<path style="fill:none;stroke-width:1.5;stroke-linecap:butt;stroke-linejoin:miter;stroke:rgb(43.137255%,88.627452%,100%);stroke-opacity:1;stroke-miterlimit:10;" d="M 472.916667 85.8125 L 492.916667 85.8125 " transform="matrix(0.75,0,0,0.75,0,0)"/>
<g style="fill:rgb(45.09804%,45.09804%,45.09804%);fill-opacity:1;">
  <use xlink:href="#zohmiIaN0-1" x="372.648438" y="85.765625"/>
</g>
<g style="fill:rgb(45.09804%,45.09804%,45.09804%);fill-opacity:1;">
  <use xlink:href="#zohmiIaN16-1" x="380.28125" y="85.765625"/>
</g>
<g style="fill:rgb(45.09804%,45.09804%,45.09804%);fill-opacity:1;">
  <use xlink:href="#zohmiIaN1-4" x="384.097656" y="85.765625"/>
</g>
<g style="fill:rgb(45.09804%,45.09804%,45.09804%);fill-opacity:1;">
  <use xlink:href="#zohmiIaN1-5" x="387.910156" y="85.765625"/>
</g>
<g style="fill:rgb(45.09804%,45.09804%,45.09804%);fill-opacity:1;">
  <use xlink:href="#zohmiIaN16-3" x="391.953125" y="85.765625"/>
</g>
<g style="fill:rgb(45.09804%,45.09804%,45.09804%);fill-opacity:1;">
  <use xlink:href="#zohmiIaN18-1" x="399.570312" y="85.765625"/>
</g>
<g style="fill:rgb(45.09804%,45.09804%,45.09804%);fill-opacity:1;">
  <use xlink:href="#zohmiIaN1-10" x="406.914062" y="85.765625"/>
</g>
<g style="fill:rgb(45.09804%,45.09804%,45.09804%);fill-opacity:1;">
  <use xlink:href="#zohmiIaN18-2" x="413.164062" y="85.765625"/>
</g>
<path style="fill:none;stroke-width:1.5;stroke-linecap:butt;stroke-linejoin:miter;stroke:rgb(96.862745%,77.254903%,18.82353%);stroke-opacity:1;stroke-miterlimit:10;" d="M 472.916667 108.8125 L 492.916667 108.8125 " transform="matrix(0.75,0,0,0.75,0,0)"/>
<g style="fill:rgb(45.09804%,45.09804%,45.09804%);fill-opacity:1;">
  <use xlink:href="#zohmiIaN0-4" x="372.121094" y="103.015625"/>
</g>
<g style="fill:rgb(45.09804%,45.09804%,45.09804%);fill-opacity:1;">
  <use xlink:href="#zohmiIaN16-1" x="379.753906" y="103.015625"/>
</g>
<g style="fill:rgb(45.09804%,45.09804%,45.09804%);fill-opacity:1;">
  <use xlink:href="#zohmiIaN1-4" x="383.570312" y="103.015625"/>
</g>
<g style="fill:rgb(45.09804%,45.09804%,45.09804%);fill-opacity:1;">
  <use xlink:href="#zohmiIaN1-5" x="387.382812" y="103.015625"/>
</g>
<g style="fill:rgb(45.09804%,45.09804%,45.09804%);fill-opacity:1;">
  <use xlink:href="#zohmiIaN0-5" x="391.425781" y="103.015625"/>
</g>
<g style="fill:rgb(45.09804%,45.09804%,45.09804%);fill-opacity:1;">
  <use xlink:href="#zohmiIaN17-2" x="399.042969" y="103.015625"/>
</g>
<g style="fill:rgb(45.09804%,45.09804%,45.09804%);fill-opacity:1;">
  <use xlink:href="#zohmiIaN1-8" x="403.976562" y="103.015625"/>
</g>
<path style="fill:none;stroke-width:1.5;stroke-linecap:butt;stroke-linejoin:miter;stroke:rgb(58.431375%,80.000001%,36.862746%);stroke-opacity:1;stroke-miterlimit:10;" d="M 472.916667 131.8125 L 492.916667 131.8125 " transform="matrix(0.75,0,0,0.75,0,0)"/>
<g style="fill:rgb(45.09804%,45.09804%,45.09804%);fill-opacity:1;">
  <use xlink:href="#zohmiIaN0-4" x="372.121094" y="120.265625"/>
</g>
<g style="fill:rgb(45.09804%,45.09804%,45.09804%);fill-opacity:1;">
  <use xlink:href="#zohmiIaN16-1" x="379.753906" y="120.265625"/>
</g>
<g style="fill:rgb(45.09804%,45.09804%,45.09804%);fill-opacity:1;">
  <use xlink:href="#zohmiIaN1-4" x="383.570312" y="120.265625"/>
</g>
<g style="fill:rgb(45.09804%,45.09804%,45.09804%);fill-opacity:1;">
  <use xlink:href="#zohmiIaN1-5" x="387.382812" y="120.265625"/>
</g>
<g style="fill:rgb(45.09804%,45.09804%,45.09804%);fill-opacity:1;">
  <use xlink:href="#zohmiIaN0-6" x="391.425781" y="120.265625"/>
</g>
<g style="fill:rgb(45.09804%,45.09804%,45.09804%);fill-opacity:1;">
  <use xlink:href="#zohmiIaN1-8" x="398.023438" y="120.265625"/>
</g>
<g style="fill:rgb(45.09804%,45.09804%,45.09804%);fill-opacity:1;">
  <use xlink:href="#zohmiIaN1-6" x="405.40625" y="120.265625"/>
</g>
<g style="fill:rgb(45.09804%,45.09804%,45.09804%);fill-opacity:1;">
  <use xlink:href="#zohmiIaN1-7" x="413.011719" y="120.265625"/>
</g>
<g style="fill:rgb(45.09804%,45.09804%,45.09804%);fill-opacity:1;">
  <use xlink:href="#zohmiIaN1-8" x="417.71875" y="120.265625"/>
</g>
<g style="fill:rgb(45.09804%,45.09804%,45.09804%);fill-opacity:1;">
  <use xlink:href="#zohmiIaN1-9" x="425.101562" y="120.265625"/>
</g>
<path style="fill:none;stroke-width:1.5;stroke-linecap:butt;stroke-linejoin:miter;stroke:rgb(81.568629%,87.450981%,90.196079%);stroke-opacity:1;stroke-miterlimit:10;" d="M 472.916667 154.8125 L 492.916667 154.8125 " transform="matrix(0.75,0,0,0.75,0,0)"/>
<g style="fill:rgb(45.09804%,45.09804%,45.09804%);fill-opacity:1;">
  <use xlink:href="#zohmiIaN0-4" x="372.121094" y="137.515625"/>
</g>
<g style="fill:rgb(45.09804%,45.09804%,45.09804%);fill-opacity:1;">
  <use xlink:href="#zohmiIaN16-1" x="379.753906" y="137.515625"/>
</g>
<g style="fill:rgb(45.09804%,45.09804%,45.09804%);fill-opacity:1;">
  <use xlink:href="#zohmiIaN1-4" x="383.570312" y="137.515625"/>
</g>
<g style="fill:rgb(45.09804%,45.09804%,45.09804%);fill-opacity:1;">
  <use xlink:href="#zohmiIaN1-5" x="387.382812" y="137.515625"/>
</g>
<g style="fill:rgb(45.09804%,45.09804%,45.09804%);fill-opacity:1;">
  <use xlink:href="#zohmiIaN0-5" x="391.425781" y="137.515625"/>
</g>
<g style="fill:rgb(45.09804%,45.09804%,45.09804%);fill-opacity:1;">
  <use xlink:href="#zohmiIaN17-3" x="399.042969" y="137.515625"/>
</g>
<g style="fill:rgb(45.09804%,45.09804%,45.09804%);fill-opacity:1;">
  <use xlink:href="#zohmiIaN1-10" x="406.386719" y="137.515625"/>
</g>
<g style="fill:rgb(45.09804%,45.09804%,45.09804%);fill-opacity:1;">
  <use xlink:href="#zohmiIaN17-4" x="412.636719" y="137.515625"/>
</g>
<path style="fill:none;stroke-width:1.5;stroke-linecap:butt;stroke-linejoin:miter;stroke:rgb(96.862745%,61.56863%,11.764706%);stroke-opacity:1;stroke-miterlimit:10;" d="M 472.916667 177.8125 L 492.916667 177.8125 " transform="matrix(0.75,0,0,0.75,0,0)"/>
</g>
</svg>
