<?xml version="1.0" encoding="UTF-8"?>
<svg xmlns="http://www.w3.org/2000/svg" xmlns:xlink="http://www.w3.org/1999/xlink" width="450pt" height="300pt" viewBox="0 0 450 300" version="1.1">
<g id="surface1">
<rect x="0" y="0" width="450" height="300" style="fill:rgb(10.196079%,10.196079%,10.196079%);fill-opacity:1;stroke:none;"/>
<path style="fill:none;stroke-width:1;stroke-linecap:butt;stroke-linejoin:miter;stroke:rgb(100%,100%,100%);stroke-opacity:0.09;stroke-miterlimit:10;" d="M 24.890625 384 L 24.890625 16 " transform="matrix(0.75,0,0,0.75,0,0)"/>
<path style="fill:none;stroke-width:1;stroke-linecap:butt;stroke-linejoin:miter;stroke:rgb(100%,100%,100%);stroke-opacity:0.09;stroke-miterlimit:10;" d="M 137.755208 384 L 137.755208 16 " transform="matrix(0.75,0,0,0.75,0,0)"/>
<path style="fill:none;stroke-width:1;stroke-linecap:butt;stroke-linejoin:miter;stroke:rgb(100%,100%,100%);stroke-opacity:0.09;stroke-miterlimit:10;" d="M 250.619792 384 L 250.619792 16 " transform="matrix(0.75,0,0,0.75,0,0)"/>
<path style="fill:none;stroke-width:1;stroke-linecap:butt;stroke-linejoin:miter;stroke:rgb(100%,100%,100%);stroke-opacity:0.09;stroke-miterlimit:10;" d="M 363.489583 384 L 363.489583 16 " transform="matrix(0.75,0,0,0.75,0,0)"/>
<path style="fill:none;stroke-width:1;stroke-linecap:butt;stroke-linejoin:miter;stroke:rgb(100%,100%,100%);stroke-opacity:0.09;stroke-miterlimit:10;" d="M 476.354167 384 L 476.354167 16 " transform="matrix(0.75,0,0,0.75,0,0)"/>
<path style="fill:none;stroke-width:1;stroke-linecap:butt;stroke-linejoin:miter;stroke:rgb(100%,100%,100%);stroke-opacity:0.09;stroke-miterlimit:10;" d="M 16 372.390625 L 584 372.390625 " transform="matrix(0.75,0,0,0.75,0,0)"/>
<path style="fill:none;stroke-width:1;stroke-linecap:butt;stroke-linejoin:miter;stroke:rgb(100%,100%,100%);stroke-opacity:0.09;stroke-miterlimit:10;" d="M 16 294.302083 L 584 294.302083 " transform="matrix(0.75,0,0,0.75,0,0)"/>
<path style="fill:none;stroke-width:1;stroke-linecap:butt;stroke-linejoin:miter;stroke:rgb(100%,100%,100%);stroke-opacity:0.09;stroke-miterlimit:10;" d="M 16 216.208333 L 584 216.208333 " transform="matrix(0.75,0,0,0.75,0,0)"/>
<path style="fill:none;stroke-width:1;stroke-linecap:butt;stroke-linejoin:miter;stroke:rgb(100%,100%,100%);stroke-opacity:0.09;stroke-miterlimit:10;" d="M 16 138.114583 L 584 138.114583 " transform="matrix(0.75,0,0,0.75,0,0)"/>
<path style="fill:none;stroke-width:1;stroke-linecap:butt;stroke-linejoin:miter;stroke:rgb(100%,100%,100%);stroke-opacity:0.09;stroke-miterlimit:10;" d="M 16 60.026042 L 584 60.026042 " transform="matrix(0.75,0,0,0.75,0,0)"/>
<path style="fill:none;stroke-width:1.5;stroke-linecap:butt;stroke-linejoin:miter;stroke:rgb(60.000002%,60.000002%,60.000002%);stroke-opacity:1;stroke-miterlimit:10;" d="M 41.817708 138.114583 L 549.71875 138.114583 " transform="matrix(0.75,0,0,0.75,0,0)"/>
<path style="fill:none;stroke-width:1.5;stroke-linecap:round;stroke-linejoin:miter;stroke:rgb(99.985999%,100%,100%);stroke-opacity:1;stroke-miterlimit:10;" d="M 41.817708 32.729167 L 41.817708 138.114583 " transform="matrix(0.75,0,0,0.75,0,0)"/>
<path style="fill:none;stroke-width:1.5;stroke-linecap:round;stroke-linejoin:miter;stroke:rgb(95.779705%,98.3688%,99.661678%);stroke-opacity:1;stroke-miterlimit:10;" d="M 58.75 52.369792 L 58.75 138.114583 " transform="matrix(0.75,0,0,0.75,0,0)"/>
<path style="fill:none;stroke-width:1.5;stroke-linecap:round;stroke-linejoin:miter;stroke:rgb(91.522384%,96.732432%,99.3182%);stroke-opacity:1;stroke-miterlimit:10;" d="M 75.677083 77.296875 L 75.677083 138.114583 " transform="matrix(0.75,0,0,0.75,0,0)"/>
<path style="fill:none;stroke-width:1.5;stroke-linecap:round;stroke-linejoin:miter;stroke:rgb(87.506312%,95.000315%,99.137622%);stroke-opacity:1;stroke-miterlimit:10;" d="M 92.609375 104.729167 L 92.609375 138.114583 " transform="matrix(0.75,0,0,0.75,0,0)"/>
<path style="fill:none;stroke-width:1.5;stroke-linecap:round;stroke-linejoin:miter;stroke:rgb(84.041721%,93.074089%,99.291509%);stroke-opacity:1;stroke-miterlimit:10;" d="M 109.536458 131.979167 L 109.536458 138.114583 " transform="matrix(0.75,0,0,0.75,0,0)"/>
<path style="fill:none;stroke-width:1.5;stroke-linecap:round;stroke-linejoin:miter;stroke:rgb(80.553806%,91.146004%,99.457502%);stroke-opacity:1;stroke-miterlimit:10;" d="M 126.46875 156.682292 L 126.46875 138.114583 " transform="matrix(0.75,0,0,0.75,0,0)"/>
<path style="fill:none;stroke-width:1.5;stroke-linecap:round;stroke-linejoin:miter;stroke:rgb(77.830201%,89.019263%,99.639982%);stroke-opacity:1;stroke-miterlimit:10;" d="M 143.395833 176.973958 L 143.395833 138.114583 " transform="matrix(0.75,0,0,0.75,0,0)"/>
<path style="fill:none;stroke-width:1.5;stroke-linecap:round;stroke-linejoin:miter;stroke:rgb(75.691146%,86.746502%,99.830759%);stroke-opacity:1;stroke-miterlimit:10;" d="M 160.328125 191.5625 L 160.328125 138.114583 " transform="matrix(0.75,0,0,0.75,0,0)"/>
<path style="fill:none;stroke-width:1.5;stroke-linecap:round;stroke-linejoin:miter;stroke:rgb(73.733306%,84.435982%,99.959922%);stroke-opacity:1;stroke-miterlimit:10;" d="M 177.260417 199.828125 L 177.260417 138.114583 " transform="matrix(0.75,0,0,0.75,0,0)"/>
<path style="fill:none;stroke-width:1.5;stroke-linecap:round;stroke-linejoin:miter;stroke:rgb(72.814786%,81.900728%,99.802876%);stroke-opacity:1;stroke-miterlimit:10;" d="M 194.1875 201.760417 L 194.1875 138.114583 " transform="matrix(0.75,0,0,0.75,0,0)"/>
<path style="fill:none;stroke-width:1.5;stroke-linecap:round;stroke-linejoin:miter;stroke:rgb(72.391999%,79.253%,99.501997%);stroke-opacity:1;stroke-miterlimit:10;" d="M 211.119792 197.901042 L 211.119792 138.114583 " transform="matrix(0.75,0,0,0.75,0,0)"/>
<path style="fill:none;stroke-width:1.5;stroke-linecap:round;stroke-linejoin:miter;stroke:rgb(72.261381%,76.534265%,99.018484%);stroke-opacity:1;stroke-miterlimit:10;" d="M 228.046875 189.244792 L 228.046875 138.114583 " transform="matrix(0.75,0,0,0.75,0,0)"/>
<path style="fill:none;stroke-width:1.5;stroke-linecap:round;stroke-linejoin:miter;stroke:rgb(73.342711%,73.542458%,97.867399%);stroke-opacity:1;stroke-miterlimit:10;" d="M 244.979167 177.09375 L 244.979167 138.114583 " transform="matrix(0.75,0,0,0.75,0,0)"/>
<path style="fill:none;stroke-width:1.5;stroke-linecap:round;stroke-linejoin:miter;stroke:rgb(74.488378%,70.489645%,96.626002%);stroke-opacity:1;stroke-miterlimit:10;" d="M 261.90625 162.90625 L 261.90625 138.114583 " transform="matrix(0.75,0,0,0.75,0,0)"/>
<path style="fill:none;stroke-width:1.5;stroke-linecap:round;stroke-linejoin:miter;stroke:rgb(76.019984%,67.297721%,94.920093%);stroke-opacity:1;stroke-miterlimit:10;" d="M 278.838542 148.15625 L 278.838542 138.114583 " transform="matrix(0.75,0,0,0.75,0,0)"/>
<path style="fill:none;stroke-width:1.5;stroke-linecap:round;stroke-linejoin:miter;stroke:rgb(78.251308%,63.868928%,92.407382%);stroke-opacity:1;stroke-miterlimit:10;" d="M 295.765625 134.192708 L 295.765625 138.114583 " transform="matrix(0.75,0,0,0.75,0,0)"/>
<path style="fill:none;stroke-width:1.5;stroke-linecap:round;stroke-linejoin:miter;stroke:rgb(80.272168%,60.368186%,89.907849%);stroke-opacity:1;stroke-miterlimit:10;" d="M 312.697917 122.151042 L 312.697917 138.114583 " transform="matrix(0.75,0,0,0.75,0,0)"/>
<path style="fill:none;stroke-width:1.5;stroke-linecap:round;stroke-linejoin:miter;stroke:rgb(82.579285%,56.701303%,86.489552%);stroke-opacity:1;stroke-miterlimit:10;" d="M 329.625 112.869792 L 329.625 138.114583 " transform="matrix(0.75,0,0,0.75,0,0)"/>
<path style="fill:none;stroke-width:1.5;stroke-linecap:round;stroke-linejoin:miter;stroke:rgb(84.870678%,52.863401%,82.572275%);stroke-opacity:1;stroke-miterlimit:10;" d="M 346.557292 106.84375 L 346.557292 138.114583 " transform="matrix(0.75,0,0,0.75,0,0)"/>
<path style="fill:none;stroke-width:1.5;stroke-linecap:round;stroke-linejoin:miter;stroke:rgb(86.918271%,48.893893%,78.546721%);stroke-opacity:1;stroke-miterlimit:10;" d="M 363.489583 104.239583 L 363.489583 138.114583 " transform="matrix(0.75,0,0,0.75,0,0)"/>
<path style="fill:none;stroke-width:1.5;stroke-linecap:round;stroke-linejoin:miter;stroke:rgb(88.793999%,44.891%,73.522002%);stroke-opacity:1;stroke-miterlimit:10;" d="M 380.416667 104.895833 L 380.416667 138.114583 " transform="matrix(0.75,0,0,0.75,0,0)"/>
<path style="fill:none;stroke-width:1.5;stroke-linecap:round;stroke-linejoin:miter;stroke:rgb(90.3624%,40.682831%,68.29344%);stroke-opacity:1;stroke-miterlimit:10;" d="M 397.348958 108.380208 L 397.348958 138.114583 " transform="matrix(0.75,0,0,0.75,0,0)"/>
<path style="fill:none;stroke-width:1.5;stroke-linecap:round;stroke-linejoin:miter;stroke:rgb(91.534066%,36.414123%,62.762165%);stroke-opacity:1;stroke-miterlimit:10;" d="M 414.276042 114.078125 L 414.276042 138.114583 " transform="matrix(0.75,0,0,0.75,0,0)"/>
<path style="fill:none;stroke-width:1.5;stroke-linecap:round;stroke-linejoin:miter;stroke:rgb(92.166775%,32.302323%,56.563246%);stroke-opacity:1;stroke-miterlimit:10;" d="M 431.208333 121.234375 L 431.208333 138.114583 " transform="matrix(0.75,0,0,0.75,0,0)"/>
<path style="fill:none;stroke-width:1.5;stroke-linecap:round;stroke-linejoin:miter;stroke:rgb(92.458415%,27.937153%,50.313771%);stroke-opacity:1;stroke-miterlimit:10;" d="M 448.135417 129.057292 L 448.135417 138.114583 " transform="matrix(0.75,0,0,0.75,0,0)"/>
<path style="fill:none;stroke-width:1.5;stroke-linecap:round;stroke-linejoin:miter;stroke:rgb(92.110074%,23.836923%,43.781078%);stroke-opacity:1;stroke-miterlimit:10;" d="M 465.067708 136.786458 L 465.067708 138.114583 " transform="matrix(0.75,0,0,0.75,0,0)"/>
<path style="fill:none;stroke-width:1.5;stroke-linecap:round;stroke-linejoin:miter;stroke:rgb(91.025925%,20.362784%,36.832571%);stroke-opacity:1;stroke-miterlimit:10;" d="M 481.994792 143.760417 L 481.994792 138.114583 " transform="matrix(0.75,0,0,0.75,0,0)"/>
<path style="fill:none;stroke-width:1.5;stroke-linecap:round;stroke-linejoin:miter;stroke:rgb(89.692569%,16.696262%,29.928315%);stroke-opacity:1;stroke-miterlimit:10;" d="M 498.927083 149.453125 L 498.927083 138.114583 " transform="matrix(0.75,0,0,0.75,0,0)"/>
<path style="fill:none;stroke-width:1.5;stroke-linecap:round;stroke-linejoin:miter;stroke:rgb(87.377942%,14.715585%,22.693369%);stroke-opacity:1;stroke-miterlimit:10;" d="M 515.859375 153.510417 L 515.859375 138.114583 " transform="matrix(0.75,0,0,0.75,0,0)"/>
<path style="fill:none;stroke-width:1.5;stroke-linecap:round;stroke-linejoin:miter;stroke:rgb(84.541124%,13.783723%,14.941491%);stroke-opacity:1;stroke-miterlimit:10;" d="M 532.786458 155.760417 L 532.786458 138.114583 " transform="matrix(0.75,0,0,0.75,0,0)"/>
<path style="fill:none;stroke-width:1.5;stroke-linecap:round;stroke-linejoin:miter;stroke:rgb(81.589001%,12.954%,5.5606%);stroke-opacity:1;stroke-miterlimit:10;" d="M 549.71875 156.208333 L 549.71875 138.114583 " transform="matrix(0.75,0,0,0.75,0,0)"/>
<path style=" stroke:none;fill-rule:nonzero;fill:rgb(99.985999%,100%,100%);fill-opacity:1;" d="M 28.792969 24.542969 C 28.792969 24.085938 28.90625 23.660156 29.136719 23.261719 C 29.363281 22.867188 29.675781 22.550781 30.074219 22.308594 C 30.46875 22.082031 30.902344 21.964844 31.371094 21.964844 C 31.828125 21.964844 32.253906 22.082031 32.652344 22.308594 C 33.046875 22.550781 33.359375 22.867188 33.589844 23.261719 C 33.816406 23.660156 33.933594 24.085938 33.933594 24.542969 C 33.933594 25.003906 33.816406 25.433594 33.589844 25.839844 C 33.359375 26.238281 33.046875 26.546875 32.652344 26.777344 C 32.253906 27.003906 31.828125 27.121094 31.371094 27.121094 C 30.902344 27.121094 30.46875 27.003906 30.074219 26.777344 C 29.675781 26.546875 29.363281 26.238281 29.136719 25.839844 C 28.90625 25.433594 28.792969 25.003906 28.792969 24.542969 Z M 34.308594 26.292969 "/>
<path style=" stroke:none;fill-rule:nonzero;fill:rgb(97.997117%,98.525226%,91.369122%);fill-opacity:1;" d="M 41.492188 39.273438 C 41.492188 38.816406 41.605469 38.390625 41.835938 37.992188 C 42.0625 37.597656 42.375 37.28125 42.773438 37.039062 C 43.167969 36.8125 43.601562 36.695312 44.070312 36.695312 C 44.527344 36.695312 44.953125 36.8125 45.351562 37.039062 C 45.746094 37.28125 46.058594 37.597656 46.289062 37.992188 C 46.515625 38.390625 46.632812 38.816406 46.632812 39.273438 C 46.632812 39.734375 46.515625 40.164062 46.289062 40.570312 C 46.058594 40.96875 45.746094 41.277344 45.351562 41.507812 C 44.953125 41.734375 44.527344 41.851562 44.070312 41.851562 C 43.601562 41.851562 43.167969 41.734375 42.773438 41.507812 C 42.375 41.277344 42.0625 40.96875 41.835938 40.570312 C 41.605469 40.164062 41.492188 39.734375 41.492188 39.273438 Z M 47.007812 41.023438 "/>
<path style=" stroke:none;fill-rule:nonzero;fill:rgb(95.806527%,97.051597%,82.76574%);fill-opacity:1;" d="M 54.1875 57.96875 C 54.1875 57.511719 54.300781 57.085938 54.53125 56.6875 C 54.757812 56.292969 55.070312 55.976562 55.46875 55.734375 C 55.863281 55.507812 56.296875 55.390625 56.765625 55.390625 C 57.222656 55.390625 57.648438 55.507812 58.046875 55.734375 C 58.441406 55.976562 58.753906 56.292969 58.984375 56.6875 C 59.210938 57.085938 59.328125 57.511719 59.328125 57.96875 C 59.328125 58.429688 59.210938 58.859375 58.984375 59.265625 C 58.753906 59.664062 58.441406 59.972656 58.046875 60.203125 C 57.648438 60.429688 57.222656 60.546875 56.765625 60.546875 C 56.296875 60.546875 55.863281 60.429688 55.46875 60.203125 C 55.070312 59.972656 54.757812 59.664062 54.53125 59.265625 C 54.300781 58.859375 54.1875 58.429688 54.1875 57.96875 Z M 59.703125 59.71875 "/>
<path style=" stroke:none;fill-rule:nonzero;fill:rgb(93.948901%,95.350832%,75.265831%);fill-opacity:1;" d="M 66.886719 78.542969 C 66.886719 78.085938 67 77.660156 67.230469 77.261719 C 67.457031 76.867188 67.769531 76.550781 68.167969 76.308594 C 68.5625 76.082031 68.996094 75.964844 69.464844 75.964844 C 69.921875 75.964844 70.347656 76.082031 70.746094 76.308594 C 71.140625 76.550781 71.453125 76.867188 71.683594 77.261719 C 71.910156 77.660156 72.027344 78.085938 72.027344 78.542969 C 72.027344 79.003906 71.910156 79.433594 71.683594 79.839844 C 71.453125 80.238281 71.140625 80.546875 70.746094 80.777344 C 70.347656 81.003906 69.921875 81.121094 69.464844 81.121094 C 68.996094 81.121094 68.5625 81.003906 68.167969 80.777344 C 67.769531 80.546875 67.457031 80.238281 67.230469 79.839844 C 67 79.433594 66.886719 79.003906 66.886719 78.542969 Z M 72.402344 80.292969 "/>
<path style=" stroke:none;fill-rule:nonzero;fill:rgb(93.033832%,93.184292%,70.01%);fill-opacity:1;" d="M 79.582031 98.980469 C 79.582031 98.523438 79.695312 98.097656 79.925781 97.699219 C 80.152344 97.304688 80.464844 96.988281 80.863281 96.746094 C 81.257812 96.519531 81.691406 96.402344 82.160156 96.402344 C 82.617188 96.402344 83.042969 96.519531 83.441406 96.746094 C 83.835938 96.988281 84.148438 97.304688 84.378906 97.699219 C 84.605469 98.097656 84.722656 98.523438 84.722656 98.980469 C 84.722656 99.441406 84.605469 99.871094 84.378906 100.277344 C 84.148438 100.675781 83.835938 100.984375 83.441406 101.214844 C 83.042969 101.441406 82.617188 101.558594 82.160156 101.558594 C 81.691406 101.558594 81.257812 101.441406 80.863281 101.214844 C 80.464844 100.984375 80.152344 100.675781 79.925781 100.277344 C 79.695312 99.871094 79.582031 99.441406 79.582031 98.980469 Z M 85.097656 100.730469 "/>
<path style=" stroke:none;fill-rule:nonzero;fill:rgb(92.09981%,91.002274%,64.911497%);fill-opacity:1;" d="M 92.28125 117.511719 C 92.28125 117.054688 92.394531 116.628906 92.625 116.230469 C 92.851562 115.835938 93.164062 115.519531 93.5625 115.277344 C 93.957031 115.050781 94.390625 114.933594 94.859375 114.933594 C 95.316406 114.933594 95.742188 115.050781 96.140625 115.277344 C 96.535156 115.519531 96.847656 115.835938 97.078125 116.230469 C 97.304688 116.628906 97.421875 117.054688 97.421875 117.511719 C 97.421875 117.972656 97.304688 118.402344 97.078125 118.808594 C 96.847656 119.207031 96.535156 119.515625 96.140625 119.746094 C 95.742188 119.972656 95.316406 120.089844 94.859375 120.089844 C 94.390625 120.089844 93.957031 119.972656 93.5625 119.746094 C 93.164062 119.515625 92.851562 119.207031 92.625 118.808594 C 92.394531 118.402344 92.28125 117.972656 92.28125 117.511719 Z M 97.796875 119.261719 "/>
<path style=" stroke:none;fill-rule:nonzero;fill:rgb(91.456431%,88.696307%,60.200387%);fill-opacity:1;" d="M 104.980469 132.726562 C 104.980469 132.269531 105.09375 131.84375 105.324219 131.445312 C 105.550781 131.050781 105.863281 130.734375 106.261719 130.492188 C 106.65625 130.265625 107.089844 130.148438 107.558594 130.148438 C 108.015625 130.148438 108.441406 130.265625 108.839844 130.492188 C 109.234375 130.734375 109.546875 131.050781 109.777344 131.445312 C 110.003906 131.84375 110.121094 132.269531 110.121094 132.726562 C 110.121094 133.1875 110.003906 133.617188 109.777344 134.023438 C 109.546875 134.421875 109.234375 134.730469 108.839844 134.960938 C 108.441406 135.1875 108.015625 135.304688 107.558594 135.304688 C 107.089844 135.304688 106.65625 135.1875 106.261719 134.960938 C 105.863281 134.730469 105.550781 134.421875 105.324219 134.023438 C 105.09375 133.617188 104.980469 133.1875 104.980469 132.726562 Z M 110.496094 134.476562 "/>
<path style=" stroke:none;fill-rule:nonzero;fill:rgb(91.009355%,86.298478%,55.784863%);fill-opacity:1;" d="M 117.675781 143.671875 C 117.675781 143.214844 117.789062 142.789062 118.019531 142.390625 C 118.246094 141.996094 118.558594 141.679688 118.957031 141.4375 C 119.351562 141.210938 119.785156 141.09375 120.253906 141.09375 C 120.710938 141.09375 121.136719 141.210938 121.535156 141.4375 C 121.929688 141.679688 122.242188 141.996094 122.472656 142.390625 C 122.699219 142.789062 122.816406 143.214844 122.816406 143.671875 C 122.816406 144.132812 122.699219 144.5625 122.472656 144.96875 C 122.242188 145.367188 121.929688 145.675781 121.535156 145.90625 C 121.136719 146.132812 120.710938 146.25 120.253906 146.25 C 119.785156 146.25 119.351562 146.132812 118.957031 145.90625 C 118.558594 145.675781 118.246094 145.367188 118.019531 144.96875 C 117.789062 144.5625 117.675781 144.132812 117.675781 143.671875 Z M 123.191406 145.421875 "/>
<path style=" stroke:none;fill-rule:nonzero;fill:rgb(90.531385%,83.890849%,51.438028%);fill-opacity:1;" d="M 130.375 149.867188 C 130.375 149.410156 130.488281 148.984375 130.71875 148.585938 C 130.945312 148.191406 131.257812 147.875 131.65625 147.632812 C 132.050781 147.40625 132.484375 147.289062 132.953125 147.289062 C 133.410156 147.289062 133.835938 147.40625 134.234375 147.632812 C 134.628906 147.875 134.941406 148.191406 135.171875 148.585938 C 135.398438 148.984375 135.515625 149.410156 135.515625 149.867188 C 135.515625 150.328125 135.398438 150.757812 135.171875 151.164062 C 134.941406 151.5625 134.628906 151.871094 134.234375 152.101562 C 133.835938 152.328125 133.410156 152.445312 132.953125 152.445312 C 132.484375 152.445312 132.050781 152.328125 131.65625 152.101562 C 131.257812 151.871094 130.945312 151.5625 130.71875 151.164062 C 130.488281 150.757812 130.375 150.328125 130.375 149.867188 Z M 135.890625 151.617188 "/>
<path style=" stroke:none;fill-rule:nonzero;fill:rgb(90.239918%,81.389344%,47.40223%);fill-opacity:1;" d="M 143.070312 151.316406 C 143.070312 150.859375 143.183594 150.433594 143.414062 150.035156 C 143.640625 149.640625 143.953125 149.324219 144.351562 149.082031 C 144.746094 148.855469 145.179688 148.738281 145.648438 148.738281 C 146.105469 148.738281 146.53125 148.855469 146.929688 149.082031 C 147.324219 149.324219 147.636719 149.640625 147.867188 150.035156 C 148.09375 150.433594 148.210938 150.859375 148.210938 151.316406 C 148.210938 151.777344 148.09375 152.207031 147.867188 152.613281 C 147.636719 153.011719 147.324219 153.320312 146.929688 153.550781 C 146.53125 153.777344 146.105469 153.894531 145.648438 153.894531 C 145.179688 153.894531 144.746094 153.777344 144.351562 153.550781 C 143.953125 153.320312 143.640625 153.011719 143.414062 152.613281 C 143.183594 152.207031 143.070312 151.777344 143.070312 151.316406 Z M 148.585938 153.066406 "/>
<path style=" stroke:none;fill-rule:nonzero;fill:rgb(90.000999%,78.843999%,43.516999%);fill-opacity:1;" d="M 155.769531 148.421875 C 155.769531 147.964844 155.882812 147.539062 156.113281 147.140625 C 156.339844 146.746094 156.652344 146.429688 157.050781 146.1875 C 157.445312 145.960938 157.878906 145.84375 158.347656 145.84375 C 158.804688 145.84375 159.230469 145.960938 159.628906 146.1875 C 160.023438 146.429688 160.335938 146.746094 160.566406 147.140625 C 160.792969 147.539062 160.910156 147.964844 160.910156 148.421875 C 160.910156 148.882812 160.792969 149.3125 160.566406 149.71875 C 160.335938 150.117188 160.023438 150.425781 159.628906 150.65625 C 159.230469 150.882812 158.804688 151 158.347656 151 C 157.878906 151 157.445312 150.882812 157.050781 150.65625 C 156.652344 150.425781 156.339844 150.117188 156.113281 149.71875 C 155.882812 149.3125 155.769531 148.882812 155.769531 148.421875 Z M 161.285156 150.171875 "/>
<path style=" stroke:none;fill-rule:nonzero;fill:rgb(89.731669%,76.27883%,39.710507%);fill-opacity:1;" d="M 168.464844 141.933594 C 168.464844 141.476562 168.578125 141.050781 168.808594 140.652344 C 169.035156 140.257812 169.347656 139.941406 169.746094 139.699219 C 170.140625 139.472656 170.574219 139.355469 171.042969 139.355469 C 171.5 139.355469 171.925781 139.472656 172.324219 139.699219 C 172.71875 139.941406 173.03125 140.257812 173.261719 140.652344 C 173.488281 141.050781 173.605469 141.476562 173.605469 141.933594 C 173.605469 142.394531 173.488281 142.824219 173.261719 143.230469 C 173.03125 143.628906 172.71875 143.9375 172.324219 144.167969 C 171.925781 144.394531 171.5 144.511719 171.042969 144.511719 C 170.574219 144.511719 170.140625 144.394531 169.746094 144.167969 C 169.347656 143.9375 169.035156 143.628906 168.808594 143.230469 C 168.578125 142.824219 168.464844 142.394531 168.464844 141.933594 Z M 173.980469 143.683594 "/>
<path style=" stroke:none;fill-rule:nonzero;fill:rgb(89.611584%,73.618799%,36.270663%);fill-opacity:1;" d="M 181.164062 132.820312 C 181.164062 132.363281 181.277344 131.9375 181.507812 131.539062 C 181.734375 131.144531 182.046875 130.828125 182.445312 130.585938 C 182.839844 130.359375 183.273438 130.242188 183.742188 130.242188 C 184.199219 130.242188 184.625 130.359375 185.023438 130.585938 C 185.417969 130.828125 185.730469 131.144531 185.960938 131.539062 C 186.1875 131.9375 186.304688 132.363281 186.304688 132.820312 C 186.304688 133.28125 186.1875 133.710938 185.960938 134.117188 C 185.730469 134.515625 185.417969 134.824219 185.023438 135.054688 C 184.625 135.28125 184.199219 135.398438 183.742188 135.398438 C 183.273438 135.398438 182.839844 135.28125 182.445312 135.054688 C 182.046875 134.824219 181.734375 134.515625 181.507812 134.117188 C 181.277344 133.710938 181.164062 133.28125 181.164062 132.820312 Z M 186.679688 134.570312 "/>
<path style=" stroke:none;fill-rule:nonzero;fill:rgb(89.45083%,70.944297%,32.858261%);fill-opacity:1;" d="M 193.859375 122.179688 C 193.859375 121.722656 193.972656 121.296875 194.203125 120.898438 C 194.429688 120.503906 194.742188 120.1875 195.140625 119.945312 C 195.535156 119.71875 195.96875 119.601562 196.4375 119.601562 C 196.894531 119.601562 197.320312 119.71875 197.71875 119.945312 C 198.113281 120.1875 198.425781 120.503906 198.65625 120.898438 C 198.882812 121.296875 199 121.722656 199 122.179688 C 199 122.640625 198.882812 123.070312 198.65625 123.476562 C 198.425781 123.875 198.113281 124.183594 197.71875 124.414062 C 197.320312 124.640625 196.894531 124.757812 196.4375 124.757812 C 195.96875 124.757812 195.535156 124.640625 195.140625 124.414062 C 194.742188 124.183594 194.429688 123.875 194.203125 123.476562 C 193.972656 123.070312 193.859375 122.640625 193.859375 122.179688 Z M 199.375 123.929688 "/>
<path style=" stroke:none;fill-rule:nonzero;fill:rgb(89.290524%,68.226004%,29.62217%);fill-opacity:1;" d="M 206.558594 111.113281 C 206.558594 110.65625 206.671875 110.230469 206.902344 109.832031 C 207.128906 109.4375 207.441406 109.121094 207.839844 108.878906 C 208.234375 108.652344 208.667969 108.535156 209.136719 108.535156 C 209.59375 108.535156 210.019531 108.652344 210.417969 108.878906 C 210.8125 109.121094 211.125 109.4375 211.355469 109.832031 C 211.582031 110.230469 211.699219 110.65625 211.699219 111.113281 C 211.699219 111.574219 211.582031 112.003906 211.355469 112.410156 C 211.125 112.808594 210.8125 113.117188 210.417969 113.347656 C 210.019531 113.574219 209.59375 113.691406 209.136719 113.691406 C 208.667969 113.691406 208.234375 113.574219 207.839844 113.347656 C 207.441406 113.117188 207.128906 112.808594 206.902344 112.410156 C 206.671875 112.003906 206.558594 111.574219 206.558594 111.113281 Z M 212.074219 112.863281 "/>
<path style=" stroke:none;fill-rule:nonzero;fill:rgb(89.197075%,65.427732%,26.729846%);fill-opacity:1;" d="M 219.253906 100.640625 C 219.253906 100.183594 219.367188 99.757812 219.597656 99.359375 C 219.824219 98.964844 220.136719 98.648438 220.535156 98.40625 C 220.929688 98.179688 221.363281 98.0625 221.832031 98.0625 C 222.289062 98.0625 222.714844 98.179688 223.113281 98.40625 C 223.507812 98.648438 223.820312 98.964844 224.050781 99.359375 C 224.277344 99.757812 224.394531 100.183594 224.394531 100.640625 C 224.394531 101.101562 224.277344 101.53125 224.050781 101.9375 C 223.820312 102.335938 223.507812 102.644531 223.113281 102.875 C 222.714844 103.101562 222.289062 103.21875 221.832031 103.21875 C 221.363281 103.21875 220.929688 103.101562 220.535156 102.875 C 220.136719 102.644531 219.824219 102.335938 219.597656 101.9375 C 219.367188 101.53125 219.253906 101.101562 219.253906 100.640625 Z M 224.769531 102.390625 "/>
<path style=" stroke:none;fill-rule:nonzero;fill:rgb(89.040679%,62.616104%,23.797277%);fill-opacity:1;" d="M 231.953125 91.609375 C 231.953125 91.152344 232.066406 90.726562 232.296875 90.328125 C 232.523438 89.933594 232.835938 89.617188 233.234375 89.375 C 233.628906 89.148438 234.0625 89.03125 234.53125 89.03125 C 234.988281 89.03125 235.414062 89.148438 235.8125 89.375 C 236.207031 89.617188 236.519531 89.933594 236.75 90.328125 C 236.976562 90.726562 237.09375 91.152344 237.09375 91.609375 C 237.09375 92.070312 236.976562 92.5 236.75 92.90625 C 236.519531 93.304688 236.207031 93.613281 235.8125 93.84375 C 235.414062 94.070312 234.988281 94.1875 234.53125 94.1875 C 234.0625 94.1875 233.628906 94.070312 233.234375 93.84375 C 232.835938 93.613281 232.523438 93.304688 232.296875 92.90625 C 232.066406 92.5 231.953125 92.070312 231.953125 91.609375 Z M 237.46875 93.359375 "/>
<path style=" stroke:none;fill-rule:nonzero;fill:rgb(88.90537%,59.731781%,21.241499%);fill-opacity:1;" d="M 244.652344 84.648438 C 244.652344 84.191406 244.765625 83.765625 244.996094 83.367188 C 245.222656 82.972656 245.535156 82.65625 245.933594 82.414062 C 246.328125 82.1875 246.761719 82.070312 247.230469 82.070312 C 247.6875 82.070312 248.113281 82.1875 248.511719 82.414062 C 248.90625 82.65625 249.21875 82.972656 249.449219 83.367188 C 249.675781 83.765625 249.792969 84.191406 249.792969 84.648438 C 249.792969 85.109375 249.675781 85.539062 249.449219 85.945312 C 249.21875 86.34375 248.90625 86.652344 248.511719 86.882812 C 248.113281 87.109375 247.6875 87.226562 247.230469 87.226562 C 246.761719 87.226562 246.328125 87.109375 245.933594 86.882812 C 245.535156 86.652344 245.222656 86.34375 244.996094 85.945312 C 244.765625 85.539062 244.652344 85.109375 244.652344 84.648438 Z M 250.167969 86.398438 "/>
<path style=" stroke:none;fill-rule:nonzero;fill:rgb(88.754153%,56.784326%,18.895231%);fill-opacity:1;" d="M 257.347656 80.132812 C 257.347656 79.675781 257.460938 79.25 257.691406 78.851562 C 257.917969 78.457031 258.230469 78.140625 258.628906 77.898438 C 259.023438 77.671875 259.457031 77.554688 259.925781 77.554688 C 260.382812 77.554688 260.808594 77.671875 261.207031 77.898438 C 261.601562 78.140625 261.914062 78.457031 262.144531 78.851562 C 262.371094 79.25 262.488281 79.675781 262.488281 80.132812 C 262.488281 80.59375 262.371094 81.023438 262.144531 81.429688 C 261.914062 81.828125 261.601562 82.136719 261.207031 82.367188 C 260.808594 82.59375 260.382812 82.710938 259.925781 82.710938 C 259.457031 82.710938 259.023438 82.59375 258.628906 82.367188 C 258.230469 82.136719 257.917969 81.828125 257.691406 81.429688 C 257.460938 81.023438 257.347656 80.59375 257.347656 80.132812 Z M 262.863281 81.882812 "/>
<path style=" stroke:none;fill-rule:nonzero;fill:rgb(88.556045%,53.797865%,16.580276%);fill-opacity:1;" d="M 270.046875 78.175781 C 270.046875 77.71875 270.160156 77.292969 270.390625 76.894531 C 270.617188 76.5 270.929688 76.183594 271.328125 75.941406 C 271.722656 75.714844 272.15625 75.597656 272.625 75.597656 C 273.082031 75.597656 273.507812 75.714844 273.90625 75.941406 C 274.300781 76.183594 274.613281 76.5 274.84375 76.894531 C 275.070312 77.292969 275.1875 77.71875 275.1875 78.175781 C 275.1875 78.636719 275.070312 79.066406 274.84375 79.472656 C 274.613281 79.871094 274.300781 80.179688 273.90625 80.410156 C 273.507812 80.636719 273.082031 80.753906 272.625 80.753906 C 272.15625 80.753906 271.722656 80.636719 271.328125 80.410156 C 270.929688 80.179688 270.617188 79.871094 270.390625 79.472656 C 270.160156 79.066406 270.046875 78.636719 270.046875 78.175781 Z M 275.5625 79.925781 "/>
<path style=" stroke:none;fill-rule:nonzero;fill:rgb(88.350999%,50.726002%,14.783999%);fill-opacity:1;" d="M 282.742188 78.667969 C 282.742188 78.210938 282.855469 77.785156 283.085938 77.386719 C 283.3125 76.992188 283.625 76.675781 284.023438 76.433594 C 284.417969 76.207031 284.851562 76.089844 285.320312 76.089844 C 285.777344 76.089844 286.203125 76.207031 286.601562 76.433594 C 286.996094 76.675781 287.308594 76.992188 287.539062 77.386719 C 287.765625 77.785156 287.882812 78.210938 287.882812 78.667969 C 287.882812 79.128906 287.765625 79.558594 287.539062 79.964844 C 287.308594 80.363281 286.996094 80.671875 286.601562 80.902344 C 286.203125 81.128906 285.777344 81.246094 285.320312 81.246094 C 284.851562 81.246094 284.417969 81.128906 284.023438 80.902344 C 283.625 80.671875 283.3125 80.363281 283.085938 79.964844 C 282.855469 79.558594 282.742188 79.128906 282.742188 78.667969 Z M 288.257812 80.417969 "/>
<path style=" stroke:none;fill-rule:nonzero;fill:rgb(88.101482%,47.571415%,13.122284%);fill-opacity:1;" d="M 295.441406 81.285156 C 295.441406 80.828125 295.554688 80.402344 295.785156 80.003906 C 296.011719 79.609375 296.324219 79.292969 296.722656 79.050781 C 297.117188 78.824219 297.550781 78.707031 298.019531 78.707031 C 298.476562 78.707031 298.902344 78.824219 299.300781 79.050781 C 299.695312 79.292969 300.007812 79.609375 300.238281 80.003906 C 300.464844 80.402344 300.582031 80.828125 300.582031 81.285156 C 300.582031 81.746094 300.464844 82.175781 300.238281 82.582031 C 300.007812 82.980469 299.695312 83.289062 299.300781 83.519531 C 298.902344 83.746094 298.476562 83.863281 298.019531 83.863281 C 297.550781 83.863281 297.117188 83.746094 296.722656 83.519531 C 296.324219 83.289062 296.011719 82.980469 295.785156 82.582031 C 295.554688 82.175781 295.441406 81.746094 295.441406 81.285156 Z M 300.957031 83.035156 "/>
<path style=" stroke:none;fill-rule:nonzero;fill:rgb(87.805921%,44.334137%,11.708108%);fill-opacity:1;" d="M 308.136719 85.554688 C 308.136719 85.097656 308.25 84.671875 308.480469 84.273438 C 308.707031 83.878906 309.019531 83.5625 309.417969 83.320312 C 309.8125 83.09375 310.246094 82.976562 310.714844 82.976562 C 311.171875 82.976562 311.597656 83.09375 311.996094 83.320312 C 312.390625 83.5625 312.703125 83.878906 312.933594 84.273438 C 313.160156 84.671875 313.277344 85.097656 313.277344 85.554688 C 313.277344 86.015625 313.160156 86.445312 312.933594 86.851562 C 312.703125 87.25 312.390625 87.558594 311.996094 87.789062 C 311.597656 88.015625 311.171875 88.132812 310.714844 88.132812 C 310.246094 88.132812 309.8125 88.015625 309.417969 87.789062 C 309.019531 87.558594 308.707031 87.25 308.480469 86.851562 C 308.25 86.445312 308.136719 86.015625 308.136719 85.554688 Z M 313.652344 87.304688 "/>
<path style=" stroke:none;fill-rule:nonzero;fill:rgb(87.468147%,40.985698%,10.815638%);fill-opacity:1;" d="M 320.835938 90.921875 C 320.835938 90.464844 320.949219 90.039062 321.179688 89.640625 C 321.40625 89.246094 321.71875 88.929688 322.117188 88.6875 C 322.511719 88.460938 322.945312 88.34375 323.414062 88.34375 C 323.871094 88.34375 324.296875 88.460938 324.695312 88.6875 C 325.089844 88.929688 325.402344 89.246094 325.632812 89.640625 C 325.859375 90.039062 325.976562 90.464844 325.976562 90.921875 C 325.976562 91.382812 325.859375 91.8125 325.632812 92.21875 C 325.402344 92.617188 325.089844 92.925781 324.695312 93.15625 C 324.296875 93.382812 323.871094 93.5 323.414062 93.5 C 322.945312 93.5 322.511719 93.382812 322.117188 93.15625 C 321.71875 92.925781 321.40625 92.617188 321.179688 92.21875 C 320.949219 91.8125 320.835938 91.382812 320.835938 90.921875 Z M 326.351562 92.671875 "/>
<path style=" stroke:none;fill-rule:nonzero;fill:rgb(87.084341%,37.487754%,10.057874%);fill-opacity:1;" d="M 333.53125 96.789062 C 333.53125 96.332031 333.644531 95.90625 333.875 95.507812 C 334.101562 95.113281 334.414062 94.796875 334.8125 94.554688 C 335.207031 94.328125 335.640625 94.210938 336.109375 94.210938 C 336.566406 94.210938 336.992188 94.328125 337.390625 94.554688 C 337.785156 94.796875 338.097656 95.113281 338.328125 95.507812 C 338.554688 95.90625 338.671875 96.332031 338.671875 96.789062 C 338.671875 97.25 338.554688 97.679688 338.328125 98.085938 C 338.097656 98.484375 337.785156 98.792969 337.390625 99.023438 C 336.992188 99.25 336.566406 99.367188 336.109375 99.367188 C 335.640625 99.367188 335.207031 99.25 334.8125 99.023438 C 334.414062 98.792969 334.101562 98.484375 333.875 98.085938 C 333.644531 97.679688 333.53125 97.25 333.53125 96.789062 Z M 339.046875 98.539062 "/>
<path style=" stroke:none;fill-rule:nonzero;fill:rgb(86.635345%,33.814806%,9.680208%);fill-opacity:1;" d="M 346.230469 102.585938 C 346.230469 102.128906 346.34375 101.703125 346.574219 101.304688 C 346.800781 100.910156 347.113281 100.59375 347.511719 100.351562 C 347.90625 100.125 348.339844 100.007812 348.808594 100.007812 C 349.265625 100.007812 349.691406 100.125 350.089844 100.351562 C 350.484375 100.59375 350.796875 100.910156 351.027344 101.304688 C 351.253906 101.703125 351.371094 102.128906 351.371094 102.585938 C 351.371094 103.046875 351.253906 103.476562 351.027344 103.882812 C 350.796875 104.28125 350.484375 104.589844 350.089844 104.820312 C 349.691406 105.046875 349.265625 105.164062 348.808594 105.164062 C 348.339844 105.164062 347.90625 105.046875 347.511719 104.820312 C 347.113281 104.589844 346.800781 104.28125 346.574219 103.882812 C 346.34375 103.476562 346.230469 103.046875 346.230469 102.585938 Z M 351.746094 104.335938 "/>
<path style=" stroke:none;fill-rule:nonzero;fill:rgb(86.118662%,29.917678%,9.769655%);fill-opacity:1;" d="M 358.929688 107.816406 C 358.929688 107.359375 359.042969 106.933594 359.273438 106.535156 C 359.5 106.140625 359.8125 105.824219 360.210938 105.582031 C 360.605469 105.355469 361.039062 105.238281 361.507812 105.238281 C 361.964844 105.238281 362.390625 105.355469 362.789062 105.582031 C 363.183594 105.824219 363.496094 106.140625 363.726562 106.535156 C 363.953125 106.933594 364.070312 107.359375 364.070312 107.816406 C 364.070312 108.277344 363.953125 108.707031 363.726562 109.113281 C 363.496094 109.511719 363.183594 109.820312 362.789062 110.050781 C 362.390625 110.277344 361.964844 110.394531 361.507812 110.394531 C 361.039062 110.394531 360.605469 110.277344 360.210938 110.050781 C 359.8125 109.820312 359.5 109.511719 359.273438 109.113281 C 359.042969 108.707031 358.929688 108.277344 358.929688 107.816406 Z M 364.445312 109.566406 "/>
<path style=" stroke:none;fill-rule:nonzero;fill:rgb(85.562885%,25.650379%,9.862087%);fill-opacity:1;" d="M 371.625 112.085938 C 371.625 111.628906 371.738281 111.203125 371.96875 110.804688 C 372.195312 110.410156 372.507812 110.09375 372.90625 109.851562 C 373.300781 109.625 373.734375 109.507812 374.203125 109.507812 C 374.660156 109.507812 375.085938 109.625 375.484375 109.851562 C 375.878906 110.09375 376.191406 110.410156 376.421875 110.804688 C 376.648438 111.203125 376.765625 111.628906 376.765625 112.085938 C 376.765625 112.546875 376.648438 112.976562 376.421875 113.382812 C 376.191406 113.78125 375.878906 114.089844 375.484375 114.320312 C 375.085938 114.546875 374.660156 114.664062 374.203125 114.664062 C 373.734375 114.664062 373.300781 114.546875 372.90625 114.320312 C 372.507812 114.089844 372.195312 113.78125 371.96875 113.382812 C 371.738281 112.976562 371.625 112.546875 371.625 112.085938 Z M 377.140625 113.835938 "/>
<path style=" stroke:none;fill-rule:nonzero;fill:rgb(84.89989%,20.8114%,10.341754%);fill-opacity:1;" d="M 384.324219 115.128906 C 384.324219 114.671875 384.4375 114.246094 384.667969 113.847656 C 384.894531 113.453125 385.207031 113.136719 385.605469 112.894531 C 386 112.667969 386.433594 112.550781 386.902344 112.550781 C 387.359375 112.550781 387.785156 112.667969 388.183594 112.894531 C 388.578125 113.136719 388.890625 113.453125 389.121094 113.847656 C 389.347656 114.246094 389.464844 114.671875 389.464844 115.128906 C 389.464844 115.589844 389.347656 116.019531 389.121094 116.425781 C 388.890625 116.824219 388.578125 117.132812 388.183594 117.363281 C 387.785156 117.589844 387.359375 117.707031 386.902344 117.707031 C 386.433594 117.707031 386 117.589844 385.605469 117.363281 C 385.207031 117.132812 384.894531 116.824219 384.667969 116.425781 C 384.4375 116.019531 384.324219 115.589844 384.324219 115.128906 Z M 389.839844 116.878906 "/>
<path style=" stroke:none;fill-rule:nonzero;fill:rgb(84.17455%,14.912438%,10.942201%);fill-opacity:1;" d="M 397.019531 116.816406 C 397.019531 116.359375 397.132812 115.933594 397.363281 115.535156 C 397.589844 115.140625 397.902344 114.824219 398.300781 114.582031 C 398.695312 114.355469 399.128906 114.238281 399.597656 114.238281 C 400.054688 114.238281 400.480469 114.355469 400.878906 114.582031 C 401.273438 114.824219 401.585938 115.140625 401.816406 115.535156 C 402.042969 115.933594 402.160156 116.359375 402.160156 116.816406 C 402.160156 117.277344 402.042969 117.707031 401.816406 118.113281 C 401.585938 118.511719 401.273438 118.820312 400.878906 119.050781 C 400.480469 119.277344 400.054688 119.394531 399.597656 119.394531 C 399.128906 119.394531 398.695312 119.277344 398.300781 119.050781 C 397.902344 118.820312 397.589844 118.511719 397.363281 118.113281 C 397.132812 117.707031 397.019531 117.277344 397.019531 116.816406 Z M 402.535156 118.566406 "/>
<path style=" stroke:none;fill-rule:nonzero;fill:rgb(83.421999%,5.9213%,11.447%);fill-opacity:1;" d="M 409.71875 117.152344 C 409.71875 116.695312 409.832031 116.269531 410.0625 115.871094 C 410.289062 115.476562 410.601562 115.160156 411 114.917969 C 411.394531 114.691406 411.828125 114.574219 412.296875 114.574219 C 412.753906 114.574219 413.179688 114.691406 413.578125 114.917969 C 413.972656 115.160156 414.285156 115.476562 414.515625 115.871094 C 414.742188 116.269531 414.859375 116.695312 414.859375 117.152344 C 414.859375 117.613281 414.742188 118.042969 414.515625 118.449219 C 414.285156 118.847656 413.972656 119.15625 413.578125 119.386719 C 413.179688 119.613281 412.753906 119.730469 412.296875 119.730469 C 411.828125 119.730469 411.394531 119.613281 411 119.386719 C 410.601562 119.15625 410.289062 118.847656 410.0625 118.449219 C 409.832031 118.042969 409.71875 117.613281 409.71875 117.152344 Z M 415.234375 118.902344 "/>
<path style="fill:none;stroke-width:1.5;stroke-linecap:butt;stroke-linejoin:miter;stroke:rgb(60.000002%,60.000002%,60.000002%);stroke-opacity:1;stroke-miterlimit:10;" d="M 50.28125 138.114583 L 558.182292 138.114583 " transform="matrix(0.75,0,0,0.75,0,0)"/>
<path style="fill:none;stroke-width:0.5;stroke-linecap:butt;stroke-linejoin:miter;stroke:rgb(60.000002%,60.000002%,60.000002%);stroke-opacity:1;stroke-miterlimit:10;" d="M 50.28125 367.270833 L 50.28125 138.114583 " transform="matrix(0.75,0,0,0.75,0,0)"/>
<path style="fill:none;stroke-width:0.5;stroke-linecap:butt;stroke-linejoin:miter;stroke:rgb(60.000002%,60.000002%,60.000002%);stroke-opacity:1;stroke-miterlimit:10;" d="M 67.213542 226.010417 L 67.213542 138.114583 " transform="matrix(0.75,0,0,0.75,0,0)"/>
<path style="fill:none;stroke-width:0.5;stroke-linecap:butt;stroke-linejoin:miter;stroke:rgb(60.000002%,60.000002%,60.000002%);stroke-opacity:1;stroke-miterlimit:10;" d="M 84.140625 172.53125 L 84.140625 138.114583 " transform="matrix(0.75,0,0,0.75,0,0)"/>
<path style="fill:none;stroke-width:0.5;stroke-linecap:butt;stroke-linejoin:miter;stroke:rgb(60.000002%,60.000002%,60.000002%);stroke-opacity:1;stroke-miterlimit:10;" d="M 101.072917 142.171875 L 101.072917 138.114583 " transform="matrix(0.75,0,0,0.75,0,0)"/>
<path style="fill:none;stroke-width:0.5;stroke-linecap:butt;stroke-linejoin:miter;stroke:rgb(60.000002%,60.000002%,60.000002%);stroke-opacity:1;stroke-miterlimit:10;" d="M 118.005208 122.276042 L 118.005208 138.114583 " transform="matrix(0.75,0,0,0.75,0,0)"/>
<path style="fill:none;stroke-width:0.5;stroke-linecap:butt;stroke-linejoin:miter;stroke:rgb(60.000002%,60.000002%,60.000002%);stroke-opacity:1;stroke-miterlimit:10;" d="M 134.932292 108.734375 L 134.932292 138.114583 " transform="matrix(0.75,0,0,0.75,0,0)"/>
<path style="fill:none;stroke-width:0.5;stroke-linecap:butt;stroke-linejoin:miter;stroke:rgb(60.000002%,60.000002%,60.000002%);stroke-opacity:1;stroke-miterlimit:10;" d="M 151.864583 99.817708 L 151.864583 138.114583 " transform="matrix(0.75,0,0,0.75,0,0)"/>
<path style="fill:none;stroke-width:0.5;stroke-linecap:butt;stroke-linejoin:miter;stroke:rgb(60.000002%,60.000002%,60.000002%);stroke-opacity:1;stroke-miterlimit:10;" d="M 168.791667 94.598958 L 168.791667 138.114583 " transform="matrix(0.75,0,0,0.75,0,0)"/>
<path style="fill:none;stroke-width:0.5;stroke-linecap:butt;stroke-linejoin:miter;stroke:rgb(60.000002%,60.000002%,60.000002%);stroke-opacity:1;stroke-miterlimit:10;" d="M 185.723958 92.442708 L 185.723958 138.114583 " transform="matrix(0.75,0,0,0.75,0,0)"/>
<path style="fill:none;stroke-width:0.5;stroke-linecap:butt;stroke-linejoin:miter;stroke:rgb(60.000002%,60.000002%,60.000002%);stroke-opacity:1;stroke-miterlimit:10;" d="M 202.651042 92.822917 L 202.651042 138.114583 " transform="matrix(0.75,0,0,0.75,0,0)"/>
<path style="fill:none;stroke-width:0.5;stroke-linecap:butt;stroke-linejoin:miter;stroke:rgb(60.000002%,60.000002%,60.000002%);stroke-opacity:1;stroke-miterlimit:10;" d="M 219.583333 95.223958 L 219.583333 138.114583 " transform="matrix(0.75,0,0,0.75,0,0)"/>
<path style="fill:none;stroke-width:0.5;stroke-linecap:butt;stroke-linejoin:miter;stroke:rgb(60.000002%,60.000002%,60.000002%);stroke-opacity:1;stroke-miterlimit:10;" d="M 236.510417 99.140625 L 236.510417 138.114583 " transform="matrix(0.75,0,0,0.75,0,0)"/>
<path style="fill:none;stroke-width:0.5;stroke-linecap:butt;stroke-linejoin:miter;stroke:rgb(60.000002%,60.000002%,60.000002%);stroke-opacity:1;stroke-miterlimit:10;" d="M 253.442708 104.057292 L 253.442708 138.114583 " transform="matrix(0.75,0,0,0.75,0,0)"/>
<path style="fill:none;stroke-width:0.5;stroke-linecap:butt;stroke-linejoin:miter;stroke:rgb(60.000002%,60.000002%,60.000002%);stroke-opacity:1;stroke-miterlimit:10;" d="M 270.375 109.479167 L 270.375 138.114583 " transform="matrix(0.75,0,0,0.75,0,0)"/>
<path style="fill:none;stroke-width:0.5;stroke-linecap:butt;stroke-linejoin:miter;stroke:rgb(60.000002%,60.000002%,60.000002%);stroke-opacity:1;stroke-miterlimit:10;" d="M 287.302083 114.9375 L 287.302083 138.114583 " transform="matrix(0.75,0,0,0.75,0,0)"/>
<path style="fill:none;stroke-width:0.5;stroke-linecap:butt;stroke-linejoin:miter;stroke:rgb(60.000002%,60.000002%,60.000002%);stroke-opacity:1;stroke-miterlimit:10;" d="M 304.234375 120.015625 L 304.234375 138.114583 " transform="matrix(0.75,0,0,0.75,0,0)"/>
<path style="fill:none;stroke-width:0.5;stroke-linecap:butt;stroke-linejoin:miter;stroke:rgb(60.000002%,60.000002%,60.000002%);stroke-opacity:1;stroke-miterlimit:10;" d="M 321.161458 124.380208 L 321.161458 138.114583 " transform="matrix(0.75,0,0,0.75,0,0)"/>
<path style="fill:none;stroke-width:0.5;stroke-linecap:butt;stroke-linejoin:miter;stroke:rgb(60.000002%,60.000002%,60.000002%);stroke-opacity:1;stroke-miterlimit:10;" d="M 338.09375 127.770833 L 338.09375 138.114583 " transform="matrix(0.75,0,0,0.75,0,0)"/>
<path style="fill:none;stroke-width:0.5;stroke-linecap:butt;stroke-linejoin:miter;stroke:rgb(60.000002%,60.000002%,60.000002%);stroke-opacity:1;stroke-miterlimit:10;" d="M 355.020833 130.03125 L 355.020833 138.114583 " transform="matrix(0.75,0,0,0.75,0,0)"/>
<path style="fill:none;stroke-width:0.5;stroke-linecap:butt;stroke-linejoin:miter;stroke:rgb(60.000002%,60.000002%,60.000002%);stroke-opacity:1;stroke-miterlimit:10;" d="M 371.953125 131.088542 L 371.953125 138.114583 " transform="matrix(0.75,0,0,0.75,0,0)"/>
<path style="fill:none;stroke-width:0.5;stroke-linecap:butt;stroke-linejoin:miter;stroke:rgb(60.000002%,60.000002%,60.000002%);stroke-opacity:1;stroke-miterlimit:10;" d="M 388.880208 130.989583 L 388.880208 138.114583 " transform="matrix(0.75,0,0,0.75,0,0)"/>
<path style="fill:none;stroke-width:0.5;stroke-linecap:butt;stroke-linejoin:miter;stroke:rgb(60.000002%,60.000002%,60.000002%);stroke-opacity:1;stroke-miterlimit:10;" d="M 405.8125 129.838542 L 405.8125 138.114583 " transform="matrix(0.75,0,0,0.75,0,0)"/>
<path style="fill:none;stroke-width:0.5;stroke-linecap:butt;stroke-linejoin:miter;stroke:rgb(60.000002%,60.000002%,60.000002%);stroke-opacity:1;stroke-miterlimit:10;" d="M 422.744792 127.822917 L 422.744792 138.114583 " transform="matrix(0.75,0,0,0.75,0,0)"/>
<path style="fill:none;stroke-width:0.5;stroke-linecap:butt;stroke-linejoin:miter;stroke:rgb(60.000002%,60.000002%,60.000002%);stroke-opacity:1;stroke-miterlimit:10;" d="M 439.671875 125.192708 L 439.671875 138.114583 " transform="matrix(0.75,0,0,0.75,0,0)"/>
<path style="fill:none;stroke-width:0.5;stroke-linecap:butt;stroke-linejoin:miter;stroke:rgb(60.000002%,60.000002%,60.000002%);stroke-opacity:1;stroke-miterlimit:10;" d="M 456.604167 122.203125 L 456.604167 138.114583 " transform="matrix(0.75,0,0,0.75,0,0)"/>
<path style="fill:none;stroke-width:0.5;stroke-linecap:butt;stroke-linejoin:miter;stroke:rgb(60.000002%,60.000002%,60.000002%);stroke-opacity:1;stroke-miterlimit:10;" d="M 473.53125 119.135417 L 473.53125 138.114583 " transform="matrix(0.75,0,0,0.75,0,0)"/>
<path style="fill:none;stroke-width:0.5;stroke-linecap:butt;stroke-linejoin:miter;stroke:rgb(60.000002%,60.000002%,60.000002%);stroke-opacity:1;stroke-miterlimit:10;" d="M 490.463542 116.244792 L 490.463542 138.114583 " transform="matrix(0.75,0,0,0.75,0,0)"/>
<path style="fill:none;stroke-width:0.5;stroke-linecap:butt;stroke-linejoin:miter;stroke:rgb(60.000002%,60.000002%,60.000002%);stroke-opacity:1;stroke-miterlimit:10;" d="M 507.390625 113.765625 L 507.390625 138.114583 " transform="matrix(0.75,0,0,0.75,0,0)"/>
<path style="fill:none;stroke-width:0.5;stroke-linecap:butt;stroke-linejoin:miter;stroke:rgb(60.000002%,60.000002%,60.000002%);stroke-opacity:1;stroke-miterlimit:10;" d="M 524.322917 111.875 L 524.322917 138.114583 " transform="matrix(0.75,0,0,0.75,0,0)"/>
<path style="fill:none;stroke-width:0.5;stroke-linecap:butt;stroke-linejoin:miter;stroke:rgb(60.000002%,60.000002%,60.000002%);stroke-opacity:1;stroke-miterlimit:10;" d="M 541.25 110.6875 L 541.25 138.114583 " transform="matrix(0.75,0,0,0.75,0,0)"/>
<path style="fill:none;stroke-width:0.5;stroke-linecap:butt;stroke-linejoin:miter;stroke:rgb(60.000002%,60.000002%,60.000002%);stroke-opacity:1;stroke-miterlimit:10;" d="M 558.182292 110.260417 L 558.182292 138.114583 " transform="matrix(0.75,0,0,0.75,0,0)"/>
<path style="fill:none;stroke-width:1;stroke-linecap:butt;stroke-linejoin:miter;stroke:rgb(100%,100%,100%);stroke-opacity:1;stroke-miterlimit:10;" d="M 46.473958 371.098958 L 46.473958 363.453125 L 54.098958 363.453125 L 54.098958 371.098958 Z M 55.005208 369.869792 " transform="matrix(0.75,0,0,0.75,0,0)"/>
<path style="fill:none;stroke-width:1;stroke-linecap:butt;stroke-linejoin:miter;stroke:rgb(100%,100%,100%);stroke-opacity:1;stroke-miterlimit:10;" d="M 63.40625 229.838542 L 63.40625 222.192708 L 71.03125 222.192708 L 71.03125 229.838542 Z M 71.9375 228.609375 " transform="matrix(0.75,0,0,0.75,0,0)"/>
<path style="fill:none;stroke-width:1;stroke-linecap:butt;stroke-linejoin:miter;stroke:rgb(100%,100%,100%);stroke-opacity:1;stroke-miterlimit:10;" d="M 80.333333 176.354167 L 80.333333 168.708333 L 87.958333 168.708333 L 87.958333 176.354167 Z M 88.864583 175.125 " transform="matrix(0.75,0,0,0.75,0,0)"/>
<path style="fill:none;stroke-width:1;stroke-linecap:butt;stroke-linejoin:miter;stroke:rgb(100%,100%,100%);stroke-opacity:1;stroke-miterlimit:10;" d="M 97.265625 146 L 97.265625 138.354167 L 104.890625 138.354167 L 104.890625 146 Z M 105.796875 144.770833 " transform="matrix(0.75,0,0,0.75,0,0)"/>
<path style="fill:none;stroke-width:1;stroke-linecap:butt;stroke-linejoin:miter;stroke:rgb(100%,100%,100%);stroke-opacity:1;stroke-miterlimit:10;" d="M 114.197917 126.104167 L 114.197917 118.458333 L 121.822917 118.458333 L 121.822917 126.104167 Z M 122.729167 124.875 " transform="matrix(0.75,0,0,0.75,0,0)"/>
<path style="fill:none;stroke-width:1;stroke-linecap:butt;stroke-linejoin:miter;stroke:rgb(100%,100%,100%);stroke-opacity:1;stroke-miterlimit:10;" d="M 131.125 112.5625 L 131.125 104.916667 L 138.75 104.916667 L 138.75 112.5625 Z M 139.65625 111.333333 " transform="matrix(0.75,0,0,0.75,0,0)"/>
<path style="fill:none;stroke-width:1;stroke-linecap:butt;stroke-linejoin:miter;stroke:rgb(100%,100%,100%);stroke-opacity:1;stroke-miterlimit:10;" d="M 148.057292 103.645833 L 148.057292 96 L 155.682292 96 L 155.682292 103.645833 Z M 156.588542 102.416667 " transform="matrix(0.75,0,0,0.75,0,0)"/>
<path style="fill:none;stroke-width:1;stroke-linecap:butt;stroke-linejoin:miter;stroke:rgb(100%,100%,100%);stroke-opacity:1;stroke-miterlimit:10;" d="M 164.984375 98.427083 L 164.984375 90.78125 L 172.609375 90.78125 L 172.609375 98.427083 Z M 173.515625 97.197917 " transform="matrix(0.75,0,0,0.75,0,0)"/>
<path style="fill:none;stroke-width:1;stroke-linecap:butt;stroke-linejoin:miter;stroke:rgb(100%,100%,100%);stroke-opacity:1;stroke-miterlimit:10;" d="M 181.916667 96.270833 L 181.916667 88.625 L 189.541667 88.625 L 189.541667 96.270833 Z M 190.447917 95.041667 " transform="matrix(0.75,0,0,0.75,0,0)"/>
<path style="fill:none;stroke-width:1;stroke-linecap:butt;stroke-linejoin:miter;stroke:rgb(100%,100%,100%);stroke-opacity:1;stroke-miterlimit:10;" d="M 198.84375 96.651042 L 198.84375 89.005208 L 206.46875 89.005208 L 206.46875 96.651042 Z M 207.375 95.421875 " transform="matrix(0.75,0,0,0.75,0,0)"/>
<path style="fill:none;stroke-width:1;stroke-linecap:butt;stroke-linejoin:miter;stroke:rgb(100%,100%,100%);stroke-opacity:1;stroke-miterlimit:10;" d="M 215.776042 99.052083 L 215.776042 91.40625 L 223.401042 91.40625 L 223.401042 99.052083 Z M 224.307292 97.822917 " transform="matrix(0.75,0,0,0.75,0,0)"/>
<path style="fill:none;stroke-width:1;stroke-linecap:butt;stroke-linejoin:miter;stroke:rgb(100%,100%,100%);stroke-opacity:1;stroke-miterlimit:10;" d="M 232.703125 102.96875 L 232.703125 95.322917 L 240.328125 95.322917 L 240.328125 102.96875 Z M 241.234375 101.739583 " transform="matrix(0.75,0,0,0.75,0,0)"/>
<path style="fill:none;stroke-width:1;stroke-linecap:butt;stroke-linejoin:miter;stroke:rgb(100%,100%,100%);stroke-opacity:1;stroke-miterlimit:10;" d="M 249.635417 107.885417 L 249.635417 100.239583 L 257.260417 100.239583 L 257.260417 107.885417 Z M 258.166667 106.65625 " transform="matrix(0.75,0,0,0.75,0,0)"/>
<path style="fill:none;stroke-width:1;stroke-linecap:butt;stroke-linejoin:miter;stroke:rgb(100%,100%,100%);stroke-opacity:1;stroke-miterlimit:10;" d="M 266.567708 113.302083 L 266.567708 105.65625 L 274.192708 105.65625 L 274.192708 113.302083 Z M 275.098958 112.072917 " transform="matrix(0.75,0,0,0.75,0,0)"/>
<path style="fill:none;stroke-width:1;stroke-linecap:butt;stroke-linejoin:miter;stroke:rgb(100%,100%,100%);stroke-opacity:1;stroke-miterlimit:10;" d="M 283.494792 118.760417 L 283.494792 111.114583 L 291.119792 111.114583 L 291.119792 118.760417 Z M 292.026042 117.53125 " transform="matrix(0.75,0,0,0.75,0,0)"/>
<path style="fill:none;stroke-width:1;stroke-linecap:butt;stroke-linejoin:miter;stroke:rgb(100%,100%,100%);stroke-opacity:1;stroke-miterlimit:10;" d="M 300.427083 123.84375 L 300.427083 116.197917 L 308.052083 116.197917 L 308.052083 123.84375 Z M 308.958333 122.614583 " transform="matrix(0.75,0,0,0.75,0,0)"/>
<path style="fill:none;stroke-width:1;stroke-linecap:butt;stroke-linejoin:miter;stroke:rgb(100%,100%,100%);stroke-opacity:1;stroke-miterlimit:10;" d="M 317.354167 128.208333 L 317.354167 120.5625 L 324.979167 120.5625 L 324.979167 128.208333 Z M 325.885417 126.979167 " transform="matrix(0.75,0,0,0.75,0,0)"/>
<path style="fill:none;stroke-width:1;stroke-linecap:butt;stroke-linejoin:miter;stroke:rgb(100%,100%,100%);stroke-opacity:1;stroke-miterlimit:10;" d="M 334.286458 131.598958 L 334.286458 123.953125 L 341.911458 123.953125 L 341.911458 131.598958 Z M 342.817708 130.369792 " transform="matrix(0.75,0,0,0.75,0,0)"/>
<path style="fill:none;stroke-width:1;stroke-linecap:butt;stroke-linejoin:miter;stroke:rgb(100%,100%,100%);stroke-opacity:1;stroke-miterlimit:10;" d="M 351.213542 133.854167 L 351.213542 126.208333 L 358.838542 126.208333 L 358.838542 133.854167 Z M 359.744792 132.625 " transform="matrix(0.75,0,0,0.75,0,0)"/>
<path style="fill:none;stroke-width:1;stroke-linecap:butt;stroke-linejoin:miter;stroke:rgb(100%,100%,100%);stroke-opacity:1;stroke-miterlimit:10;" d="M 368.145833 134.916667 L 368.145833 127.270833 L 375.770833 127.270833 L 375.770833 134.916667 Z M 376.677083 133.6875 " transform="matrix(0.75,0,0,0.75,0,0)"/>
<path style="fill:none;stroke-width:1;stroke-linecap:butt;stroke-linejoin:miter;stroke:rgb(100%,100%,100%);stroke-opacity:1;stroke-miterlimit:10;" d="M 385.072917 134.8125 L 385.072917 127.166667 L 392.697917 127.166667 L 392.697917 134.8125 Z M 393.604167 133.583333 " transform="matrix(0.75,0,0,0.75,0,0)"/>
<path style="fill:none;stroke-width:1;stroke-linecap:butt;stroke-linejoin:miter;stroke:rgb(100%,100%,100%);stroke-opacity:1;stroke-miterlimit:10;" d="M 402.005208 133.661458 L 402.005208 126.015625 L 409.630208 126.015625 L 409.630208 133.661458 Z M 410.536458 132.432292 " transform="matrix(0.75,0,0,0.75,0,0)"/>
<path style="fill:none;stroke-width:1;stroke-linecap:butt;stroke-linejoin:miter;stroke:rgb(100%,100%,100%);stroke-opacity:1;stroke-miterlimit:10;" d="M 418.932292 131.651042 L 418.932292 124.005208 L 426.557292 124.005208 L 426.557292 131.651042 Z M 427.463542 130.421875 " transform="matrix(0.75,0,0,0.75,0,0)"/>
<path style="fill:none;stroke-width:1;stroke-linecap:butt;stroke-linejoin:miter;stroke:rgb(100%,100%,100%);stroke-opacity:1;stroke-miterlimit:10;" d="M 435.864583 129.020833 L 435.864583 121.375 L 443.489583 121.375 L 443.489583 129.020833 Z M 444.395833 127.791667 " transform="matrix(0.75,0,0,0.75,0,0)"/>
<path style="fill:none;stroke-width:1;stroke-linecap:butt;stroke-linejoin:miter;stroke:rgb(100%,100%,100%);stroke-opacity:1;stroke-miterlimit:10;" d="M 452.796875 126.03125 L 452.796875 118.385417 L 460.421875 118.385417 L 460.421875 126.03125 Z M 461.328125 124.802083 " transform="matrix(0.75,0,0,0.75,0,0)"/>
<path style="fill:none;stroke-width:1;stroke-linecap:butt;stroke-linejoin:miter;stroke:rgb(100%,100%,100%);stroke-opacity:1;stroke-miterlimit:10;" d="M 469.723958 122.958333 L 469.723958 115.3125 L 477.348958 115.3125 L 477.348958 122.958333 Z M 478.255208 121.729167 " transform="matrix(0.75,0,0,0.75,0,0)"/>
<path style="fill:none;stroke-width:1;stroke-linecap:butt;stroke-linejoin:miter;stroke:rgb(100%,100%,100%);stroke-opacity:1;stroke-miterlimit:10;" d="M 486.65625 120.072917 L 486.65625 112.427083 L 494.28125 112.427083 L 494.28125 120.072917 Z M 495.1875 118.84375 " transform="matrix(0.75,0,0,0.75,0,0)"/>
<path style="fill:none;stroke-width:1;stroke-linecap:butt;stroke-linejoin:miter;stroke:rgb(100%,100%,100%);stroke-opacity:1;stroke-miterlimit:10;" d="M 503.583333 117.59375 L 503.583333 109.947917 L 511.208333 109.947917 L 511.208333 117.59375 Z M 512.114583 116.364583 " transform="matrix(0.75,0,0,0.75,0,0)"/>
<path style="fill:none;stroke-width:1;stroke-linecap:butt;stroke-linejoin:miter;stroke:rgb(100%,100%,100%);stroke-opacity:1;stroke-miterlimit:10;" d="M 520.515625 115.697917 L 520.515625 108.052083 L 528.140625 108.052083 L 528.140625 115.697917 Z M 529.046875 114.46875 " transform="matrix(0.75,0,0,0.75,0,0)"/>
<path style="fill:none;stroke-width:1;stroke-linecap:butt;stroke-linejoin:miter;stroke:rgb(100%,100%,100%);stroke-opacity:1;stroke-miterlimit:10;" d="M 537.442708 114.515625 L 537.442708 106.869792 L 545.067708 106.869792 L 545.067708 114.515625 Z M 545.973958 113.286458 " transform="matrix(0.75,0,0,0.75,0,0)"/>
<path style="fill:none;stroke-width:1;stroke-linecap:butt;stroke-linejoin:miter;stroke:rgb(100%,100%,100%);stroke-opacity:1;stroke-miterlimit:10;" d="M 554.375 114.088542 L 554.375 106.442708 L 562 106.442708 L 562 114.088542 Z M 562.90625 112.859375 " transform="matrix(0.75,0,0,0.75,0,0)"/>
<path style="fill:none;stroke-width:1.5;stroke-linecap:butt;stroke-linejoin:miter;stroke:rgb(60.000002%,60.000002%,60.000002%);stroke-opacity:1;stroke-miterlimit:10;" d="M 81.322917 138.114583 L 476.354167 138.114583 " transform="matrix(0.75,0,0,0.75,0,0)"/>
<path style="fill:none;stroke-width:1.5;stroke-linecap:round;stroke-linejoin:miter;stroke:rgb(62.352943%,0.392157%,38.431373%);stroke-opacity:1;stroke-dasharray:4.5,4.5;stroke-miterlimit:10;" d="M 81.322917 51.479167 L 81.322917 138.114583 " transform="matrix(0.75,0,0,0.75,0,0)"/>
<path style="fill:none;stroke-width:1.5;stroke-linecap:round;stroke-linejoin:miter;stroke:rgb(57.254905%,47.058824%,60.784316%);stroke-opacity:1;stroke-dasharray:4.5,4.5;stroke-miterlimit:10;" d="M 137.755208 225.328125 L 137.755208 138.114583 " transform="matrix(0.75,0,0,0.75,0,0)"/>
<path style="fill:none;stroke-width:1.5;stroke-linecap:round;stroke-linejoin:miter;stroke:rgb(7.450981%,84.705883%,81.176472%);stroke-opacity:1;stroke-dasharray:4.5,4.5;stroke-miterlimit:10;" d="M 194.1875 209.395833 L 194.1875 138.114583 " transform="matrix(0.75,0,0,0.75,0,0)"/>
<path style="fill:none;stroke-width:1.5;stroke-linecap:round;stroke-linejoin:miter;stroke:rgb(14.901961%,39.607844%,92.54902%);stroke-opacity:1;stroke-dasharray:4.5,4.5;stroke-miterlimit:10;" d="M 250.619792 340 L 250.619792 138.114583 " transform="matrix(0.75,0,0,0.75,0,0)"/>
<path style="fill:none;stroke-width:1.5;stroke-linecap:round;stroke-linejoin:miter;stroke:rgb(28.627452%,74.117649%,98.039216%);stroke-opacity:1;stroke-dasharray:4.5,4.5;stroke-miterlimit:10;" d="M 307.052083 217.255208 L 307.052083 138.114583 " transform="matrix(0.75,0,0,0.75,0,0)"/>
<path style="fill:none;stroke-width:1.5;stroke-linecap:round;stroke-linejoin:miter;stroke:rgb(69.411767%,10.196079%,25.490198%);stroke-opacity:1;stroke-dasharray:4.5,4.5;stroke-miterlimit:10;" d="M 363.489583 72.911458 L 363.489583 138.114583 " transform="matrix(0.75,0,0,0.75,0,0)"/>
<path style="fill:none;stroke-width:1.5;stroke-linecap:round;stroke-linejoin:miter;stroke:rgb(93.333334%,18.82353%,21.568628%);stroke-opacity:1;stroke-dasharray:4.5,4.5;stroke-miterlimit:10;" d="M 419.921875 239.041667 L 419.921875 138.114583 " transform="matrix(0.75,0,0,0.75,0,0)"/>
<path style="fill:none;stroke-width:1.5;stroke-linecap:round;stroke-linejoin:miter;stroke:rgb(100%,76.47059%,23.137255%);stroke-opacity:1;stroke-dasharray:4.5,4.5;stroke-miterlimit:10;" d="M 476.354167 77.427083 L 476.354167 138.114583 " transform="matrix(0.75,0,0,0.75,0,0)"/>
<path style="fill-rule:nonzero;fill:rgb(62.352943%,0.392157%,38.431373%);fill-opacity:0.65;stroke-width:1.5;stroke-linecap:butt;stroke-linejoin:miter;stroke:rgb(62.352943%,0.392157%,38.431373%);stroke-opacity:1;stroke-miterlimit:10;" d="M 74.421875 51.473958 C 74.421875 50.239583 74.723958 49.088542 75.338542 48.015625 C 75.947917 46.947917 76.786458 46.109375 77.859375 45.494792 C 78.927083 44.869792 80.078125 44.557292 81.317708 44.557292 C 82.552083 44.557292 83.703125 44.869792 84.776042 45.494792 C 85.84375 46.109375 86.682292 46.947917 87.296875 48.015625 C 87.921875 49.088542 88.234375 50.239583 88.234375 51.473958 C 88.234375 52.713542 87.921875 53.864583 87.296875 54.932292 C 86.682292 56.005208 85.84375 56.838542 84.776042 57.453125 C 83.703125 58.078125 82.552083 58.390625 81.317708 58.390625 C 80.078125 58.390625 78.927083 58.078125 77.859375 57.453125 C 76.786458 56.838542 75.947917 56.005208 75.338542 54.932292 C 74.723958 53.864583 74.421875 52.713542 74.421875 51.473958 Z M 89.21875 56.161458 " transform="matrix(0.75,0,0,0.75,0,0)"/>
<path style="fill-rule:nonzero;fill:rgb(57.254905%,47.058824%,60.784316%);fill-opacity:0.65;stroke-width:1.5;stroke-linecap:butt;stroke-linejoin:miter;stroke:rgb(57.254905%,47.058824%,60.784316%);stroke-opacity:1;stroke-miterlimit:10;" d="M 130 233.109375 L 130 217.546875 L 145.520833 217.546875 L 145.520833 233.109375 Z M 147.364583 230.609375 " transform="matrix(0.75,0,0,0.75,0,0)"/>
<path style="fill-rule:nonzero;fill:rgb(7.450981%,84.705883%,81.176472%);fill-opacity:0.65;stroke-width:1.5;stroke-linecap:butt;stroke-linejoin:miter;stroke:rgb(7.450981%,84.705883%,81.176472%);stroke-opacity:1;stroke-miterlimit:10;" d="M 189.552083 214.052083 L 194.177083 204.739583 L 198.822917 214.052083 Z M 198.859375 212.552083 " transform="matrix(0.75,0,0,0.75,0,0)"/>
<path style="fill-rule:nonzero;fill:rgb(14.901961%,39.607844%,92.54902%);fill-opacity:0.65;stroke-width:1.5;stroke-linecap:butt;stroke-linejoin:miter;stroke:rgb(14.901961%,39.607844%,92.54902%);stroke-opacity:1;stroke-miterlimit:10;" d="M 242.885417 332.244792 L 258.34375 332.244792 L 250.614583 347.765625 Z M 258.416667 345.265625 " transform="matrix(0.75,0,0,0.75,0,0)"/>
<path style="fill-rule:nonzero;fill:rgb(28.627452%,74.117649%,98.039216%);fill-opacity:0.65;stroke-width:1.5;stroke-linecap:butt;stroke-linejoin:miter;stroke:rgb(28.627452%,74.117649%,98.039216%);stroke-opacity:1;stroke-miterlimit:10;" d="M 303.072917 217.25 L 307.052083 213.270833 L 311.03125 217.25 L 307.052083 221.25 Z M 311.057292 219.958333 " transform="matrix(0.75,0,0,0.75,0,0)"/>
<path style="fill-rule:nonzero;fill:rgb(69.411767%,10.196079%,25.490198%);fill-opacity:0.65;stroke-width:1.5;stroke-linecap:butt;stroke-linejoin:miter;stroke:rgb(69.411767%,10.196079%,25.490198%);stroke-opacity:1;stroke-miterlimit:10;" d="M 354.395833 70.875 L 363.479167 64.270833 L 372.5625 70.875 L 369.104167 81.5625 L 357.875 81.5625 Z M 372.953125 80.979167 " transform="matrix(0.75,0,0,0.75,0,0)"/>
<path style="fill-rule:nonzero;fill:rgb(93.333334%,18.82353%,21.568628%);fill-opacity:0.65;stroke-width:1.5;stroke-linecap:butt;stroke-linejoin:miter;stroke:rgb(93.333334%,18.82353%,21.568628%);stroke-opacity:1;stroke-miterlimit:10;" d="M 421.901042 237.057292 L 427.317708 237.057292 L 427.317708 241.036458 L 421.901042 241.036458 L 421.901042 246.453125 L 417.942708 246.453125 L 417.942708 241.036458 L 412.505208 241.036458 L 412.505208 237.057292 L 417.942708 237.057292 L 417.942708 231.619792 L 421.901042 231.619792 Z M 428.442708 246.453125 " transform="matrix(0.75,0,0,0.75,0,0)"/>
<path style="fill-rule:nonzero;fill:rgb(100%,76.47059%,23.137255%);fill-opacity:0.65;stroke-width:1.5;stroke-linecap:butt;stroke-linejoin:miter;stroke:rgb(100%,76.47059%,23.137255%);stroke-opacity:1;stroke-miterlimit:10;" d="M 474.84375 77.427083 L 472.052083 74.635417 L 473.552083 73.135417 L 476.34375 75.927083 L 479.135417 73.135417 L 480.635417 74.635417 L 477.84375 77.427083 L 480.635417 80.239583 L 479.135417 81.71875 L 476.364583 78.927083 L 473.552083 81.71875 L 472.052083 80.21875 Z M 481.34375 81.489583 " transform="matrix(0.75,0,0,0.75,0,0)"/>
</g>
</svg>
