<?xml version="1.0" encoding="UTF-8"?>
<svg xmlns="http://www.w3.org/2000/svg" xmlns:xlink="http://www.w3.org/1999/xlink" width="450pt" height="300pt" viewBox="0 0 450 300" version="1.1">
<defs>
<g>
<symbol overflow="visible" id="ssPO8MN+0-0">
<path style="stroke:none;" d="M 0.59375 2.125 L 0.59375 -8.46875 L 6.59375 -8.46875 L 6.59375 2.125 Z M 1.265625 1.453125 L 5.9375 1.453125 L 5.9375 -7.78125 L 1.265625 -7.78125 Z M 1.265625 1.453125 "/>
</symbol>
<symbol overflow="visible" id="ssPO8MN+0-1">
<path style="stroke:none;" d="M 4.109375 -7.578125 L 2.5 -3.234375 L 5.71875 -3.234375 Z M 3.4375 -8.75 L 4.78125 -8.75 L 8.109375 0 L 6.875 0 L 6.078125 -2.25 L 2.140625 -2.25 L 1.34375 0 L 0.09375 0 Z M 3.4375 -8.75 "/>
</symbol>
<symbol overflow="visible" id="ssPO8MN+1-0">
<path style="stroke:none;" d="M 0.59375 2.125 L 0.59375 -8.46875 L 6.59375 -8.46875 L 6.59375 2.125 Z M 1.265625 1.453125 L 5.9375 1.453125 L 5.9375 -7.78125 L 1.265625 -7.78125 Z M 1.265625 1.453125 "/>
</symbol>
<symbol overflow="visible" id="ssPO8MN+1-1">
<path style="stroke:none;" d="M 2.359375 -4.171875 L 2.359375 -0.96875 L 4.265625 -0.96875 C 4.898438 -0.96875 5.367188 -1.097656 5.671875 -1.359375 C 5.984375 -1.628906 6.140625 -2.035156 6.140625 -2.578125 C 6.140625 -3.128906 5.984375 -3.53125 5.671875 -3.78125 C 5.367188 -4.039062 4.898438 -4.171875 4.265625 -4.171875 Z M 2.359375 -7.78125 L 2.359375 -5.140625 L 4.109375 -5.140625 C 4.691406 -5.140625 5.125 -5.25 5.40625 -5.46875 C 5.6875 -5.6875 5.828125 -6.015625 5.828125 -6.453125 C 5.828125 -6.898438 5.6875 -7.234375 5.40625 -7.453125 C 5.125 -7.671875 4.691406 -7.78125 4.109375 -7.78125 Z M 1.171875 -8.75 L 4.203125 -8.75 C 5.109375 -8.75 5.800781 -8.5625 6.28125 -8.1875 C 6.769531 -7.8125 7.015625 -7.28125 7.015625 -6.59375 C 7.015625 -6.050781 6.890625 -5.617188 6.640625 -5.296875 C 6.390625 -4.984375 6.023438 -4.789062 5.546875 -4.71875 C 6.128906 -4.59375 6.582031 -4.332031 6.90625 -3.9375 C 7.226562 -3.539062 7.390625 -3.046875 7.390625 -2.453125 C 7.390625 -1.671875 7.125 -1.066406 6.59375 -0.640625 C 6.0625 -0.210938 5.300781 0 4.3125 0 L 1.171875 0 Z M 1.171875 -8.75 "/>
</symbol>
<symbol overflow="visible" id="ssPO8MN+2-0">
<path style="stroke:none;" d="M 0.59375 2.125 L 0.59375 -8.46875 L 6.59375 -8.46875 L 6.59375 2.125 Z M 1.265625 1.453125 L 5.9375 1.453125 L 5.9375 -7.78125 L 1.265625 -7.78125 Z M 1.265625 1.453125 "/>
</symbol>
<symbol overflow="visible" id="ssPO8MN+2-1">
<path style="stroke:none;" d="M 7.734375 -8.078125 L 7.734375 -6.828125 C 7.328125 -7.203125 6.898438 -7.476562 6.453125 -7.65625 C 6.003906 -7.84375 5.523438 -7.9375 5.015625 -7.9375 C 4.015625 -7.9375 3.25 -7.628906 2.71875 -7.015625 C 2.1875 -6.398438 1.921875 -5.515625 1.921875 -4.359375 C 1.921875 -3.210938 2.1875 -2.332031 2.71875 -1.71875 C 3.25 -1.101562 4.015625 -0.796875 5.015625 -0.796875 C 5.523438 -0.796875 6.003906 -0.890625 6.453125 -1.078125 C 6.898438 -1.265625 7.328125 -1.539062 7.734375 -1.90625 L 7.734375 -0.671875 C 7.316406 -0.390625 6.875 -0.175781 6.40625 -0.03125 C 5.945312 0.101562 5.460938 0.171875 4.953125 0.171875 C 3.617188 0.171875 2.570312 -0.234375 1.8125 -1.046875 C 1.050781 -1.859375 0.671875 -2.960938 0.671875 -4.359375 C 0.671875 -5.765625 1.050781 -6.875 1.8125 -7.6875 C 2.570312 -8.5 3.617188 -8.90625 4.953125 -8.90625 C 5.472656 -8.90625 5.960938 -8.832031 6.421875 -8.6875 C 6.890625 -8.550781 7.328125 -8.347656 7.734375 -8.078125 Z M 7.734375 -8.078125 "/>
</symbol>
<symbol overflow="visible" id="ssPO8MN+3-0">
<path style="stroke:none;" d="M 0.59375 2.125 L 0.59375 -8.46875 L 6.59375 -8.46875 L 6.59375 2.125 Z M 1.265625 1.453125 L 5.9375 1.453125 L 5.9375 -7.78125 L 1.265625 -7.78125 Z M 1.265625 1.453125 "/>
</symbol>
<symbol overflow="visible" id="ssPO8MN+3-1">
<path style="stroke:none;" d="M 2.359375 -7.78125 L 2.359375 -0.96875 L 3.796875 -0.96875 C 5.003906 -0.96875 5.882812 -1.238281 6.4375 -1.78125 C 7 -2.332031 7.28125 -3.203125 7.28125 -4.390625 C 7.28125 -5.554688 7 -6.410156 6.4375 -6.953125 C 5.882812 -7.503906 5.003906 -7.78125 3.796875 -7.78125 Z M 1.171875 -8.75 L 3.609375 -8.75 C 5.304688 -8.75 6.550781 -8.394531 7.34375 -7.6875 C 8.132812 -6.988281 8.53125 -5.890625 8.53125 -4.390625 C 8.53125 -2.878906 8.128906 -1.769531 7.328125 -1.0625 C 6.535156 -0.351562 5.296875 0 3.609375 0 L 1.171875 0 Z M 1.171875 -8.75 "/>
</symbol>
</g>
</defs>
<g id="surface1">
<rect x="0" y="0" width="450" height="300" style="fill:rgb(10.196079%,10.196079%,10.196079%);fill-opacity:1;stroke:none;"/>
<path style="fill:none;stroke-width:1;stroke-linecap:butt;stroke-linejoin:miter;stroke:rgb(100%,100%,100%);stroke-opacity:0.09;stroke-miterlimit:10;" d="M 89.854167 363 L 89.854167 16 " transform="matrix(0.75,0,0,0.75,0,0)"/>
<path style="fill:none;stroke-width:1;stroke-linecap:butt;stroke-linejoin:miter;stroke:rgb(100%,100%,100%);stroke-opacity:0.09;stroke-miterlimit:10;" d="M 209.9375 363 L 209.9375 16 " transform="matrix(0.75,0,0,0.75,0,0)"/>
<path style="fill:none;stroke-width:1;stroke-linecap:butt;stroke-linejoin:miter;stroke:rgb(100%,100%,100%);stroke-opacity:0.09;stroke-miterlimit:10;" d="M 330.020833 363 L 330.020833 16 " transform="matrix(0.75,0,0,0.75,0,0)"/>
<path style="fill:none;stroke-width:1;stroke-linecap:butt;stroke-linejoin:miter;stroke:rgb(100%,100%,100%);stroke-opacity:0.09;stroke-miterlimit:10;" d="M 450.104167 363 L 450.104167 16 " transform="matrix(0.75,0,0,0.75,0,0)"/>
<path style="fill:none;stroke-width:1;stroke-linecap:butt;stroke-linejoin:miter;stroke:rgb(100%,100%,100%);stroke-opacity:0.09;stroke-miterlimit:10;" d="M 16 352.109375 L 584 352.109375 " transform="matrix(0.75,0,0,0.75,0,0)"/>
<path style="fill:none;stroke-width:1;stroke-linecap:butt;stroke-linejoin:miter;stroke:rgb(100%,100%,100%);stroke-opacity:0.09;stroke-miterlimit:10;" d="M 16 278.28125 L 584 278.28125 " transform="matrix(0.75,0,0,0.75,0,0)"/>
<path style="fill:none;stroke-width:1;stroke-linecap:butt;stroke-linejoin:miter;stroke:rgb(100%,100%,100%);stroke-opacity:0.09;stroke-miterlimit:10;" d="M 16 204.458333 L 584 204.458333 " transform="matrix(0.75,0,0,0.75,0,0)"/>
<path style="fill:none;stroke-width:1;stroke-linecap:butt;stroke-linejoin:miter;stroke:rgb(100%,100%,100%);stroke-opacity:0.09;stroke-miterlimit:10;" d="M 16 130.635417 L 584 130.635417 " transform="matrix(0.75,0,0,0.75,0,0)"/>
<path style="fill:none;stroke-width:1;stroke-linecap:butt;stroke-linejoin:miter;stroke:rgb(100%,100%,100%);stroke-opacity:0.09;stroke-miterlimit:10;" d="M 16 56.807292 L 584 56.807292 " transform="matrix(0.75,0,0,0.75,0,0)"/>
<g style="fill:rgb(45.09804%,45.09804%,45.09804%);fill-opacity:1;">
  <use xlink:href="#ssPO8MN+0-1" x="63.335937" y="285.640625"/>
</g>
<g style="fill:rgb(45.09804%,45.09804%,45.09804%);fill-opacity:1;">
  <use xlink:href="#ssPO8MN+1-1" x="153.761719" y="285.640625"/>
</g>
<g style="fill:rgb(45.09804%,45.09804%,45.09804%);fill-opacity:1;">
  <use xlink:href="#ssPO8MN+2-1" x="243.652344" y="285.640625"/>
</g>
<g style="fill:rgb(45.09804%,45.09804%,45.09804%);fill-opacity:1;">
  <use xlink:href="#ssPO8MN+3-1" x="333.3125" y="285.640625"/>
</g>
<path style=" stroke:none;fill-rule:nonzero;fill:rgb(0.392157%,45.09804%,69.803923%);fill-opacity:1;" d="M 67.390625 252.367188 L 67.390625 249.578125 L 67.394531 249.113281 L 67.398438 248.644531 L 67.402344 248.179688 L 67.417969 247.25 L 67.464844 245.855469 L 67.503906 244.925781 L 67.523438 244.457031 L 67.542969 243.992188 L 67.574219 243.0625 L 67.609375 241.667969 L 67.625 241.203125 L 67.644531 240.734375 L 67.675781 240.269531 L 67.722656 239.804688 L 67.78125 239.339844 L 67.855469 238.875 L 67.949219 238.410156 L 68.058594 237.945312 L 68.183594 237.480469 L 68.328125 237.015625 L 68.480469 236.546875 L 68.640625 236.082031 L 68.984375 235.152344 L 69.160156 234.6875 L 69.347656 234.222656 L 69.546875 233.757812 L 69.761719 233.292969 L 70 232.828125 L 70.273438 232.359375 L 70.578125 231.894531 L 70.925781 231.429688 L 71.320312 230.964844 L 71.753906 230.5 L 72.226562 230.035156 L 72.742188 229.570312 L 73.289062 229.105469 L 73.867188 228.636719 L 74.46875 228.171875 L 75.085938 227.707031 L 75.722656 227.242188 L 76.378906 226.777344 L 77.046875 226.3125 L 77.738281 225.847656 L 78.449219 225.382812 L 79.1875 224.917969 L 79.949219 224.449219 L 80.730469 223.984375 L 81.527344 223.519531 L 82.332031 223.054688 L 83.125 222.589844 L 83.90625 222.125 L 84.664062 221.660156 L 85.394531 221.195312 L 86.101562 220.730469 L 86.792969 220.261719 L 87.484375 219.796875 L 88.1875 219.332031 L 88.925781 218.867188 L 89.707031 218.402344 L 90.554688 217.9375 L 91.464844 217.472656 L 92.445312 217.007812 L 93.492188 216.539062 L 94.589844 216.074219 L 95.726562 215.609375 L 96.875 215.144531 L 98.011719 214.679688 L 99.109375 214.214844 L 100.136719 213.75 L 101.0625 213.285156 L 101.859375 212.820312 L 102.503906 212.351562 L 102.980469 211.886719 L 103.28125 211.421875 L 103.414062 210.957031 L 103.386719 210.492188 L 103.21875 210.027344 L 102.933594 209.5625 L 102.558594 209.097656 L 102.125 208.632812 L 101.652344 208.164062 L 101.160156 207.699219 L 100.65625 207.234375 L 100.140625 206.769531 L 99.605469 206.304688 L 99.046875 205.839844 L 98.445312 205.375 L 97.800781 204.910156 L 97.113281 204.445312 L 96.394531 203.976562 L 95.65625 203.511719 L 94.921875 203.046875 L 94.207031 202.582031 L 93.519531 202.117188 L 92.859375 201.652344 L 92.222656 201.1875 L 91.582031 200.722656 L 90.921875 200.253906 L 90.214844 199.789062 L 89.441406 199.324219 L 88.601562 198.859375 L 87.699219 198.394531 L 86.753906 197.929688 L 85.796875 197.464844 L 84.851562 197 L 83.953125 196.535156 L 83.125 196.066406 L 82.367188 195.601562 L 81.679688 195.136719 L 81.050781 194.671875 L 80.457031 194.207031 L 79.871094 193.742188 L 79.277344 193.277344 L 78.660156 192.8125 L 78.019531 192.347656 L 77.351562 191.878906 L 76.667969 191.414062 L 75.980469 190.949219 L 75.304688 190.484375 L 74.65625 190.019531 L 74.042969 189.554688 L 73.476562 189.089844 L 72.957031 188.625 L 72.484375 188.15625 L 72.054688 187.691406 L 71.664062 187.226562 L 71.304688 186.761719 L 70.96875 186.296875 L 70.648438 185.832031 L 70.34375 185.367188 L 70.050781 184.902344 L 69.769531 184.4375 L 69.5 183.96875 L 69.246094 183.503906 L 69.007812 183.039062 L 68.785156 182.574219 L 68.582031 182.109375 L 68.394531 181.644531 L 68.226562 181.179688 L 68.078125 180.714844 L 67.945312 180.25 L 67.832031 179.78125 L 67.734375 179.316406 L 67.652344 178.851562 L 67.589844 178.386719 L 67.542969 177.921875 L 67.507812 177.457031 L 67.488281 176.992188 L 67.480469 176.527344 L 67.484375 176.058594 L 67.492188 175.59375 L 67.523438 174.664062 L 67.542969 174.199219 L 67.589844 172.804688 L 67.597656 172.339844 L 67.605469 171.871094 L 67.609375 171.40625 L 67.609375 170.476562 L 67.59375 169.546875 L 67.570312 168.617188 L 67.550781 168.152344 L 67.53125 167.683594 L 67.507812 167.21875 L 67.488281 166.753906 L 67.464844 166.289062 L 67.417969 164.894531 L 67.410156 164.429688 L 67.402344 163.960938 L 67.390625 162.566406 L 67.390625 159.773438 L 67.390625 160.707031 L 67.386719 161.171875 L 67.386719 162.566406 L 67.375 163.960938 L 67.367188 164.429688 L 67.359375 164.894531 L 67.3125 166.289062 L 67.289062 166.753906 L 67.269531 167.21875 L 67.246094 167.683594 L 67.226562 168.152344 L 67.195312 169.082031 L 67.183594 169.546875 L 67.167969 170.476562 L 67.167969 171.40625 L 67.171875 171.871094 L 67.179688 172.339844 L 67.1875 172.804688 L 67.234375 174.199219 L 67.273438 175.128906 L 67.296875 176.058594 L 67.296875 176.527344 L 67.289062 176.992188 L 67.269531 177.457031 L 67.238281 177.921875 L 67.1875 178.386719 L 67.125 178.851562 L 67.042969 179.316406 L 66.949219 179.78125 L 66.832031 180.25 L 66.699219 180.714844 L 66.550781 181.179688 L 66.382812 181.644531 L 66.195312 182.109375 L 65.992188 182.574219 L 65.769531 183.039062 L 65.53125 183.503906 L 65.277344 183.96875 L 65.007812 184.4375 L 64.726562 184.902344 L 64.433594 185.367188 L 64.128906 185.832031 L 63.808594 186.296875 L 63.472656 186.761719 L 63.113281 187.226562 L 62.722656 187.691406 L 62.292969 188.15625 L 61.820312 188.625 L 61.300781 189.089844 L 60.734375 189.554688 L 60.121094 190.019531 L 59.472656 190.484375 L 58.796875 190.949219 L 58.109375 191.414062 L 57.425781 191.878906 L 56.757812 192.347656 L 56.117188 192.8125 L 55.5 193.277344 L 54.90625 193.742188 L 54.324219 194.207031 L 53.726562 194.671875 L 53.097656 195.136719 L 52.410156 195.601562 L 51.652344 196.066406 L 50.824219 196.535156 L 49.925781 197 L 48.984375 197.464844 L 48.023438 197.929688 L 47.078125 198.394531 L 46.175781 198.859375 L 45.335938 199.324219 L 44.5625 199.789062 L 43.855469 200.253906 L 43.195312 200.722656 L 42.554688 201.1875 L 41.917969 201.652344 L 41.261719 202.117188 L 40.574219 202.582031 L 39.855469 203.046875 L 39.121094 203.511719 L 38.382812 203.976562 L 37.664062 204.445312 L 36.976562 204.910156 L 36.332031 205.375 L 35.730469 205.839844 L 35.171875 206.304688 L 34.636719 206.769531 L 34.121094 207.234375 L 33.617188 207.699219 L 33.125 208.164062 L 32.652344 208.632812 L 32.21875 209.097656 L 31.847656 209.5625 L 31.5625 210.027344 L 31.390625 210.492188 L 31.363281 210.957031 L 31.496094 211.421875 L 31.796875 211.886719 L 32.273438 212.351562 L 32.917969 212.820312 L 33.714844 213.285156 L 34.640625 213.75 L 35.667969 214.214844 L 36.765625 214.679688 L 37.902344 215.144531 L 39.050781 215.609375 L 40.1875 216.074219 L 41.285156 216.539062 L 42.332031 217.007812 L 43.3125 217.472656 L 44.226562 217.9375 L 45.070312 218.402344 L 45.855469 218.867188 L 46.589844 219.332031 L 47.292969 219.796875 L 47.984375 220.261719 L 48.675781 220.730469 L 49.382812 221.195312 L 50.113281 221.660156 L 50.871094 222.125 L 51.652344 222.589844 L 52.449219 223.054688 L 53.25 223.519531 L 54.046875 223.984375 L 54.828125 224.449219 L 55.589844 224.917969 L 56.328125 225.382812 L 57.039062 225.847656 L 57.730469 226.3125 L 58.398438 226.777344 L 59.054688 227.242188 L 59.691406 227.707031 L 60.3125 228.171875 L 60.910156 228.636719 L 61.488281 229.105469 L 62.035156 229.570312 L 62.550781 230.035156 L 63.027344 230.5 L 63.460938 230.964844 L 63.851562 231.429688 L 64.199219 231.894531 L 64.503906 232.359375 L 64.777344 232.828125 L 65.015625 233.292969 L 65.230469 233.757812 L 65.429688 234.222656 L 65.617188 234.6875 L 65.96875 235.617188 L 66.136719 236.082031 L 66.296875 236.546875 L 66.449219 237.015625 L 66.59375 237.480469 L 66.71875 237.945312 L 66.832031 238.410156 L 66.921875 238.875 L 67 239.339844 L 67.058594 239.804688 L 67.101562 240.269531 L 67.132812 240.734375 L 67.15625 241.203125 L 67.171875 241.667969 L 67.183594 242.132812 L 67.191406 242.597656 L 67.203125 243.0625 L 67.234375 243.992188 L 67.253906 244.457031 L 67.273438 244.925781 L 67.332031 246.320312 L 67.347656 246.785156 L 67.359375 247.25 L 67.375 248.179688 L 67.378906 248.644531 L 67.382812 249.113281 L 67.386719 249.578125 L 67.386719 250.972656 L 67.390625 251.4375 Z M 67.390625 252.367188 "/>
<path style=" stroke:none;fill-rule:nonzero;fill:rgb(62.408966%,57.759106%,14.285715%);fill-opacity:1;" d="M 157.453125 239.765625 L 157.453125 238.375 L 157.457031 238.097656 L 157.457031 237.820312 L 157.464844 237.265625 L 157.480469 236.710938 L 157.492188 236.429688 L 157.503906 236.152344 L 157.519531 235.875 L 157.558594 235.320312 L 157.589844 234.765625 L 157.601562 234.484375 L 157.609375 234.207031 L 157.613281 233.929688 L 157.613281 233.652344 L 157.609375 233.375 L 157.601562 233.097656 L 157.597656 232.820312 L 157.597656 232.539062 L 157.601562 232.261719 L 157.613281 231.984375 L 157.628906 231.707031 L 157.652344 231.429688 L 157.707031 230.875 L 157.734375 230.59375 L 157.761719 230.316406 L 157.78125 230.039062 L 157.796875 229.761719 L 157.820312 229.207031 L 157.835938 228.929688 L 157.855469 228.648438 L 157.886719 228.371094 L 157.933594 228.09375 L 157.996094 227.816406 L 158.074219 227.539062 L 158.164062 227.261719 L 158.261719 226.984375 L 158.363281 226.703125 L 158.464844 226.425781 L 158.652344 225.871094 L 158.816406 225.316406 L 158.902344 225.039062 L 158.996094 224.757812 L 159.109375 224.480469 L 159.253906 224.203125 L 159.433594 223.925781 L 159.660156 223.648438 L 159.933594 223.371094 L 160.261719 223.09375 L 160.644531 222.8125 L 161.074219 222.535156 L 161.550781 222.257812 L 162.066406 221.980469 L 162.609375 221.703125 L 163.175781 221.425781 L 163.746094 221.148438 L 164.316406 220.867188 L 164.871094 220.589844 L 165.40625 220.3125 L 165.910156 220.035156 L 166.382812 219.757812 L 166.832031 219.480469 L 167.257812 219.203125 L 167.679688 218.921875 L 168.113281 218.644531 L 168.582031 218.367188 L 169.097656 218.089844 L 169.6875 217.8125 L 170.363281 217.535156 L 171.140625 217.257812 L 172.023438 216.976562 L 173.015625 216.699219 L 174.113281 216.421875 L 175.304688 216.144531 L 176.574219 215.867188 L 177.898438 215.589844 L 179.253906 215.3125 L 180.609375 215.03125 L 181.945312 214.753906 L 183.230469 214.476562 L 184.4375 214.199219 L 185.558594 213.921875 L 186.585938 213.644531 L 187.515625 213.367188 L 188.363281 213.085938 L 189.140625 212.808594 L 189.863281 212.53125 L 190.550781 212.253906 L 191.199219 211.976562 L 191.808594 211.699219 L 192.359375 211.421875 L 192.832031 211.140625 L 193.191406 210.863281 L 193.414062 210.585938 L 193.476562 210.308594 L 193.367188 210.03125 L 193.085938 209.753906 L 192.648438 209.476562 L 192.074219 209.195312 L 191.410156 208.917969 L 190.695312 208.640625 L 189.976562 208.363281 L 189.296875 208.085938 L 188.695312 207.808594 L 188.1875 207.53125 L 187.785156 207.25 L 187.476562 206.972656 L 187.238281 206.695312 L 187.035156 206.417969 L 186.828125 206.140625 L 186.566406 205.863281 L 186.21875 205.585938 L 185.746094 205.304688 L 185.136719 205.027344 L 184.378906 204.75 L 183.488281 204.472656 L 182.476562 204.195312 L 181.375 203.917969 L 180.214844 203.640625 L 179.035156 203.359375 L 177.867188 203.082031 L 176.734375 202.804688 L 175.667969 202.527344 L 174.675781 202.25 L 173.773438 201.972656 L 172.960938 201.695312 L 172.234375 201.414062 L 171.585938 201.136719 L 171.011719 200.859375 L 170.5 200.582031 L 170.035156 200.304688 L 169.613281 200.027344 L 169.21875 199.75 L 168.84375 199.46875 L 168.472656 199.191406 L 168.105469 198.914062 L 167.730469 198.636719 L 167.351562 198.359375 L 166.957031 198.082031 L 166.550781 197.804688 L 166.136719 197.523438 L 165.710938 197.246094 L 165.269531 196.96875 L 164.820312 196.691406 L 164.363281 196.414062 L 163.894531 196.136719 L 163.414062 195.859375 L 162.933594 195.578125 L 162.453125 195.300781 L 161.980469 195.023438 L 161.515625 194.746094 L 161.070312 194.46875 L 160.648438 194.191406 L 160.257812 193.914062 L 159.898438 193.632812 L 159.578125 193.355469 L 159.292969 193.078125 L 159.050781 192.800781 L 158.84375 192.523438 L 158.675781 192.246094 L 158.535156 191.96875 L 158.421875 191.6875 L 158.328125 191.410156 L 158.246094 191.132812 L 158.105469 190.578125 L 158.042969 190.300781 L 157.976562 190.023438 L 157.90625 189.742188 L 157.839844 189.464844 L 157.714844 188.910156 L 157.660156 188.632812 L 157.609375 188.355469 L 157.570312 188.078125 L 157.535156 187.796875 L 157.511719 187.519531 L 157.492188 187.242188 L 157.476562 186.964844 L 157.460938 186.410156 L 157.457031 186.132812 L 157.457031 185.851562 L 157.453125 185.574219 L 157.453125 184.464844 L 157.453125 185.296875 L 157.449219 185.574219 L 157.449219 185.851562 L 157.445312 186.132812 L 157.4375 186.6875 L 157.414062 187.242188 L 157.394531 187.519531 L 157.367188 187.796875 L 157.335938 188.078125 L 157.292969 188.355469 L 157.246094 188.632812 L 157.191406 188.910156 L 157.128906 189.1875 L 156.996094 189.742188 L 156.929688 190.023438 L 156.730469 190.855469 L 156.65625 191.132812 L 156.578125 191.410156 L 156.484375 191.6875 L 156.371094 191.96875 L 156.230469 192.246094 L 156.058594 192.523438 L 155.855469 192.800781 L 155.613281 193.078125 L 155.328125 193.355469 L 155.007812 193.632812 L 154.648438 193.914062 L 154.253906 194.191406 L 153.832031 194.46875 L 153.386719 194.746094 L 152.925781 195.023438 L 152.449219 195.300781 L 151.96875 195.578125 L 151.488281 195.859375 L 151.011719 196.136719 L 150.542969 196.414062 L 150.082031 196.691406 L 149.632812 196.96875 L 149.195312 197.246094 L 148.769531 197.523438 L 148.351562 197.804688 L 147.949219 198.082031 L 147.554688 198.359375 L 147.171875 198.636719 L 146.429688 199.191406 L 146.0625 199.46875 L 145.6875 199.75 L 145.292969 200.027344 L 144.867188 200.304688 L 144.40625 200.582031 L 143.894531 200.859375 L 143.320312 201.136719 L 142.671875 201.414062 L 141.945312 201.695312 L 141.132812 201.972656 L 140.226562 202.25 L 139.238281 202.527344 L 138.167969 202.804688 L 137.039062 203.082031 L 135.867188 203.359375 L 134.6875 203.640625 L 133.53125 203.917969 L 132.429688 204.195312 L 131.417969 204.472656 L 130.523438 204.75 L 129.769531 205.027344 L 129.15625 205.304688 L 128.6875 205.585938 L 128.335938 205.863281 L 128.078125 206.140625 L 127.867188 206.417969 L 127.667969 206.695312 L 127.429688 206.972656 L 127.121094 207.25 L 126.71875 207.53125 L 126.210938 207.808594 L 125.605469 208.085938 L 124.925781 208.363281 L 123.496094 208.917969 L 122.828125 209.195312 L 122.257812 209.476562 L 121.816406 209.753906 L 121.535156 210.03125 L 121.425781 210.308594 L 121.492188 210.585938 L 121.714844 210.863281 L 122.074219 211.140625 L 122.546875 211.421875 L 123.097656 211.699219 L 123.707031 211.976562 L 124.355469 212.253906 L 125.039062 212.53125 L 125.765625 212.808594 L 126.542969 213.085938 L 127.390625 213.367188 L 128.320312 213.644531 L 129.34375 213.921875 L 130.464844 214.199219 L 131.675781 214.476562 L 132.960938 214.753906 L 134.292969 215.03125 L 135.652344 215.3125 L 137.007812 215.589844 L 138.332031 215.867188 L 139.601562 216.144531 L 140.792969 216.421875 L 141.890625 216.699219 L 142.882812 216.976562 L 143.765625 217.257812 L 144.542969 217.535156 L 145.21875 217.8125 L 145.808594 218.089844 L 146.324219 218.367188 L 146.789062 218.644531 L 147.222656 218.921875 L 147.648438 219.203125 L 148.074219 219.480469 L 148.519531 219.757812 L 148.996094 220.035156 L 149.5 220.3125 L 150.03125 220.589844 L 150.589844 220.867188 L 151.15625 221.148438 L 151.730469 221.425781 L 152.292969 221.703125 L 152.839844 221.980469 L 153.355469 222.257812 L 153.828125 222.535156 L 154.261719 222.8125 L 154.640625 223.09375 L 154.96875 223.371094 L 155.246094 223.648438 L 155.472656 223.925781 L 155.652344 224.203125 L 155.792969 224.480469 L 155.90625 224.757812 L 156.003906 225.039062 L 156.167969 225.59375 L 156.253906 225.871094 L 156.34375 226.148438 L 156.441406 226.425781 L 156.542969 226.703125 L 156.644531 226.984375 L 156.742188 227.261719 L 156.832031 227.539062 L 156.90625 227.816406 L 156.96875 228.09375 L 157.015625 228.371094 L 157.050781 228.648438 L 157.070312 228.929688 L 157.085938 229.207031 L 157.109375 229.761719 L 157.125 230.039062 L 157.144531 230.316406 L 157.167969 230.59375 L 157.195312 230.875 L 157.226562 231.152344 L 157.253906 231.429688 L 157.292969 231.984375 L 157.300781 232.261719 L 157.304688 232.539062 L 157.304688 232.820312 L 157.292969 233.652344 L 157.292969 234.207031 L 157.300781 234.484375 L 157.316406 234.765625 L 157.328125 235.042969 L 157.367188 235.597656 L 157.414062 236.429688 L 157.425781 236.710938 L 157.441406 237.265625 L 157.449219 237.820312 L 157.449219 238.375 L 157.453125 238.65625 Z M 157.453125 239.765625 "/>
<path style=" stroke:none;fill-rule:nonzero;fill:rgb(48.067227%,47.619048%,19.327731%);fill-opacity:1;" d="M 247.515625 236.855469 L 247.515625 235.414062 L 247.519531 235.125 L 247.519531 234.835938 L 247.53125 233.96875 L 247.546875 233.390625 L 247.558594 233.101562 L 247.570312 232.816406 L 247.589844 232.527344 L 247.605469 232.238281 L 247.628906 231.949219 L 247.648438 231.660156 L 247.71875 230.792969 L 247.742188 230.507812 L 247.765625 230.21875 L 247.796875 229.929688 L 247.835938 229.640625 L 247.878906 229.351562 L 247.9375 229.0625 L 248.007812 228.773438 L 248.089844 228.484375 L 248.191406 228.195312 L 248.300781 227.910156 L 248.425781 227.621094 L 248.5625 227.332031 L 248.707031 227.042969 L 248.863281 226.753906 L 249.023438 226.464844 L 249.199219 226.175781 L 249.390625 225.886719 L 249.597656 225.597656 L 249.832031 225.3125 L 250.097656 225.023438 L 250.398438 224.734375 L 250.746094 224.445312 L 251.136719 224.15625 L 251.582031 223.867188 L 252.078125 223.578125 L 252.628906 223.289062 L 253.222656 223 L 253.863281 222.714844 L 254.535156 222.425781 L 255.230469 222.136719 L 255.941406 221.847656 L 256.644531 221.558594 L 257.332031 221.269531 L 257.988281 220.980469 L 258.601562 220.691406 L 259.167969 220.402344 L 259.683594 220.117188 L 260.164062 219.828125 L 261.078125 219.25 L 261.5625 218.960938 L 262.105469 218.671875 L 262.730469 218.382812 L 263.464844 218.09375 L 264.320312 217.804688 L 265.304688 217.519531 L 266.414062 217.230469 L 267.636719 216.941406 L 268.953125 216.652344 L 270.332031 216.363281 L 273.160156 215.785156 L 274.539062 215.496094 L 275.863281 215.207031 L 277.097656 214.921875 L 278.230469 214.632812 L 279.246094 214.34375 L 280.140625 214.054688 L 280.914062 213.765625 L 281.566406 213.476562 L 282.109375 213.1875 L 282.550781 212.898438 L 282.894531 212.609375 L 283.160156 212.324219 L 283.347656 212.035156 L 283.46875 211.746094 L 283.53125 211.457031 L 283.542969 211.167969 L 283.503906 210.878906 L 283.421875 210.589844 L 283.308594 210.300781 L 283.171875 210.011719 L 283.023438 209.726562 L 282.878906 209.4375 L 282.753906 209.148438 L 282.65625 208.859375 L 282.59375 208.570312 L 282.570312 208.28125 L 282.570312 207.992188 L 282.585938 207.703125 L 282.585938 207.414062 L 282.546875 207.128906 L 282.4375 206.839844 L 282.226562 206.550781 L 281.894531 206.261719 L 281.429688 205.972656 L 280.824219 205.683594 L 280.089844 205.394531 L 279.238281 205.105469 L 278.296875 204.816406 L 277.296875 204.53125 L 276.265625 204.242188 L 275.238281 203.953125 L 274.242188 203.664062 L 273.296875 203.375 L 272.414062 203.085938 L 271.597656 202.796875 L 270.839844 202.507812 L 270.132812 202.21875 L 269.453125 201.933594 L 268.777344 201.644531 L 268.082031 201.355469 L 267.355469 201.066406 L 266.578125 200.777344 L 265.757812 200.488281 L 264.890625 200.199219 L 263.988281 199.910156 L 263.078125 199.621094 L 262.167969 199.335938 L 261.285156 199.046875 L 260.441406 198.757812 L 259.648438 198.46875 L 258.917969 198.179688 L 258.242188 197.890625 L 257.625 197.601562 L 257.0625 197.3125 L 256.542969 197.023438 L 256.0625 196.738281 L 255.621094 196.449219 L 255.210938 196.160156 L 254.832031 195.871094 L 254.484375 195.582031 L 254.164062 195.292969 L 253.875 195.003906 L 253.609375 194.714844 L 253.371094 194.425781 L 253.148438 194.140625 L 252.941406 193.851562 L 252.742188 193.5625 L 252.335938 192.984375 L 252.117188 192.695312 L 251.886719 192.40625 L 251.644531 192.117188 L 251.382812 191.828125 L 251.113281 191.542969 L 250.558594 190.964844 L 250.285156 190.675781 L 250.019531 190.386719 L 249.769531 190.097656 L 249.535156 189.808594 L 249.320312 189.519531 L 249.128906 189.234375 L 248.960938 188.945312 L 248.816406 188.65625 L 248.691406 188.367188 L 248.585938 188.078125 L 248.5 187.789062 L 248.425781 187.5 L 248.359375 187.210938 L 248.304688 186.921875 L 248.246094 186.636719 L 248.191406 186.347656 L 248.074219 185.769531 L 248.011719 185.480469 L 247.945312 185.191406 L 247.820312 184.613281 L 247.761719 184.324219 L 247.710938 184.039062 L 247.664062 183.75 L 247.628906 183.460938 L 247.597656 183.171875 L 247.574219 182.882812 L 247.554688 182.59375 L 247.53125 182.015625 L 247.527344 181.726562 L 247.523438 181.441406 L 247.519531 181.152344 L 247.519531 180.863281 L 247.515625 180.574219 L 247.515625 179.417969 L 247.515625 180.574219 L 247.511719 180.863281 L 247.511719 181.152344 L 247.507812 181.441406 L 247.503906 181.726562 L 247.5 182.015625 L 247.476562 182.59375 L 247.457031 182.882812 L 247.433594 183.171875 L 247.40625 183.460938 L 247.367188 183.75 L 247.320312 184.039062 L 247.269531 184.324219 L 247.210938 184.613281 L 247.085938 185.191406 L 247.019531 185.480469 L 246.957031 185.769531 L 246.839844 186.347656 L 246.785156 186.636719 L 246.726562 186.921875 L 246.671875 187.210938 L 246.605469 187.5 L 246.53125 187.789062 L 246.445312 188.078125 L 246.339844 188.367188 L 246.214844 188.65625 L 246.070312 188.945312 L 245.902344 189.234375 L 245.710938 189.519531 L 245.496094 189.808594 L 245.261719 190.097656 L 245.011719 190.386719 L 244.746094 190.675781 L 244.472656 190.964844 L 243.917969 191.542969 L 243.648438 191.828125 L 243.390625 192.117188 L 243.144531 192.40625 L 242.914062 192.695312 L 242.699219 192.984375 L 242.492188 193.273438 L 242.292969 193.5625 L 242.089844 193.851562 L 241.882812 194.140625 L 241.660156 194.425781 L 241.421875 194.714844 L 241.15625 195.003906 L 240.867188 195.292969 L 240.546875 195.582031 L 240.199219 195.871094 L 239.820312 196.160156 L 239.410156 196.449219 L 238.96875 196.738281 L 238.488281 197.023438 L 237.96875 197.3125 L 237.40625 197.601562 L 236.789062 197.890625 L 236.113281 198.179688 L 235.382812 198.46875 L 234.589844 198.757812 L 233.746094 199.046875 L 232.863281 199.335938 L 231.957031 199.621094 L 231.042969 199.910156 L 230.144531 200.199219 L 229.273438 200.488281 L 228.453125 200.777344 L 227.675781 201.066406 L 226.949219 201.355469 L 226.257812 201.644531 L 225.578125 201.933594 L 224.898438 202.21875 L 224.191406 202.507812 L 223.433594 202.796875 L 222.617188 203.085938 L 221.734375 203.375 L 220.789062 203.664062 L 219.792969 203.953125 L 218.765625 204.242188 L 217.734375 204.53125 L 216.734375 204.816406 L 215.792969 205.105469 L 214.945312 205.394531 L 214.207031 205.683594 L 213.601562 205.972656 L 213.136719 206.261719 L 212.804688 206.550781 L 212.597656 206.839844 L 212.484375 207.128906 L 212.445312 207.414062 L 212.445312 207.703125 L 212.460938 207.992188 L 212.460938 208.28125 L 212.4375 208.570312 L 212.375 208.859375 L 212.277344 209.148438 L 212.152344 209.4375 L 212.007812 209.726562 L 211.859375 210.011719 L 211.722656 210.300781 L 211.609375 210.589844 L 211.53125 210.878906 L 211.492188 211.167969 L 211.5 211.457031 L 211.5625 211.746094 L 211.683594 212.035156 L 211.871094 212.324219 L 212.136719 212.609375 L 212.480469 212.898438 L 212.921875 213.1875 L 213.464844 213.476562 L 214.117188 213.765625 L 214.890625 214.054688 L 215.785156 214.34375 L 216.800781 214.632812 L 217.933594 214.921875 L 219.171875 215.207031 L 220.492188 215.496094 L 221.871094 215.785156 L 224.699219 216.363281 L 226.078125 216.652344 L 227.394531 216.941406 L 228.617188 217.230469 L 229.726562 217.519531 L 230.710938 217.804688 L 231.566406 218.09375 L 232.300781 218.382812 L 232.925781 218.671875 L 233.46875 218.960938 L 233.953125 219.25 L 234.867188 219.828125 L 235.347656 220.117188 L 235.863281 220.402344 L 236.429688 220.691406 L 237.042969 220.980469 L 237.699219 221.269531 L 238.386719 221.558594 L 239.089844 221.847656 L 239.800781 222.136719 L 240.496094 222.425781 L 241.167969 222.714844 L 241.808594 223 L 242.402344 223.289062 L 242.953125 223.578125 L 243.449219 223.867188 L 243.894531 224.15625 L 244.289062 224.445312 L 244.632812 224.734375 L 244.933594 225.023438 L 245.199219 225.3125 L 245.433594 225.597656 L 245.640625 225.886719 L 245.832031 226.175781 L 246.007812 226.464844 L 246.171875 226.753906 L 246.324219 227.042969 L 246.46875 227.332031 L 246.605469 227.621094 L 246.730469 227.910156 L 246.84375 228.195312 L 246.941406 228.484375 L 247.023438 228.773438 L 247.09375 229.0625 L 247.152344 229.351562 L 247.195312 229.640625 L 247.234375 229.929688 L 247.265625 230.21875 L 247.289062 230.507812 L 247.316406 230.792969 L 247.335938 231.082031 L 247.382812 231.660156 L 247.402344 231.949219 L 247.425781 232.238281 L 247.441406 232.527344 L 247.460938 232.816406 L 247.472656 233.101562 L 247.496094 233.679688 L 247.5 233.96875 L 247.507812 234.257812 L 247.507812 234.546875 L 247.511719 234.835938 L 247.511719 235.125 L 247.515625 235.414062 Z M 247.515625 236.855469 "/>
<path style=" stroke:none;fill-rule:nonzero;fill:rgb(80.504203%,45.602241%,63.19328%);fill-opacity:1;" d="M 337.578125 256.226562 L 337.578125 254.910156 L 337.582031 254.472656 L 337.582031 253.597656 L 337.585938 253.160156 L 337.589844 252.71875 L 337.59375 252.28125 L 337.609375 251.40625 L 337.625 250.964844 L 337.65625 250.089844 L 337.695312 249.214844 L 337.710938 248.773438 L 337.726562 248.335938 L 337.734375 247.898438 L 337.738281 247.460938 L 337.734375 247.019531 L 337.710938 246.144531 L 337.691406 245.707031 L 337.675781 245.269531 L 337.65625 244.828125 L 337.640625 244.390625 L 337.625 243.515625 L 337.628906 243.074219 L 337.636719 242.636719 L 337.660156 242.199219 L 337.691406 241.761719 L 337.742188 241.324219 L 337.804688 240.882812 L 337.882812 240.445312 L 337.980469 240.007812 L 338.085938 239.570312 L 338.203125 239.128906 L 338.328125 238.691406 L 338.449219 238.253906 L 338.5625 237.816406 L 338.660156 237.375 L 338.746094 236.9375 L 338.816406 236.5 L 338.867188 236.0625 L 338.90625 235.625 L 338.941406 235.183594 L 338.972656 234.746094 L 339.011719 234.308594 L 339.0625 233.871094 L 339.132812 233.429688 L 339.230469 232.992188 L 339.355469 232.554688 L 339.511719 232.117188 L 339.707031 231.679688 L 339.941406 231.238281 L 340.210938 230.800781 L 340.523438 230.363281 L 340.871094 229.925781 L 341.25 229.484375 L 341.648438 229.046875 L 342.46875 228.171875 L 342.867188 227.734375 L 343.253906 227.292969 L 343.617188 226.855469 L 343.964844 226.417969 L 344.304688 225.980469 L 344.65625 225.539062 L 345.03125 225.101562 L 345.453125 224.664062 L 345.9375 224.226562 L 346.496094 223.789062 L 347.144531 223.347656 L 347.878906 222.910156 L 348.695312 222.472656 L 349.574219 222.035156 L 350.503906 221.59375 L 351.460938 221.15625 L 353.390625 220.28125 L 354.351562 219.84375 L 355.300781 219.402344 L 356.253906 218.964844 L 357.21875 218.527344 L 358.195312 218.089844 L 359.1875 217.648438 L 361.195312 216.773438 L 362.183594 216.335938 L 363.148438 215.898438 L 364.082031 215.457031 L 364.972656 215.019531 L 365.824219 214.582031 L 366.644531 214.144531 L 367.441406 213.703125 L 368.222656 213.265625 L 368.988281 212.828125 L 369.738281 212.390625 L 370.464844 211.953125 L 371.160156 211.511719 L 371.800781 211.074219 L 372.371094 210.636719 L 372.855469 210.199219 L 373.230469 209.757812 L 373.484375 209.320312 L 373.605469 208.882812 L 373.585938 208.445312 L 373.425781 208.007812 L 373.132812 207.566406 L 372.714844 207.128906 L 372.195312 206.691406 L 371.597656 206.253906 L 370.949219 205.8125 L 370.277344 205.375 L 369.609375 204.9375 L 368.960938 204.5 L 368.351562 204.058594 L 367.78125 203.621094 L 367.242188 203.183594 L 366.195312 202.308594 L 365.648438 201.867188 L 365.0625 201.429688 L 364.425781 200.992188 L 363.738281 200.554688 L 363.011719 200.113281 L 362.265625 199.675781 L 361.515625 199.238281 L 360.789062 198.800781 L 360.082031 198.363281 L 359.402344 197.921875 L 358.730469 197.484375 L 358.039062 197.046875 L 357.304688 196.609375 L 356.492188 196.167969 L 355.582031 195.730469 L 354.570312 195.292969 L 353.457031 194.855469 L 352.265625 194.417969 L 351.019531 193.976562 L 349.757812 193.539062 L 348.515625 193.101562 L 347.324219 192.664062 L 346.214844 192.222656 L 345.207031 191.785156 L 344.320312 191.347656 L 343.550781 190.910156 L 342.894531 190.472656 L 342.34375 190.03125 L 341.882812 189.59375 L 341.492188 189.15625 L 341.164062 188.71875 L 340.878906 188.277344 L 340.628906 187.839844 L 340.40625 187.402344 L 340.203125 186.964844 L 340.011719 186.527344 L 339.832031 186.085938 L 339.652344 185.648438 L 339.476562 185.210938 L 339.304688 184.773438 L 339.136719 184.332031 L 338.976562 183.894531 L 338.828125 183.457031 L 338.695312 183.019531 L 338.578125 182.582031 L 338.480469 182.140625 L 338.398438 181.703125 L 338.324219 181.265625 L 338.261719 180.828125 L 338.203125 180.386719 L 337.984375 178.636719 L 337.9375 178.195312 L 337.886719 177.757812 L 337.800781 176.882812 L 337.761719 176.441406 L 337.726562 176.003906 L 337.695312 175.566406 L 337.667969 175.128906 L 337.644531 174.6875 L 337.613281 173.8125 L 337.601562 173.375 L 337.59375 172.9375 L 337.589844 172.496094 L 337.582031 171.621094 L 337.582031 170.742188 L 337.578125 170.304688 L 337.578125 168.992188 L 337.578125 171.183594 L 337.574219 171.621094 L 337.574219 172.058594 L 337.570312 172.496094 L 337.5625 172.9375 L 337.546875 173.8125 L 337.53125 174.25 L 337.511719 174.6875 L 337.488281 175.128906 L 337.460938 175.566406 L 337.429688 176.003906 L 337.394531 176.441406 L 337.359375 176.882812 L 337.316406 177.320312 L 337.222656 178.195312 L 337.171875 178.636719 L 337.121094 179.074219 L 336.957031 180.386719 L 336.898438 180.828125 L 336.832031 181.265625 L 336.761719 181.703125 L 336.675781 182.140625 L 336.578125 182.582031 L 336.464844 183.019531 L 336.332031 183.457031 L 336.183594 183.894531 L 336.023438 184.332031 L 335.855469 184.773438 L 335.679688 185.210938 L 335.507812 185.648438 L 335.328125 186.085938 L 335.144531 186.527344 L 334.957031 186.964844 L 334.75 187.402344 L 334.527344 187.839844 L 334.277344 188.277344 L 333.996094 188.71875 L 333.664062 189.15625 L 333.277344 189.59375 L 332.816406 190.03125 L 332.265625 190.472656 L 331.609375 190.910156 L 330.839844 191.347656 L 329.949219 191.785156 L 328.945312 192.222656 L 327.835938 192.664062 L 326.644531 193.101562 L 325.398438 193.539062 L 324.136719 193.976562 L 322.890625 194.417969 L 321.699219 194.855469 L 320.589844 195.292969 L 319.574219 195.730469 L 318.667969 196.167969 L 317.855469 196.609375 L 317.117188 197.046875 L 316.429688 197.484375 L 315.753906 197.921875 L 315.074219 198.363281 L 314.371094 198.800781 L 313.640625 199.238281 L 312.148438 200.113281 L 311.421875 200.554688 L 310.734375 200.992188 L 310.097656 201.429688 L 309.511719 201.867188 L 308.964844 202.308594 L 308.4375 202.746094 L 307.917969 203.183594 L 307.378906 203.621094 L 306.808594 204.058594 L 306.195312 204.5 L 305.550781 204.9375 L 304.882812 205.375 L 304.210938 205.8125 L 303.558594 206.253906 L 302.960938 206.691406 L 302.441406 207.128906 L 302.027344 207.566406 L 301.730469 208.007812 L 301.574219 208.445312 L 301.554688 208.882812 L 301.675781 209.320312 L 301.929688 209.757812 L 302.304688 210.199219 L 302.789062 210.636719 L 303.359375 211.074219 L 304 211.511719 L 304.691406 211.953125 L 305.417969 212.390625 L 306.171875 212.828125 L 306.9375 213.265625 L 307.714844 213.703125 L 308.511719 214.144531 L 309.335938 214.582031 L 310.1875 215.019531 L 311.078125 215.457031 L 312.007812 215.898438 L 312.972656 216.335938 L 313.964844 216.773438 L 315.972656 217.648438 L 316.964844 218.089844 L 317.941406 218.527344 L 318.902344 218.964844 L 319.855469 219.402344 L 320.808594 219.84375 L 321.765625 220.28125 L 322.730469 220.71875 L 323.699219 221.15625 L 324.65625 221.59375 L 325.582031 222.035156 L 326.464844 222.472656 L 327.277344 222.910156 L 328.011719 223.347656 L 328.660156 223.789062 L 329.222656 224.226562 L 329.707031 224.664062 L 330.128906 225.101562 L 330.503906 225.539062 L 330.851562 225.980469 L 331.195312 226.417969 L 331.542969 226.855469 L 331.90625 227.292969 L 332.289062 227.734375 L 332.691406 228.171875 L 333.511719 229.046875 L 333.910156 229.484375 L 334.285156 229.925781 L 334.632812 230.363281 L 334.945312 230.800781 L 335.21875 231.238281 L 335.453125 231.679688 L 335.644531 232.117188 L 335.804688 232.554688 L 335.929688 232.992188 L 336.023438 233.429688 L 336.09375 233.871094 L 336.148438 234.308594 L 336.21875 235.183594 L 336.25 235.625 L 336.292969 236.0625 L 336.34375 236.5 L 336.410156 236.9375 L 336.496094 237.375 L 336.597656 237.816406 L 336.710938 238.253906 L 336.953125 239.128906 L 337.070312 239.570312 L 337.179688 240.007812 L 337.273438 240.445312 L 337.355469 240.882812 L 337.417969 241.324219 L 337.464844 241.761719 L 337.5 242.199219 L 337.519531 242.636719 L 337.53125 243.074219 L 337.53125 243.515625 L 337.527344 243.953125 L 337.515625 244.390625 L 337.5 244.828125 L 337.484375 245.269531 L 337.464844 245.707031 L 337.433594 246.582031 L 337.425781 247.019531 L 337.421875 247.460938 L 337.425781 247.898438 L 337.433594 248.335938 L 337.445312 248.773438 L 337.464844 249.214844 L 337.484375 249.652344 L 337.5 250.089844 L 337.519531 250.527344 L 337.535156 250.964844 L 337.546875 251.40625 L 337.558594 251.84375 L 337.566406 252.28125 L 337.570312 252.71875 L 337.574219 253.160156 L 337.574219 253.597656 L 337.578125 254.035156 Z M 337.578125 256.226562 "/>
<path style=" stroke:none;fill-rule:nonzero;fill:rgb(81.960785%,58.54342%,45.378152%);fill-opacity:1;" d="M 67.390625 23.828125 L 67.390625 25.210938 L 67.386719 25.898438 L 67.386719 27.96875 L 67.382812 28.660156 L 67.382812 29.351562 L 67.375 30.039062 L 67.371094 30.730469 L 67.359375 31.421875 L 67.347656 32.109375 L 67.335938 32.800781 L 67.320312 33.492188 L 67.300781 34.179688 L 67.261719 35.5625 L 67.246094 36.25 L 67.234375 36.941406 L 67.226562 37.632812 L 67.222656 38.320312 L 67.226562 39.011719 L 67.238281 39.703125 L 67.25 40.390625 L 67.265625 41.082031 L 67.277344 41.773438 L 67.289062 42.460938 L 67.296875 43.152344 L 67.296875 43.84375 L 67.289062 44.53125 L 67.273438 45.222656 L 67.246094 45.914062 L 67.207031 46.601562 L 67.15625 47.292969 L 67.097656 47.984375 L 67.03125 48.671875 L 66.960938 49.363281 L 66.882812 50.054688 L 66.804688 50.742188 L 66.648438 52.125 L 66.566406 52.8125 L 66.488281 53.503906 L 66.40625 54.195312 L 66.320312 54.882812 L 66.230469 55.574219 L 66.128906 56.265625 L 66.023438 56.953125 L 65.902344 57.644531 L 65.769531 58.335938 L 65.621094 59.023438 L 65.449219 59.714844 L 65.25 60.40625 L 65.027344 61.09375 L 64.769531 61.785156 L 64.480469 62.476562 L 64.160156 63.164062 L 63.804688 63.855469 L 63.421875 64.546875 L 63.019531 65.234375 L 62.597656 65.925781 L 62.164062 66.617188 L 61.722656 67.304688 L 61.273438 67.996094 L 60.816406 68.6875 L 60.339844 69.375 L 59.839844 70.066406 L 59.300781 70.757812 L 58.71875 71.445312 L 58.078125 72.136719 L 57.378906 72.828125 L 56.617188 73.515625 L 55.789062 74.207031 L 54.894531 74.898438 L 53.9375 75.585938 L 52.910156 76.277344 L 51.8125 76.96875 L 50.648438 77.65625 L 49.421875 78.347656 L 48.148438 79.039062 L 46.84375 79.726562 L 45.535156 80.417969 L 44.261719 81.109375 L 43.058594 81.796875 L 41.957031 82.488281 L 40.980469 83.179688 L 40.136719 83.867188 L 39.425781 84.558594 L 38.824219 85.25 L 38.300781 85.9375 L 37.332031 87.320312 L 36.816406 88.007812 L 36.246094 88.699219 L 35.613281 89.390625 L 34.925781 90.078125 L 33.496094 91.460938 L 32.832031 92.148438 L 32.253906 92.839844 L 31.804688 93.53125 L 31.503906 94.21875 L 31.363281 94.910156 L 31.382812 95.601562 L 31.546875 96.289062 L 31.820312 96.980469 L 32.179688 97.671875 L 32.585938 98.359375 L 33.003906 99.050781 L 33.417969 99.742188 L 33.800781 100.429688 L 34.152344 101.121094 L 34.460938 101.8125 L 34.738281 102.5 L 34.984375 103.191406 L 35.210938 103.882812 L 35.433594 104.570312 L 35.664062 105.261719 L 35.917969 105.953125 L 36.222656 106.640625 L 36.585938 107.332031 L 37.035156 108.023438 L 37.574219 108.710938 L 38.210938 109.402344 L 38.953125 110.09375 L 39.789062 110.78125 L 40.710938 111.472656 L 41.699219 112.164062 L 42.738281 112.851562 L 43.8125 113.542969 L 44.902344 114.234375 L 45.996094 114.921875 L 47.074219 115.613281 L 48.132812 116.304688 L 49.160156 116.992188 L 50.152344 117.683594 L 51.097656 118.375 L 52 119.0625 L 52.855469 119.753906 L 53.667969 120.445312 L 54.441406 121.132812 L 55.175781 121.824219 L 55.878906 122.515625 L 56.546875 123.203125 L 57.1875 123.894531 L 57.789062 124.585938 L 58.363281 125.273438 L 58.902344 125.964844 L 59.414062 126.65625 L 59.898438 127.34375 L 60.363281 128.035156 L 60.8125 128.726562 L 61.246094 129.414062 L 61.675781 130.105469 L 62.097656 130.796875 L 62.519531 131.484375 L 62.9375 132.175781 L 63.351562 132.867188 L 63.757812 133.554688 L 64.15625 134.246094 L 64.542969 134.9375 L 64.910156 135.625 L 65.253906 136.316406 L 65.5625 137.007812 L 65.828125 137.695312 L 66.054688 138.386719 L 66.234375 139.078125 L 66.367188 139.765625 L 66.460938 140.457031 L 66.519531 141.148438 L 66.554688 141.835938 L 66.570312 142.527344 L 66.578125 143.21875 L 66.589844 143.90625 L 66.605469 144.597656 L 66.636719 145.289062 L 66.679688 145.976562 L 66.734375 146.667969 L 66.800781 147.359375 L 66.875 148.046875 L 66.953125 148.738281 L 67.027344 149.429688 L 67.097656 150.117188 L 67.160156 150.808594 L 67.21875 151.5 L 67.261719 152.1875 L 67.300781 152.878906 L 67.328125 153.570312 L 67.347656 154.257812 L 67.363281 154.949219 L 67.371094 155.640625 L 67.378906 156.328125 L 67.386719 157.710938 L 67.386719 159.78125 L 67.390625 160.46875 L 67.390625 161.160156 Z M 67.390625 23.828125 "/>
<path style=" stroke:none;fill-rule:nonzero;fill:rgb(81.120449%,64.089638%,75.966388%);fill-opacity:1;" d="M 157.453125 68.550781 L 157.453125 69.757812 L 157.449219 70.058594 L 157.449219 70.359375 L 157.445312 70.664062 L 157.4375 71.265625 L 157.425781 71.566406 L 157.414062 71.871094 L 157.398438 72.171875 L 157.378906 72.472656 L 157.351562 72.777344 L 157.320312 73.078125 L 157.285156 73.378906 L 157.242188 73.679688 L 157.195312 73.984375 L 157.148438 74.285156 L 157.097656 74.585938 L 157.046875 74.890625 L 156.9375 75.492188 L 156.878906 75.792969 L 156.8125 76.097656 L 156.738281 76.398438 L 156.652344 76.699219 L 156.554688 77 L 156.441406 77.304688 L 156.308594 77.605469 L 156.160156 77.90625 L 155.996094 78.210938 L 155.8125 78.511719 L 155.617188 78.8125 L 155.402344 79.113281 L 155.175781 79.417969 L 154.933594 79.71875 L 154.683594 80.019531 L 154.429688 80.320312 L 154.164062 80.625 L 153.890625 80.925781 L 153.609375 81.226562 L 153.316406 81.53125 L 153 81.832031 L 152.652344 82.132812 L 152.265625 82.433594 L 151.828125 82.738281 L 151.332031 83.039062 L 150.773438 83.339844 L 150.152344 83.640625 L 149.472656 83.945312 L 148.742188 84.246094 L 147.972656 84.546875 L 147.179688 84.851562 L 146.382812 85.152344 L 145.589844 85.453125 L 144.820312 85.753906 L 144.074219 86.058594 L 143.363281 86.359375 L 142.683594 86.660156 L 142.03125 86.964844 L 141.394531 87.265625 L 140.144531 87.867188 L 139.507812 88.171875 L 138.855469 88.472656 L 138.179688 88.773438 L 137.484375 89.074219 L 136.777344 89.378906 L 135.347656 89.980469 L 134.648438 90.285156 L 133.972656 90.585938 L 133.328125 90.886719 L 132.714844 91.1875 L 132.140625 91.492188 L 131.59375 91.792969 L 131.070312 92.09375 L 130.5625 92.394531 L 130.054688 92.699219 L 129.539062 93 L 129 93.300781 L 128.433594 93.605469 L 127.839844 93.90625 L 127.222656 94.207031 L 126.582031 94.507812 L 125.9375 94.8125 L 125.292969 95.113281 L 124.671875 95.414062 L 124.082031 95.714844 L 123.535156 96.019531 L 123.039062 96.320312 L 122.597656 96.621094 L 122.21875 96.925781 L 121.90625 97.226562 L 121.664062 97.527344 L 121.503906 97.828125 L 121.425781 98.132812 L 121.445312 98.433594 L 121.558594 98.734375 L 121.769531 99.039062 L 122.070312 99.339844 L 122.457031 99.640625 L 122.914062 99.941406 L 123.429688 100.246094 L 123.992188 100.546875 L 124.59375 100.847656 L 125.238281 101.148438 L 125.925781 101.453125 L 126.667969 101.753906 L 127.476562 102.054688 L 128.355469 102.359375 L 129.3125 102.660156 L 130.34375 102.960938 L 131.441406 103.261719 L 132.589844 103.566406 L 133.765625 103.867188 L 134.949219 104.167969 L 136.113281 104.46875 L 137.238281 104.773438 L 138.296875 105.074219 L 139.289062 105.375 L 140.199219 105.679688 L 141.027344 105.980469 L 141.78125 106.28125 L 142.464844 106.582031 L 143.09375 106.886719 L 143.679688 107.1875 L 144.234375 107.488281 L 144.765625 107.789062 L 145.285156 108.09375 L 145.804688 108.394531 L 146.332031 108.695312 L 146.871094 109 L 147.429688 109.300781 L 148.015625 109.601562 L 148.625 109.902344 L 149.257812 110.207031 L 149.90625 110.507812 L 150.570312 110.808594 L 151.226562 111.109375 L 151.871094 111.414062 L 152.488281 111.714844 L 153.0625 112.015625 L 153.585938 112.320312 L 154.050781 112.621094 L 154.453125 112.921875 L 154.796875 113.222656 L 155.082031 113.527344 L 155.316406 113.828125 L 155.507812 114.128906 L 155.660156 114.433594 L 155.78125 114.734375 L 155.875 115.035156 L 155.949219 115.335938 L 156.003906 115.640625 L 156.042969 115.941406 L 156.070312 116.242188 L 156.085938 116.542969 L 156.101562 116.847656 L 156.113281 117.148438 L 156.128906 117.449219 L 156.148438 117.753906 L 156.179688 118.054688 L 156.214844 118.355469 L 156.265625 118.65625 L 156.320312 118.960938 L 156.382812 119.261719 L 156.523438 119.863281 L 156.597656 120.167969 L 156.738281 120.769531 L 156.808594 121.074219 L 156.941406 121.675781 L 157.003906 121.976562 L 157.066406 122.28125 L 157.125 122.582031 L 157.179688 122.882812 L 157.226562 123.183594 L 157.273438 123.488281 L 157.3125 123.789062 L 157.34375 124.089844 L 157.371094 124.394531 L 157.394531 124.695312 L 157.425781 125.296875 L 157.433594 125.601562 L 157.441406 125.902344 L 157.445312 126.203125 L 157.449219 126.507812 L 157.449219 127.109375 L 157.453125 127.410156 L 157.453125 128.617188 Z M 157.453125 68.550781 "/>
<path style=" stroke:none;fill-rule:nonzero;fill:rgb(82.689077%,79.607844%,30.868348%);fill-opacity:1;" d="M 247.515625 141.457031 L 247.515625 139.25 L 247.519531 138.804688 L 247.519531 138.363281 L 247.527344 137.480469 L 247.535156 137.039062 L 247.558594 136.15625 L 247.578125 135.714844 L 247.601562 135.273438 L 247.628906 134.832031 L 247.664062 134.390625 L 247.703125 133.949219 L 247.796875 133.066406 L 247.851562 132.621094 L 247.902344 132.179688 L 248.011719 131.296875 L 248.214844 129.53125 L 248.273438 129.089844 L 248.335938 128.648438 L 248.40625 128.207031 L 248.492188 127.765625 L 248.59375 127.324219 L 248.71875 126.882812 L 248.859375 126.4375 L 249.023438 125.996094 L 249.210938 125.554688 L 249.414062 125.113281 L 249.636719 124.671875 L 249.875 124.230469 L 250.121094 123.789062 L 250.375 123.347656 L 250.632812 122.90625 L 250.898438 122.464844 L 251.175781 122.023438 L 251.464844 121.582031 L 251.769531 121.140625 L 252.097656 120.699219 L 252.453125 120.253906 L 252.847656 119.8125 L 253.28125 119.371094 L 253.757812 118.929688 L 254.277344 118.488281 L 254.835938 118.046875 L 255.429688 117.605469 L 256.058594 117.164062 L 256.710938 116.722656 L 257.378906 116.28125 L 258.066406 115.839844 L 258.765625 115.398438 L 259.484375 114.957031 L 260.21875 114.515625 L 260.984375 114.070312 L 261.785156 113.628906 L 262.632812 113.1875 L 263.535156 112.746094 L 264.5 112.304688 L 265.519531 111.863281 L 266.59375 111.421875 L 267.699219 110.980469 L 268.820312 110.539062 L 269.929688 110.097656 L 270.992188 109.65625 L 271.980469 109.214844 L 272.871094 108.773438 L 273.640625 108.328125 L 274.292969 107.886719 L 274.824219 107.445312 L 275.25 107.003906 L 275.597656 106.5625 L 275.898438 106.121094 L 276.175781 105.679688 L 276.457031 105.238281 L 276.765625 104.796875 L 277.109375 104.355469 L 277.488281 103.914062 L 277.902344 103.472656 L 278.339844 103.03125 L 278.792969 102.589844 L 279.253906 102.144531 L 280.167969 101.261719 L 280.617188 100.820312 L 281.0625 100.378906 L 281.503906 99.9375 L 281.929688 99.496094 L 282.332031 99.054688 L 282.703125 98.613281 L 283.023438 98.171875 L 283.277344 97.730469 L 283.453125 97.289062 L 283.542969 96.847656 L 283.539062 96.40625 L 283.453125 95.960938 L 283.292969 95.519531 L 283.070312 95.078125 L 282.796875 94.636719 L 282.484375 94.195312 L 282.148438 93.753906 L 281.789062 93.3125 L 281.40625 92.871094 L 280.996094 92.429688 L 280.546875 91.988281 L 280.058594 91.546875 L 279.511719 91.105469 L 278.902344 90.664062 L 278.222656 90.222656 L 277.46875 89.777344 L 276.640625 89.335938 L 275.742188 88.894531 L 274.785156 88.453125 L 273.777344 88.011719 L 272.734375 87.570312 L 271.675781 87.128906 L 270.613281 86.6875 L 269.566406 86.246094 L 268.542969 85.804688 L 267.5625 85.363281 L 266.621094 84.921875 L 265.726562 84.480469 L 264.871094 84.039062 L 264.058594 83.59375 L 263.273438 83.152344 L 262.507812 82.710938 L 261.757812 82.269531 L 260.273438 81.386719 L 259.535156 80.945312 L 258.800781 80.503906 L 258.078125 80.0625 L 257.375 79.621094 L 256.699219 79.179688 L 256.0625 78.738281 L 255.472656 78.296875 L 254.933594 77.851562 L 254.441406 77.410156 L 253.996094 76.96875 L 253.59375 76.527344 L 253.222656 76.085938 L 252.878906 75.644531 L 252.558594 75.203125 L 252.257812 74.761719 L 251.972656 74.320312 L 251.703125 73.878906 L 251.457031 73.4375 L 251.234375 72.996094 L 251.035156 72.554688 L 250.855469 72.113281 L 250.695312 71.667969 L 250.546875 71.226562 L 250.402344 70.785156 L 250.261719 70.34375 L 250.109375 69.902344 L 249.949219 69.460938 L 249.773438 69.019531 L 249.585938 68.578125 L 249.394531 68.136719 L 249.195312 67.695312 L 249 67.253906 L 248.808594 66.8125 L 248.632812 66.371094 L 248.472656 65.929688 L 248.328125 65.484375 L 248.199219 65.042969 L 248.09375 64.601562 L 248 64.160156 L 247.921875 63.71875 L 247.855469 63.277344 L 247.796875 62.835938 L 247.75 62.394531 L 247.707031 61.953125 L 247.671875 61.511719 L 247.640625 61.070312 L 247.613281 60.628906 L 247.589844 60.1875 L 247.570312 59.746094 L 247.558594 59.300781 L 247.535156 58.417969 L 247.53125 57.976562 L 247.523438 57.535156 L 247.523438 57.09375 L 247.519531 56.652344 L 247.519531 56.210938 L 247.515625 55.769531 L 247.515625 53.5625 Z M 247.515625 141.457031 "/>
<path style=" stroke:none;fill-rule:nonzero;fill:rgb(33.725491%,70.588237%,91.37255%);fill-opacity:1;" d="M 337.578125 33.554688 L 337.578125 37.164062 L 337.574219 37.765625 L 337.574219 38.367188 L 337.570312 38.96875 L 337.566406 39.566406 L 337.5625 40.167969 L 337.550781 40.769531 L 337.542969 41.371094 L 337.511719 42.574219 L 337.464844 43.777344 L 337.433594 44.378906 L 337.398438 44.980469 L 337.355469 45.582031 L 337.308594 46.183594 L 337.253906 46.785156 L 337.191406 47.386719 L 337.121094 47.984375 L 337.046875 48.585938 L 336.960938 49.1875 L 336.871094 49.789062 L 336.773438 50.390625 L 336.5625 51.59375 L 336.453125 52.195312 L 336.339844 52.796875 L 336.121094 54 L 336.007812 54.601562 L 335.898438 55.203125 L 335.785156 55.800781 L 335.667969 56.402344 L 335.542969 57.003906 L 335.40625 57.605469 L 335.261719 58.207031 L 335.101562 58.808594 L 334.925781 59.410156 L 334.738281 60.011719 L 334.539062 60.613281 L 334.328125 61.214844 L 334.105469 61.816406 L 333.875 62.417969 L 333.632812 63.019531 L 333.382812 63.621094 L 333.117188 64.21875 L 332.835938 64.820312 L 332.539062 65.421875 L 332.21875 66.023438 L 331.875 66.625 L 331.5 67.226562 L 331.09375 67.828125 L 330.652344 68.429688 L 330.179688 69.03125 L 329.671875 69.632812 L 329.140625 70.234375 L 328.578125 70.835938 L 327.996094 71.4375 L 327.398438 72.039062 L 326.789062 72.636719 L 325.570312 73.839844 L 324.964844 74.441406 L 324.375 75.042969 L 323.789062 75.644531 L 323.214844 76.246094 L 322.648438 76.847656 L 322.078125 77.449219 L 321.5 78.050781 L 320.902344 78.652344 L 320.273438 79.253906 L 319.613281 79.855469 L 318.910156 80.457031 L 318.167969 81.054688 L 317.382812 81.65625 L 316.566406 82.257812 L 315.726562 82.859375 L 314.015625 84.0625 L 313.175781 84.664062 L 312.359375 85.265625 L 311.582031 85.867188 L 310.84375 86.46875 L 310.152344 87.070312 L 309.503906 87.671875 L 308.898438 88.273438 L 308.328125 88.871094 L 307.78125 89.472656 L 307.25 90.074219 L 306.195312 91.277344 L 305.660156 91.878906 L 304.582031 93.082031 L 304.058594 93.683594 L 303.554688 94.285156 L 303.09375 94.886719 L 302.6875 95.488281 L 302.34375 96.089844 L 302.070312 96.691406 L 301.867188 97.289062 L 301.722656 97.890625 L 301.632812 98.492188 L 301.582031 99.09375 L 301.558594 99.695312 L 301.554688 100.296875 L 301.5625 100.898438 L 301.578125 101.5 L 301.613281 102.101562 L 301.675781 102.703125 L 301.765625 103.304688 L 301.90625 103.90625 L 302.097656 104.507812 L 302.355469 105.109375 L 302.679688 105.707031 L 303.082031 106.308594 L 303.566406 106.910156 L 304.132812 107.511719 L 304.78125 108.113281 L 305.515625 108.714844 L 306.332031 109.316406 L 307.226562 109.917969 L 308.1875 110.519531 L 309.207031 111.121094 L 310.265625 111.722656 L 311.351562 112.324219 L 313.539062 113.527344 L 314.613281 114.125 L 315.671875 114.726562 L 316.703125 115.328125 L 317.714844 115.929688 L 318.710938 116.53125 L 319.691406 117.132812 L 320.660156 117.734375 L 321.625 118.335938 L 322.578125 118.9375 L 323.515625 119.539062 L 324.433594 120.140625 L 325.316406 120.742188 L 326.148438 121.34375 L 326.925781 121.941406 L 327.636719 122.542969 L 328.28125 123.144531 L 328.851562 123.746094 L 329.355469 124.347656 L 329.804688 124.949219 L 330.210938 125.550781 L 330.582031 126.152344 L 330.929688 126.753906 L 331.269531 127.355469 L 331.925781 128.558594 L 332.25 129.160156 L 332.570312 129.761719 L 332.878906 130.359375 L 333.179688 130.960938 L 333.46875 131.5625 L 333.742188 132.164062 L 334.007812 132.765625 L 334.261719 133.367188 L 334.753906 134.570312 L 334.996094 135.171875 L 335.472656 136.375 L 335.707031 136.976562 L 335.933594 137.578125 L 336.152344 138.179688 L 336.359375 138.777344 L 336.546875 139.378906 L 336.722656 139.980469 L 336.875 140.582031 L 337.011719 141.183594 L 337.128906 141.785156 L 337.226562 142.386719 L 337.308594 142.988281 L 337.375 143.589844 L 337.429688 144.191406 L 337.46875 144.792969 L 337.5 145.394531 L 337.523438 145.996094 L 337.542969 146.597656 L 337.554688 147.195312 L 337.570312 148.398438 L 337.574219 149 L 337.574219 149.601562 L 337.578125 150.203125 L 337.578125 153.210938 Z M 337.578125 33.554688 "/>
<path style="fill:none;stroke-width:0.85;stroke-linecap:butt;stroke-linejoin:miter;stroke:rgb(89.803922%,89.803922%,89.803922%);stroke-opacity:1;stroke-miterlimit:10;" d="M 269.979167 347.229167 L 269.979167 339.802083 L 269.984375 338.317708 L 269.984375 336.833333 L 269.994792 333.864583 L 270.015625 330.895833 L 270.03125 329.411458 L 270.052083 327.927083 L 270.078125 326.442708 L 270.109375 324.958333 L 270.151042 323.473958 L 270.192708 321.984375 L 270.244792 320.5 L 270.302083 319.015625 L 270.364583 317.53125 L 270.432292 316.046875 L 270.505208 314.5625 L 270.583333 313.078125 L 270.666667 311.59375 L 271.020833 305.65625 L 271.119792 304.171875 L 271.223958 302.6875 L 271.34375 301.197917 L 271.484375 299.713542 L 271.645833 298.229167 L 271.84375 296.744792 L 272.083333 295.260417 L 272.359375 293.776042 L 272.671875 292.291667 L 273.026042 290.807292 L 273.411458 289.322917 L 273.822917 287.838542 L 274.260417 286.354167 L 274.71875 284.869792 L 275.197917 283.385417 L 275.697917 281.901042 L 276.213542 280.416667 L 276.755208 278.927083 L 277.317708 277.442708 L 277.895833 275.958333 L 278.494792 274.473958 L 279.114583 272.989583 L 279.755208 271.505208 L 280.411458 270.020833 L 281.098958 268.536458 L 281.8125 267.052083 L 282.5625 265.567708 L 283.348958 264.083333 L 284.177083 262.598958 L 285.046875 261.114583 L 285.953125 259.630208 L 286.885417 258.140625 L 287.838542 256.65625 L 288.802083 255.171875 L 289.755208 253.6875 L 290.6875 252.203125 L 291.583333 250.71875 L 292.442708 249.234375 L 293.260417 247.75 L 294.046875 246.265625 L 294.8125 244.78125 L 295.572917 243.296875 L 296.364583 241.8125 L 297.203125 240.328125 L 298.109375 238.84375 L 299.104167 237.359375 L 300.1875 235.869792 L 301.364583 234.385417 L 302.625 232.901042 L 303.942708 231.416667 L 305.307292 229.932292 L 306.677083 228.447917 L 308.036458 226.963542 L 309.354167 225.479167 L 310.604167 223.994792 L 311.760417 222.510417 L 312.8125 221.026042 L 313.75 219.541667 L 314.567708 218.057292 L 315.260417 216.572917 L 315.848958 215.083333 L 316.338542 213.598958 L 316.744792 212.114583 L 317.088542 210.630208 L 317.375 209.145833 L 317.614583 207.661458 L 317.802083 206.177083 L 317.9375 204.692708 L 318.010417 203.208333 L 318.010417 201.723958 L 317.921875 200.239583 L 317.734375 198.755208 L 317.4375 197.270833 L 317.03125 195.786458 L 316.510417 194.296875 L 315.885417 192.8125 L 315.15625 191.328125 L 314.333333 189.84375 L 313.421875 188.359375 L 312.432292 186.875 L 311.375 185.390625 L 310.255208 183.90625 L 309.083333 182.421875 L 307.869792 180.9375 L 306.614583 179.453125 L 305.328125 177.96875 L 304.026042 176.484375 L 302.713542 175 L 301.40625 173.515625 L 300.114583 172.026042 L 298.854167 170.541667 L 297.630208 169.057292 L 296.453125 167.572917 L 295.322917 166.088542 L 294.239583 164.604167 L 293.1875 163.119792 L 292.15625 161.635417 L 291.130208 160.151042 L 290.098958 158.666667 L 289.046875 157.182292 L 287.979167 155.697917 L 286.895833 154.213542 L 285.807292 152.729167 L 284.723958 151.239583 L 283.666667 149.755208 L 282.651042 148.270833 L 281.682292 146.786458 L 280.78125 145.302083 L 279.9375 143.817708 L 279.166667 142.333333 L 278.458333 140.848958 L 277.807292 139.364583 L 277.213542 137.880208 L 276.666667 136.395833 L 276.166667 134.911458 L 275.713542 133.427083 L 275.291667 131.942708 L 274.911458 130.458333 L 274.5625 128.96875 L 274.244792 127.484375 L 273.947917 126 L 273.677083 124.515625 L 273.427083 123.03125 L 273.192708 121.546875 L 272.96875 120.0625 L 272.755208 118.578125 L 272.552083 117.09375 L 272.359375 115.609375 L 272.171875 114.125 L 271.807292 111.15625 L 271.635417 109.671875 L 271.463542 108.182292 L 271.296875 106.697917 L 271.140625 105.213542 L 270.989583 103.729167 L 270.854167 102.244792 L 270.729167 100.760417 L 270.625 99.276042 L 270.541667 97.791667 L 270.479167 96.307292 L 270.4375 94.822917 L 270.411458 93.338542 L 270.401042 91.854167 L 270.40625 90.369792 L 270.416667 88.885417 L 270.427083 87.395833 L 270.432292 85.911458 L 270.432292 84.427083 L 270.416667 82.942708 L 270.395833 81.458333 L 270.359375 79.973958 L 270.317708 78.489583 L 270.270833 77.005208 L 270.21875 75.520833 L 270.171875 74.036458 L 270.130208 72.552083 L 270.09375 71.067708 L 270.0625 69.583333 L 270.036458 68.098958 L 270.015625 66.614583 L 270.005208 65.125 L 269.994792 63.640625 L 269.984375 60.671875 L 269.984375 59.1875 L 269.979167 57.703125 L 269.979167 51.765625 L 269.979167 57.703125 L 269.973958 59.1875 L 269.973958 60.671875 L 269.963542 63.640625 L 269.953125 65.125 L 269.942708 66.614583 L 269.921875 68.098958 L 269.895833 69.583333 L 269.864583 71.067708 L 269.828125 72.552083 L 269.786458 74.036458 L 269.734375 75.520833 L 269.640625 78.489583 L 269.598958 79.973958 L 269.5625 81.458333 L 269.541667 82.942708 L 269.526042 84.427083 L 269.526042 85.911458 L 269.53125 87.395833 L 269.541667 88.885417 L 269.552083 90.369792 L 269.552083 91.854167 L 269.546875 93.338542 L 269.520833 94.822917 L 269.479167 96.307292 L 269.416667 97.791667 L 269.333333 99.276042 L 269.229167 100.760417 L 269.104167 102.244792 L 268.96875 103.729167 L 268.817708 105.213542 L 268.661458 106.697917 L 268.494792 108.182292 L 268.322917 109.671875 L 268.151042 111.15625 L 267.786458 114.125 L 267.598958 115.609375 L 267.40625 117.09375 L 267.203125 118.578125 L 266.989583 120.0625 L 266.765625 121.546875 L 266.53125 123.03125 L 266.276042 124.515625 L 266.005208 126 L 265.713542 127.484375 L 265.395833 128.96875 L 265.046875 130.458333 L 264.666667 131.942708 L 264.244792 133.427083 L 263.786458 134.911458 L 263.291667 136.395833 L 262.744792 137.880208 L 262.151042 139.364583 L 261.5 140.848958 L 260.791667 142.333333 L 260.015625 143.817708 L 259.177083 145.302083 L 258.270833 146.786458 L 257.307292 148.270833 L 256.286458 149.755208 L 255.229167 151.239583 L 254.151042 152.729167 L 253.0625 154.213542 L 251.979167 155.697917 L 250.911458 157.182292 L 249.859375 158.666667 L 248.828125 160.151042 L 247.802083 161.635417 L 246.770833 163.119792 L 245.71875 164.604167 L 244.630208 166.088542 L 243.505208 167.572917 L 242.328125 169.057292 L 241.104167 170.541667 L 239.84375 172.026042 L 238.552083 173.515625 L 237.244792 175 L 235.932292 176.484375 L 234.630208 177.96875 L 233.34375 179.453125 L 232.088542 180.9375 L 230.869792 182.421875 L 229.697917 183.90625 L 228.583333 185.390625 L 227.526042 186.875 L 226.536458 188.359375 L 225.625 189.84375 L 224.802083 191.328125 L 224.072917 192.8125 L 223.447917 194.296875 L 222.927083 195.786458 L 222.520833 197.270833 L 222.223958 198.755208 L 222.036458 200.239583 L 221.947917 201.723958 L 221.942708 203.208333 L 222.020833 204.692708 L 222.15625 206.177083 L 222.34375 207.661458 L 222.583333 209.145833 L 222.869792 210.630208 L 223.208333 212.114583 L 223.619792 213.598958 L 224.109375 215.083333 L 224.697917 216.572917 L 225.390625 218.057292 L 226.208333 219.541667 L 227.145833 221.026042 L 228.197917 222.510417 L 229.354167 223.994792 L 230.604167 225.479167 L 231.921875 226.963542 L 233.28125 228.447917 L 234.651042 229.932292 L 236.015625 231.416667 L 237.333333 232.901042 L 238.59375 234.385417 L 239.770833 235.869792 L 240.854167 237.359375 L 241.848958 238.84375 L 242.755208 240.328125 L 243.59375 241.8125 L 244.385417 243.296875 L 245.145833 244.78125 L 245.911458 246.265625 L 246.697917 247.75 L 247.515625 249.234375 L 248.375 250.71875 L 249.270833 252.203125 L 250.203125 253.6875 L 251.15625 255.171875 L 252.119792 256.65625 L 253.072917 258.140625 L 254.005208 259.630208 L 254.911458 261.114583 L 255.78125 262.598958 L 256.609375 264.083333 L 257.395833 265.567708 L 258.145833 267.052083 L 258.859375 268.536458 L 259.546875 270.020833 L 260.203125 271.505208 L 260.84375 272.989583 L 261.463542 274.473958 L 262.0625 275.958333 L 262.640625 277.442708 L 263.203125 278.927083 L 263.744792 280.416667 L 264.260417 281.901042 L 264.760417 283.385417 L 265.239583 284.869792 L 265.697917 286.354167 L 266.135417 287.838542 L 266.546875 289.322917 L 266.932292 290.807292 L 267.286458 292.291667 L 267.598958 293.776042 L 267.875 295.260417 L 268.109375 296.744792 L 268.3125 298.229167 L 268.473958 299.713542 L 268.614583 301.197917 L 268.734375 302.6875 L 268.838542 304.171875 L 269.026042 307.140625 L 269.291667 311.59375 L 269.369792 313.078125 L 269.453125 314.5625 L 269.526042 316.046875 L 269.59375 317.53125 L 269.65625 319.015625 L 269.713542 320.5 L 269.765625 321.984375 L 269.807292 323.473958 L 269.848958 324.958333 L 269.880208 326.442708 L 269.90625 327.927083 L 269.927083 329.411458 L 269.942708 330.895833 L 269.963542 333.864583 L 269.973958 336.833333 L 269.973958 338.317708 L 269.979167 339.802083 Z M 269.979167 347.229167 " transform="matrix(0.75,0,0,0.75,0,0)"/>
<path style="fill:none;stroke-width:1.5;stroke-linecap:butt;stroke-linejoin:miter;stroke:rgb(100%,100%,100%);stroke-opacity:1;stroke-miterlimit:10;" d="M 222.088542 205.432292 L 317.869792 205.432292 " transform="matrix(0.75,0,0,0.75,0,0)"/>
<path style="fill-rule:nonzero;fill:rgb(11.764706%,56.470591%,100%);fill-opacity:0.1;stroke-width:0.85;stroke-linecap:butt;stroke-linejoin:miter;stroke:rgb(11.764706%,56.470591%,100%);stroke-opacity:1;stroke-miterlimit:10;" d="M 510.145833 301.59375 L 510.145833 299.151042 L 510.151042 297.932292 L 510.151042 294.265625 L 510.15625 293.046875 L 510.166667 290.598958 L 510.177083 289.380208 L 510.192708 288.15625 L 510.213542 286.9375 L 510.234375 285.713542 L 510.260417 284.494792 L 510.286458 283.270833 L 510.3125 282.052083 L 510.333333 280.828125 L 510.354167 279.609375 L 510.364583 278.385417 L 510.369792 277.166667 L 510.369792 275.942708 L 510.359375 274.71875 L 510.34375 273.5 L 510.328125 272.276042 L 510.317708 271.057292 L 510.317708 269.833333 L 510.328125 268.614583 L 510.348958 267.390625 L 510.390625 266.171875 L 510.447917 264.947917 L 510.526042 263.729167 L 510.625 262.505208 L 510.734375 261.28125 L 510.854167 260.0625 L 510.989583 258.838542 L 511.125 257.619792 L 511.276042 256.395833 L 511.427083 255.177083 L 511.588542 253.953125 L 511.75 252.734375 L 511.927083 251.510417 L 512.104167 250.291667 L 512.291667 249.067708 L 512.484375 247.848958 L 512.890625 245.401042 L 513.098958 244.182292 L 513.3125 242.958333 L 513.53125 241.739583 L 513.760417 240.515625 L 514 239.296875 L 514.255208 238.072917 L 514.536458 236.854167 L 514.854167 235.630208 L 515.213542 234.411458 L 515.630208 233.1875 L 516.104167 231.963542 L 516.645833 230.744792 L 517.260417 229.520833 L 517.9375 228.302083 L 518.677083 227.078125 L 519.46875 225.859375 L 520.291667 224.635417 L 521.140625 223.416667 L 522 222.192708 L 522.854167 220.973958 L 523.692708 219.75 L 524.5 218.526042 L 525.276042 217.307292 L 526.015625 216.083333 L 526.729167 214.864583 L 527.432292 213.640625 L 528.140625 212.421875 L 528.890625 211.197917 L 529.703125 209.979167 L 530.619792 208.755208 L 531.661458 207.536458 L 532.84375 206.3125 L 534.182292 205.09375 L 535.671875 203.869792 L 537.302083 202.645833 L 539.041667 201.427083 L 540.854167 200.203125 L 542.708333 198.984375 L 544.557292 197.760417 L 546.354167 196.541667 L 548.052083 195.317708 L 549.609375 194.098958 L 550.989583 192.875 L 552.161458 191.65625 L 553.104167 190.432292 L 553.828125 189.208333 L 554.354167 187.989583 L 554.723958 186.765625 L 554.994792 185.546875 L 555.229167 184.322917 L 555.479167 183.104167 L 555.791667 181.880208 L 556.182292 180.661458 L 556.630208 179.4375 L 557.104167 178.21875 L 557.552083 176.994792 L 557.911458 175.776042 L 558.135417 174.552083 L 558.182292 173.328125 L 558.041667 172.109375 L 557.729167 170.885417 L 557.265625 169.666667 L 556.692708 168.442708 L 556.046875 167.223958 L 555.354167 166 L 554.619792 164.78125 L 553.84375 163.557292 L 553 162.338542 L 552.083333 161.114583 L 551.0625 159.890625 L 549.947917 158.671875 L 548.734375 157.447917 L 547.4375 156.229167 L 546.09375 155.005208 L 544.71875 153.786458 L 543.338542 152.5625 L 541.96875 151.34375 L 540.630208 150.119792 L 539.317708 148.901042 L 538.036458 147.677083 L 536.791667 146.458333 L 535.588542 145.234375 L 534.427083 144.010417 L 533.322917 142.791667 L 532.270833 141.567708 L 531.276042 140.348958 L 530.338542 139.125 L 529.447917 137.90625 L 528.59375 136.682292 L 527.75 135.463542 L 526.90625 134.239583 L 526.046875 133.020833 L 525.171875 131.796875 L 524.276042 130.572917 L 523.375 129.354167 L 522.484375 128.130208 L 521.625 126.911458 L 520.817708 125.6875 L 520.067708 124.46875 L 519.401042 123.244792 L 518.807292 122.026042 L 518.28125 120.802083 L 517.817708 119.583333 L 517.401042 118.359375 L 517.020833 117.140625 L 516.65625 115.916667 L 516.307292 114.692708 L 515.958333 113.473958 L 515.614583 112.25 L 515.270833 111.03125 L 514.932292 109.807292 L 514.59375 108.588542 L 514.255208 107.364583 L 513.916667 106.145833 L 513.583333 104.921875 L 513.255208 103.703125 L 512.927083 102.479167 L 512.609375 101.255208 L 512.302083 100.036458 L 512.015625 98.8125 L 511.75 97.59375 L 511.515625 96.369792 L 511.3125 95.151042 L 511.145833 93.927083 L 511.015625 92.708333 L 510.911458 91.484375 L 510.838542 90.265625 L 510.791667 89.041667 L 510.75 87.822917 L 510.697917 85.375 L 510.666667 84.15625 L 510.630208 82.932292 L 510.583333 81.713542 L 510.53125 80.489583 L 510.479167 79.270833 L 510.421875 78.046875 L 510.369792 76.828125 L 510.317708 75.604167 L 510.276042 74.385417 L 510.239583 73.161458 L 510.213542 71.9375 L 510.1875 70.71875 L 510.177083 69.494792 L 510.166667 68.276042 L 510.15625 67.052083 L 510.151042 65.833333 L 510.151042 62.166667 L 510.145833 60.947917 L 510.145833 58.5 L 510.145833 64.609375 L 510.140625 65.833333 L 510.135417 67.052083 L 510.130208 68.276042 L 510.119792 69.494792 L 510.104167 70.71875 L 510.083333 71.9375 L 510.057292 73.161458 L 510.020833 74.385417 L 509.979167 75.604167 L 509.927083 76.828125 L 509.875 78.046875 L 509.817708 79.270833 L 509.760417 80.489583 L 509.713542 81.713542 L 509.666667 82.932292 L 509.630208 84.15625 L 509.598958 85.375 L 509.572917 86.598958 L 509.541667 87.822917 L 509.505208 89.041667 L 509.453125 90.265625 L 509.380208 91.484375 L 509.28125 92.708333 L 509.151042 93.927083 L 508.984375 95.151042 L 508.78125 96.369792 L 508.546875 97.59375 L 508.28125 98.8125 L 507.994792 100.036458 L 507.6875 101.255208 L 507.369792 102.479167 L 507.041667 103.703125 L 506.713542 104.921875 L 506.375 106.145833 L 506.041667 107.364583 L 505.703125 108.588542 L 505.364583 109.807292 L 505.020833 111.03125 L 504.677083 112.25 L 504.333333 113.473958 L 503.989583 114.692708 L 503.635417 115.916667 L 503.276042 117.140625 L 502.890625 118.359375 L 502.473958 119.583333 L 502.015625 120.802083 L 501.489583 122.026042 L 500.895833 123.244792 L 500.223958 124.46875 L 499.479167 125.6875 L 498.671875 126.911458 L 497.807292 128.130208 L 496.916667 129.354167 L 496.015625 130.572917 L 495.125 131.796875 L 494.244792 133.020833 L 493.390625 134.239583 L 492.546875 135.463542 L 491.703125 136.682292 L 490.84375 137.90625 L 489.958333 139.125 L 489.020833 140.348958 L 488.026042 141.567708 L 486.973958 142.791667 L 485.864583 144.010417 L 484.708333 145.234375 L 483.5 146.458333 L 482.255208 147.677083 L 480.979167 148.901042 L 479.666667 150.119792 L 478.322917 151.34375 L 476.958333 152.5625 L 475.578125 153.786458 L 474.203125 155.005208 L 472.854167 156.229167 L 471.5625 157.447917 L 470.348958 158.671875 L 469.229167 159.890625 L 468.213542 161.114583 L 467.296875 162.338542 L 466.453125 163.557292 L 465.677083 164.78125 L 464.942708 166 L 464.244792 167.223958 L 463.598958 168.442708 L 463.03125 169.666667 L 462.567708 170.885417 L 462.255208 172.109375 L 462.114583 173.328125 L 462.161458 174.552083 L 462.380208 175.776042 L 462.744792 176.994792 L 463.192708 178.21875 L 463.666667 179.4375 L 464.114583 180.661458 L 464.505208 181.880208 L 464.817708 183.104167 L 465.067708 184.322917 L 465.302083 185.546875 L 465.572917 186.765625 L 465.942708 187.989583 L 466.46875 189.208333 L 467.192708 190.432292 L 468.135417 191.65625 L 469.307292 192.875 L 470.682292 194.098958 L 472.244792 195.317708 L 473.942708 196.541667 L 475.739583 197.760417 L 477.588542 198.984375 L 479.442708 200.203125 L 481.255208 201.427083 L 482.994792 202.645833 L 484.619792 203.869792 L 486.114583 205.09375 L 487.453125 206.3125 L 488.635417 207.536458 L 489.677083 208.755208 L 490.588542 209.979167 L 491.40625 211.197917 L 492.151042 212.421875 L 492.864583 213.640625 L 493.5625 214.864583 L 494.276042 216.083333 L 495.020833 217.307292 L 495.796875 218.526042 L 496.604167 219.75 L 497.4375 220.973958 L 498.291667 222.192708 L 499.151042 223.416667 L 500.005208 224.635417 L 500.828125 225.859375 L 501.619792 227.078125 L 502.359375 228.302083 L 503.036458 229.520833 L 503.645833 230.744792 L 504.192708 231.963542 L 504.666667 233.1875 L 505.083333 234.411458 L 505.442708 235.630208 L 505.760417 236.854167 L 506.041667 238.072917 L 506.296875 239.296875 L 506.536458 240.515625 L 506.765625 241.739583 L 506.984375 242.958333 L 507.197917 244.182292 L 507.40625 245.401042 L 507.8125 247.848958 L 508.005208 249.067708 L 508.192708 250.291667 L 508.369792 251.510417 L 508.541667 252.734375 L 508.708333 253.953125 L 508.869792 255.177083 L 509.020833 256.395833 L 509.166667 257.619792 L 509.307292 258.838542 L 509.442708 260.0625 L 509.5625 261.28125 L 509.671875 262.505208 L 509.765625 263.729167 L 509.84375 264.947917 L 509.90625 266.171875 L 509.947917 267.390625 L 509.96875 268.614583 L 509.979167 269.833333 L 509.973958 271.057292 L 509.963542 272.276042 L 509.953125 273.5 L 509.9375 274.71875 L 509.927083 275.942708 L 509.927083 278.385417 L 509.942708 279.609375 L 509.963542 280.828125 L 509.984375 282.052083 L 510.010417 283.270833 L 510.036458 284.494792 L 510.0625 285.713542 L 510.083333 286.9375 L 510.104167 288.15625 L 510.114583 289.380208 L 510.125 290.598958 L 510.135417 291.822917 L 510.140625 293.046875 L 510.145833 294.265625 Z M 510.145833 301.59375 " transform="matrix(0.75,0,0,0.75,0,0)"/>
<path style="fill:none;stroke-width:3;stroke-linecap:butt;stroke-linejoin:miter;stroke:rgb(60.000002%,60.000002%,60.000002%);stroke-opacity:1;stroke-miterlimit:10;" d="M 462.171875 174.598958 L 558.125 174.598958 " transform="matrix(0.75,0,0,0.75,0,0)"/>
</g>
</svg>
